<?xml version="1.0" encoding="UTF-8"?>
<svg width="160px" height="160px" viewBox="0 0 160 160" version="1.1" xmlns="http://www.w3.org/2000/svg" xmlns:xlink="http://www.w3.org/1999/xlink">
    <!-- Generator: Sketch 45.2 (43514) - http://www.bohemiancoding.com/sketch -->
    <title>icon-public-na</title>
    <desc>Created with Sketch.</desc>
    <defs>
        <path d="M21.6762991,100.397047 C8.23261676,87.0179149 0.269090909,68.2544642 0.269090909,46.5579071 C0.269090909,29.2139183 5.35880286,13.1756985 14.2693395,0.147961298 L136.624361,0.147961298 C144.841825,13.1756985 149.356364,29.2139183 149.356364,46.5579071 C149.356364,68.2544642 142.292773,87.0179149 129.754017,100.397047 L21.6762991,100.397047 L21.6762991,100.397047 Z" id="path-1"></path>
    </defs>
    <g id="Symbols" stroke="none" stroke-width="1" fill="none" fill-rule="evenodd">
        <g id="icon-public-na">
            <g id="Page-1-Copy-19" transform="translate(1.000000, 1.000000)">
                <path d="M158,78.5031447 C158,121.85829 122.629545,157.006289 79,157.006289 C35.3704545,157.006289 0,121.85829 0,78.5031447 C0,35.1479989 35.3704545,0 79,0 C122.629545,0 158,35.1479989 158,78.5031447 Z" id="Stroke-1" stroke="#9B9B9B" stroke-width="1.5" fill="#FFFFFF"></path>
                <g id="Group-8" transform="translate(3.636364, 32.574412)">
                    <mask id="mask-2" fill="white">
                        <use xlink:href="#path-1"></use>
                    </mask>
                    <g id="Clip-4"></g>
                    <polygon id="Fill-3" fill="#9B9B9B" mask="url(#mask-2)" points="-8.27272727 100.397047 155.363636 100.397047 155.363636 93.2184952 -8.27272727 93.2184952"></polygon>
                    <path d="M40.4985455,46.6982478 C40.6076364,50.8115581 40.7603636,54.8853864 41.7021818,58.183931 C44.5130909,56.3354539 47.9021818,55.0612609 50.9312727,53.4353189 C50.2149091,50.7002906 48.4730909,47.792977 49.3312727,44.7133782 C46.2512727,45.2481803 44.3785455,46.960265 40.4985455,46.6982478 M23.2367273,55.4165992 C26.1385455,57.8608962 29.6621818,61.6511717 32.4694545,64.1241828 C33.3167273,64.8743415 34.4585455,66.5900154 35.2767273,65.7178214 C35.6694545,59.2248211 36.5530909,53.2379087 36.884,46.6982478 C32.6694545,46.9064258 30.4985455,45.0794843 27.2549091,44.3221471 C27.5712727,49.6558112 25.6112727,52.7389993 23.2367273,55.4165992 M33.2767273,96.6609698 C33.084,88.43076 33.8730909,79.1129994 34.8803636,72.0528935 C31.0185455,66.4823372 26.1567273,61.9095995 22.4403636,56.2026507 C2.90945455,68.1082792 -6.40327273,32.3267867 17.2221818,34.4157453 C10.4112727,19.8073919 20.2149091,2.23070734 35.2767273,0.346337431 C52.9349091,-1.85747804 67.9894545,14.6172988 59.764,34.0173357 C76.6803636,32.9800349 77.2076364,58.8048758 60.5712727,58.183931 C57.0803636,58.0583064 55.3276364,56.7625777 52.5385455,54.61978 C49.0294545,57.49479 44.9058182,59.7668018 41.7021818,62.9397217 C42.6330909,73.1081407 44.0730909,84.0123612 43.7094545,95.4621517" id="Fill-5" fill="#9B9B9B" mask="url(#mask-2)"></path>
                    <path d="M81.0490909,63.4386311 C81.1181818,66.116231 81.22,68.7651167 81.8309091,70.9115038 C83.66,69.705507 85.8636364,68.8799735 87.8418182,67.8211371 C87.3727273,66.0408562 86.2418182,64.1493078 86.7945455,62.1429025 C84.7909091,62.4910622 83.5727273,63.6073271 81.0490909,63.4386311 M69.8127273,69.1060979 C71.7036364,70.6997365 73.9945455,73.1691584 75.8236364,74.7807433 C76.3763636,75.2652956 77.1181818,76.3779711 77.6527273,75.8108655 C77.9036364,71.5898769 78.4818182,67.6919232 78.6963636,63.4386311 C75.9509091,63.5642558 74.54,62.383384 72.4272727,61.8880639 C72.6381818,65.3588938 71.3581818,67.3688883 69.8127273,69.1060979 M76.3436364,94.6330289 C76.2272727,89.2742398 76.7327273,84.5328062 77.3909091,79.9385329 C74.8745455,76.3169534 71.7109091,73.3414436 69.2927273,69.6229537 C56.58,77.3686113 50.5181818,54.0849778 65.8963636,55.4381349 C61.4636364,45.9301427 67.8454545,34.4911201 77.6527273,33.267177 C89.1436364,31.8350559 98.94,42.5598126 93.5836364,55.1832963 C104.598182,54.5085124 104.936364,71.3135027 94.1072727,70.9115038 C91.8418182,70.8325397 90.6927273,69.9854705 88.8818182,68.5928315 C86.5945455,70.4628443 83.9181818,71.941626 81.8309091,74.0054597 C82.4381818,80.6240846 83.3763636,88.951205 83.1327273,96.4097205" id="Fill-6" fill="#9B9B9B" mask="url(#mask-2)"></path>
                    <path d="M114.838182,52.2361418 C114.936364,56.0479529 115.078182,59.8238712 115.950909,62.8819344 C118.550909,61.1662605 121.7,59.9817994 124.507273,58.481482 C123.849091,55.9438639 122.227273,53.2519069 123.02,50.3984324 C120.172727,50.8901633 118.434545,52.4802125 114.838182,52.2361418 M98.8418182,60.3120128 C101.529091,62.5840245 104.790909,66.0979257 107.394545,68.3878838 C108.18,69.0770248 109.241818,70.6742526 110.001818,69.859487 C110.361818,63.8438604 111.18,58.2912504 111.485455,52.2361418 C107.58,52.4263734 105.569091,50.7358244 102.565455,50.0359156 C102.86,54.9819379 101.038182,57.8318231 98.8418182,60.3120128 M108.14,96.6677895 C107.969091,89.0333994 108.696364,82.2819712 109.627273,75.7315425 C106.049091,70.5701636 101.54,66.3384072 98.0963636,61.0478144 C79.9981818,72.0812488 71.3654545,38.9163385 93.2563636,40.8509583 C86.9509091,27.3122092 96.0381818,11.0168961 110.001818,9.27250794 C126.361818,7.23020989 140.318182,22.5025793 132.692727,40.4848521 C148.38,39.5193369 148.856364,63.4526293 133.434545,62.8819344 C130.201818,62.7634883 128.58,61.5610808 125.994545,59.5762112 C122.743636,62.2430433 118.921818,64.346359 115.950909,67.2895653 C116.82,76.7150041 118.154545,85.6810156 117.809091,96.2945048" id="Fill-7" fill="#9B9B9B" mask="url(#mask-2)"></path>
                </g>
            </g>
        </g>
    </g>
</svg>