<?xml version="1.0" encoding="UTF-8"?>
<svg width="160px" height="160px" viewBox="0 0 160 160" version="1.1" xmlns="http://www.w3.org/2000/svg" xmlns:xlink="http://www.w3.org/1999/xlink">
    <!-- Generator: Sketch 45.2 (43514) - http://www.bohemiancoding.com/sketch -->
    <title>icon-circulations-na</title>
    <desc>Created with Sketch.</desc>
    <defs></defs>
    <g id="Symbols" stroke="none" stroke-width="1" fill="none" fill-rule="evenodd">
        <g id="icon-circulations-na">
            <g id="Page-1-Copy-17" transform="translate(2.000000, 2.000000)">
                <path d="M158,79 C158,122.629545 122.629545,158 79,158 C35.3704545,158 0,122.629545 0,79 C0,35.3704545 35.3704545,0 79,0 C94.9740087,0 109.840887,4.74140549 122.270025,12.8936057 C143.788385,27.0073748 158,51.3444633 158,79 Z" id="Stroke-1" stroke="#9B9B9B" stroke-width="1.5" fill="#FFFFFF"></path>
                <path d="M62.4623847,28.3358549 C64.0337074,29.7107864 63.5998619,33.0773732 63.643611,35.9687199 C65.8091926,36.6543717 69.2434988,36.070298 71.9085496,36.2661985 C73.2720639,33.0084453 71.0299213,31.8983423 72.495517,29.2137795 C73.8881974,26.6743282 88.9816449,26.8919955 90.4909897,28.9235565 C91.748777,30.6249889 90.7607759,33.4655465 91.0816028,35.9687199 C93.3711403,36.6253494 96.8710702,36.0884369 99.6309107,36.2661985 C99.7402835,33.3276906 99.12415,29.6817641 100.815783,28.3358549 C105.197987,27.378119 113.255117,27.378119 117.637321,28.3358549 C119.277913,29.6382307 118.745632,33.1027678 118.811256,35.9687199 C121.749738,37.0026393 126.244961,35.3592516 128.25742,36.8502723 C130.346441,38.4029653 129.435001,44.5085317 129.435001,47.4180173 L129.435001,70.6068352 C129.435001,74.4268955 130.080301,80.7174791 128.25742,82.0597605 C126.613183,83.2678137 112.978039,83.5906868 111.144222,81.7695375 C109.678626,80.3147947 110.229136,76.9808579 109.962995,75.6022987 C107.622417,63.3186101 94.9096511,53.8791069 77.8073897,55.3447331 C65.6742995,56.3822803 55.3312776,65.0236702 53.3188179,75.3084479 C53.0344486,76.7631907 53.5120432,80.4018616 52.1375916,81.7695375 C50.6209553,83.2786971 36.9056051,83.4419475 35.0280386,82.0597605 C32.3556963,80.0971274 33.8431665,63.7539446 33.8431665,59.4550164 L33.8431665,47.4180173 C33.8431665,44.8531716 33.2233873,38.1707869 35.0280386,36.8502723 C37.0842474,35.3411127 40.4529299,36.7595776 44.4669119,36.2661985 C44.6346169,32.0289426 43.4789109,28.6841225 47.1246712,27.7481534 C51.233443,26.6924672 58.5687127,28.1000487 62.4623847,28.3358549" id="Fill-3" fill="#9B9B9B"></path>
                <path d="M67.9165736,61.6136853 C73.3554303,62.5175585 87.7936509,59.3302162 93.7883827,61.6136853 C95.7684608,62.3675228 97.3016589,66.2281957 98.7876257,68.7202509 C108.063111,84.2434494 115.747267,97.3258243 125.248009,113.141775 C126.777573,115.685062 129.229964,118.887042 128.481531,121.133917 C127.257152,124.80796 111.794377,123.205141 105.545323,123.205141 L56.1559998,123.205141 C50.3828914,123.205141 34.4841361,124.818938 33.5140795,121.133917 C32.9327722,118.912658 35.5159566,115.45452 37.0455215,112.841704 C47.6144153,94.7678998 57.0679257,79.37644 67.9165736,61.6136853" id="Fill-5" fill="#9B9B9B"></path>
                <path d="M83.0506329,74.3691139 C83.0506329,75.2491139 82.276962,75.9620253 81.3129114,75.9620253 L80.7377215,75.9620253 C79.7736709,75.9620253 79,75.2491139 79,74.3691139 L79,66.4119831 C79,65.5319831 79.7736709,64.8227848 80.7377215,64.8227848 L81.3129114,64.8227848 C82.276962,64.8227848 83.0506329,65.5319831 83.0506329,66.4119831 L83.0506329,74.3691139 Z" id="Fill-7" fill="#FEFEFE"></path>
                <path d="M83.0506329,95.6312236 C83.0506329,96.5112236 82.276962,97.2278481 81.3129114,97.2278481 L80.7377215,97.2278481 C79.7736709,97.2278481 79,96.5112236 79,95.6312236 L79,87.681519 C79,86.801519 79.7736709,86.0886076 80.7377215,86.0886076 L81.3129114,86.0886076 C82.276962,86.0886076 83.0506329,86.801519 83.0506329,87.681519 L83.0506329,95.6312236 Z" id="Fill-9" fill="#FEFEFE"></path>
                <path d="M83.0506329,113.862785 C83.0506329,114.742785 82.276962,115.455696 81.3129114,115.455696 L80.7377215,115.455696 C79.7736709,115.455696 79,114.742785 79,113.862785 L79,105.905654 C79,105.025654 79.7736709,104.316456 80.7377215,104.316456 L81.3129114,104.316456 C82.276962,104.316456 83.0506329,105.025654 83.0506329,105.905654 L83.0506329,113.862785 Z" id="Fill-11" fill="#FEFEFE"></path>
            </g>
        </g>
    </g>
</svg>