<?xml version="1.0" encoding="utf-8"?>
<!-- Generator: Adobe Illustrator 21.1.0, SVG Export Plug-In . SVG Version: 6.00 Build 0)  -->
<svg version="1.1" id="Layer_1" xmlns="http://www.w3.org/2000/svg" xmlns:xlink="http://www.w3.org/1999/xlink" x="0px" y="0px"
	 viewBox="0 0 100 108" style="enable-background:new 0 0 100 108;" xml:space="preserve">
<style type="text/css">
	.st0{enable-background:new    ;}
	.st1{fill:#4A4A4A;}
	.st2{fill:url(#SVGID_1_);}
</style>
<g>
	<title>Group 6</title>
	<desc>Created with Sketch.</desc>
	<g id="Group-10-Copy" transform="translate(496.000000, 72.000000)">
		<g id="Group-6">
			<g class="st0">
				<path class="st1" d="M-480.5,34.4v-6.5c0-0.3,0-0.7-0.1-1s-0.1-0.6-0.3-0.8c-0.1-0.2-0.3-0.4-0.5-0.5c-0.2-0.1-0.5-0.2-0.9-0.2
					c-0.3,0-0.6,0.1-0.9,0.2c-0.2,0.1-0.5,0.3-0.6,0.6c-0.1,0.3-0.3,0.5-0.4,0.8c-0.1,0.3-0.1,0.6-0.1,1v6.5h-3.8v-6.8
					c0-0.7-0.1-1.2-0.4-1.6s-0.7-0.6-1.3-0.6c-0.6,0-1.1,0.2-1.5,0.7c-0.3,0.5-0.5,1.1-0.5,1.8v6.5h-4v-12h3.8v1.7l0,0
					c0.1-0.3,0.3-0.5,0.5-0.7s0.5-0.5,0.8-0.6c0.3-0.2,0.6-0.3,1-0.4c0.4-0.1,0.8-0.2,1.2-0.2c0.9,0,1.6,0.2,2.2,0.5
					c0.6,0.3,1.1,0.9,1.4,1.5c0.4-0.6,0.9-1.1,1.5-1.5s1.4-0.6,2.3-0.6c0.8,0,1.5,0.1,2.1,0.4s1,0.7,1.3,1.2c0.3,0.5,0.6,1,0.7,1.6
					c0.2,0.6,0.2,1.2,0.2,1.7v7.4L-480.5,34.4L-480.5,34.4z"/>
				<path class="st1" d="M-469.3,18.6c0,0.3-0.1,0.6-0.2,0.9s-0.3,0.5-0.5,0.7s-0.4,0.3-0.7,0.5c-0.3,0.1-0.6,0.2-0.9,0.2
					c-0.6,0-1.2-0.2-1.6-0.6c-0.4-0.4-0.6-0.9-0.6-1.5c0-0.3,0.1-0.6,0.2-0.8c0.1-0.3,0.3-0.5,0.5-0.7c0.2-0.2,0.4-0.3,0.7-0.5
					c0.3-0.1,0.6-0.2,0.9-0.2s0.6,0.1,0.9,0.2c0.3,0.1,0.5,0.3,0.7,0.5c0.2,0.2,0.4,0.4,0.5,0.7S-469.3,18.3-469.3,18.6z
					 M-473.5,34.4v-12h3.9v12H-473.5z"/>
				<path class="st1" d="M-466.4,34.4V16.3h4v18.1H-466.4z"/>
				<path class="st1" d="M-455.1,18.6c0,0.3-0.1,0.6-0.2,0.9c-0.1,0.3-0.3,0.5-0.5,0.7c-0.2,0.2-0.4,0.3-0.7,0.5
					c-0.3,0.1-0.6,0.2-0.9,0.2c-0.6,0-1.2-0.2-1.6-0.6s-0.6-0.9-0.6-1.5c0-0.3,0.1-0.6,0.2-0.8c0.1-0.3,0.3-0.5,0.5-0.7
					c0.2-0.2,0.4-0.3,0.7-0.5c0.3-0.1,0.6-0.2,0.9-0.2c0.3,0,0.6,0.1,0.9,0.2c0.3,0.1,0.5,0.3,0.7,0.5c0.2,0.2,0.4,0.4,0.5,0.7
					C-455.1,18.3-455.1,18.3-455.1,18.6z M-459.3,34.4v-12h4v12H-459.3z"/>
				<path class="st1" d="M-440.4,28.6c0,0.2,0,0.3,0,0.5s0,0.3,0,0.5h-8.7c0,0.3,0.1,0.6,0.3,0.9c0.2,0.3,0.4,0.5,0.6,0.7
					c0.3,0.2,0.6,0.4,0.9,0.5c0.3,0.1,0.7,0.2,1,0.2c0.6,0,1.2-0.1,1.6-0.3c0.4-0.2,0.8-0.5,1.1-0.9l2.7,1.7
					c-0.6,0.8-1.3,1.4-2.2,1.9c-0.9,0.4-2,0.7-3.2,0.7c-0.9,0-1.7-0.1-2.5-0.4c-0.8-0.3-1.5-0.7-2.1-1.2s-1.1-1.2-1.4-2
					c-0.3-0.8-0.5-1.7-0.5-2.7s0.2-1.9,0.5-2.7c0.3-0.8,0.8-1.5,1.4-2c0.6-0.6,1.3-1,2-1.3c0.8-0.3,1.6-0.5,2.5-0.5s1.7,0.1,2.4,0.4
					s1.4,0.7,1.9,1.3c0.5,0.6,0.9,1.2,1.2,2C-440.5,26.6-440.4,27.5-440.4,28.6z M-444,27.1c0-0.6-0.2-1.2-0.6-1.6s-1-0.7-1.8-0.7
					c-0.4,0-0.7,0.1-1.1,0.2c-0.3,0.1-0.6,0.3-0.8,0.5c-0.2,0.2-0.4,0.5-0.6,0.7s-0.2,0.6-0.2,0.9H-444z"/>
				<path class="st1" d="M-430.1,34.4v-1.7l0,0c-0.1,0.3-0.3,0.5-0.6,0.8c-0.2,0.2-0.5,0.4-0.8,0.6c-0.3,0.2-0.7,0.3-1,0.4
					c-0.4,0.1-0.8,0.2-1.2,0.2c-0.8,0-1.5-0.1-2-0.4c-0.6-0.3-1-0.7-1.3-1.1s-0.6-1-0.7-1.6c-0.2-0.6-0.2-1.2-0.2-1.8v-7.4h4v6.5
					c0,0.3,0,0.7,0.1,1c0,0.3,0.1,0.6,0.3,0.8c0.1,0.2,0.3,0.4,0.5,0.6c0.2,0.1,0.5,0.2,0.9,0.2c0.7,0,1.2-0.3,1.6-0.8
					c0.4-0.5,0.5-1.1,0.5-1.8v-6.5h3.7v12H-430.1z"/>
				<path class="st1" d="M-418.7,32.3c0,0.7-0.2,1.2-0.7,1.7c-0.5,0.4-1,0.7-1.7,0.7c-0.3,0-0.7-0.1-0.9-0.2
					c-0.3-0.1-0.6-0.3-0.8-0.5c-0.2-0.2-0.4-0.5-0.5-0.7c-0.1-0.3-0.2-0.6-0.2-0.9s0.1-0.6,0.2-0.9c0.1-0.3,0.3-0.5,0.5-0.8
					c0.2-0.2,0.5-0.4,0.8-0.5c0.3-0.1,0.6-0.2,0.9-0.2c0.7,0,1.2,0.2,1.7,0.7C-418.9,31.1-418.7,31.6-418.7,32.3z"/>
				<path class="st1" d="M-411.7,18.6c0,0.3-0.1,0.6-0.2,0.9s-0.3,0.5-0.5,0.7c-0.2,0.2-0.4,0.3-0.7,0.5c-0.3,0.1-0.6,0.2-0.9,0.2
					c-0.6,0-1.2-0.2-1.6-0.6c-0.4-0.4-0.6-0.9-0.6-1.5c0-0.3,0.1-0.6,0.2-0.8c0.1-0.3,0.3-0.5,0.5-0.7c0.2-0.2,0.4-0.3,0.7-0.5
					c0.3-0.2,0.6-0.2,0.9-0.2c0.3,0,0.6,0.1,0.9,0.2c0.3,0.1,0.5,0.3,0.7,0.5c0.2,0.2,0.4,0.4,0.5,0.7
					C-411.7,18.3-411.7,18.3-411.7,18.6z M-415.9,34.4v-12h3.9v12H-415.9z"/>
				<path class="st1" d="M-396.2,28.4c0,1-0.2,1.9-0.5,2.7c-0.4,0.8-0.8,1.5-1.4,2c-0.6,0.6-1.3,1-2.1,1.3c-0.8,0.3-1.7,0.5-2.6,0.5
					c-0.9,0-1.7-0.2-2.6-0.5c-0.8-0.3-1.5-0.7-2.1-1.3c-0.6-0.6-1.1-1.2-1.4-2c-0.4-0.8-0.5-1.7-0.5-2.7s0.2-1.9,0.5-2.6
					c0.4-0.8,0.8-1.4,1.4-2s1.3-1,2.1-1.2c0.8-0.3,1.7-0.4,2.6-0.4c0.9,0,1.8,0.1,2.6,0.4c0.8,0.3,1.5,0.7,2.1,1.2s1.1,1.2,1.4,2
					C-396.4,26.5-396.2,27.4-396.2,28.4z M-400,28.4c0-0.4-0.1-0.8-0.2-1.1c-0.1-0.4-0.3-0.7-0.6-1c-0.2-0.3-0.5-0.5-0.9-0.7
					c-0.4-0.2-0.8-0.3-1.2-0.3s-0.9,0.1-1.2,0.3c-0.4,0.2-0.6,0.4-0.9,0.7c-0.2,0.3-0.4,0.6-0.5,1c-0.1,0.4-0.2,0.7-0.2,1.1
					s0.1,0.8,0.2,1.1c0.1,0.4,0.3,0.7,0.5,1c0.2,0.3,0.5,0.5,0.9,0.7c0.4,0.2,0.8,0.3,1.2,0.3c0.5,0,0.9-0.1,1.2-0.3
					c0.4-0.2,0.6-0.4,0.9-0.7c0.2-0.3,0.4-0.6,0.5-1C-400.1,29.1-400,28.8-400,28.4z"/>
			</g>
		</g>
	</g>
	<g>
		<g>
			<linearGradient id="SVGID_1_" gradientUnits="userSpaceOnUse" x1="20.6442" y1="75.4946" x2="77.4207" y2="18.7182">
				<stop  offset="4.863280e-03" style="stop-color:#A3CEB1"/>
				<stop  offset="1" style="stop-color:#5791B5"/>
			</linearGradient>
			<path class="st2" d="M31.8,85.4c-0.3,0-1.2-0.1-1.7-0.5c-0.9-0.6-1.5-1.6-1.5-2.7V43.7c0-1.5,1.4-2.9,2.9-3l39.2,0
				c1.5,0,3,1.2,3,2.6v15.5c0,1.5-1.4,3-3,3c-1.5,0-3.1-1.5-3.1-3V46.8l-33.1,0v28.3l6.5-6.5c1-0.6,1.2-0.6,1.9-0.6h36.9l0-38.2
				L67.7,17.7L57.5,27.9c-1,1-2.7,1-3.7,0L34.3,8.6L19.1,23.7l0,38c-0.2,1.8-1.6,2.7-3.1,2.7c-1.8,0-3-1.5-3-3l0-38.8
				c-0.1-0.7,0.3-1.8,0.8-2.2L32.1,2c1.6-1.6,3.1-1.1,4.1-0.1l19.3,19.4l10.1-10.1c1.6-1.6,3.2-1.1,4.3,0.1l15.1,15
				c0.6,0.5,1,1.4,1,2.1l0,42.7c-0.1,1.5-0.9,2.1-1.4,2.5c-0.1,0-0.6,0.5-1.7,0.5l-38.3,0L34.5,84C33.1,85.4,32.5,85.4,31.8,85.4z"
				/>
		</g>
	</g>
</g>
</svg>
