<svg id="Calque_1" data-name="Calque 1" xmlns="http://www.w3.org/2000/svg" xmlns:xlink="http://www.w3.org/1999/xlink" viewBox="0 0 238.98929 235.32369"><defs><clipPath id="clip-path"><rect y="-0.0005" width="238.98929" height="235.32419" style="fill:none"/></clipPath><clipPath id="clip-path-3"><polyline points="238.989 235.324 0 235.324 0 0 238.989 0" style="fill:none"/></clipPath></defs><title>PORT AUTONOME quadri</title><rect y="202.38329" width="238.98929" height="32.9404" style="fill:#005daa"/><rect y="0.0278" width="238.98929" height="202.35739" style="fill:#00b9f2"/><g style="clip-path:url(#clip-path)"><path d="M96.4746,8.7861h16.9839c9.8403,0,13.2104,7.2114,13.2104,14.4229,0,9.9751-6.1337,14.49069-15.2998,14.49069h-5.1894V56.9082H96.4746Zm9.7051,21.7695h4.3135c3.8418,0,6.4702-2.2915,6.4702-7.21191,0-4.71779-1.8872-7.41359-6.7398-7.41359h-4.0439Z" style="fill:#fff"/><path d="M146.8184,7.8423c14.5586,0,16.3789,10.3793,16.3789,25.0048s-1.8203,25.0044-16.3789,25.0044c-14.5577,0-16.377-10.3789-16.377-25.0044S132.2607,7.8423,146.8184,7.8423Zm0,42.8652c5.7295,0,6.6738-4.9199,6.6738-17.8604,0-12.873-.9443-17.8603-6.6738-17.8603-5.7286,0-6.6709,4.9873-6.6709,17.8603C140.1475,45.7876,141.0898,50.7075,146.8184,50.7075Z" style="fill:#fff"/><path d="M168.9258,8.7861h17.9267c7.9541,0,12.8057,4.1787,12.8057,12.4009,0,6.4028-2.5605,10.7163-8.0195,11.8623v.1348c6.6054.8759,7.6152,4.51559,7.7509,14.6928.0665,5.0547.337,7.6831,2.1553,8.627v.4043H191.0313a9.38607,9.38607,0,0,1-1.2129-5.0547l-.2696-9.2339c-.1338-3.7739-1.8203-6.0654-5.7295-6.0654h-5.1884v20.354h-9.7051Zm9.7051,21.0278h4.0429c4.6504,0,7.2793-2.0215,7.2793-7.2114,0-4.4482-2.3593-6.6724-6.7392-6.6724h-4.583Z" style="fill:#fff"/><path d="M233.35639,8.7861v7.95259h-10.5136V56.9082h-9.7061V16.73869H202.623V8.7861Z" style="fill:#fff"/></g><path d="M109.686,81.20069c0,.871.4317,1.6542,1.0069,1.6542a1.37173,1.37173,0,0,0,.6474-.1303v3.0473a4.00541,4.00541,0,0,1-1.9062.566,2.961,2.961,0,0,1-3.273-3.0909h-.0717c-1.043,2.3072-2.5533,3.439-4.8194,3.439-3.0928,0-5.0351-2.0894-5.0351-6.5732,0-5.2242,1.8701-6.3125,4.4956-7.3575l3.021-1.0009c1.4028-.479,2.2661-.958,2.2661-3.0039,0-2.1333-.6113-3.483-2.6616-3.483-2.5894,0-2.9493,2.2203-2.9493,4.4839H96.7388c0-4.9624,1.6899-7.705,6.7973-7.705,3.4165,0,6.1499,1.6108,6.1499,5.746Zm-3.6684-7.4874c-1.0073.9576-3.1651,1.5235-4.3159,2.1763-1.1148.6533-1.5826,2.0464-1.5826,3.7876,0,1.959.7915,3.5264,2.4097,3.5264,2.3379,0,3.4888-2.1333,3.4888-5.5723Z" style="fill:#fff"/><path d="M123.5322,83.334h-.1084a5.43574,5.43574,0,0,1-4.9624,3.352c-2.8769,0-4.8193-1.6108-4.8193-7.6616V62.65569h3.8843V79.4594c0,2.6123.9712,3.483,2.6259,3.483,1.6543,0,3.1641-1.3062,3.1641-3.918V62.65569h3.8848V86.0766h-3.669Z" style="fill:#fff"/><path d="M129.2148,62.65569h2.6622V55.9951h3.8837v6.6606h3.1651v3.4825h-3.1651V80.1128c0,1.8281.4307,2.4814,1.7618,2.4814a6.15882,6.15882,0,0,0,1.4033-.1309v3.483a10.75684,10.75684,0,0,1-3.1289.3916c-2.627,0-3.9199-.8706-3.9199-5.6592V66.1382h-2.6622Z" style="fill:#fff"/><path d="M147.377,62.0464c5.6464,0,7.2294,5.0498,7.2294,12.3198S152.7725,86.686,147.377,86.686c-5.3584,0-7.1915-5.0498-7.1915-12.3198S141.7676,62.0464,147.377,62.0464Zm0,21.1572c2.8418,0,3.3457-2.8736,3.3457-8.8374,0-5.1807-.5039-8.8374-3.3457-8.8374-2.8038,0-3.3086,3.6567-3.3086,8.8374C144.0684,80.33,144.5732,83.2036,147.377,83.2036Z" style="fill:#fff"/><path d="M157.5908,62.65569h3.6699v2.7427h.1075a5.43589,5.43589,0,0,1,4.9629-3.352c2.9492,0,4.8193,1.6108,4.8193,6.3559V86.0766h-3.8848V70.01269c0-3.0474-.7549-4.2227-2.6972-4.2227-1.583,0-3.0938,1.5239-3.0938,4.5713V86.0766h-3.8838Z" style="fill:#fff"/><path d="M181.3281,62.0464c5.6465,0,7.2295,5.0498,7.2295,12.3198s-1.834,12.3198-7.2295,12.3198c-5.3584,0-7.1924-5.0498-7.1924-12.3198S175.7188,62.0464,181.3281,62.0464Zm0,21.1572c2.8418,0,3.3448-2.8736,3.3448-8.8374,0-5.1807-.503-8.8374-3.3448-8.8374-2.8047,0-3.3086,3.6567-3.3086,8.8374C178.0195,80.33,178.5234,83.2036,181.3281,83.2036Z" style="fill:#fff"/><path d="M191.7227,62.65569h3.6679v2.7427h.1074a5.36016,5.36016,0,0,1,4.64069-3.352c2.7685,0,3.9189,1.6108,4.4941,3.5698,1.11521-2.2642,2.5547-3.5698,4.8916-3.5698,2.7334,0,4.7119,1.6977,4.7119,6.2251V86.0766h-3.8838V70.01269c0-3.0474-.7548-4.2227-2.3379-4.2227s-3.0927,1.5239-3.0927,4.5713V86.0766h-3.8848V70.01269c0-3.0474-.7558-4.2227-2.373-4.2227-1.5469,0-3.0577,1.5239-3.0577,4.5713V86.0766h-3.8837Z" style="fill:#fff"/><path d="M221.502,74.9756v1.3496c0,3.1342.32419,7.1396,3.23729,7.1396,2.7675,0,3.0918-3.831,3.0918-5.2241H231.499c0,5.1802-2.58881,8.4453-6.79691,8.4453-3.165,0-7.0839-1.1318-7.0839-11.9717,0-6.1382,1.0771-12.6679,7.1552-12.6679,5.3955,0,6.834,3.9179,6.834,10.4477v2.4815Zm6.22069-3.2212v-1.2627c0-2.9605-.7911-5.2242-2.9834-5.2242-2.4834,0-3.23729,2.9605-3.23729,6.0079v.479Z" style="fill:#fff"/><g style="clip-path:url(#clip-path)"><path d="M5.10547,209.70649H8.55811l7.14839,16.48732h.0606V209.70649h2.6655v19.752h-3.665L7.83154,213.46819H7.771v15.99027H5.10547Z" style="fill:#fff"/><path d="M27.7959,214.24359c4.6948,0,5.8457,3.624,5.8457,7.8008,0,4.17774-1.1812,7.80176-5.8457,7.80176-4.6948,0-5.8457-3.624-5.8457-7.80176C21.9502,217.86759,23.1313,214.24359,27.7959,214.24359Zm3.1802,7.8008c0-3.209-.5147-5.9756-3.2407-5.9756-2.5748,0-3.1197,2.7666-3.1197,5.9756s.5147,5.97559,3.1197,5.97559C30.4312,228.02,30.9761,225.25339,30.9761,222.04439Z" style="fill:#fff"/><path d="M47.7896,229.45846H45.3662v-1.74317h-.0605a4.415,4.415,0,0,1-3.9375,2.13086c-4.2705,0-4.2705-2.96094-4.2705-4.70316v-10.5127h2.5439v10.2364c0,1.13376.0908,2.98727,2.3931,2.98727a3.015,3.015,0,0,0,3.2104-2.98727v-10.2364h2.5445Z" style="fill:#fff"/><path d="M50.6704,214.63029H53.457l3.0288,11.89555h.0606l3.0293-11.89555h2.7861l-4.3916,14.82817H55.0625Z" style="fill:#fff"/><path d="M67.3623,222.32079c0,2.2685,0,5.69919,3.1196,5.69919,2.4234,0,2.7564-2.32422,2.7564-3.43069h2.5444a5.20028,5.20028,0,0,1-5.4521,5.25686c-3.9678,0-5.6338-2.51758-5.6338-7.60836,0-3.7071.7876-7.9942,5.7851-7.9942,4.9673,0,5.4219,3.9551,5.4219,7.1367v.9405Zm5.876-1.8252v-.8028c0-1.6601-.5757-3.624-2.8169-3.624-2.6655,0-2.9683,2.9883-2.9683,3.8731v.5537Z" style="fill:#fff"/><path d="M79.7534,209.70649h2.544v19.752h-2.544Z" style="fill:#fff"/><path d="M86.812,209.70649h2.544v19.752H86.812Z" style="fill:#fff"/><path d="M95.8701,222.32079c0,2.2685,0,5.69919,3.1196,5.69919,2.4234,0,2.7564-2.32422,2.7564-3.43069h2.5444a5.20028,5.20028,0,0,1-5.4521,5.25686c-3.9678,0-5.6338-2.51758-5.6338-7.60836,0-3.7071.7876-7.9942,5.7851-7.9942,4.9673,0,5.4219,3.9551,5.4219,7.1367v.9405Zm5.876-1.8252v-.8028c0-1.6601-.5757-3.624-2.8169-3.624-2.6655,0-2.9683,2.9883-2.9683,3.8731v.5537Z" style="fill:#fff"/><path d="M108.0796,220.52289h7.3901v2.1582h-7.3901Z" style="fill:#fff"/><path d="M133.0098,222.68109c-.2422,3.7344-1.8487,7.16506-6.5733,7.16506-6.1474,0-6.9663-5.28416-6.9663-10.26366s.9995-10.2637,6.9663-10.2637c4.4229,0,6.2696,2.2686,6.3906,6.1416H130.041c-.0596-2.2412-.8476-4.1494-3.6045-4.1494-3.6943,0-4.1797,3.707-4.1797,8.2715s.4854,8.27147,4.1797,8.27147c3.2412,0,3.6953-2.76657,3.7862-5.17287Z" style="fill:#fff"/><path d="M135.9219,219.11179c0-3.375,1.5732-4.8682,5.4511-4.8682,4.9375,0,4.9375,2.711,4.9375,4.2598v8.27147c0,.6084,0,1.18945.7872,1.18945a.977.977,0,0,0,.6054-.13769v1.65918a9.96283,9.96283,0,0,1-1.4843.13867c-.9698,0-2.1797,0-2.3008-1.90918h-.0616a4.68176,4.68176,0,0,1-3.9072,2.13086c-3.0293,0-4.4219-1.66016-4.4219-4.31641a3.87208,3.87208,0,0,1,3.0586-4.09375l3.4239-.9404c1.8466-.5264,1.8466-.9961,1.8466-2.2412,0-1.3828-.9082-2.1856-2.6044-2.1856a2.59608,2.59608,0,0,0-2.7872,2.9053v.1377Zm7.8437,2.2685c-.9385.9131-3.1806,1.1065-4.331,1.7432a2.3127,2.3127,0,0,0-1.2412,2.35157c0,1.49316.5752,2.54492,2.3007,2.54492a3.19243,3.19243,0,0,0,3.2715-2.82229Z" style="fill:#fff"/><path d="M150.8271,209.70649h2.543v19.752h-2.543Z" style="fill:#fff"/><path d="M159.8848,222.32079c0,2.2685,0,5.69919,3.1191,5.69919,2.4229,0,2.7568-2.32422,2.7568-3.43069h2.544a5.2,5.2,0,0,1-5.4522,5.25686c-3.9677,0-5.6337-2.51758-5.6337-7.60836,0-3.7071.7871-7.9942,5.7851-7.9942,4.9668,0,5.4219,3.9551,5.4219,7.1367v.9405Zm5.8759-1.8252v-.8028c0-1.6601-.5752-3.624-2.8173-3.624-2.6661,0-2.9688,2.9883-2.9688,3.8731v.5537Zm-2.333-11.8408h2.9688l-3.2715,3.9287h-1.8174Z" style="fill:#fff"/><path d="M182.8145,229.45846h-2.4219v-1.82618h-.0615a3.67446,3.67446,0,0,1-3.5127,2.21387c-3.8477,0-5.2998-3.126-5.2998-7.80176,0-3.0986.5449-7.8008,5.1171-7.8008a3.97908,3.97908,0,0,1,3.5743,2.0742h.0615v-6.6113h2.543Zm-5.6631-1.6045c2.8174,0,3.2715-2.43457,3.2715-5.80957,0-2.877-.5459-5.8096-3.2715-5.8096-2.3623,0-2.9688,2.2686-2.9688,5.8096S174.7891,227.854,177.1514,227.854Z" style="fill:#fff"/><path d="M192.1182,214.24359c4.6953,0,5.8457,3.624,5.8457,7.8008,0,4.17774-1.1817,7.80176-5.8457,7.80176-4.6953,0-5.8457-3.624-5.8457-7.80176C186.2725,217.86759,187.4531,214.24359,192.1182,214.24359Zm3.1797,7.8008c0-3.209-.5147-5.9756-3.2413-5.9756-2.5742,0-3.1181,2.7666-3.1181,5.9756s.5136,5.97559,3.1181,5.97559C194.7529,228.02,195.2979,225.25339,195.2979,222.04439Z" style="fill:#fff"/><path d="M201.41889,214.63029h2.4239v1.7432h.0595a4.41367,4.41367,0,0,1,3.9375-2.1299c4.2706,0,4.2706,2.96,4.2706,4.7022v10.51267h-2.544V219.22309c0-1.1348-.0898-2.9883-2.3926-2.9883a3.01456,3.01456,0,0,0-3.2099,2.9883v10.23537h-2.545Z" style="fill:#fff"/><path d="M216.50589,209.70649h2.5449v2.6553h-2.5449Zm0,4.9238h2.5449v14.82817h-2.5449Z" style="fill:#fff"/><path d="M225.56449,222.32079c0,2.2685,0,5.69919,3.121,5.69919,2.4219,0,2.7549-2.32422,2.7549-3.43069h2.545a5.20026,5.20026,0,0,1-5.4532,5.25686c-3.9677,0-5.6328-2.51758-5.6328-7.60836,0-3.7071.7881-7.9942,5.7861-7.9942,4.9668,0,5.4209,3.9551,5.4209,7.1367v.9405Zm5.8759-1.8252v-.8028c0-1.6601-.5752-3.624-2.81639-3.624-2.665,0-2.96771,2.9883-2.96771,3.8731v.5537Z" style="fill:#fff"/></g><g style="clip-path:url(#clip-path-3)"><path d="M2.41943,101.6494C4.915,117.8574,14.876,133.1919,28.687,143.10589c.166-.1855-.1699-27.0078,0-40.2807C38.79,91.5503,58.1714,81.7314,59.769,64.5473c7.7481-.9101,13.8101-3.2739,18.1031-11.3672,4.041-6.3627,3.791-16.3647.2539-22.9121-4.5469-8.6357-13.2178-12.5459-22.0596-12.1826-8.4204,1.272-16.418,8.3628-18.6084,17.2769,0,.998-.8408,2.0888,0,2.999,8.4224,1.8159,16.5044,8.2729,19.0303,17.457a27.04815,27.04815,0,0,1-5.0532,22.2759c-7.9981,7.273-16.1661,15.0938-24.418,22.001-7.6597,5.0942-18.356,3.9111-25.50978-1.4531C-5.90283,92.7334-9.438,83.0044-7.75488,72.8213-4.38672,56.9091,11.5273,50.9961,21.9663,41.1801c1.854-1.0029,2.4009-1.8178,4.4199-2.3637V51.9082C19.6504,57.456,11.4434,63.5464,5.126,69.3652A14.5009,14.5009,0,0,0,2.937,82.9111,13.38353,13.38353,0,0,0,13.6323,92.2783c6.231.9097,11.5181-3.5469,15.0547-8.2739.252-23.459.334-46.0093,0-69.3741,3.0293-3.728,9.7813-3.5449,14.2442-5.2749,15.0698-3.8193,32.121-1,45.6782,4.3628V143.37549c13.0508-9.4551,23.6006-25.2203,25.3667-41.7691h24.1313c5.5576,11.272,11.0781,23.4038,12.3418,36.3159-17.2597,40.2774-56.916,63.5528-96.8232,61.461-36.1206-1.8184-72.7466-27.0938-86.8916-64.7344a101.32673,101.32673,0,0,1,11.478-32.9995ZM38.7222,49.9072a20.952,20.952,0,0,0,7.6621,10.2749c-.8423-4.2739-3.3692-9.186-7.6621-10.2749" style="fill:#005daa"/><path d="M.16943,100.1494C2.665,116.3574,12.626,131.6919,26.437,141.60589c.166-.1855-.1699-27.0078,0-40.2807C36.54,90.0503,55.9214,80.2314,57.519,63.0473c7.7481-.9101,13.8101-3.2739,18.1031-11.3672,4.041-6.3627,3.791-16.3647.2539-22.9121-4.5469-8.6357-13.2178-12.5459-22.0596-12.1826-8.4204,1.272-16.418,8.3628-18.6084,17.2769,0,.998-.8408,2.0888,0,2.999,8.4224,1.8159,16.5044,8.2729,19.0303,17.457a27.04815,27.04815,0,0,1-5.0532,22.2759c-7.9981,7.273-16.1661,15.0938-24.418,22.001-7.6597,5.0942-18.356,3.9111-25.50978-1.4531C-8.15283,91.2334-11.688,81.5044-10.0049,71.3213-6.63672,55.4091,9.27734,49.4961,19.7163,39.6801c1.854-1.0029,2.4009-1.8178,4.4199-2.3637V50.4082C17.4004,55.956,9.19336,62.0464,2.876,67.8652A14.50088,14.50088,0,0,0,.687,81.4111,13.38353,13.38353,0,0,0,11.3823,90.7783c6.231.9097,11.5181-3.5469,15.0547-8.2739.252-23.459.334-46.0093,0-69.3741,3.0293-3.728,9.7813-3.5449,14.2442-5.2749,15.0698-3.8193,32.121-1,45.6782,4.3628V141.87549c13.0508-9.4551,23.6006-25.2203,25.3667-41.7691h24.1313c5.5576,11.272,11.0781,23.4038,12.3418,36.3159-17.2597,40.2774-56.916,63.5528-96.8232,61.461-36.1206-1.8184-72.7466-27.0938-86.8916-64.7344a101.32673,101.32673,0,0,1,11.478-32.9995ZM36.4722,48.4072a20.952,20.952,0,0,0,7.6621,10.2749c-.8423-4.2739-3.3692-9.186-7.6621-10.2749" style="fill:#fff"/></g><path d="M191.6523,111.9091c2.7012,2.8072,10.2784,2.8072,8.3868,8.4283-4.6006,2.3379-12.4453,1.4033-12.9873,7.7217-2.9795,1.1699-7.3038,3.0429-10.2823.705-7.3047-.2363-1.3506-7.9599-7.8427-9.1318-1.625-4.4482,4.8671-6.5532,7.0293-10.063,1.6279-.2363,2.9755.4668,3.249,1.6406,2.165,6.5513-8.6572,2.3384-5.6826,9.1275,4.0615,3.041,9.1982,1.6377,12.1757-1.1719,2.1661-3.5122-4.5986-10.2993,3.2461-11.2363a34.80566,34.80566,0,0,1,2.708,3.9799" style="fill:#005daa"/><path d="M180.25582,130.26218a5.86081,5.86081,0,0,1-3.62012-1.12793c-3.98437-.17676-4.252-2.6084-4.48828-4.75684-.22852-2.07129-.42578-3.85937-3.28711-4.376l-.21191-.03809-.07422-.20215c-1.13965-3.11963,1.35156-5.14648,3.76074-7.10693a14.84493,14.84493,0,0,0,3.30176-3.28174l.0918-.14893.17383-.02539c1.7998-.26367,3.34668.54785,3.668,1.92676a3.70577,3.70577,0,0,1,.00293,2.93018c-.60352,1.15527-1.97754,1.564-3.30664,1.959-1.209.35938-2.35059.69922-2.74023,1.53711a3.23329,3.23329,0,0,0,.2998,2.54492c3.80859,2.7832,8.68652,1.5332,11.57813-1.16895.707-1.20264.25488-2.936-.18262-4.61279-.47266-1.80957-.96094-3.68066-.03418-5.04.63574-.93311,1.85059-1.49512,3.71191-1.71777l.21191-.0249.12988.16846a34.93192,34.93192,0,0,1,2.71191,3.98047,11.94969,11.94969,0,0,0,3.67676,2.082c2.874,1.23486,6.13086,2.63379,4.76465,6.69385l-.04883.14551-.13672.06934a22.77832,22.77832,0,0,1-4.98828,1.57617c-3.82812.90332-7.44434,1.75586-7.79492,5.84375l-.02051.23145-.62207.24512A18.73443,18.73443,0,0,1,180.25582,130.26218Zm-11.04395-10.95605c3.20508.6748,3.458,2.96387,3.68066,4.98926.24512,2.22461.43945,3.98242,3.88867,4.09375l.123.00391.09668.07617c2.67578,2.09961,6.624.541,9.50684-.59863l.19336-.07617c.51172-4.42773,4.49414-5.36816,8.34766-6.27637a23.26226,23.26226,0,0,0,4.68262-1.44629c1.02441-3.291-1.49121-4.37109-4.39746-5.61963a12.22145,12.22145,0,0,1-3.95215-2.28271l-.05371-.07227a33.79923,33.79923,0,0,0-2.5498-3.76855,4.08728,4.08728,0,0,0-2.97168,1.36865c-.73437,1.07715-.30957,2.70459.14063,4.42773.48242,1.84863.98145,3.76025.07031,5.23779l-.06152.0752c-3.13477,2.958-8.48926,4.32129-12.6582,1.19922l-.0791-.05859-.04-.09082a3.97429,3.97429,0,0,1-.332-3.25244c.53125-1.14453,1.89063-1.54883,3.20605-1.93994,1.23438-.3667,2.39941-.71338,2.85645-1.5874a3.07108,3.07108,0,0,0-.06055-2.38037c-.23047-.98145-1.33105-1.54687-2.6709-1.4082a16.11641,16.11641,0,0,1-3.36914,3.31641C170.5605,115.06541,168.43355,116.79636,169.21187,119.30613Z" style="fill:#fff"/><path d="M137.8145,118.69769c8.3867,2.8076,15.4209,8.1914,23.2626,12.1699.8135,6.7881,10.8213,9.5977,13.7999,14.7471h3.247c7.2998,6.0889,15.1485,13.8135,23.80669,18.0244-.2705,4.6817,7.8427,7.2578,4.0576,12.875-3.5176,1.8731-7.3067,6.7891-11.6348,3.2774-4.5957-6.086-14.3389-7.959-19.4765-14.043-8.9258-.9394-14.878-8.4297-21.6416-12.875-5.6866-11.9414-24.0791-13.8125-27.8653-27.6211-1.3515-1.1719-3.2461-1.874-4.6006-3.2773,3.2491-3.982-5.9521-7.7261-.542-10.7647,5.1426,2.8037,11.0918,9.5928,17.587,7.4873" style="fill:#005daa"/><path d="M197.51168,181.40378a5.28991,5.28991,0,0,1-3.39453-1.32129c-2.36133-3.10937-5.93359-5.05371-9.71484-7.11328-3.52051-1.917-7.16016-3.89746-9.71387-6.86426-6.35547-.72168-11.19336-4.67773-15.874-8.50293a70.49467,70.49467,0,0,0-5.78516-4.415l-.08789-.05762-.04492-.09473c-2.57422-5.40625-7.9502-8.80566-13.14844-12.09375-6.19336-3.916-12.59668-7.96582-14.709-15.47754a14.96252,14.96252,0,0,0-1.85742-1.25586A12.90266,12.90266,0,0,1,120.5,122.23582l-.23145-.24023.21-.25781c1.35645-1.66113.26465-3.27246-.89111-4.97754-.8833-1.3042-1.71777-2.53564-1.41943-3.80078a3.42693,3.42693,0,0,1,1.876-2.07617l.18066-.10156.18262.09961a42.75723,42.75723,0,0,1,4.34473,2.89111c4.11621,2.97461,8.36621,6.04736,12.94727,4.56885l.11719-.03809.11719.03906c5.42188,1.81445,10.35352,4.74121,15.123,7.57129,2.65137,1.57422,5.39355,3.20117,8.19043,4.62012l.17871.08984.02344.19922c.46,3.834,4.05762,6.40137,7.53613,8.88379,2.47363,1.76465,4.81348,3.43457,6.10449,5.5332h3.16992l.10449.08691c1.57715,1.31543,3.14551,2.67773,4.80664,4.12012,5.98633,5.19824,12.17676,10.57422,18.92383,13.85547l.22461.10938-.01465.249c-.10254,1.7832,1.13086,3.25781,2.43555,4.81934,1.84668,2.208,3.94043,4.71,1.55859,8.24414l-.13477.12109a22.81239,22.81239,0,0,0-2.58008,1.71875C201.72066,179.92332,199.69234,181.40378,197.51168,181.40378Zm-43.9834-28.78613c1.96289,1.29883,3.89258,2.877,5.76074,4.40332,4.63184,3.78613,9.4209,7.70117,15.627,8.35449l.15039.01563.09668.11523c2.46875,2.92285,6.09277,4.89648,9.59766,6.80469,3.68555,2.00586,7.49609,4.08105,9.8916,7.25488,2.98535,2.40527,5.78223.36621,8.48926-1.60742a24.25973,24.25973,0,0,1,2.58594-1.73047c1.98633-3.02344.2627-5.085-1.5625-7.2666-1.28711-1.53906-2.61621-3.12891-2.61621-5.0918-6.75-3.333-12.91016-8.68164-18.86914-13.85645-1.62207-1.4082-3.15527-2.73926-4.69141-4.02344h-3.32715l-.1084-.1875c-1.18359-2.0459-3.52441-3.7168-6.00293-5.48535-3.55371-2.53516-7.22559-5.15625-7.81836-9.2041-2.75781-1.40918-5.45117-3.00684-8.05762-4.55371-4.70117-2.79-9.56152-5.67383-14.86328-7.4668-4.88965,1.50977-9.46094-1.79541-13.498-4.71191a44.79326,44.79326,0,0,0-4.08008-2.73877,2.57932,2.57932,0,0,0-1.33447,1.49023c-.22266.94434.522,2.04395,1.311,3.20752,1.14746,1.69385,2.44141,3.60352,1.05762,5.59863a13.78414,13.78414,0,0,0,2.30469,1.62891,14.93117,14.93117,0,0,1,2.04492,1.40234l.08594.07422.0293.10938c2.00293,7.30371,8.31348,11.29492,14.417,15.1543C145.40718,143.63328,150.84468,147.07078,153.52828,152.61765Z" style="fill:#fff"/><path d="M211.668,130.8676c1.35349,5.3848-6.76271,8.8956.81339,13.1094-2.1669,4.2129-8.6572,5.3848-12.9873,5.6192-1.3505-6.086-15.1464-9.3653-7.8427-16.3868,1.3515-1.6386-.2705-4.914,2.7021-5.6191,2.1651-.7021,4.874,3.9805,5.6836,0,.541-7.7236,10.2774-.4668,11.63091,3.2773" style="fill:#005daa"/><path d="M199.19722,149.98777l-.06934-.31055c-.48828-2.19824-2.78125-4.082-4.999-5.90332-2.50684-2.05762-4.874-4.002-4.9707-6.47168-.05566-1.4375.6748-2.86426,2.2334-4.36328a4.03259,4.03259,0,0,0,.56055-2.19238c.11426-1.4209.24414-3.03027,2.31445-3.52148,1.01172-.3252,2.06738.32422,3.00293.89941.67578.416,1.376.84473,1.7627.67578.26953-.11719.49023-.56152.6377-1.28516.18945-2.75684,1.55371-3.53027,2.66309-3.68555,3.32324-.45215,8.69336,4.16016,9.6875,6.91016l.01074.03613c.56738,2.25781-.42383,4.19824-1.2998,5.90918-1.36035,2.66211-2.34375,4.58594,1.93262,6.96387l.31738.17676-.167.32324c-2.34863,4.56641-9.34082,5.60742-13.2998,5.82129ZM194.83,127.89207a1.18741,1.18741,0,0,0-.36133.05469c-1.49414.35645-1.64453,1.31836-1.76855,2.85938a4.54957,4.54957,0,0,1-.75977,2.6416c-1.4248,1.374-2.08008,2.61426-2.03223,3.8252.083,2.13281,2.32422,3.97363,4.69629,5.92188,2.21777,1.82031,4.50781,3.7002,5.17578,6.00879,3.13672-.20117,9.834-1.10059,12.19434-5.085-4.52246-2.665-3.19531-5.26172-1.91016-7.77441.85156-1.667,1.7334-3.39062,1.24414-5.36621-.93262-2.53809-5.94629-6.81641-8.87207-6.40527-1.21387.16895-1.89551,1.19336-2.02539,3.04395-.21289,1.06445-.55469,1.64355-1.08008,1.87207-.74414.3252-1.5752-.18457-2.4541-.72559A4.51775,4.51775,0,0,0,194.83,127.89207Z" style="fill:#fff"/><path d="M232.498,159.19379c1.35359,5.3809-5.95011,7.4883-9.73431,9.5957-4.8711.7012-8.6602-3.041-10.2823-6.0859-.54-2.3399-1.8916-4.2149-1.3535-6.7871,8.9297,3.7422,6.7647-12.875,16.2334-4.4522,2.7022,2.1104,2.4326,5.3877,5.13671,7.7295" style="fill:#005daa"/><path d="M221.59761,169.24851c-4.1709,0-7.69141-3.07227-9.44727-6.36816l-.03418-.09277a17.86145,17.86145,0,0,0-.65234-2.05762,8.52712,8.52712,0,0,1-.70312-4.89062l.09277-.44434.41895.17578c3.876,1.62109,5.43652-.76465,7.09375-3.292,1.127-1.7168,2.19043-3.33887,3.97656-3.57617,1.4541-.18457,3.1748.62012,5.26758,2.48145a9.36307,9.36307,0,0,1,2.68848,3.9668,9.78854,9.78854,0,0,0,2.44434,3.75977l.08984.07715.02832.11426c1.17871,4.68555-3.665,6.98828-7.55762,8.83887-.8584.40723-1.66992.793-2.35742,1.17578l-.12891.04395A8.52053,8.52053,0,0,1,221.59761,169.24851Zm-8.7627-6.67871c1.35645,2.51465,4.90918,6.50977,9.80762,5.8584.69531-.38379,1.49414-.76367,2.33887-1.165,3.7998-1.80566,8.10156-3.85059,7.17969-7.86621a10.55828,10.55828,0,0,1-2.54883-3.94238,8.66641,8.66641,0,0,0-2.48145-3.69434c-1.9375-1.72266-3.45508-2.48145-4.68945-2.31348-1.44531.19141-2.418,1.67383-3.44824,3.24316-1.61426,2.46191-3.43262,5.24219-7.57227,3.74414a8.44169,8.44169,0,0,0,.748,4.04A18.72178,18.72178,0,0,1,212.83492,162.5698Z" style="fill:#fff"/><path d="M218.16409,190.09029c-3.5196,1.4063-3.5196,9.3662-9.7412,6.3203-3.7881-1.8711-4.5987-6.3203-3.2432-9.5957,3.7851-4.2129,13.2519-2.5781,12.9844,3.2754" style="fill:#005daa"/><path d="M210.96089,197.479a6.21,6.21,0,0,1-2.70312-.73145c-3.94727-1.9502-4.84082-6.6543-3.4248-10.07617l.06738-.10742c2.48926-2.76758,6.93848-2.9873,9.8623-1.792,2.50781,1.02832,3.88379,2.97266,3.77637,5.33594l-.01172.24121-.22461.08984c-1.17285.46875-1.94043,1.78223-2.752,3.17383C214.47652,195.45359,213.2939,197.479,210.96089,197.479Zm-5.459-10.46094c-1.25,3.09766-.44238,7.3125,3.08691,9.05664,3.62109,1.77148,4.86816-.36621,6.31445-2.83984.793-1.35937,1.6123-2.7627,2.89063-3.39062a4.75611,4.75611,0,0,0-3.31543-4.37793C211.77144,184.35789,207.68843,184.64011,205.50191,187.018Z" style="fill:#fff"/><path d="M112.8774,108.7666a9.43038,9.43038,0,0,0,1.1988,1.4321c.479.3901.8384,1.1719.479,1.3018-.3599.1313-1.438.7812-1.7969.2602a7.11739,7.11739,0,0,1-.7187-2.082c-.1202-.521.8378-.9121.8378-.9121" style="fill:#005daa"/></svg>