<?xml version="1.0" encoding="UTF-8"?>
<svg width="57px" height="57px" viewBox="0 0 57 57" version="1.1" xmlns="http://www.w3.org/2000/svg" xmlns:xlink="http://www.w3.org/1999/xlink">
    <!-- Generator: Sketch 45.2 (43514) - http://www.bohemiancoding.com/sketch -->
    <title>fb</title>
    <desc>Created with Sketch.</desc>
    <defs></defs>
    <g id="Symbols" stroke="none" stroke-width="1" fill="none" fill-rule="evenodd">
        <g id="fb">
            <circle id="Oval-3" fill="#3B5998" cx="28.5" cy="28.5" r="28.5"></circle>
            <path d="M37.265625,12.3839286 L37.265625,17.6875 L34.1116071,17.6875 C32.9598157,17.6875 32.1830377,17.928569 31.78125,18.4107143 C31.3794623,18.8928596 31.1785714,19.6160666 31.1785714,20.5803571 L31.1785714,24.3772321 L37.0647321,24.3772321 L36.28125,30.3236607 L31.1785714,30.3236607 L31.1785714,45.5714286 L25.03125,45.5714286 L25.03125,30.3236607 L19.9084821,30.3236607 L19.9084821,24.3772321 L25.03125,24.3772321 L25.03125,19.9977679 C25.03125,17.506684 25.7276716,15.5747836 27.1205357,14.2020089 C28.5133998,12.8292342 30.368292,12.1428571 32.6852679,12.1428571 C34.6540277,12.1428571 36.1807981,12.2232135 37.265625,12.3839286 Z" id="" fill="#FFFFFF"></path>
        </g>
    </g>
</svg>