<?xml version="1.0" encoding="UTF-8"?>
<svg width="57px" height="57px" viewBox="0 0 57 57" version="1.1" xmlns="http://www.w3.org/2000/svg" xmlns:xlink="http://www.w3.org/1999/xlink">
    <!-- Generator: Sketch 45.2 (43514) - http://www.bohemiancoding.com/sketch -->
    <title>twt</title>
    <desc>Created with Sketch.</desc>
    <defs></defs>
    <g id="Symbols" stroke="none" stroke-width="1" fill="none" fill-rule="evenodd">
        <g id="twt">
            <circle id="Oval-3-Copy" fill="#00ACED" cx="28.5" cy="28.5" r="28.5"></circle>
            <path d="M44.5446429,18.3392857 C43.6473169,19.6517923 42.5625064,20.7700847 41.2901786,21.6941964 C41.3035715,21.8816974 41.3102679,22.1629446 41.3102679,22.5379464 C41.3102679,24.2790266 41.0558061,26.0167324 40.546875,27.7511161 C40.0379439,29.4854997 39.2645141,31.1495456 38.2265625,32.7433036 C37.1886109,34.3370615 35.9531322,35.7466457 34.5200893,36.9720982 C33.0870464,38.1975508 31.3593851,39.1752196 29.3370536,39.9051339 C27.314722,40.6350483 25.1517972,41 22.8482143,41 C19.2187319,41 15.8973365,40.0290276 12.8839286,38.0870536 C13.3526809,38.1406253 13.8749971,38.1674107 14.4508929,38.1674107 C17.4643008,38.1674107 20.1495418,37.2433128 22.5066964,35.3950893 C21.1004394,35.3683034 19.8415234,34.9363881 18.7299107,34.0993304 C17.618298,33.2622726 16.8549128,32.1942029 16.4397321,30.8950893 C16.8816986,30.9620539 17.2901767,30.9955357 17.6651786,30.9955357 C18.2410743,30.9955357 18.810265,30.9218757 19.3727679,30.7745536 C17.8727604,30.4665163 16.6305853,29.719872 15.6462054,28.5345982 C14.6618254,27.3493244 14.1696429,25.9732221 14.1696429,24.40625 L14.1696429,24.3258929 C15.0803617,24.834824 16.0580305,25.1093748 17.1026786,25.1495536 C16.2187456,24.5602649 15.5156276,23.7901833 14.9933036,22.8392857 C14.4709795,21.8883881 14.2098214,20.8571484 14.2098214,19.7455357 C14.2098214,18.5669584 14.5044613,17.4754515 15.09375,16.4709821 C16.7142938,18.4665278 18.6863723,20.0636101 21.0100446,21.2622768 C23.333717,22.4609435 25.8214153,23.1272315 28.4732143,23.2611607 C28.3660709,22.7522296 28.3125,22.2566988 28.3125,21.7745536 C28.3125,19.9799017 28.9453062,18.4497831 30.2109375,17.1841518 C31.4765688,15.9185205 33.0066875,15.2857143 34.8013393,15.2857143 C36.6763487,15.2857143 38.25669,15.9687432 39.5424107,17.3348214 C41.0022394,17.05357 42.3749936,16.5312538 43.6607143,15.7678571 C43.1651761,17.3080434 42.2142927,18.4999958 40.8080357,19.34375 C42.0535777,19.2098208 43.2991009,18.8750027 44.5446429,18.3392857 Z" id="" fill="#FFFFFF"></path>
        </g>
    </g>
</svg>