<?xml version="1.0" encoding="utf-8"?>
<!-- Generator: Adobe Illustrator 21.1.0, SVG Export Plug-In . SVG Version: 6.00 Build 0)  -->
<svg version="1.1" id="Layer_1" xmlns="http://www.w3.org/2000/svg" xmlns:xlink="http://www.w3.org/1999/xlink" x="0px" y="0px"
	 viewBox="0 0 953 1246" style="enable-background:new 0 0 953 1246;" xml:space="preserve">
<style type="text/css">
	.st0{fill:#4A4A4A;}
	.st1{font-family:'AvenirNext-Regular';}
	.st2{font-size:16px;}
	.st3{fill:none;stroke:#979797;}
	.st4{fill:none;stroke:#477393;stroke-width:0.972;}
	.st5{fill:#A7A7A7;}
	.st6{fill:none;stroke:#477393;stroke-width:0.972;stroke-dasharray:4.861,4.861;}
	.st7{fill:#477393;}
	.st8{fill:none;stroke:#635D58;stroke-width:1.645;}
	.st9{fill:none;stroke:#020202;stroke-width:2;}
	.st10{fill:none;stroke:#020202;stroke-width:2;stroke-linecap:square;}
	.st11{fill:none;stroke:#000000;stroke-width:2;}
	.st12{fill:none;stroke:#635D58;stroke-width:1.928;stroke-linecap:square;}
	.st13{fill:#635D58;}
	.st14{fill:#FFFFFF;}
	.st15{fill:none;stroke:#000000;stroke-width:1.5;}
	.st16{fill:#6390B1;}
	.st17{font-family:'AvenirNext-Bold';}
	.st18{font-size:36px;}
	.st19{fill:none;stroke:#477393;stroke-width:0.972;stroke-dasharray:4.926,4.926;}
	.st20{fill:none;stroke:#000000;stroke-width:0.972;}
	.st21{fill:none;stroke:#477393;stroke-width:0.972;stroke-dasharray:4.842,4.842;}
	.st22{fill:none;stroke:#477393;stroke-width:0.972;stroke-dasharray:4.877,4.877;}
	.st23{fill:none;stroke:#477393;stroke-width:0.972;stroke-dasharray:4.606,4.606;}
	.st24{fill:none;stroke:#477393;}
	.st25{fill:none;stroke:#477393;stroke-dasharray:5.143,5.143;}
	.st26{fill:none;stroke:#000000;}
	.st27{font-size:24px;}
	.st28{font-size:12px;}
	.st29{font-size:10px;}
	.st30{fill:none;stroke:#000000;stroke-width:0.972;stroke-dasharray:4.861,4.861;}
</style>
<title>timeline-desktop</title>
<desc>Created with Sketch.</desc>
<g id="Symbols">
	<g id="timeline-desktop">
		<text transform="matrix(1 0 0 1 702 152)" class="st0 st1 st2">Votre participation peut </text>
		<text transform="matrix(1 0 0 1 702 174)" class="st0 st1 st2">influencer les futurs </text>
		<text transform="matrix(1 0 0 1 702 196)" class="st0 st1 st2">aménagements de votre ville, et </text>
		<text transform="matrix(1 0 0 1 702 218)" class="st0 st1 st2">en l&apos;occurence la vision urbaine </text>
		<text transform="matrix(1 0 0 1 702 240)" class="st0 st1 st2">de l&apos;entrée nord. La période de </text>
		<text transform="matrix(1 0 0 1 702 262)" class="st0 st1 st2">concertation se déroulera du 31 </text>
		<text transform="matrix(1 0 0 1 702 284)" class="st0 st1 st2">Juillet à fin Septembre.</text>
		<text transform="matrix(1 0 0 1 700 536)" class="st0 st1 st2">L&apos;engagement civique est </text>
		<text transform="matrix(1 0 0 1 700 558)" class="st0 st1 st2">crucial. Vous pouvez donner </text>
		<text transform="matrix(1 0 0 1 700 580)" class="st0 st1 st2">votre avis sur l&apos;avenir de votre </text>
		<text transform="matrix(1 0 0 1 700 602)" class="st0 st1 st2">ville durant des consultations </text>
		<text transform="matrix(1 0 0 1 700 624)" class="st0 st1 st2">publiques ou bien en utilisant ce </text>
		<text transform="matrix(1 0 0 1 700 646)" class="st0 st1 st2">site web initié par la municipalité </text>
		<text transform="matrix(1 0 0 1 700 668)" class="st0 st1 st2">de Nouméa.</text>
		<path id="Rectangle-26" class="st3" d="M690,126.5c-1.4,0-2.5,1.1-2.5,2.5v167.8c0,1.4,1.1,2.5,2.5,2.5h10.2c0.3,0,0.6,0,1,0.1
			c1.9,0.5,2.9,2.5,2.4,4.3l-6.8,23.6c-0.3,1,0.1,2,0.8,2.6c1.1,0.9,2.6,0.7,3.5-0.4l23.6-29.1c0.7-0.8,1.7-1.3,2.7-1.3H950
			c1.4,0,2.5-1.1,2.5-2.5V129c0-1.4-1.1-2.5-2.5-2.5H690z"/>
		<path id="Rectangle-26-Copy" class="st3" d="M690,685c-1.4,0-2.5-1.4-2.5-3.1V513.2c0-1.7,1.1-3.1,2.5-3.1h6.6
			c0.5,0,1-0.1,1.4-0.4c1.8-1,2.6-3.6,1.8-5.8l-7.3-21c-0.4-1.1-0.2-2.4,0.4-3.3c0.9-1.3,2.5-1.5,3.5-0.4l28.5,29.8
			c0.6,0.7,1.4,1,2.2,1H950c1.4,0,2.5,1.4,2.5,3.1v168.6c0,1.7-1.1,3.1-2.5,3.1H690z"/>
		<path id="Rectangle-26-Copy-2" class="st3" d="M263,670.5c1.4,0,2.5,1.1,2.5,2.5v133.9c0,1.4-1.1,2.5-2.5,2.5h-6.6
			c-0.5,0-1,0.1-1.4,0.3c-1.8,0.8-2.6,2.8-1.8,4.6l7.3,16.7c0.4,0.9,0.2,1.9-0.4,2.6c-0.9,1.1-2.5,1.2-3.5,0.3l-28.5-23.7
			c-0.6-0.5-1.4-0.8-2.2-0.8H3c-1.4,0-2.5-1.1-2.5-2.5V673c0-1.4,1.1-2.5,2.5-2.5H263z"/>
		<path id="Stroke-175" class="st4" d="M621,951h4.7"/>
		<path id="Fill-311" class="st5" d="M627.4,465.8c1.9-0.2,1.9-3.6-0.6-3C624.9,463.1,625.7,465.8,627.4,465.8 M626.6,461.1
			c4.8-0.8,5,6.8,0.2,6.2C623,466.9,623.2,461.6,626.6,461.1"/>
		<path id="Fill-313" class="st5" d="M630.5,474v9.5H621c0-3.2-0.2-6.5,0.2-9.5H630.5z"/>
		<path id="Fill-315" class="st5" d="M644.5,474v9.5H635c0-3.2-0.2-6.5,0.2-9.5H644.5z"/>
		<path id="Fill-317" class="st5" d="M630.5,488v9.5H621c0-3.2-0.2-6.5,0.2-9.5H630.5z"/>
		<path id="Fill-319" class="st5" d="M644.5,488v9.5H635c0-3.2-0.2-6.5,0.2-9.5H644.5z"/>
		<path id="Stroke-349" class="st6" d="M631,379v56.7"/>
		<polygon id="Fill-351" class="st7" points="626,427.5 627.6,427 631.5,437.7 635.4,427 637,427.5 631.5,442.8 		"/>
		<path id="Stroke-1" class="st8" d="M499.1,135c16.1,0,29.1,13,29.1,29.1c0,16.1-13,29.1-29.1,29.1c-16.1,0-29.1-13-29.1-29.1
			C470,148,483,135,499.1,135z"/>
		<path id="Stroke-3" class="st8" d="M499.1,452c16.1,0,29.1,13,29.1,29.1c0,16.1-13,29.1-29.1,29.1c-16.1,0-29.1-13-29.1-29.1
			C470,465,483,452,499.1,452z"/>
		<path id="Stroke-5" class="st9" d="M542.1,482.1c0-24.1-19.7-43.1-44.1-43.1V208"/>
		<path id="Stroke-7" class="st9" d="M542.4,482c0,24.4-19.5,44.1-43.6,44.1c-24.1,0-43.6-19.7-43.6-44.1H388"/>
		<path id="Stroke-9" class="st8" d="M499.1,1135c16.1,0,29.1,13,29.1,29.1c0,16.1-13,29.1-29.1,29.1c-16.1,0-29.1-13-29.1-29.1
			C470,1148,483,1135,499.1,1135z"/>
		<path id="Stroke-11" class="st10" d="M588.1,482H544"/>
		<polyline id="Stroke-13" class="st9" points="455.9,163 450.6,163 385,163 		"/>
		<path id="Stroke-15" class="st8" d="M499.1,828c16.1,0,29.1,13,29.1,29.1c0,16.1-13,29.1-29.1,29.1c-16.1,0-29.1-13-29.1-29.1
			C470,841,483,828,499.1,828z"/>
		<path id="Stroke-17" class="st11" d="M385,857.2h71.6c0,23.2,18.8,43.3,43,43.3s43-19.6,43-43.7s-18.8-43.1-43-43.1V524"/>
		<polyline id="Stroke-19" class="st9" points="387,393 412.2,393 412.2,480.6 412.2,564.7 387,564.7 		"/>
		<path id="Stroke-21" class="st12" d="M500.1,207.1c-24.4,0-44.1-19.7-44.1-44.1"/>
		<path id="Stroke-23" class="st10" d="M498,207.6c24.4,0,44.1-19.5,44.1-43.8s-19.7-43.8-44.1-43.8V80"/>
		<path id="Stroke-25" class="st10" d="M498,1207.8c24.4,0,44.1-19.6,44.1-43.8c0-24.2-19.7-43.8-44.1-43.8v1.1V899"/>
		<path id="Fill-27" class="st13" d="M504.2,1208.4c0-8.6-14.2-8.6-14.2,0C490,1218.8,504.2,1218.8,504.2,1208.4"/>
		<path id="Fill-29" class="st13" d="M506.2,206.4c0-8.6-14.2-8.6-14.2,0C492,216.8,506.2,216.8,506.2,206.4"/>
		<path id="Fill-31" class="st13" d="M506.2,80.4c0-8.6-14.2-8.6-14.2,0C492,90.8,506.2,90.8,506.2,80.4"/>
		<path id="Fill-33" class="st13" d="M506.2,524.4c0-8.6-14.2-8.6-14.2,0C492,534.8,506.2,534.8,506.2,524.4"/>
		<path id="Fill-35" class="st13" d="M506.2,899.4c0-8.6-14.2-8.6-14.2,0C492,909.8,506.2,909.8,506.2,899.4"/>
		<path id="Fill-37" d="M390.4,1141.2c-0.3-0.5-0.7-1.1-1-1.4c0-0.2-0.3-0.2-0.3-0.2c-1.7,0.5-3,0-4.2-1.4c-0.3,0.5-0.7,1.1-1,1.4
			c0.2,0.4,0.3,0.7,0.5,0.9c0.2,0.2,0.5,0.7,0.7,0.7H390.4z M397,1139.8c-0.9-0.2-1.2,0.2-1.9,1.4h1h0.7c-0.3,1.8-0.7,3.4-1.2,5.1
			c-0.5,2,0,3.6,1.4,4.9c1.6,1.6,3.1,3.2,4.5,4.9c0.3,0.4,0.5,0.9,0.5,1.3v9.4c0,1.3-0.7,2-1.7,2c-2.1,0-2.8-2.9,0.7-7.2
			c-1.7-3.8-1-2.2-2.6-6h-1.6v0.9v9.9c0,1.1-0.3,1.6-1.2,1.8c-1,0.2-2.1-0.4-2.3-1.4v-0.9v-19.7c0-0.5-0.3-1.1-0.3-1.6h-1
			c-0.2,0.5-0.3,1.1-0.3,1.6v20.2c0,0.9-0.2,1.6-1,2c-1.2,0.5-2.4-0.4-2.4-1.6v-10.3v-1.1h-1.7v0.9v10.5c0,1.3-0.7,2-1.9,2
			c-1.2,0-1.6-0.7-1.6-2v-1.3v-17.5c0-1.1-0.2-2.2-0.9-3.1c-0.3-0.4-0.5-0.7-0.9-0.9v0.4v20.4c0,0.7,0,1.4-0.7,1.8
			c-0.5,0.2-1.2,0.4-1.9,0.2c-0.3-0.2-0.9-0.9-0.9-1.4v-10.7v-0.9c-0.5,0,0.5,0,0,0v0.9v10.5c0,1.3-0.7,2-1.6,2.2
			c-1,0-1.9-0.7-1.9-2.2v-21.3c0,0-0.7-1.3-1-1.8c-1.2-2-2.4-3.8-3.7-5.8c-0.3-0.5-0.5-1.1-0.5-1.8v-8.1c0-1.3,0.7-2,1.6-2
			c1,0,1.9,0.7,1.9,2v8.3c0,0.4,0.2,0.9,0.3,1.3c0.5,1.1,1.2,2,2.1,2.9c0.2,0.2,0.5,0.5,0.9,0.5h1.9v-2.3c-1.9,0-3.7-1.4-3.3-3.8
			c0.2-2.3,5-3.1,5-3.1v-2c0,0,0.3-1.8,1.2-1.8c0.9,0,0.5,1.8,0.5,1.8v7.8l1.7-2.2v-8.3c0-1.4,0.7-2.3,1.9-2.3
			c1.2,0,1.6,0.7,1.6,2.3v6.5v0.9c0.7,0,1.2,0,1.7-0.2v-4.7c0-1.1,0.5-2,1.4-2c1-0.2,1.9,0.5,2.1,2v7.9c0,0.9,0.2,1.6,0.9,2.3
			c0.5-0.5,0.9-1.1,0.9-1.8v-8.8c0-1.3,0.7-2,1.6-2c1,0,1.9,0.7,1.9,2v4.5h1.7v-2c0-1.1,0.7-1.8,1.6-1.8c0.9,0,1.9,0.7,1.9,1.6v6
			C399.6,1136.4,397.9,1137.4,397,1139.8L397,1139.8z"/>
		<path id="Fill-39" d="M415.1,1174.5h-5.6c-0.2,0-0.4,0.2-0.5,0.2c-1.4,1.6-2.9,3.4-4.3,5.2c1.6,1.4,3.2,2.9,4.7,4.3
			c1.1,1.1,1.3,2.2,0.7,3.2c-0.7,1.4-2.7,2-4,0.9c-2.3-2-4.5-4.1-7-6.5c-1.3-1.1-1.3-2.5-0.2-3.8c2.7-3.4,5.4-6.8,8.3-10.2
			c0.2-0.4,0.4-0.7,0.4-1.1v-7.9c0-0.4-0.2-0.9-0.5-1.1c-2.5-2.7-5.2-5.6-7.9-8.4c-0.9-0.9-1.3-2-0.9-3.4c0.5-2,0.9-3.8,1.4-5.8
			c0.4-1.6,1.8-2.5,3.2-2.2c1.4,0.4,2.3,1.8,2,3.2c-0.4,1.4-0.7,2.9-1.1,4.3c0,0.4,0,0.9,0.2,1.1c1.1,1.3,2.3,2.5,3.6,3.8
			c0.2,0.2,0.7,0.4,0.9,0.4h9.7c0,0,0.7-0.5,0.9-0.9c1.3-1.8,2.3-3.4,3.4-5.2c0.2-0.4,0.4-0.7,1.1-1.3v-16.7c-0.7-1.3,0-2.2,1.3-2.5
			c1.3-0.4,2.5,0.2,3.1,1.4c0.2,0.4-0.7,1.3-0.7,1.3v18.5c0,0.7-0.4,1.4-0.7,2c-2.2,3.2-4.2,6.3-6.1,9.5c-0.4,0.4-0.4,1.1-0.4,1.4
			v33.8c0,2-1.6,3.2-3.6,2.7c-1.1-0.4-1.8-1.4-1.8-2.9v-16.5C415.1,1175.3,415.1,1175,415.1,1174.5"/>
		<path id="Fill-41" d="M433.7,1142.1c1.6,0,3.2-0.2,4.7,0c1.1,0.2,1.4-0.5,1.8-1.2c0.4-0.7-0.4-0.9-0.5-1.2c0-0.2-0.2-0.4-0.4-0.5
			c-1.1,1.4-2.5,1.9-4.3,1.4c-0.2,0-0.4,0-0.5,0.2C434.2,1141,434.1,1141.6,433.7,1142.1 M447,1154.7h-1.6v1.1v9.9v0.9
			c-0.2,0.9-0.9,1.4-2,1.4c-1.1,0-1.6-0.7-1.6-1.4v-2.7v-19v-0.9c-0.7,1.1-1.8,1.9-1.8,3.5v20.4c0,0,0.4,1.4-0.2,1.6
			c-0.5,0.2-1.3,0.2-1.6,0c-0.7-0.2-0.9-0.9-1.8-1.6v-10.3v-1.2v1.1v10.3c-0.7,0.9-0.9,1.6-1.8,1.8c-1.1,0.4-3.6-1.6-3.6-1.6v-5.1
			v-15.8c1.3-0.4,1.3-0.9,1.1-1.1c-0.5-0.5-1.1-1.9-1.1-1.9v-3.2c0,0,0.5-1.8,1.3-2.5c0.2-0.2,0.5-1.1,0.5-1.1v-8.1
			c0-1.2,0.7-2.3,2-2.3c1.3,0,1.6,0.9,1.6,2.3v4.3c0.7,0,1.3,0.2,1.8,0.2v-5.8v-2.1c0-1.1,0.7-1.6,2-1.6c0.9,0,1.6,0.7,1.6,1.9v8.1
			l1.8,2.3v-0.9v-6.4c-1.3-1.2-0.5-1.9,0.5-1.9c1.1,0,1.3,1.9,1.3,1.9v1.8c0,0,3.2-0.2,4.3,1.1c0.7,0.7,0.9,1.6,0.9,2.7
			c-0.2,2.1-1.8,3.2-3.4,3.2v0.9h2.3c0.2,0,0.5-0.2,0.5-0.4c0.7-1.1,1.4-2.1,2.3-3.2c0.4-0.5,0-1.2,0.2-1.8v-6.9
			c-0.2-1.2,0.4-2.1,1.4-2.5c1.1-0.2,2.2,0.5,2.2,1.6v9.9c0,0.4-0.2,0.9-0.5,1.4c-1.4,2.1-2.9,4.3-4.3,6.2c-0.4,0.4-0.5,1.1-0.5,1.6
			v21.4c0,1.1-0.5,1.8-1.6,1.9c-1.1,0-1.8-0.7-2-1.9v-10.3C447,1155.4,447,1155,447,1154.7"/>
		<path id="Fill-43" d="M407,1143.1c0-3.3,2.8-6.1,6.3-6.1s6.3,2.8,6.3,6.3c0,3.3-2.8,6.3-6.3,6.3
			C409.8,1149.4,407,1146.6,407,1143.1"/>
		<path id="Fill-45" d="M425,1156.5v4.2v7.4c0,1.3-0.8,1.8-2,1.8v-1.3v-9.2c0-0.4,0.2-0.9,0.4-1.1c2.4-3.2,4.9-6.7,7.1-9.9
			c0,0,0.2-0.2,0.4-0.4v0.7v19.3c0,1.1-0.6,1.8-1.6,2c-0.8,0.2-1.8-0.2-2.2-1.1c-0.2-0.4-0.2-0.7-0.2-1.1v-10.3v-1.1
			C426.3,1156.5,425.8,1156.5,425,1156.5"/>
		<path id="Fill-47" d="M407.1,1130.2c0.4,0,0.6-0.2,0.9-0.2c1.1-0.2,1.9,0.5,2.2,1.4v0.3c0,1.4-0.2,2.5-1.9,3.2
			c-0.9,0.3-1.7,1.4-2.4,2c-0.6-0.3-1.3-0.7-1.9-1.2c-0.2-0.2-0.4-0.3,0.6-0.5v-7.6c-0.9-1-0.2-1.7,0.9-1.7c0.9,0,1.7,0.7,1.7,1.7
			C407.1,1128.7,407.1,1129.6,407.1,1130.2"/>
		<path id="Fill-49" d="M415.6,1129.8c0.4-1.2,1.1-1.8,2-1.8c0.9,0.2,1.5,0.7,1.6,1.4v8c-1.8-1.8-3.8-2.9-6.2-2.9
			c0-1.2-0.2-2.7,0-3.9C413.1,1129.8,414.2,1129.4,415.6,1129.8"/>
		<path id="Fill-51" d="M379.5,1109c0.2,0.2,0.7,0.3,0.9,0.7c0.2,0.3,0,0.8-0.4,1.2c-0.5,0.7-0.7,1.3-0.4,2c0.5,0.8,1.3,1.7,2,2.5
			c0.5,0.7,1.1,1.2,1.3,1.9c0.7,1.3,0.4,2.5-0.4,3.7c-0.4,0.7-1.3,0.8-1.8,0.3c-0.7-0.5-0.7-1-0.2-1.5c0.5-0.8,0.4-1.7-0.2-2.4
			c-0.7-0.8-1.4-1.7-2.2-2.5c-1.1-1.2-1.4-2.5-1.1-3.9C377.5,1110.2,378.4,1109.2,379.5,1109"/>
		<path id="Fill-53" d="M446.3,1111.4c-0.2,0.2-0.3,0.5-0.7,0.7c-1.5,0.5-1.8,1.2-1.7,2.8c0.2,1.1,0.3,2.3,0.3,3.3
			c0.2,1.8-0.8,3.5-2.3,4.2c-0.5,0.2-1,0.2-1.5-0.2c-0.7-0.5-0.5-1.4,0.2-1.8c1-0.5,1.5-1.4,1.3-2.5c0-1.2-0.3-2.3-0.3-3.5
			c-0.2-2.1,1.2-4.2,3-4.6C445.6,1109.9,446.3,1110.4,446.3,1111.4"/>
		<path id="Fill-55" d="M403.6,1107c1.9,0,3.5,1.4,4,3.4c0.2,0.9,0.3,1.8,0.5,2.7c0.4,1.4,0.9,2.5,2.4,2.7c0.7,0,0.9,0.5,0.9,1.2
			c-0.2,0.7-0.7,1.1-1.4,1.1c-1.6,0-3.1-1.2-3.7-2.8c-0.4-1.1-0.5-2.1-0.7-3c-0.2-0.7-0.5-1.4-0.7-2c-0.3-0.7-0.9-0.9-1.6-0.9
			c-0.9,0-1.4-0.2-1.4-0.9c-0.2-0.7,0.3-1.2,1-1.4H403.6z"/>
		<path id="Fill-57" d="M398.9,1119.7c-0.2-1.1-0.2-2-0.4-3c-0.2-0.7-0.7-1.3-1.4-1.3c-0.7,0-1.3-0.4-1.1-1.3c0-0.7,0.7-1.3,1.6-1.1
			c2,0.2,3.6,2,3.6,4.1v2.9c0,1.4,0.2,2.9,2,3.4c0.5,0.2,0.7,0.7,0.5,1.3c-0.2,0.7-0.9,1.1-1.6,0.9c-1.6-0.4-2.7-1.6-3.1-3.2
			C398.9,1121.4,398.9,1120.7,398.9,1119.7C398.7,1119.7,398.9,1119.7,398.9,1119.7"/>
		<path id="Fill-59" d="M428.7,1111.7c0,1.4-0.6,2.4-1.7,3.3c-0.8,0.7-1.7,1.4-2.5,2.1c-0.8,0.7-1.3,1.7-0.8,2.8
			c0.4,0.7,0.2,1.2-0.4,1.6c-0.8,0.3-1.5,0.2-1.9-0.5c-0.9-1.4-0.6-3.5,0.8-4.7c0.8-0.7,1.7-1.4,2.7-2.2c0.4-0.3,0.8-0.9,1.1-1.4
			c0.4-0.7,0.2-1.2-0.2-1.7c-0.6-0.5-0.6-1,0-1.6c0.6-0.5,1.5-0.3,1.9,0.2C428.4,1110.2,428.5,1111,428.7,1111.7
			C428.9,1111.7,428.9,1111.7,428.7,1111.7"/>
		<path id="Fill-61" d="M404,1168.5v-9.5c0.7,0.7,1.4,1.2,1.2,2.2c-0.2,1.4-0.2,2.9,0,4.3C405.4,1166.9,405.1,1167.8,404,1168.5"/>
		<path id="Fill-63" d="M451,1118.7c0-1,0.7-1.7,1.6-1.7c0.9,0,1.6,0.7,1.6,1.5c0,0.9-0.7,1.5-1.6,1.5
			C451.7,1120.4,451,1119.7,451,1118.7"/>
		<path id="Fill-65" d="M414.6,1118c0.9,0,1.6,0.7,1.6,1.5c0,1-0.7,1.7-1.6,1.7s-1.6-0.7-1.6-1.7C413,1118.7,413.7,1118,414.6,1118"
			/>
		<path id="Fill-67" d="M432,1114.5c0-0.8,0.7-1.5,1.6-1.5c0.9,0,1.6,0.7,1.6,1.7s-0.7,1.5-1.8,1.5
			C432.5,1116,432,1115.3,432,1114.5"/>
		<path id="Fill-69" d="M417.6,1113.2c-0.9,0-1.6-0.5-1.6-1.5c0-1,0.7-1.7,1.6-1.7s1.6,0.7,1.6,1.5
			C419.2,1112.5,418.4,1113.2,417.6,1113.2"/>
		<path id="Fill-71" d="M389.6,1120c0.9,0,1.6,0.7,1.6,1.5c0,0.8-0.7,1.7-1.6,1.7s-1.6-0.7-1.6-1.5
			C388,1120.7,388.7,1120,389.6,1120"/>
		<path id="Fill-73" d="M375.2,1119.5c0,1-0.7,1.7-1.6,1.7s-1.6-0.7-1.6-1.5c0-0.8,0.7-1.7,1.6-1.7S375.2,1118.5,375.2,1119.5"/>
		<path id="Fill-75" class="st14" d="M391.3,1142.2h-5.1c-0.2,0-0.5-0.4-0.7-0.7c-0.2-0.2-0.3-0.6-0.5-0.9c0.3-0.6,0.7-0.9,1-1.5
			c1,1.5,2.4,2,4.1,1.5c0.2,0,0.3,0,0.3,0.2C390.6,1141,391,1141.4,391.3,1142.2"/>
		<path id="Fill-77" class="st14" d="M432,1143.1c0.3-0.6,0.7-1.1,0.8-1.5c0.2-0.2,0.3-0.2,0.5-0.2c1.7,0.6,2.9,0,4-1.5
			c0.2,0.2,0.3,0.4,0.3,0.6c0.2,0.4,0.8,0.7,0.5,1.3c-0.3,0.7-0.7,1.5-1.7,1.3C434.9,1142.9,433.5,1143.1,432,1143.1"/>
		<path id="Stroke-79" class="st15" d="M629.4,442c21.8,0,39.4,17.6,39.4,39.4c0,21.8-17.6,39.4-39.4,39.4
			c-21.8,0-39.4-17.6-39.4-39.4C590,459.6,607.6,442,629.4,442z"/>
		<path id="Stroke-81" class="st15" d="M350.4,442c21.8,0,39.4,17.6,39.4,39.4c0,21.8-17.6,39.4-39.4,39.4S311,503.1,311,481.4
			C311,459.6,328.6,442,350.4,442z"/>
		<path id="Stroke-83" class="st15" d="M350.4,357c21.8,0,39.4,17.6,39.4,39.4c0,21.8-17.6,39.4-39.4,39.4S311,418.1,311,396.4
			C311,374.6,328.6,357,350.4,357z"/>
		<path id="Stroke-85" class="st15" d="M345.4,124c21.8,0,39.4,17.6,39.4,39.4c0,21.8-17.6,39.4-39.4,39.4S306,185.1,306,163.4
			C306,141.6,323.6,124,345.4,124z"/>
		<path id="Stroke-87" class="st15" d="M348.4,527c21.8,0,39.4,17.6,39.4,39.4s-17.6,39.4-39.4,39.4S309,588.1,309,566.4
			S326.6,527,348.4,527z"/>
		<path id="Stroke-89" class="st15" d="M348.4,817c21.8,0,39.4,17.6,39.4,39.4c0,21.8-17.6,39.4-39.4,39.4S309,878.1,309,856.4
			C309,834.6,326.6,817,348.4,817z"/>
		<text transform="matrix(1 0 0 1 487 178)" class="st16 st17 st18">1</text>
		<text transform="matrix(1 0 0 1 487 495)" class="st16 st17 st18">2</text>
		<text transform="matrix(1 0 0 1 486 1178)" class="st16 st17 st18">4</text>
		<text transform="matrix(1 0 0 1 488 871)" class="st16 st17 st18">3</text>
		<path id="Stroke-165" class="st19" d="M296.5,565h-7.1H286c-7.5,0-10,5.7-10,12.6v1.6v11v18.9c0,6.9,2.7,12.6,10,12.6h6.8h184.9"
			/>
		<path id="Stroke-167" class="st4" d="M481,620h4.7"/>
		<polygon id="Fill-169" class="st7" points="475.5,627 475,625.4 485.7,621.5 475,617.6 475.5,616 490.8,621.5 		"/>
		<path id="Stroke-171" class="st20" d="M310.7,863H306"/>
		<path id="Stroke-173" class="st21" d="M296.6,855h-7.3l-3.4,0.2c-7.5,0-10,9.7-10,21.6v2.7v19V931c0,12,2.7,21.6,10,21.6h6.8
			h320.4"/>
		<polygon id="Fill-177" class="st7" points="612.5,957 612,955.4 622.7,951.5 612,947.6 612.5,946 627.8,951.5 		"/>
		<path id="Stroke-181" class="st22" d="M296.5,488h-7.1H286c-7.5,0-10,6.4-10,14.2v1.8v12.4v55.1"/>
		<path id="Stroke-183" class="st20" d="M276,576v4.7"/>
		<polygon id="Fill-185" class="st7" points="270,570.5 271.6,570 275.5,580.7 279.4,570 281,570.5 275.5,585.8 		"/>
		<path id="Stroke-189" class="st23" d="M296.5,403H289h-3.3c-7.3,0-9.7,6.4-9.7,14.1v1.8v12.4v48.9"/>
		<path id="Stroke-191" class="st20" d="M276,485v4.7"/>
		<polygon id="Fill-193" class="st7" points="270,478.5 271.6,478 275.5,488.7 279.4,478 281,478.5 275.5,493.8 		"/>
		<path id="Stroke-195" class="st24" d="M346,217v4.7"/>
		<path id="Stroke-197" class="st25" d="M346,222v14.1c0,7.8,6.4,14.3,14.3,14.3h124.3"/>
		<path id="Stroke-199" class="st26" d="M487,250h4.7"/>
		<polygon id="Fill-201" class="st7" points="481.7,256 481,254.3 491.7,250.5 481,246.7 481.7,245 496.8,250.5 		"/>
		<path id="Fill-203" class="st5" d="M346.6,126c0,1.1-0.3,2.8,0.5,3.2c0.2,0,0.3,0,0.5,0c1.2,0,0.5-1.9,0.7-3.2
			c0.9,0,1.4,0.4,2.1,0.6c0,0.9,0,1.9,0.2,2.6c1,0.2,1.6-0.4,1.4-1.5c1.9,1.7,3.5,3.6,3.7,7c0.9,0.4,1.6,1.1,1.1,2.3
			c-6.2,0-12.3,0.1-18.5,0.1c-0.4-0.9-0.4-2.3,1-2.1c0-3.8,1.7-5.5,3.3-7.4c0.5,0.6,0.2,1.9,1.4,1.5c0.7-0.4,0.5-1.7,0.5-2.6
			C345.2,126.4,345.8,126,346.6,126"/>
		<path id="Fill-205" class="st5" d="M356.2,138.2c2.1,13-20.4,11.7-16.8-0.1C344.8,138.3,351.1,137.7,356.2,138.2"/>
		<path id="Fill-207" class="st5" d="M346,154.5c1.3,0.9,3.1,0.9,4.3,0c-0.2-1.1-0.4-2.1-0.7-3C346.7,150.8,346,152.4,346,154.5
			 M369.5,156.4c-2.3,0.2-4.3,1.8-6.3,1.5c-2-0.2-2.9-2.3-4.7-2.7c-0.5,0.9,0,2.7-0.2,3.9c-2.9,0.2-5.1,1.3-7.9,1.5
			c0-1.6-0.6-2.7-0.6-4.5c-0.4-0.4-2.5,0.4-3.3-0.2c0.2,1.8-0.5,3-0.5,4.7c-2.9-0.2-5.1-1.2-8-1.4c0-1.3,0-2.7,0-3.9
			c-1.8,0.5-3.1,2-4.7,2.7c-2.2-0.3-4.3-0.7-6.3-1.4c-0.4-0.5,1.1-2,2-2.7c2.5-2.2,8.5-6.7,13.7-5.8c2.9,0.5,6.9,3.2,10.5-0.1
			C361.2,148,366.3,152.4,369.5,156.4"/>
		<path id="Fill-209" class="st5" d="M325,159.3c7.3,1.4,14.2,3.1,21.4,4.5c0.4,2.5-0.7,6.5,0.6,8.2c1.2-0.4,0.7-2.3,0.7-3.8
			c0-1.4,0-3.2,0-4.5c7.1-1.7,13.9-3.3,21.4-4.8c0,6.3,0.1,12.6,0.1,18.8c-3.7,0.7-7.2,1.5-10.9,2.2c-3.5,0.7-7.2,2.6-10.8,2.6
			c-3.5,0-7.8-1.4-11.3-2.1c-3.5-0.9-7.1-1.9-10.8-2.4C325.1,171.8,325,165.5,325,159.3"/>
		<path id="Fill-211" class="st5" d="M322.9,160c0.5,4.3,0.1,9.5,0.2,14.2C317.2,173,321.2,162.9,322.9,160"/>
		<path id="Fill-213" class="st5" d="M338.3,189c-0.4,0-0.4,0.3-0.2,0.8c0,0.8,0,1.5,0,2.3l9.3,0c0-0.5,0-0.8,0-1.3
			C344.5,190.1,341.4,189.5,338.3,189"/>
		<path id="Fill-215" class="st5" d="M349,183c0,0.3,0,0.8,0,1.1l9.4,0c0-1.1-0.2-2.1-0.4-3.1C355,181.5,351.8,182,349,183"/>
		<path id="Fill-217" class="st5" d="M351.8,467.7c4,0.2,8-2.3,8-7.6c0-2.5-1-4.6-2.6-6.2c-1.6-1.6-3.8-2.1-6.2-1.8
			c-1.9,0.2-3.6,1.1-4.8,2.3c-1.2,1.2-2.1,3-2.1,5.2C343.8,464.7,347.8,467.6,351.8,467.7"/>
		<path id="Fill-219" class="st5" d="M369,465.7c-1.4,0-3-0.7-4-1.8c-1.1-1-1.8-2.5-1.4-3.9c0.5-1.8,2.8-1.2,4.4,0.2
			C369.5,461.9,370.5,464.1,369,465.7 M363.4,464.7c-1.1-1.4-1.6-3.2-0.5-4.6c-0.2,1.4,0.2,2.8,1.1,4c0.9,1.2,2.1,1.9,3.9,1.9
			C366.2,466.8,364.4,466.1,363.4,464.7 M364.8,458H363c-0.7,0-1.2,0.2-1.2,0.2c-2.1,2.1-5.1,4.9-8.2,7.9c-3,3-6.3,6-8.9,8.4
			c-1.8,1.6-3.5,2.8-4.6,4.4c-1.1,1.4-1.4,3.2-0.5,6c3.3-1.9,6.7-4.4,10-6.7c3.3-2.3,6.8-4.7,10.2-7c1.4-0.9,3.2-2.3,4.9-3.3
			c1.8-0.9,3.5-1.2,5.4-0.2c0.9-2.5,0.5-4.7-0.7-6.5C368.3,459.4,366.3,458.2,364.8,458"/>
		<path id="Fill-221" class="st5" d="M339.5,484.7c0.5-1.8,1.6-3.2,2.9-4.3v1.8v1.8c1.5-1.1,3.3-2.7,4.9-4.3
			c1.8-1.6,3.5-3.2,5.1-4.6c0.5-0.5,1.3-1.1,1.8-1.6c0.5-0.5,0.9-1.1,0.7-1.4c-2.2,0.4-4.2,0.2-6,0c-1.8-0.2-3.5-0.2-5.3,0.4
			c-2.9,0.9-5.5,3.2-7.5,6c-1.8,3-3.1,6.6-3.3,10.1c0,2.8,0.4,5.5,1.1,8c0.7,2.5,1.8,4.6,2.9,6.7c4.2,0.7,4.7-0.9,4.4-3.2
			c-0.5-2.5-2-5.7-2.4-8.5C338.6,488.8,339,486.5,339.5,484.7"/>
		<path id="Fill-223" class="st5" d="M366.4,468.6c0.4,0.2,0.4,0.4,0.2,0.5c-0.2,0.4-0.4,0.7-0.4,1.1c0,1.3,0.4,2.4,1.1,3.5
			c0.7,1.1,1.8,1.8,2.8,2.2c-1.6,0.4-3.2-0.7-3.9-2.4C365.5,471.9,365.1,469.9,366.4,468.6 M369.2,468.3c1.1,0.2,2.3,1.3,2.8,2.7
			c0.5,1.5,0.7,3.3-0.2,4.5c-2.1,0.5-3.9-1.3-4.4-3.3C366.7,470.1,367.1,468.1,369.2,468.3 M361.7,484.5c1.4-0.9,3.7-2,6.2-3.3
			c2.5-1.3,4.6-2.7,5.3-4c1.4-2,0.5-5.1-1.2-7.3c-1.8-2.2-4.3-3.6-6.2-2.5c-2.3,1.5-4.6,2.9-6.8,4.4c-2.1,1.5-4.3,3.1-6.4,4.7
			c-2.1,1.6-4.4,3.1-6.6,4.5c-2.1,1.5-4.3,3.1-6.4,4.9c0.9,1.8,1.8,4.5,1.6,6.7c0,2.2-1.1,3.8-3.9,3.3c-1.4-0.2-2.1-0.9-2.7-2
			c-0.5-1.1-0.9-2.5-1.2-3.8c-1.1,0.4-2,0.9-2.8,1.6c-0.9,0.7-1.8,1.6-2.8,2.5c-0.9,0.5-2.1,1.1-3.2,1.8c-1.1,0.7-2.1,1.5-2.5,2.4
			c-0.4,1.5,0,3.1,0.9,4.4c0.9,1.3,2.1,2,3.4,2c0.5,0,1.1-0.2,1.8-0.5l0.2-0.2V499v-5.1c0,0,0.5-0.5,1.6-0.9
			c0.9-0.4,2.3-0.4,3.7,0.9c1.1,1.1,1.4,2,1.2,2.7c0,0.7-0.4,1.1-0.4,1.1h2.5h1.2c2.8-1.8,5.9-3.5,8.7-5.1
			C352,490.1,356.8,487.2,361.7,484.5"/>
		<path id="Fill-225" class="st5" d="M331.3,494c-1.2,1.9-2.9,3.1-4.4,4.5c-1.5,1.4-3,2.8-3.9,5c1.4-0.7,3-1.7,4.7-2.9
			c1.7-1.2,3.4-2.4,4.7-3.6c-0.3-0.3-0.3-1-0.3-1.7C331.8,494.7,331.6,494.2,331.3,494"/>
		<path id="Fill-227" class="st5" d="M360.9,486.2C360.9,486,360.9,486,360.9,486.2c0-0.2-0.2-0.2-0.2-0.2c-3.1,2.2-6.2,4-9.4,5.8
			c-3.1,1.8-6.4,3.7-9.4,5.7v1.1h8.7v-1.5c0-0.4-0.2-1.3-0.2-2c0-0.7,0.2-1.3,1-1.3c0.5,0.2,0.9,0.9,0.9,1.5c0,0.7-0.2,1.5-0.2,2
			v1.3h0.7h8V486.2z"/>
		<path id="Fill-229" class="st5" d="M349.7,359c0,1.1-0.3,2.9,0.5,3.2h0.5c1.2,0,0.5-1.9,0.7-3.2c0.9,0,1.4,0.4,2.1,0.6
			c0,1,0,1.9,0.2,2.7c1,0.2,1.6-0.4,1.4-1.5c1.9,1.7,3.5,3.6,3.6,7c0.9,0.4,1.6,1.1,1,2.3h-18.5c-0.3-1-0.3-2.3,1-2.1
			c0-3.8,1.7-5.5,3.3-7.4c0.5,0.6,0.2,1.9,1.4,1.5c0.7-0.4,0.5-1.7,0.5-2.7C348.3,359.4,348.8,359,349.7,359"/>
		<path id="Fill-231" class="st5" d="M359.2,371.2c2.1,13-20.5,11.6-16.8-0.2C347.8,371.2,354.2,370.7,359.2,371.2"/>
		<path id="Fill-233" class="st5" d="M349,387.5c1.3,0.9,3.1,0.9,4.3,0c-0.2-1.1-0.4-2.1-0.7-3C349.8,383.8,349,385.4,349,387.5
			 M372.5,389.5c-2.4,0.2-4.3,1.8-6.3,1.4c-2-0.2-2.9-2.3-4.7-2.7c-0.5,0.9,0,2.7-0.2,3.9c-2.9,0.2-5.1,1.2-8,1.4
			c0-1.6-0.5-2.7-0.5-4.5c-0.4-0.4-2.5,0.4-3.3-0.2c0.2,1.8-0.5,3-0.5,4.6c-2.9-0.2-5.1-1.2-8-1.4v-3.9c-1.8,0.5-3.1,2-4.7,2.7
			c-2.2-0.4-4.3-0.7-6.3-1.4c-0.4-0.5,1.1-2,2-2.7c2.5-2.1,8.5-6.6,13.7-5.7c2.9,0.5,6.9,3.2,10.5,0
			C364.2,381.1,369.3,385.6,372.5,389.5"/>
		<path id="Fill-235" class="st5" d="M330,390c7.3,1.4,14.2,3.2,21.4,4.7c0.4,2.5-0.7,6.5,0.5,8.3c1.2-0.4,0.7-2.3,0.7-3.8v-4.5
			c7.1-1.6,14-3.2,21.4-4.7v18.9c-3.7,0.7-7.3,1.4-11,2.2c-3.5,0.7-7.3,2.5-10.8,2.5c-3.5,0-7.8-1.4-11.3-2.2
			c-3.5-0.9-7.1-2-10.8-2.5C330,402.6,330,396.3,330,390"/>
		<path id="Fill-237" class="st5" d="M327.9,397c0.5,4.3,0,9.5,0.2,14.2C322.2,409.9,326.2,399.9,327.9,397"/>
		<path id="Fill-239" class="st5" d="M341.3,419c-0.4,0-0.4,0.3-0.2,0.8v2.3h9.3v-1.3C347.5,420.2,344.4,419.5,341.3,419"/>
		<path id="Fill-241" class="st5" d="M352,414v1.2h9.5c0-1.2-0.2-2.2-0.4-3.2C358.1,412.5,354.8,413,352,414"/>
		<path id="Fill-243" class="st5" d="M332.1,411.1c1.3-0.5,2,0.5,2,1.5c-0.1,2-3.8,2.2-3.1-0.6C331.1,411.9,331.5,411.3,332.1,411.1
			"/>
		<path id="Fill-245" class="st5" d="M369.2,411.1c1.2-0.3,1.8,0.3,1.9,0.9c0.6,2.6-3.1,2.9-3.1,0.6
			C368,411.7,368.4,411.2,369.2,411.1"/>
		<path id="Fill-247" class="st5" d="M365.8,428.6c0.4-0.5,0-2.3-0.2-3.3c-0.5-2.4-0.9-4.5-1.4-6.8c-0.2-1.2,0-2.6-0.9-3.3
			c-7.5-0.3-17.3-0.3-24.7,0c-0.7,0.9-1.1,4-1.4,6.4c-0.2,1.2-0.5,2.1-0.7,3.3c-0.2,1-0.7,3-0.4,3.5c0.7,1.4,3.6,0.2,5.5,0.5
			c-0.4-1.6-0.7-3.6-0.4-5.6c1.2-0.7,4.3-0.9,5.4,0.2c0.4,1.7,0,4-0.4,5.4h9.3c-0.4-1.4-1.1-3.6-0.4-5.6c1.3-0.7,4.5-0.9,5.4,0.2
			c0.5,2.1-0.2,4-0.5,5.2C362.2,428.6,364.9,429.8,365.8,428.6"/>
		<path id="Fill-249" class="st5" d="M333.9,424.4c-5.1,0.4-3.6-4.7-3.8-8.2c0.6-1.4,3.2-1.6,4-0.5
			C335.6,417.8,334.1,422.5,333.9,424.4"/>
		<path id="Fill-251" class="st5" d="M368.5,424.4c-0.4-2.3-1.2-9.1,0.9-9.4c1-0.2,1.3,0.5,1.8,1.2
			C370.9,419.7,371.9,424.8,368.5,424.4"/>
		<path id="Fill-253" class="st14" d="M327.6,394.8c0.8,3.8-4.4,3.8-4.6,0.6C323,392.7,327,392,327.6,394.8"/>
		<path id="Fill-255" class="st14" d="M327.6,409.7c1,4.2-4.8,3.8-4.6,0.2C323.2,407.8,327,407,327.6,409.7"/>
		<path id="Fill-257" class="st5" d="M329.1,179.1c1.3-0.5,2,0.5,2,1.5c-0.1,2-3.8,2.2-3.1-0.6C328.1,179.9,328.5,179.3,329.1,179.1
			"/>
		<path id="Fill-259" class="st5" d="M365.2,179.1c1.2-0.3,1.8,0.3,1.9,0.9c0.6,2.6-3.1,2.9-3.1,0.6
			C364,179.7,364.4,179.2,365.2,179.1"/>
		<path id="Fill-261" class="st5" d="M362.8,197.6c0.4-0.5,0-2.3-0.2-3.3c-0.5-2.4-0.9-4.5-1.4-6.8c-0.2-1.2,0-2.6-0.9-3.3
			c-7.5-0.3-17.3-0.3-24.7,0c-0.7,0.9-1.1,4-1.4,6.4c-0.2,1.2-0.5,2.1-0.7,3.3c-0.2,1-0.7,3-0.4,3.5c0.7,1.4,3.6,0.2,5.5,0.5
			c-0.4-1.6-0.7-3.6-0.4-5.6c1.2-0.7,4.3-0.9,5.4,0.2c0.4,1.7,0,4-0.4,5.4h9.3c-0.4-1.4-1.1-3.6-0.4-5.6c1.3-0.7,4.5-0.9,5.4,0.2
			c0.5,2.1-0.2,4-0.5,5.2C359.2,197.6,361.9,198.8,362.8,197.6"/>
		<path id="Fill-263" class="st5" d="M330.9,193.4c-5.1,0.4-3.6-4.7-3.8-8.2c0.6-1.4,3.2-1.6,4-0.5
			C332.6,186.8,331.1,191.5,330.9,193.4"/>
		<path id="Fill-265" class="st5" d="M364.5,193.4c-0.4-2.3-1.2-9.1,0.9-9.4c1-0.2,1.3,0.5,1.8,1.2
			C366.9,188.7,367.9,193.8,364.5,193.4"/>
		<path id="Fill-267" class="st14" d="M340.8,195.1c3.8-0.8,3.8,4.4,0.6,4.6C338.7,199.7,338,195.7,340.8,195.1"/>
		<path id="Fill-269" class="st14" d="M353.7,195.1c4.2-1,3.8,4.8,0.2,4.6C351.8,199.5,351,195.7,353.7,195.1"/>
		<path id="Fill-271" class="st5" d="M328.1,584.1c1.3-0.5,2,0.5,2,1.5c-0.1,2-3.8,2.2-3.1-0.6C327.1,584.7,327.5,584.3,328.1,584.1
			"/>
		<path id="Fill-273" class="st5" d="M362.2,582.1c1.2-0.3,1.8,0.3,1.9,0.9c0.6,2.6-3.1,2.9-3.1,0.6
			C361,582.7,361.4,582.2,362.2,582.1"/>
		<path id="Fill-275" class="st5" d="M360.8,599.6c0.4-0.5,0-2.3-0.2-3.3c-0.5-2.4-0.9-4.5-1.4-6.8c-0.2-1.2,0-2.6-0.9-3.3
			c-7.5-0.3-17.3-0.3-24.7,0c-0.7,0.9-1.1,4-1.4,6.4c-0.2,1.2-0.5,2.1-0.7,3.3c-0.2,1-0.7,3-0.4,3.5c0.7,1.4,3.6,0.2,5.5,0.5
			c-0.4-1.6-0.7-3.6-0.4-5.6c1.3-0.7,4.3-0.9,5.4,0.2c0.4,1.7,0,4-0.4,5.4h9.3c-0.4-1.4-1.1-3.6-0.4-5.6c1.2-0.7,4.5-0.9,5.4,0.2
			c0.5,2.1-0.2,4-0.5,5.2C357.2,599.6,359.9,600.8,360.8,599.6"/>
		<path id="Fill-277" class="st5" d="M330.9,598.4c-5.1,0.4-3.6-4.7-3.8-8.2c0.6-1.4,3.2-1.6,4-0.5
			C332.6,591.6,331.1,596.5,330.9,598.4"/>
		<path id="Fill-279" class="st5" d="M363.5,596.4c-0.4-2.3-1.2-9.1,0.9-9.4c1-0.2,1.3,0.5,1.8,1.2
			C365.9,591.7,366.9,596.8,363.5,596.4"/>
		<path id="Fill-281" class="st14" d="M337.8,597.1c3.8-0.8,3.8,4.4,0.6,4.6C335.7,601.7,335,597.7,337.8,597.1"/>
		<path id="Fill-283" class="st14" d="M351.7,597.1c4.2-1,3.8,4.8,0.2,4.6C349.8,601.3,349,597.7,351.7,597.1"/>
		<path id="Fill-285" class="st5" d="M332.1,499.1c1.3-0.5,2,0.5,2,1.5c-0.1,2-3.8,2.2-3.1-0.6C331.1,499.9,331.5,499.3,332.1,499.1
			"/>
		<path id="Fill-287" class="st5" d="M367.2,494.1c1.2-0.3,1.8,0.3,1.9,0.9c0.6,2.6-3.1,2.9-3.1,0.6
			C366,494.7,366.4,494.2,367.2,494.1"/>
		<path id="Fill-289" class="st5" d="M364.8,512.6c0.4-0.5,0-2.3-0.2-3.3c-0.5-2.4-0.9-4.5-1.4-6.8c-0.2-1.2,0-2.6-0.9-3.3
			c-7.5-0.3-17.3-0.3-24.7,0c-0.7,0.9-1.1,4-1.4,6.4c-0.2,1.2-0.5,2.1-0.7,3.3c-0.2,1-0.7,3-0.4,3.5c0.7,1.4,3.6,0.2,5.5,0.5
			c-0.4-1.6-0.7-3.6-0.4-5.6c1.3-0.7,4.3-0.9,5.4,0.2c0.4,1.7,0,4-0.4,5.4h9.3c-0.4-1.4-1.1-3.6-0.4-5.6c1.2-0.7,4.5-0.9,5.4,0.2
			c0.5,2.1-0.2,4-0.5,5.2C361.2,512.6,363.9,513.8,364.8,512.6"/>
		<path id="Fill-291" class="st5" d="M333.9,513.4c-5.1,0.4-3.6-4.7-3.8-8.2c0.6-1.4,3.2-1.6,4-0.5
			C335.6,506.8,334.1,511.5,333.9,513.4"/>
		<path id="Fill-293" class="st5" d="M366.5,508.4c-0.4-2.3-1.2-9.1,0.9-9.4c1-0.2,1.3,0.5,1.8,1.2
			C368.9,503.7,369.9,508.8,366.5,508.4"/>
		<path id="Fill-295" class="st14" d="M342.8,510.1c3.8-0.8,3.8,4.4,0.6,4.6C340.7,514.7,340,510.7,342.8,510.1"/>
		<path id="Fill-297" class="st14" d="M356.7,502.1c4.2-1,3.8,4.8,0.2,4.6C354.8,506.5,354,502.7,356.7,502.1"/>
		<path id="Fill-299" class="st5" d="M352.1,541.2c-1.6-5-9.9-6.1-13.9-2.4c-0.9,0.7-1.2,2-2.3,2.4c1.1-2,2.6-3.7,3.7-5.7
			c-2.1,0-4.6,0.2-6.9,0c-0.5,0-1.8,0.4-1.8-0.6c0-1.1,1.9-0.7,3-0.7c7.2,0,15.1-0.6,22.5,0c0.4,0,1.4-0.4,1.2,0.6
			c0.2,1.1-1.2,0.6-1.8,0.7c-1.9,0.2-4.8,0-6.7,0c0.7,1.7,2.5,3.7,3.5,5.3c0.4,0.4-0.2,0.2-0.4,0.6c3.3,6.6-0.7,13.8-6.5,14.5
			c-7.7,1.1-13-6.4-9.7-14.3c0-0.4,0.2-0.4,0.4-0.6C341.6,541.2,346.8,541.2,352.1,541.2"/>
		<path id="Fill-301" class="st5" d="M357.7,535h0.4c0,2.8-0.1,6,0.5,7.9H357C357.8,541,357.4,537.5,357.7,535"/>
		<path id="Fill-303" class="st5" d="M343.7,557.3c2.5,2.5,3.6,6.8,3.8,0.4c6.3-2.3,12.5,2.3,18.4,2.3c4.5,0,10.7-4.7,13.5-1.6
			c3.8,4.4-6.7,6.8-12.3,7.5c-3.2,0.4-7-0.4-9.6,0c-0.5,5.6-0.7,11.8-0.7,17.9h-21.1c0.9-3-1.8-4.4-2.3-7.2
			c-1.1-5.1,0.4-10.9,0.4-16.1C335.8,558.2,339.9,557.8,343.7,557.3"/>
		<path id="Fill-305" class="st5" d="M612.8,498.8c-0.2-0.9-4.5-1.3-4.5,0.4c0.2,0,0.2,0.2,0.2,0.2
			C609.3,499.9,612.9,500.3,612.8,498.8 M612.8,495c-0.2-0.9-4.5-1.3-4.5,0.4c0.2,0,0.2,0.2,0.2,0.2
			C609.3,496.1,612.9,496.5,612.8,495 M612.8,491.2c-0.2-0.9-4.5-1.3-4.5,0.4c0.2,0,0.2,0.2,0.2,0.2
			C609.3,492.3,612.9,492.7,612.8,491.2 M634.1,499h12.1v-12.1h-12.1C633.9,490.7,634.1,495,634.1,499 M618.9,499H631v-12.1h-12.1
			C618.7,490.7,618.9,495,618.9,499 M612.8,487.4c-0.2-0.9-4.5-1.3-4.5,0.4c0.2,0,0.2,0.2,0.2,0.2
			C609.3,488.3,612.9,488.9,612.8,487.4 M612.8,483.6c-0.2-0.9-4.5-1.3-4.5,0.4c0.2,0,0.2,0.2,0.2,0.2
			C609.3,484.5,612.9,485.1,612.8,483.6 M612.8,479.8c-0.2-0.9-4.5-1.3-4.5,0.4c0.2,0,0.2,0.2,0.2,0.2
			C609.3,480.8,612.9,481.3,612.8,479.8 M612.8,476.1c-0.2-0.9-4.5-1.3-4.5,0.4c0.2,0,0.2,0.2,0.2,0.2
			C609.3,477,612.9,477.5,612.8,476.1 M634.1,483.8h12.1v-12.1h-12.1C633.9,475.5,634.1,479.8,634.1,483.8 M618.9,483.8H631v-12.1
			h-12.1C618.7,475.5,618.9,479.8,618.9,483.8 M612.8,472.3c-0.2-0.9-4.5-1.3-4.5,0.4c0.2,0,0.2,0.2,0.2,0.2
			C609.3,473.2,612.9,473.7,612.8,472.3 M605.2,458h45.5v45.7h-35v-36.5h33.4c0.4-2.3,0-5.1,0.2-7.6h-42.6v7.6h7.6v36.5H605v-45.1
			C605.2,458.2,605.2,458,605.2,458"/>
		<path id="Fill-307" class="st5" d="M612.3,465.8c2-0.2,2-3.6-0.6-3C609.8,463.1,610.6,465.8,612.3,465.8 M611.5,461.1
			c4.9-0.8,5.1,6.8,0.2,6.2C608.4,466.9,607.8,461.6,611.5,461.1"/>
		<path id="Fill-309" class="st5" d="M618.3,465.8c2-0.2,2-3.6-0.6-3C615.8,463.1,616.6,465.8,618.3,465.8 M617.5,461.1
			c4.9-0.8,5.1,6.8,0.2,6.2C614.4,466.9,613.8,461.6,617.5,461.1"/>
		<path id="Fill-321" class="st5" d="M350.5,837.4c0.5,0,1.1,0,1.4,0.2c0.4,0.3,0.4,0.8,0.4,1.4h15.9c1.8,0,4.4-0.3,4.6,0.6
			c0.2,1.4-4.4,1-4.9,1h-35.4c-1.4,0-5.1,0.3-5.3-0.6c-0.2-1.3,2.8-1,4.4-1h15.9c0.4-0.2,0-1,0.4-1.3c0.4-0.3,0.9-0.3,1.6-0.3
			C348.2,835.5,351.2,835.5,350.5,837.4"/>
		<path id="Fill-323" class="st5" d="M328.2,844h42.4v25.2H328v-24.7C328.2,844.2,328.2,844,328.2,844"/>
		<path id="Fill-325" class="st5" d="M356.5,872.7c0.4,1,1.4,1.8,2.3,2.9c0.7,1,2.1,2.1,1.6,3.2c-1.6,0.2-2.5-1.6-3.4-2.8
			c-0.9-1.1-1.8-2.4-2.8-3.4c-3.2,0.5-6.4-0.6-8.8,0c-1.2,0.3-2.1,2.4-3,3.4c-1.1,1.1-1.8,2.8-3.4,2.8c-0.5-1.3,0.9-2.3,1.6-3.2
			c0.9-1,1.8-1.9,2.5-2.9h-12.5c-1.2,0-2.8,0.3-3.5-0.5c0-0.3,0-0.6,0.4-0.8c12.5-0.5,27-0.3,40.6-0.3c0.7,0,4.8-0.5,4.8,0.8
			c0,1.3-6,0.8-7.6,0.8H356.5z"/>
		<text transform="matrix(1 0 0 1 497 24)" class="st17 st27">Phases</text>
		<text transform="matrix(1 0 0 1 577.7107 24)" class="st17 st27"> </text>
		<text transform="matrix(1 0 0 1 497 57)" class="st17 st27">Concertation</text>
		<text transform="matrix(1 0 0 1 302.6154 91)" class="st16 st17 st2">Workshop 1</text>
		<text transform="matrix(1 0 0 1 305.0749 109)" class="st17 st28">(techniciens)</text>
		<text transform="matrix(1 0 0 1 306.6154 304)" class="st16 st17 st2">Workshop 2</text>
		<text transform="matrix(1 0 0 1 318.3903 328)" class="st17 st28">(techniciens</text>
		<text transform="matrix(1 0 0 1 388.2892 328)" class="st17 st28"> </text>
		<text transform="matrix(1 0 0 1 388.2903 328)" class="st17 st28">,</text>
		<text transform="matrix(1 0 0 1 391.6188 328)" class="st17 st28"> </text>
		<text transform="matrix(1 0 0 1 290.8717 344)" class="st17 st28">a</text>
		<text transform="matrix(1 0 0 1 297.6637 344)" class="st17 st28"> </text>
		<text transform="matrix(1 0 0 1 297.6637 344)" class="st17 st28">r</text>
		<text transform="matrix(1 0 0 1 302.2528 344)" class="st17 st28"> </text>
		<text transform="matrix(1 0 0 1 302.0369 344)" class="st17 st28">chitectes</text>
		<text transform="matrix(1 0 0 1 353.9599 344)" class="st17 st28"> </text>
		<text transform="matrix(1 0 0 1 353.9609 344)" class="st17 st28">,</text>
		<text transform="matrix(1 0 0 1 357.2894 344)" class="st17 st28"> </text>
		<text transform="matrix(1 0 0 1 356.9295 344)" class="st17 st28">étudiants)</text>
		<text transform="matrix(1 0 0 1 312.5957 916)" class="st16 st17 st2">Exposition</text>
		<text transform="matrix(1 0 0 1 311.6564 938)" class="st16 st17 st2">inte</text>
		<text transform="matrix(1 0 0 1 341.736 938)" class="st16 st17 st2"> </text>
		<text transform="matrix(1 0 0 1 341.7365 938)" class="st16 st17 st2">r</text>
		<text transform="matrix(1 0 0 1 347.8734 938)" class="st16 st17 st2"> </text>
		<text transform="matrix(1 0 0 1 347.6174 938)" class="st16 st17 st2">active</text>
		<text transform="matrix(1 0 0 1 352 1217)" class="st16 st17 st2">Geste urbain</text>
		<text transform="matrix(1 0 0 1 301 1240)" class="st16 st17 st2">de l</text>
		<text transform="matrix(1 0 0 1 329.8315 1240)" class="st16 st17 st2"> </text>
		<text transform="matrix(1 0 0 1 329.832 1240)" class="st16 st17 st2">’</text>
		<text transform="matrix(1 0 0 1 333.8855 1240)" class="st16 st17 st2"> </text>
		<text transform="matrix(1 0 0 1 332.9257 1240)" class="st16 st17 st2">ent</text>
		<text transform="matrix(1 0 0 1 358.2694 1240)" class="st16 st17 st2"> </text>
		<text transform="matrix(1 0 0 1 358.2697 1240)" class="st16 st17 st2">r</text>
		<text transform="matrix(1 0 0 1 364.3829 1240)" class="st16 st17 st2"> </text>
		<text transform="matrix(1 0 0 1 364.095 1240)" class="st16 st17 st2">ée no</text>
		<text transform="matrix(1 0 0 1 407.1346 1240)" class="st16 st17 st2"> </text>
		<text transform="matrix(1 0 0 1 407.135 1240)" class="st16 st17 st2">r</text>
		<text transform="matrix(1 0 0 1 413.247 1240)" class="st16 st17 st2"> </text>
		<text transform="matrix(1 0 0 1 412.9591 1240)" class="st16 st17 st2">d ﬁnalisé</text>
		<text transform="matrix(1 0 0 1 347 266)" class="st7 st1 st29">Suggestions</text>
		<text transform="matrix(1 0 0 1 276 639)" class="st7 st1 st29">Suggestions</text>
		<text transform="matrix(1 0 0 1 276 966)" class="st7 st1 st29">Suggestions</text>
		<polyline id="Stroke-341" class="st6" points="629.6,549 629.6,1015.3 502,1015.3 		"/>
		<polygon id="Fill-343" class="st7" points="512.2,1009 512.8,1010.5 502,1014.5 512.8,1018.5 512.2,1020 497,1014.5 		"/>
		<text transform="matrix(1 0 0 1 604.358 537)" class="st16 st17 st28">Web App</text>
		<g id="Group-347" transform="translate(542.000000, 256.000000)">
			<text transform="matrix(1 0 0 1 30.016 12.603)" class="st17 st2">P</text>
			<text transform="matrix(1 0 0 1 39.552 12.603)" class="st17 st2"> </text>
			<text transform="matrix(1 0 0 1 38.864 12.603)" class="st17 st2">ublic + Parties</text>
		</g>
		<text transform="matrix(1 0 0 1 586.6033 286)" class="st17 st2">p</text>
		<text transform="matrix(1 0 0 1 597.1152 286)" class="st17 st2"> </text>
		<text transform="matrix(1 0 0 1 597.1153 286)" class="st17 st2">r</text>
		<text transform="matrix(1 0 0 1 603.2884 286)" class="st17 st2"> </text>
		<text transform="matrix(1 0 0 1 603.0004 286)" class="st17 st2">enantes</text>
		<path id="Stroke-353" class="st30" d="M350,764v56.7"/>
		<polygon id="Fill-355" points="344,809.5 345.6,809 349.5,819.7 353.4,809 355,809.5 349.5,824.8 		"/>
		<text transform="matrix(1 0 0 1 525 1029)" class="st7 st1 st29">Suggestions</text>
		<text transform="matrix(1 0 0 1 301.1391 673)" class="st17 st2">Public + Parties</text>
		<text transform="matrix(1 0 0 1 312.6033 689)" class="st17 st2">p</text>
		<text transform="matrix(1 0 0 1 323.1152 689)" class="st17 st2"> </text>
		<text transform="matrix(1 0 0 1 323.1153 689)" class="st17 st2">r</text>
		<text transform="matrix(1 0 0 1 329.2884 689)" class="st17 st2"> </text>
		<text transform="matrix(1 0 0 1 329.0004 689)" class="st17 st2">enantes</text>
		<g id="Group" transform="translate(309.000000, 697.000000)">
			<path id="Fill-91" d="M54.8,44.2V53v20.3c0,2-1.2,3.2-2.9,3c-1.2-0.2-2.3-1.2-2.5-2.5V71V57.6v-0.9h-1.8v0.2v15.9
				c-0.5,1.8-1.6,3-3.2,3c-1.6,0-3.9-2.8-3.9-2.8v-9.8v-18c0-0.2,0-0.4-0.2-0.5c-0.2,0.2-0.2,0.4-0.4,0.7c-1.1,2.5-2.3,4.8-3.6,7.5
				c-0.5,1.2-2,1.8-3,1.4c-1.4-0.5-2.1-2-1.4-3.4c1.1-2.5,2.5-5,3.6-7.7c1.4-3,3-6.1,4.5-9.4c0.7-1.2,1.6-2,3.4-1.8h8.4
				c1.8-0.4,2.7,0.5,3.4,1.8c2.7,5.5,5.2,11.2,8,16.9c0.7,1.4,0.4,2.7-0.9,3.4c-1.2,0.7-2.9,0.2-3.6-1.2c-0.7-1.6-1.4-3.2-2.3-4.6
				C55.9,46.6,55.5,45.5,54.8,44.2C55,44.2,54.8,44.2,54.8,44.2"/>
			<path id="Fill-93" d="M33.6,44.8c-0.4-0.5-0.5-1.1-0.7-0.5h0.5L33.6,44.8c-0.7,1.2-1.1,2.7-1.8,3.9c-0.4,0.7-0.5,1.8-0.5,2.5
				c0,0.9,0.4,1.8,0.9,2.5c0.2,0.4-0.5,1.1-0.5,1.1v17.5c0,1.1-0.5,2.1-1.6,2.7c-0.9,0.5-2,0.4-2.7-0.5c-0.7-0.7-0.9-1.2-0.9-2.3
				v-9.1v-8h-1.8v2v15.3c0,0.5,0,0.9-0.2,1.4c-0.4,1.2-1.6,2.1-2.8,2c-1.2-0.2-2.1-1.2-2.3-2.7v-2.1v-26v-0.5h-0.2
				c-0.2,0.2-0.2,0.4-0.4,0.5c-1.1,2.5-2.1,4.8-3.2,7.1c-0.5,1.2-1.4,1.8-2.5,1.4c-1.2-0.4-2-1.6-1.6-3c0.4-0.9,0.7-1.8,1.2-2.7
				c2-4.6,4.1-9.3,6.2-14.1c0.5-1.4,1.4-2,2.9-2H30c0,0,2.5-0.5,3,0.9c0.9,2,1.8,3.9,2.7,5.9c0.2,0.5,0.2,0.9,0,1.4
				C35,41.4,34.3,43,33.6,44.8"/>
			<path id="Fill-95" d="M54.1,30c0.7-1.8,1.2-3.4,1.8-5.2c0.5-1.6,1.6-2.1,3.4-2h6.2c3.2-0.5,4.3,0.5,4.5,5.9
				c1.8,3.7,3.2,6.9,5,10.7c2.1,1.8,2.3,4.5,0.5,5.2c-1.2,0.5-2.5,0.2-3-1.2c-1.1-2.5-2.1-4.8-3.2-7.3c-0.2-0.2-0.2-0.4-0.5-0.5v1.8
				v26.4c0,0.5,0,1.2-0.2,1.8c-0.4,1.4-1.4,2.1-3,2c-1.2-0.2-2.1-1.2-2.1-2.7v-7.3v-2.1c0-0.9,0-1.6,0.5-2.5c0.5-1.1,0.5-2.3,0-3.4
				c-2.5-5.7-4.8-11.4-7.3-17.1C56.2,31.1,55.3,30.3,54.1,30"/>
			<path id="Fill-97" d="M8.5,36c-1.1,2.1-2,4.3-3.2,6.4c-0.2,0.2-0.2,0.5-0.4,0.7c-0.5,1.2-1.8,1.6-3,1.1c-1.1-0.5-1.4-1.8-0.9-2.8
				c1.1-2.3,2.1-4.8,3.4-7.1c1.2-2.7,2.5-5.3,3.9-8c0.5-1.1,1.2-1.6,2.5-1.6h7.8c0.5,0,0.9,0.2,1.1,0.9c0.4,1.1,0.7,2,1.2,3
				c0.2,0.5,0.4,0.7-0.4,0.9c-1.1,0.4-2,1.2-2.5,2.3c-2.8,5.7-5.3,11.4-8.2,16.9c-1.2,3,0.4,5.9,3.7,6.2v0.2v7.7
				c0,1.2-1.1,2.1-2.1,2.3c-1.2,0.2-2.5-0.5-3-1.8c-0.2-0.5-0.2-1.1-0.2-1.4V37.1C8.5,36.8,8.5,36.4,8.5,36"/>
			<path id="Fill-99" d="M31.5,23.9c0,3-2.5,5.5-5.5,5.5c-3,0-5.5-2.5-5.5-5.5c0-3,2.5-5.5,5.5-5.5C29,18.2,31.5,20.7,31.5,23.9"/>
			<path id="Fill-101" d="M63.4,21.1c-3,0-5.5-2.5-5.5-5.5c0-3,2.5-5.5,5.5-5.5c3,0,5.5,2.5,5.5,5.5C68.9,18.8,66.4,21.3,63.4,21.1"
				/>
			<path id="Fill-103" d="M42.7,24.3c0-3,2.5-5.5,5.5-5.5c3,0,5.5,2.5,5.5,5.5c0,3-2.5,5.5-5.5,5.5C45.2,29.8,42.7,27.3,42.7,24.3"
				/>
			<path id="Fill-105" d="M45.9,15v0.9c-0.2,0.7-0.4,1.1-1.1,1.4c-1.1,0.5-2.1,1.2-2.9,2.1c-0.7,1.1-1.6,1.1-2.7,0.9
				c-2.7-0.5-4.5-3-4.3-6.1c0.2-2.7,2.5-4.8,5.2-5c2.7-0.2,5.2,1.8,5.7,4.5V15z"/>
			<path id="Fill-107" d="M31.8,28.2c0.7-1.8,1.4-3.4,2.1-5.2c0.5-1.2,1.4-2,2.8-2h4.5c-0.9,2.7-0.5,5.2,1.4,7.5
				c-2.1,0.4-3,2-3.7,3.7c-0.5,1.2-1.1,2.3-1.6,3.7c-0.7-1.8-1.6-3.4-2.3-5C34.3,29.8,33.4,28.6,31.8,28.2"/>
			<path id="Fill-109" d="M19,18.2c0,2.9-2.3,5-5,5c-2.9,0-5-2.3-5-5c0-2.8,2.3-5,5-5S19,15.4,19,18.2"/>
			<path id="Fill-111" d="M34.7,10.6c-1.6,4.1-1.4,4.8,0.7,8.7c-0.7,0.4-1.6,0.9-2.3,1.4c-0.9-2.1-2.5-3.9-5-4.6s-4.8,0-6.9,1.6
				c0.2-0.4,0.2-0.5,0.2-0.7c0.7-1.6,1.6-3.4,2.3-5c0.7-1.4,1.6-2,3.4-1.4c2.3,0,4.3-0.2,6.6-0.2C33.8,10.4,34.3,10.6,34.7,10.6"/>
			<path id="Fill-113" d="M53,5c3,0,5.3,2.7,5,5.7c0,0.2-0.2,0.4-0.2,0.5c-0.4,0.7-0.9,1.4-1.2,2.1c-0.5,1.1-1.6,1.4-2.7,1.4
				c-2.7,0.4-5.2-1.2-5.7-3.9c-0.5-2.7,1.1-5.2,3.6-5.9H53z"/>
			<path id="Fill-115" d="M29.9,9.9c-2.7,0-4.8-2.3-4.8-4.8c0-2.7,2.1-4.8,4.8-4.8c2.7,0,4.8,2.1,4.8,4.8S32.5,9.9,29.9,9.9"/>
			<path id="Fill-117" d="M56.6,52.6c1.4,2,3,2.7,5.3,2.1v0.4v9.1c0,1.8-1.4,3-3.2,2.7c-1.2-0.2-2.1-1.1-2.1-2.5V53.1V52.6z"/>
			<path id="Fill-119" d="M35.2,54.7c2-0.4,3.4-0.5,5.3-0.7v1.1v9.6c0,1.6-1.1,2.5-2.7,2.5c-1.4,0-2.8-0.9-2.7-2.9
				c0.2-2.8,0-5.7,0-8.5V54.7z"/>
			<path id="Fill-121" d="M55.9,15.6c0,2,0.7,3.6,1.8,4.8c-0.9,0.5-1.6,0.9-2.5,1.4c-0.5-1.2-1.4-2.5-2.7-3.4
				c-1.2-0.9-2.7-1.4-4.1-1.4c-0.2-1.2,0-1.4,1.1-1.4C51.8,15.4,53.7,15.6,55.9,15.6"/>
			<path id="Fill-123" d="M17.4,52.3v12.5c-1.4-0.2-2.5-1.1-1.8-2.3v-7.8c-0.7-0.2-0.5-0.4-0.5-0.5C15.8,53.3,16.5,52.8,17.4,52.3"
				/>
		</g>
		<g id="Group_1_" transform="translate(591.000000, 296.000000)">
			<path id="Fill-91_1_" d="M54.8,44.2V53v20.3c0,2-1.2,3.2-2.9,3c-1.2-0.2-2.3-1.2-2.5-2.5V71V57.6v-0.9h-1.8v0.2v15.9
				c-0.5,1.8-1.6,3-3.2,3c-1.6,0-3.9-2.8-3.9-2.8v-9.8v-18c0-0.2,0-0.4-0.2-0.5c-0.2,0.2-0.2,0.4-0.4,0.7c-1.1,2.5-2.3,4.8-3.6,7.5
				c-0.5,1.2-2,1.8-3,1.4c-1.4-0.5-2.1-2-1.4-3.4c1.1-2.5,2.5-5,3.6-7.7c1.4-3,3-6.1,4.5-9.4c0.7-1.2,1.6-2,3.4-1.8h8.4
				c1.8-0.4,2.7,0.5,3.4,1.8c2.7,5.5,5.2,11.2,8,16.9c0.7,1.4,0.4,2.7-0.9,3.4c-1.2,0.7-2.9,0.2-3.6-1.2c-0.7-1.6-1.4-3.2-2.3-4.6
				C55.9,46.6,55.5,45.5,54.8,44.2C55,44.2,54.8,44.2,54.8,44.2"/>
			<path id="Fill-93_1_" d="M33.6,44.8c-0.4-0.5-0.5-1.1-0.7-0.5h0.5L33.6,44.8c-0.7,1.2-1.1,2.7-1.8,3.9c-0.4,0.7-0.5,1.8-0.5,2.5
				c0,0.9,0.4,1.8,0.9,2.5c0.2,0.4-0.5,1.1-0.5,1.1v17.5c0,1.1-0.5,2.1-1.6,2.7c-0.9,0.5-2,0.4-2.7-0.5c-0.7-0.7-0.9-1.2-0.9-2.3
				v-9.1v-8h-1.8v2v15.3c0,0.5,0,0.9-0.2,1.4c-0.4,1.2-1.6,2.1-2.8,2c-1.2-0.2-2.1-1.2-2.3-2.7v-2.1v-26v-0.5h-0.2
				c-0.2,0.2-0.2,0.4-0.4,0.5c-1.1,2.5-2.1,4.8-3.2,7.1c-0.5,1.2-1.4,1.8-2.5,1.4c-1.2-0.4-2-1.6-1.6-3c0.4-0.9,0.7-1.8,1.2-2.7
				c2-4.6,4.1-9.3,6.2-14.1c0.5-1.4,1.4-2,2.9-2H30c0,0,2.5-0.5,3,0.9c0.9,2,1.8,3.9,2.7,5.9c0.2,0.5,0.2,0.9,0,1.4
				C35,41.4,34.3,43,33.6,44.8"/>
			<path id="Fill-95_1_" d="M54.1,30c0.7-1.8,1.2-3.4,1.8-5.2c0.5-1.6,1.6-2.1,3.4-2h6.2c3.2-0.5,4.3,0.5,4.5,5.9
				c1.8,3.7,3.2,6.9,5,10.7c2.1,1.8,2.3,4.5,0.5,5.2c-1.2,0.5-2.5,0.2-3-1.2c-1.1-2.5-2.1-4.8-3.2-7.3c-0.2-0.2-0.2-0.4-0.5-0.5v1.8
				v26.4c0,0.5,0,1.2-0.2,1.8c-0.4,1.4-1.4,2.1-3,2c-1.2-0.2-2.1-1.2-2.1-2.7v-7.3v-2.1c0-0.9,0-1.6,0.5-2.5c0.5-1.1,0.5-2.3,0-3.4
				c-2.5-5.7-4.8-11.4-7.3-17.1C56.2,31.1,55.3,30.3,54.1,30"/>
			<path id="Fill-97_1_" d="M8.5,36c-1.1,2.1-2,4.3-3.2,6.4c-0.2,0.2-0.2,0.5-0.4,0.7c-0.5,1.2-1.8,1.6-3,1.1
				c-1.1-0.5-1.4-1.8-0.9-2.8c1.1-2.3,2.1-4.8,3.4-7.1c1.2-2.7,2.5-5.3,3.9-8c0.5-1.1,1.2-1.6,2.5-1.6h7.8c0.5,0,0.9,0.2,1.1,0.9
				c0.4,1.1,0.7,2,1.2,3c0.2,0.5,0.4,0.7-0.4,0.9c-1.1,0.4-2,1.2-2.5,2.3c-2.8,5.7-5.3,11.4-8.2,16.9c-1.2,3,0.4,5.9,3.7,6.2v0.2
				v7.7c0,1.2-1.1,2.1-2.1,2.3c-1.2,0.2-2.5-0.5-3-1.8c-0.2-0.5-0.2-1.1-0.2-1.4V37.1C8.5,36.8,8.5,36.4,8.5,36"/>
			<path id="Fill-99_1_" d="M31.5,23.9c0,3-2.5,5.5-5.5,5.5c-3,0-5.5-2.5-5.5-5.5c0-3,2.5-5.5,5.5-5.5C29,18.2,31.5,20.7,31.5,23.9"
				/>
			<path id="Fill-101_1_" d="M63.4,21.1c-3,0-5.5-2.5-5.5-5.5c0-3,2.5-5.5,5.5-5.5c3,0,5.5,2.5,5.5,5.5
				C68.9,18.8,66.4,21.3,63.4,21.1"/>
			<path id="Fill-103_1_" d="M42.7,24.3c0-3,2.5-5.5,5.5-5.5c3,0,5.5,2.5,5.5,5.5c0,3-2.5,5.5-5.5,5.5
				C45.2,29.8,42.7,27.3,42.7,24.3"/>
			<path id="Fill-105_1_" d="M45.9,15v0.9c-0.2,0.7-0.4,1.1-1.1,1.4c-1.1,0.5-2.1,1.2-2.9,2.1c-0.7,1.1-1.6,1.1-2.7,0.9
				c-2.7-0.5-4.5-3-4.3-6.1c0.2-2.7,2.5-4.8,5.2-5c2.7-0.2,5.2,1.8,5.7,4.5V15z"/>
			<path id="Fill-107_1_" d="M31.8,28.2c0.7-1.8,1.4-3.4,2.1-5.2c0.5-1.2,1.4-2,2.8-2h4.5c-0.9,2.7-0.5,5.2,1.4,7.5
				c-2.1,0.4-3,2-3.7,3.7c-0.5,1.2-1.1,2.3-1.6,3.7c-0.7-1.8-1.6-3.4-2.3-5C34.3,29.8,33.4,28.6,31.8,28.2"/>
			<path id="Fill-109_1_" d="M19,18.2c0,2.9-2.3,5-5,5c-2.9,0-5-2.3-5-5c0-2.8,2.3-5,5-5S19,15.4,19,18.2"/>
			<path id="Fill-111_1_" d="M34.7,10.6c-1.6,4.1-1.4,4.8,0.7,8.7c-0.7,0.4-1.6,0.9-2.3,1.4c-0.9-2.1-2.5-3.9-5-4.6s-4.8,0-6.9,1.6
				c0.2-0.4,0.2-0.5,0.2-0.7c0.7-1.6,1.6-3.4,2.3-5c0.7-1.4,1.6-2,3.4-1.4c2.3,0,4.3-0.2,6.6-0.2C33.8,10.4,34.3,10.6,34.7,10.6"/>
			<path id="Fill-113_1_" d="M53,5c3,0,5.3,2.7,5,5.7c0,0.2-0.2,0.4-0.2,0.5c-0.4,0.7-0.9,1.4-1.2,2.1c-0.5,1.1-1.6,1.4-2.7,1.4
				c-2.7,0.4-5.2-1.2-5.7-3.9c-0.5-2.7,1.1-5.2,3.6-5.9H53z"/>
			<path id="Fill-115_1_" d="M29.9,9.9c-2.7,0-4.8-2.3-4.8-4.8c0-2.7,2.1-4.8,4.8-4.8c2.7,0,4.8,2.1,4.8,4.8S32.5,9.9,29.9,9.9"/>
			<path id="Fill-117_1_" d="M56.6,52.6c1.4,2,3,2.7,5.3,2.1v0.4v9.1c0,1.8-1.4,3-3.2,2.7c-1.2-0.2-2.1-1.1-2.1-2.5V53.1V52.6z"/>
			<path id="Fill-119_1_" d="M35.2,54.7c2-0.4,3.4-0.5,5.3-0.7v1.1v9.6c0,1.6-1.1,2.5-2.7,2.5c-1.4,0-2.8-0.9-2.7-2.9
				c0.2-2.8,0-5.7,0-8.5V54.7z"/>
			<path id="Fill-121_1_" d="M55.9,15.6c0,2,0.7,3.6,1.8,4.8c-0.9,0.5-1.6,0.9-2.5,1.4c-0.5-1.2-1.4-2.5-2.7-3.4
				c-1.2-0.9-2.7-1.4-4.1-1.4c-0.2-1.2,0-1.4,1.1-1.4C51.8,15.4,53.7,15.6,55.9,15.6"/>
			<path id="Fill-123_1_" d="M17.4,52.3v12.5c-1.4-0.2-2.5-1.1-1.8-2.3v-7.8c-0.7-0.2-0.5-0.4-0.5-0.5
				C15.8,53.3,16.5,52.8,17.4,52.3"/>
		</g>
		<text transform="matrix(1 0 0 1 27 703)" class="st0 st1 st2">Le calendrier de l&apos;exposition </text>
		<text transform="matrix(1 0 0 1 27 725)" class="st0 st1 st2">sera bientôt affiché. Vous </text>
		<text transform="matrix(1 0 0 1 27 747)" class="st0 st1 st2">pourrez y laisser votre avis, qui </text>
		<text transform="matrix(1 0 0 1 27 769)" class="st0 st1 st2">sera immédiatement transmis </text>
		<text transform="matrix(1 0 0 1 27 791)" class="st0 st1 st2">au site web.</text>
	</g>
</g>
</svg>
