<?xml version="1.0" encoding="UTF-8"?>
<svg width="970px" height="1257px" viewBox="0 0 970 1257" version="1.1" xmlns="http://www.w3.org/2000/svg" xmlns:xlink="http://www.w3.org/1999/xlink">
    <!-- Generator: Sketch 46.2 (44496) - http://www.bohemiancoding.com/sketch -->
    <title>Group 11</title>
    <desc>Created with Sketch.</desc>
    <defs></defs>
    <g id="Page-1" stroke="none" stroke-width="1" fill="none" fill-rule="evenodd">
        <g id="Landing-Screen--desktop" transform="translate(-224.000000, -2238.000000)">
            <g id="Group-11" transform="translate(224.000000, 2233.000000)">
                <text id="Votre-participation" font-family="AvenirNext-Regular, Avenir Next, Lato-Regular, Lato, Sans-serif" font-size="16" font-weight="normal" fill="#4A4A4A">
                    <tspan x="708" y="169">Votre participation peut </tspan>
                    <tspan x="708" y="188">influencer les futurs </tspan>
                    <tspan x="708" y="207">aménagements de votre ville, et </tspan>
                    <tspan x="708" y="226">en l'occurence la vision urbaine de </tspan>
                    <tspan x="708" y="245">l’Entrée Nord. Grâce à ce site web </tspan>
                    <tspan x="708" y="264">la concertation se déroulera </tspan>
                    <tspan x="708" y="283">d’août à octobre.</tspan>
                </text>
                <text id="L'engagement-civique" font-family="AvenirNext-Regular, Avenir Next, Lato-Regular, Lato, Sans-serif" font-size="16" font-weight="normal" fill="#4A4A4A">
                    <tspan x="708" y="536">L'engagement civique est crucial. </tspan>
                    <tspan x="708" y="555">Vous pouvez donner votre avis sur </tspan>
                    <tspan x="708" y="574">l'avenir de votre ville durant des </tspan>
                    <tspan x="708" y="593">consultations publiques ou bien </tspan>
                    <tspan x="708" y="612">en utilisant ce site web initié par </tspan>
                    <tspan x="708" y="631">la Ville de Nouméa. </tspan>
                </text>
                <path d="M690,142.500164 C688.619288,142.500164 687.5,143.619452 687.5,145.000164 L687.5,299.196204 C687.5,300.576916 688.619288,301.696204 690,301.696204 L701.138147,301.696204 C701.511128,301.696204 701.881712,301.755822 702.235873,301.872802 C704.071337,302.47906 705.067806,304.458466 704.461549,306.29393 L697.368302,327.768975 C697.062853,328.693732 697.322235,329.711699 698.032971,330.377529 C699.040595,331.321488 700.622665,331.269878 701.566625,330.262254 L727.290609,302.803339 C727.952321,302.096998 728.876985,301.696204 729.844859,301.696204 L967,301.696204 C968.380712,301.696204 969.5,300.576916 969.5,299.196204 L969.5,145.000164 C969.5,143.619452 968.380712,142.500164 967,142.500164 L690,142.500164 Z" id="Rectangle-26" stroke="#979797"></path>
                <path d="M690,482.448163 C688.619288,482.448163 687.5,483.567451 687.5,484.948163 L687.5,618.626542 C687.5,620.007254 688.619288,621.126542 690,621.126542 L697.389495,621.126542 C697.900166,621.126542 698.404651,621.238291 698.867551,621.453948 C700.619726,622.270256 701.378397,624.352422 700.562089,626.104598 L692.716932,642.943947 C692.320364,643.795166 692.43426,644.796823 693.011812,645.537278 C693.860992,646.625974 695.431951,646.82014 696.520647,645.97096 L727.423549,621.86678 C728.038559,621.387074 728.796183,621.126542 729.576155,621.126542 L967,621.126542 C968.380712,621.126542 969.5,620.007254 969.5,618.626542 L969.5,484.948163 C969.5,483.567451 968.380712,482.448163 967,482.448163 L690,482.448163 Z" id="Rectangle-26-Copy" stroke="#979797" transform="translate(828.500000, 564.474000) scale(1, -1) translate(-828.500000, -564.474000) "></path>
                <path d="M3,597.5 C1.61928813,597.5 0.5,598.619288 0.5,600 L0.5,826.513399 C0.5,827.894111 1.61928813,829.013399 3,829.013399 L10.2986261,829.013399 C10.5991433,829.013399 10.8984091,829.052103 11.1890387,829.128556 C13.0584362,829.620317 14.1752309,831.534414 13.6834696,833.403812 L4.56905924,868.051628 C4.30640495,869.050091 4.68453452,870.107309 5.52083567,870.712714 C6.63925458,871.522346 8.20224889,871.272025 9.01188117,870.153606 L37.7456412,830.461043 C38.4038602,829.551785 39.4582502,829.013399 40.5807484,829.013399 L263,829.013399 C264.380712,829.013399 265.5,827.894111 265.5,826.513399 L265.5,600 C265.5,598.619288 264.380712,597.5 263,597.5 L3,597.5 Z" id="Rectangle-26-Copy-2" stroke="#979797" transform="translate(133.000000, 734.343927) scale(1, -1) rotate(-180.000000) translate(-133.000000, -734.343927) "></path>
                <path d="M621,951 L626,951" id="Stroke-175" stroke="#477393" stroke-width="0.972"></path>
                <path d="M627.226079,465.536541 C629.044178,465.357233 629.044178,462.126503 626.681132,462.664429 C624.863034,463.024633 625.58963,465.536541 627.226079,465.536541 M626.499483,461.050651 C631.043925,460.331829 631.225574,467.510524 626.681132,466.971011 C623.044936,466.612393 623.228192,461.588577 626.499483,461.050651" id="Fill-311" fill="#A7A7A7"></path>
                <path d="M630,474 L630,483 L621.043672,483 C621.043672,480.00052 620.86821,476.823132 621.220687,474 L630,474 Z" id="Fill-313" fill="#A7A7A7"></path>
                <path d="M644,474 L644,483 L635.04368,483 C635.04368,480.00052 634.868187,476.823132 635.220725,474 L644,474 Z" id="Fill-315" fill="#A7A7A7"></path>
                <path d="M630,488 L630,497 L621.043672,497 C621.043672,494.00052 620.86821,490.824692 621.220687,488 L630,488 Z" id="Fill-317" fill="#A7A7A7"></path>
                <path d="M644,488 L644,497 L635.04368,497 C635.04368,494.00052 634.868187,490.824692 635.220725,488 L644,488 Z" id="Fill-319" fill="#A7A7A7"></path>
                <path d="M631,379 L631,436" id="Stroke-349" stroke="#477393" stroke-width="0.972" stroke-dasharray="4.861,4.861"></path>
                <polygon id="Fill-351" fill="#477393" points="624 427.545071 625.597204 427 629.500784 437.909456 633.402796 427 635 427.545071 629.500784 443"></polygon>
                <path d="M499,135 C515.01699,135 528,147.984216 528,163.999223 C528,180.015784 515.01699,193 499,193 C482.98301,193 470,180.015784 470,163.999223 C470,147.984216 482.98301,135 499,135 Z" id="Stroke-1" stroke="#635D58" stroke-width="1.645"></path>
                <path d="M499,452 C515.01699,452 528,464.984216 528,480.999223 C528,497.015784 515.01699,510 499,510 C482.98301,510 470,497.015784 470,480.999223 C470,464.984216 482.98301,452 499,452 Z" id="Stroke-3" stroke="#635D58" stroke-width="1.645"></path>
                <path d="M542,482 C542,457.949241 522.344158,438.886344 498,438.886344 L498,208" id="Stroke-5" stroke="#020202" stroke-width="2"></path>
                <path d="M542,482 C542,506.344158 522.571493,526 498.508894,526 C474.447872,526 455.017789,506.344158 455.017789,482 L388,482" id="Stroke-7" stroke="#020202" stroke-width="2"></path>
                <path d="M499,1135 C515.01699,1135 528,1147.98422 528,1163.99922 C528,1180.01734 515.01699,1193 499,1193 C482.98301,1193 470,1180.01734 470,1163.99922 C470,1147.98422 482.98301,1135 499,1135 Z" id="Stroke-9" stroke="#635D58" stroke-width="1.645"></path>
                <path d="M588,482 L544,482" id="Stroke-11" stroke="#020202" stroke-width="2" stroke-linecap="square"></path>
                <polyline id="Stroke-13" stroke="#020202" stroke-width="2" points="456 163 450.675628 163 385 163"></polyline>
                <path d="M499,828 C515.01699,828 528,840.984216 528,856.999223 C528,873.015784 515.01699,886 499,886 C482.98301,886 470,873.015784 470,856.999223 C470,840.984216 482.98301,828 499,828 Z" id="Stroke-15" stroke="#635D58" stroke-width="1.645"></path>
                <path d="M385,857.643761 L456.817027,857.643761 C456.817027,880.838931 475.669949,901 499.908514,901 C524.147078,901 543,881.373804 543,857.28718 C543,833.200556 524.147078,814.109232 499.908514,814.109232 L499.908514,524" id="Stroke-17" stroke="#000000" stroke-width="2"></path>
                <polyline id="Stroke-19" stroke="#020202" stroke-width="2" points="387 393 412 393 412 480.791964 412 565 387 565"></polyline>
                <path d="M500,207 C475.674887,207 456,187.325113 456,163" id="Stroke-21" stroke="#635D58" stroke-width="1.928" stroke-linecap="square"></path>
                <path d="M498,208 C522.325113,208 542,188.431766 542,164.016719 C542,139.601672 522.325113,120.033438 498,120.033438 L498,80" id="Stroke-23" stroke="#020202" stroke-width="2" stroke-linecap="square"></path>
                <path d="M498,1208 C522.325113,1208 542,1188.42208 542,1164.21333 C542,1140.00615 522.325113,1120.42665 498,1120.42665 L498,1121.49543 L498,899" id="Stroke-25" stroke="#020202" stroke-width="2" stroke-linecap="square"></path>
                <path d="M504,1208.36292 C504,1199.87903 490,1199.87903 490,1208.36292 C490,1218.54569 504,1218.54569 504,1208.36292" id="Fill-27" fill="#635D58"></path>
                <path d="M506,206.363534 C506,197.878822 492,197.878822 492,206.363534 C492,216.545489 506,216.545489 506,206.363534" id="Fill-29" fill="#635D58"></path>
                <path d="M506,80.363534 C506,71.878822 492,71.878822 492,80.363534 C492,90.5454887 506,90.5454887 506,80.363534" id="Fill-31" fill="#635D58"></path>
                <path d="M506,524.363534 C506,515.878822 492,515.878822 492,524.363534 C492,534.545489 506,534.545489 506,524.363534" id="Fill-33" fill="#635D58"></path>
                <path d="M506,899.36292 C506,890.879027 492,890.879027 492,899.36292 C492,909.545693 506,909.545693 506,899.36292" id="Fill-35" fill="#635D58"></path>
                <path d="M331.362608,1141.36463 C331.015498,1140.81797 330.668389,1140.27291 330.321279,1139.91115 C330.321279,1139.72786 329.974169,1139.72786 329.974169,1139.72786 C328.237085,1140.27291 327.020665,1139.72786 325.804245,1138.27277 C325.457135,1138.81943 325.110025,1139.36449 324.762915,1139.72786 C324.93647,1140.09123 325.110025,1140.4562 325.28358,1140.63789 C325.457135,1140.81797 325.804245,1141.36463 325.979335,1141.36463 L331.362608,1141.36463 Z M337.962301,1139.91115 C337.094527,1139.72786 336.747417,1140.09123 336.051662,1141.36463 L337.094527,1141.36463 L337.788746,1141.36463 C337.441636,1143.18308 337.094527,1144.81825 336.573862,1146.45502 C336.051662,1148.45516 336.573862,1150.09193 337.962301,1151.36533 C339.525831,1153.00049 341.089361,1154.63726 342.477799,1156.27242 C342.824909,1156.6374 343,1157.18245 343,1157.54582 L343,1166.99986 C343,1168.27326 342.305781,1169 341.262915,1169 C339.178721,1169 338.484502,1166.09144 341.957135,1161.72779 C340.22005,1157.90919 340.915806,1159.54596 339.352276,1155.72898 L337.788746,1155.72898 L337.788746,1156.6374 L337.788746,1166.63649 C337.788746,1167.7266 337.441636,1168.27326 336.573862,1168.45495 C335.530997,1168.63663 334.489668,1168.09158 334.314577,1166.99986 L334.314577,1166.09144 L334.314577,1146.27333 C334.314577,1145.72828 333.967467,1145.18322 333.967467,1144.63656 L332.926138,1144.63656 C332.752583,1145.18322 332.579028,1145.72828 332.579028,1146.27333 L332.579028,1166.63649 C332.579028,1167.54491 332.405473,1168.27326 331.536163,1168.63663 C330.321279,1169.18329 329.104859,1168.27326 329.104859,1166.99986 L329.104859,1156.6374 L329.104859,1155.54568 L327.367774,1155.54568 L327.367774,1156.45571 L327.367774,1166.99986 C327.367774,1168.27326 326.673555,1169 325.457135,1169 C324.242251,1169 323.895141,1168.27326 323.895141,1166.99986 L323.895141,1165.72646 L323.895141,1148.09179 C323.895141,1147.00007 323.72005,1145.90996 323.025831,1145.00154 C322.678721,1144.63656 322.505166,1144.27319 322.158056,1144.09151 L322.158056,1144.45488 L322.158056,1164.99972 C322.158056,1165.72646 322.158056,1166.45481 321.463837,1166.81818 C320.941636,1166.99986 320.247417,1167.18315 319.553197,1166.99986 C319.204552,1166.81818 318.683887,1166.09144 318.683887,1165.54638 L318.683887,1154.81894 L318.683887,1153.91052 C318.163223,1153.91052 319.204552,1153.91052 318.683887,1153.91052 L318.683887,1154.81894 L318.683887,1165.3647 C318.683887,1166.63649 317.989668,1167.36323 317.121893,1167.54491 C316.079028,1167.54491 315.209718,1166.81818 315.209718,1165.3647 L315.209718,1143.90982 C315.209718,1143.90982 314.515498,1142.63642 314.168389,1142.09137 C312.953505,1140.09123 311.737085,1138.27277 310.520665,1136.27263 C310.173555,1135.72758 310,1135.18252 310,1134.45578 L310,1126.27354 C310,1125.00014 310.694219,1124.2734 311.56353,1124.2734 C312.606395,1124.2734 313.474169,1125.00014 313.474169,1126.27354 L313.474169,1134.63586 C313.474169,1135.00084 313.647724,1135.54589 313.821279,1135.90926 C314.341944,1137.00098 315.037699,1137.91101 315.905473,1138.81943 C316.079028,1138.99951 316.426138,1139.36449 316.773248,1139.36449 L318.683887,1139.36449 L318.683887,1137.00098 C316.773248,1137.00098 315.037699,1135.54589 315.384809,1133.18238 C315.558364,1130.81887 320.420972,1130.09053 320.420972,1130.09053 L320.420972,1128.092 C320.420972,1128.092 320.768082,1126.27354 321.635856,1126.27354 C322.505166,1126.27354 322.158056,1128.092 322.158056,1128.092 L322.158056,1135.90926 L323.895141,1133.72744 L323.895141,1125.36512 C323.895141,1123.91003 324.589361,1123 325.804245,1123 C327.020665,1123 327.367774,1123.72835 327.367774,1125.36512 L327.367774,1131.90898 L327.367774,1132.81901 C328.06353,1132.81901 328.584194,1132.81901 329.104859,1132.63733 L329.104859,1127.91031 C329.104859,1126.81859 329.625524,1125.91017 330.494834,1125.91017 C331.536163,1125.72688 332.405473,1126.45683 332.579028,1127.91031 L332.579028,1135.90926 C332.579028,1136.81929 332.752583,1137.54603 333.446803,1138.27277 C333.967467,1137.72772 334.314577,1137.18266 334.314577,1136.45432 L334.314577,1127.54533 C334.314577,1126.27354 335.010332,1125.5468 335.878107,1125.5468 C336.920972,1125.5468 337.788746,1126.27354 337.788746,1127.54533 L337.788746,1132.09067 L339.525831,1132.09067 L339.525831,1130.09053 C339.525831,1129.00203 340.22005,1128.27368 341.089361,1128.27368 C341.957135,1128.27368 343,1129.00203 343,1129.91045 L343,1135.90926 C340.568696,1136.45432 338.831611,1137.54603 337.962301,1139.91115 L337.962301,1139.91115 Z" id="Fill-37" fill="#000000"></path>
                <path d="M356.136242,1174.52771 L350.531096,1174.52771 C350.350388,1174.52771 350.16968,1174.70764 349.987372,1174.70764 C348.541708,1176.32865 347.094445,1178.12958 345.647182,1179.93052 C347.275153,1181.37 348.903124,1182.81106 350.350388,1184.25054 C351.434636,1185.33174 351.615344,1186.41294 351.07322,1187.49255 C350.350388,1188.93361 348.361,1189.47342 347.094445,1188.39222 C344.743642,1186.41294 342.573547,1184.25054 340.042036,1181.91139 C338.77708,1180.83019 338.77708,1179.38912 339.861328,1178.12958 C342.573547,1174.70764 345.285766,1171.2873 348.178693,1167.86536 C348.361,1167.50549 348.541708,1167.14403 348.541708,1166.78575 L348.541708,1158.86226 C348.541708,1158.50239 348.361,1157.96259 347.999584,1157.78106 C345.468073,1155.08045 342.754255,1152.19991 340.042036,1149.31937 C339.138496,1148.41969 338.77708,1147.33849 339.138496,1145.89902 C339.68062,1143.91656 340.042036,1142.11721 340.58416,1140.13475 C340.945576,1138.51534 342.392839,1137.61407 343.840102,1137.97553 C345.285766,1138.3354 346.190905,1139.77488 345.829489,1141.21595 C345.468073,1142.65542 345.105058,1144.09808 344.743642,1145.53756 C344.743642,1145.89902 344.743642,1146.43723 344.92435,1146.61876 C346.008598,1147.8783 347.275153,1149.13943 348.541708,1150.39897 C348.722416,1150.57891 349.26454,1150.75884 349.445248,1150.75884 L359.211476,1150.75884 C359.211476,1150.75884 359.934308,1150.21904 360.115016,1149.85917 C361.381571,1148.05823 362.465819,1146.43723 363.551666,1144.63789 C363.732374,1144.27642 363.913082,1143.91656 364.635914,1143.37675 L364.635914,1126.63011 C363.913082,1125.37057 364.635914,1124.4693 365.90087,1124.10943 C367.167426,1123.74956 368.433981,1124.28937 368.976105,1125.5505 C369.156813,1125.91037 368.253273,1126.81004 368.253273,1126.81004 L368.253273,1145.35762 C368.253273,1146.07736 367.891857,1146.7971 367.530441,1147.33849 C365.360346,1150.57891 363.369359,1153.64098 361.381571,1156.88139 C361.018556,1157.24285 361.018556,1157.96259 361.018556,1158.32087 L361.018556,1192.17403 C361.018556,1194.1549 359.392184,1195.41444 357.402797,1194.87464 C356.31695,1194.51477 355.594118,1193.43357 355.594118,1191.99409 L355.594118,1175.42738 C356.136242,1175.42738 356.136242,1175.06751 356.136242,1174.52771" id="Fill-39" fill="#000000"></path>
                <path d="M374.678289,1142.21985 C376.285895,1142.21985 377.8935,1142.04161 379.321079,1142.21985 C380.393342,1142.39808 380.750237,1141.68514 381.107132,1140.97063 C381.464026,1140.25769 380.750237,1140.07945 380.57179,1139.72298 C380.57179,1139.54475 380.393342,1139.36494 380.214895,1139.18828 C379.142632,1140.61416 377.713474,1141.14886 375.929,1140.61416 C375.750553,1140.61416 375.570526,1140.61416 375.393658,1140.79397 C375.213631,1141.14886 375.036763,1141.68514 374.678289,1142.21985 M387.892868,1154.88397 L386.286842,1154.88397 L386.286842,1155.95338 L386.286842,1165.9424 L386.286842,1166.83358 C386.106816,1167.72633 385.393026,1168.26103 384.320763,1168.26103 C383.250079,1168.26103 382.714737,1167.54809 382.714737,1166.83358 L382.714737,1164.15848 L382.714737,1145.07475 L382.714737,1144.182 C382.000948,1145.25141 380.928684,1146.14259 380.928684,1147.74985 L380.928684,1168.26103 C380.928684,1168.26103 381.285579,1169.68691 380.750237,1169.86514 C380.214895,1170.04495 379.499526,1170.04495 379.142632,1169.86514 C378.428842,1169.68848 378.250395,1168.97397 377.356579,1168.26103 L377.356579,1157.91553 L377.356579,1156.66631 L377.356579,1157.7373 L377.356579,1168.08122 C376.642789,1168.97397 376.464342,1169.68691 375.570526,1169.86514 C374.499842,1170.22319 372,1168.26103 372,1168.26103 L372,1163.08749 L372,1147.21357 C373.250711,1146.85552 373.250711,1146.3224 373.070684,1146.14259 C372.535342,1145.60788 372,1144.182 372,1144.182 L372,1140.97063 C372,1140.97063 372.535342,1139.1867 373.250711,1138.47376 C373.427579,1138.29553 373.786053,1137.40278 373.786053,1137.40278 L373.786053,1129.19925 C373.786053,1127.95003 374.499842,1126.88063 375.750553,1126.88063 C376.999684,1126.88063 377.356579,1127.77338 377.356579,1129.19925 L377.356579,1133.48004 C378.071947,1133.48004 378.607289,1133.65827 379.142632,1133.65827 L379.142632,1127.77338 L379.142632,1125.63141 C379.142632,1124.562 379.856421,1124.0273 381.107132,1124.0273 C382.000948,1124.0273 382.714737,1124.74023 382.714737,1125.98788 L382.714737,1134.19298 L384.50079,1136.51161 L384.50079,1135.61886 L384.50079,1129.19925 C383.250079,1127.95003 383.963868,1127.2371 385.036132,1127.2371 C386.106816,1127.2371 386.286842,1129.19925 386.286842,1129.19925 L386.286842,1130.98318 C386.286842,1130.98318 389.500474,1130.80494 390.571158,1132.05259 C391.286526,1132.7671 391.464974,1133.65827 391.464974,1134.72768 C391.286526,1136.86808 389.678921,1137.93906 388.071316,1137.93906 L388.071316,1138.83181 L390.392711,1138.83181 C390.571158,1138.83181 390.929632,1138.652 390.929632,1138.47376 C391.643421,1137.40278 392.357211,1136.33495 393.251026,1135.26396 C393.607921,1134.72768 393.251026,1134.01474 393.429474,1133.48004 L393.429474,1126.52416 C393.251026,1125.27494 393.786369,1124.38219 394.857053,1124.0273 C395.929316,1123.84906 397,1124.562 397,1125.63141 L397,1135.61886 C397,1135.9769 396.821553,1136.51161 396.464658,1137.04789 C395.037079,1139.1867 393.607921,1141.32867 392.178763,1143.29083 C391.821868,1143.64572 391.643421,1144.35866 391.643421,1144.89494 L391.643421,1166.47711 C391.643421,1167.54809 391.108079,1168.26103 390.035816,1168.43926 C388.965132,1168.43926 388.249763,1167.72475 388.071316,1166.47711 L388.071316,1156.13161 C387.892868,1155.59691 387.892868,1155.24044 387.892868,1154.88397" id="Fill-41" fill="#000000"></path>
                <path d="M348,1143.3081 C348,1139.86747 350.8671,1137 354.5,1137 C358.1329,1137 361,1139.86747 361,1143.49915 C361,1146.93978 358.1329,1150 354.5,1150 C350.8671,1149.80895 348,1146.93978 348,1143.3081" id="Fill-43" fill="#000000"></path>
                <path d="M366.000442,1156.45713 L366.000442,1160.59817 L366.000442,1167.97468 C366.000442,1169.23514 365.199204,1169.77465 364,1169.77465 L364,1168.51579 L364,1159.33771 C364,1158.97804 364.199867,1158.43694 364.399735,1158.2571 C366.799912,1155.01843 369.399956,1151.59834 371.600265,1148.35967 C371.600265,1148.35967 371.800133,1148.17984 372,1148 L372,1148.71935 L372,1167.97468 C372,1169.0553 371.400398,1169.77465 370.401061,1169.95449 C369.599823,1170.13592 368.600486,1169.77465 368.200752,1168.87546 C368.000884,1168.51579 368.000884,1168.15611 368.000884,1167.79644 L368.000884,1157.53775 L368.000884,1156.45872 C367.401282,1156.45713 366.799912,1156.45713 366.000442,1156.45713" id="Fill-45" fill="#000000"></path>
                <path d="M347.983729,1130.23088 C348.339969,1130.23088 348.515735,1130.06177 348.870406,1130.06177 C349.935988,1129.89116 350.645329,1130.56912 351,1131.41469 L351,1131.75442 C351,1133.10735 350.824234,1134.29265 349.226646,1134.96912 C348.339969,1135.30884 347.629058,1136.32204 346.919717,1137 C346.386141,1136.66177 345.6768,1136.32204 345.144794,1135.81469 C344.967458,1135.64558 344.790123,1135.47646 345.6768,1135.30884 L345.6768,1127.69265 C344.790123,1126.67646 345.499464,1126 346.565046,1126 C347.451723,1126 348.161065,1126.67646 348.161065,1127.69265 C347.983729,1128.70735 347.983729,1129.55442 347.983729,1130.23088" id="Fill-47" fill="#000000"></path>
                <path d="M356.515732,1129.69848 C356.86385,1128.5106 357.561628,1128 358.431925,1128 C359.303762,1128.1697 359.8244,1128.67879 360,1129.35909 L360,1137 C358.257866,1135.30152 356.341672,1134.28483 354.07736,1134.28483 C354.07736,1133.09544 353.9033,1131.73636 354.07736,1130.54697 C354.07736,1129.69848 355.121716,1129.35909 356.515732,1129.69848" id="Fill-49" fill="#000000"></path>
                <path d="M320.361743,1109 C320.533396,1109.17227 321.048354,1109.34762 321.220007,1109.69524 C321.393178,1110.0444 321.220007,1110.56583 320.876701,1110.91191 C320.361743,1111.60869 320.190091,1112.30392 320.533396,1113.0007 C321.048354,1113.86975 321.736484,1114.7388 322.423094,1115.60939 C322.938052,1116.30463 323.454529,1116.82759 323.624663,1117.52283 C324.312793,1118.91331 323.969487,1120.13152 323.281358,1121.34819 C322.938052,1122.04343 322.079789,1122.21878 321.564831,1121.69735 C320.876701,1121.17438 320.876701,1120.65295 321.393178,1120.13152 C321.908136,1119.26247 321.736484,1118.39188 321.220007,1117.69511 C320.533396,1116.82606 319.846785,1115.95701 319.158655,1115.08796 C318.128739,1113.86975 317.785434,1112.47927 318.128739,1111.08572 C318.472045,1110.21667 319.331827,1109.17381 320.361743,1109" id="Fill-51" fill="#000000"></path>
                <path d="M387,1111.48127 C386.840311,1111.66209 386.679208,1112.02533 386.359829,1112.20614 C384.922625,1112.7486 384.603246,1113.47187 384.762936,1115.10083 C384.922625,1116.18574 385.082314,1117.45306 385.082314,1118.53957 C385.242004,1120.34774 384.283868,1122.15752 382.84525,1122.88239 C382.364769,1123.06161 381.885701,1123.06161 381.406633,1122.70158 C380.767875,1122.15912 380.927565,1121.25343 381.566322,1120.8918 C382.524458,1120.34934 383.004939,1119.44526 382.84525,1118.35875 C382.84525,1117.09142 382.524458,1116.00492 382.524458,1114.73919 C382.366182,1112.56778 383.643697,1110.39637 385.401693,1110.03473 C386.359829,1109.85231 387,1110.39637 387,1111.48127" id="Fill-53" fill="#000000"></path>
                <path d="M344.527043,1107 C346.353798,1107 347.848683,1108.41834 348.346489,1110.37013 C348.512424,1111.25817 348.678359,1112.14463 348.844294,1113.03266 C349.177633,1114.45101 349.67397,1115.51633 351.168856,1115.69362 C351.834065,1115.69362 352,1116.2255 352,1116.93467 C351.834065,1117.64541 351.334791,1118 350.67105,1118 C349.177633,1118 347.68128,1116.75738 347.184943,1115.16018 C346.851604,1114.09642 346.685668,1113.03266 346.519733,1112.14463 C346.353798,1111.43546 346.021928,1110.72472 345.855993,1110.19284 C345.524122,1109.48367 345.024848,1109.30638 344.361107,1109.30638 C343.531431,1109.30638 343.032157,1109.12751 343.032157,1108.41834 C342.866222,1107.70917 343.364028,1107.17729 344.029237,1107 L344.527043,1107 Z" id="Fill-55" fill="#000000"></path>
                <path d="M339.973027,1119.86445 C339.789537,1118.75651 339.789537,1117.83458 339.606047,1116.72663 C339.422557,1115.98909 338.872087,1115.43593 338.136503,1115.43593 C337.402543,1115.43593 336.852073,1115.06716 337.035563,1114.1436 C337.035563,1113.40606 337.769523,1112.85127 338.686973,1113.03566 C340.708611,1113.22168 342.360022,1115.06716 342.360022,1117.27979 L342.360022,1120.23322 C342.360022,1121.70994 342.543512,1123.18502 344.380036,1123.73818 C344.930506,1123.92256 345.11562,1124.47735 344.930506,1125.03051 C344.747016,1125.76805 344.013056,1126.13845 343.279096,1125.95244 C341.626062,1125.58366 340.523498,1124.29297 340.156517,1122.63186 C339.973027,1121.70994 339.973027,1120.97076 339.973027,1119.86445 C339.789537,1119.86445 339.973027,1119.86445 339.973027,1119.86445" id="Fill-57" fill="#000000"></path>
                <path d="M369.85561,1111.82373 C369.85561,1113.25099 369.278048,1114.32302 368.121221,1115.21506 C367.351139,1115.93027 366.388536,1116.6439 365.61675,1117.35753 C364.846668,1118.07274 364.269107,1119.14319 364.846668,1120.21364 C365.231709,1120.92885 365.039189,1121.46407 364.461627,1121.82089 C363.689841,1122.17929 362.919759,1121.9993 362.534718,1121.28567 C361.572116,1119.8584 361.957157,1117.71435 363.3048,1116.46391 C364.076586,1115.75028 365.039189,1115.03665 366.003495,1114.14461 C366.388536,1113.78621 366.773577,1113.25099 367.158618,1112.71577 C367.54366,1112.00056 367.351139,1111.46533 366.966098,1110.93169 C366.388536,1110.39488 366.388536,1109.85966 366.966098,1109.32444 C367.54366,1108.78763 368.506262,1108.96604 368.893007,1109.50126 C369.470569,1110.21648 369.663089,1111.11009 369.85561,1111.82373 C370.04813,1111.82373 370.04813,1111.82373 369.85561,1111.82373" id="Fill-59" fill="#000000"></path>
                <path d="M345,1168 L345,1159 C345.904,1159.65402 346.81,1160.14598 346.584,1161.12701 C346.356,1162.4365 346.356,1163.90949 346.584,1165.21752 C346.81,1166.52701 346.356,1167.34598 345,1168" id="Fill-61" fill="#000000"></path>
                <path d="M392,1118.62023 C392,1117.64752 392.666339,1117 393.500737,1117 C394.333661,1117 395,1117.64752 395,1118.45835 C395,1119.26775 394.333661,1119.91526 393.500737,1119.91526 C392.666339,1120.24046 392,1119.59151 392,1118.62023" id="Fill-63" fill="#000000"></path>
                <path d="M355.5,1118 C356.332515,1118 357,1118.63128 357,1119.42179 C357,1120.36872 356.332515,1121 355.5,1121 C354.667485,1121 354,1120.36872 354,1119.42179 C354,1118.63128 354.667485,1118 355.5,1118" id="Fill-65" fill="#000000"></path>
                <path d="M373,1114.42113 C373,1113.63239 373.666339,1113 374.500737,1113 C375.333661,1113 376,1113.63239 376,1114.57887 C376,1115.52536 375.333661,1116 374.332678,1116 C373.499754,1115.84225 373,1115.20987 373,1114.42113" id="Fill-67" fill="#000000"></path>
                <path d="M358.5,1113 C357.667485,1113 357,1112.52654 357,1111.57821 C357,1110.63128 357.667485,1110 358.5,1110 C359.332515,1110 360,1110.63128 360,1111.42039 C360,1112.36872 359.332515,1113 358.5,1113" id="Fill-69" fill="#000000"></path>
                <path d="M330.5,1120 C331.332515,1120 332,1120.63128 332,1121.42179 C332,1122.21089 331.332515,1123 330.5,1123 C329.667485,1123 329,1122.36872 329,1121.57961 C329,1120.63128 329.667485,1120 330.5,1120" id="Fill-71" fill="#000000"></path>
                <path d="M316,1119.42113 C316,1120.36901 315.332515,1121 314.5,1121 C313.667485,1121 313,1120.36901 313,1119.57887 C313,1118.79013 313.667485,1118 314.5,1118 C315.332515,1118 316,1118.47324 316,1119.42113" id="Fill-73" fill="#000000"></path>
                <path d="M332,1142 L327.135755,1142 C326.973709,1142 326.649618,1141.64587 326.486138,1141.29485 C326.324092,1141.11856 326.162046,1140.76443 326,1140.41186 C326.324092,1139.883 326.649618,1139.53042 326.973709,1139 C327.945985,1140.41186 329.243786,1140.94072 330.864245,1140.41186 C331.027725,1140.41186 331.189771,1140.41186 331.189771,1140.58814 C331.351816,1140.94072 331.675908,1141.29485 332,1142" id="Fill-75" fill="#FFFFFF"></path>
                <path d="M373,1142.97284 C373.320742,1142.44849 373.64007,1141.9226 373.798322,1141.57458 C373.959399,1141.39825 374.119063,1141.39825 374.278728,1141.39825 C375.876784,1141.9226 376.994435,1141.39825 378.113498,1140 C378.273162,1140.17323 378.432827,1140.34956 378.432827,1140.52435 C378.592491,1140.87546 379.231149,1141.22347 378.91182,1141.74936 C378.592491,1142.44849 378.273162,1143.14762 377.313763,1142.97284 C375.715707,1142.79805 374.438392,1142.97284 373,1142.97284" id="Fill-77" fill="#FFFFFF"></path>
                <path d="M629.5,442 C651.314073,442 669,459.68434 669,481.5 C669,503.31566 651.314073,521 629.5,521 C607.68434,521 590,503.31566 590,481.5 C590,459.68434 607.68434,442 629.5,442 Z" id="Stroke-79" stroke="#000000" stroke-width="1.5"></path>
                <path d="M350.5,442 C372.31566,442 390,459.68434 390,481.5 C390,503.31566 372.31566,521 350.5,521 C328.68434,521 311,503.31566 311,481.5 C311,459.68434 328.68434,442 350.5,442 Z" id="Stroke-81" stroke="#000000" stroke-width="1.5"></path>
                <path d="M350.5,357 C372.31566,357 390,374.68434 390,396.5 C390,418.314073 372.31566,436 350.5,436 C328.68434,436 311,418.314073 311,396.5 C311,374.68434 328.68434,357 350.5,357 Z" id="Stroke-83" stroke="#000000" stroke-width="1.5"></path>
                <path d="M345.5,124 C367.31566,124 385,141.685927 385,163.5 C385,185.31566 367.31566,203 345.5,203 C323.68434,203 306,185.31566 306,163.5 C306,141.685927 323.68434,124 345.5,124 Z" id="Stroke-85" stroke="#000000" stroke-width="1.5"></path>
                <path d="M348.5,527 C370.31566,527 388,544.68434 388,566.5 C388,588.31566 370.31566,606 348.5,606 C326.68434,606 309,588.31566 309,566.5 C309,544.68434 326.68434,527 348.5,527 Z" id="Stroke-87" stroke="#000000" stroke-width="1.5"></path>
                <path d="M348.5,817 C370.31566,817 388,834.685927 388,856.5 C388,878.31566 370.31566,896 348.5,896 C326.68434,896 309,878.31566 309,856.5 C309,834.685927 326.68434,817 348.5,817 Z" id="Stroke-89" stroke="#000000" stroke-width="1.5"></path>
                <text id="1" font-family="" font-size="36" font-weight="bold" fill="#6390B1">
                    <tspan x="487" y="178">1</tspan>
                </text>
                <text id="2" font-family="AvenirNext-Bold, Avenir Next, Lato-Bold, Lato, Sans-serif" font-size="36" font-weight="bold" fill="#6390B1">
                    <tspan x="487" y="495">2</tspan>
                </text>
                <text id="4" font-family="AvenirNext-Bold, Avenir Next, Lato-Bold, Lato, Sans-serif" font-size="36" font-weight="bold" fill="#6390B1">
                    <tspan x="486" y="1178">4</tspan>
                </text>
                <text id="3" font-family="AvenirNext-Bold, Avenir Next, Lato-Bold, Lato, Sans-serif" font-size="36" font-weight="bold" fill="#6390B1">
                    <tspan x="488" y="871">3</tspan>
                </text>
                <path d="M296.575144,565 L289.418778,565 L286.018595,565 C278.504649,565 276,570.70014 276,577.666044 L276,579.24965 L276,590.333489 L276,609.333956 C276,616.29986 278.681857,622 286.018595,622 L292.817379,622 L478,622" id="Stroke-165" stroke="#477393" stroke-width="0.972" stroke-dasharray="4.926,4.926"></path>
                <path d="M481,620 L486,620" id="Stroke-167" stroke="#477393" stroke-width="0.972"></path>
                <polygon id="Fill-169" fill="#477393" points="475.546679 627 475 625.402796 485.909456 621.499216 475 617.595635 475.546679 616 491 621.499216"></polygon>
                <path d="M311,863 L306,863" id="Stroke-171" stroke="#000000" stroke-width="0.972"></path>
                <path d="M296.639236,855 L289.344618,855 L285.963227,855.179356 C278.490807,855.179356 276,864.872536 276,876.898936 L276,879.589281 L276,898.615341 L276,931.283595 C276,943.308407 278.668609,953 285.963227,953 L292.724437,953 L613,953" id="Stroke-173" stroke="#477393" stroke-width="0.972" stroke-dasharray="4.842000000000001,4.842"></path>
                <polygon id="Fill-177" fill="#477393" points="612.545071 957 612 955.401455 622.907848 951.5 612 947.596977 612.545071 946 628 951.5"></polygon>
                <path d="M296,488 L289.043679,488 L285.738542,488 C278.434635,488 276,494.344098 276,502.096956 L276,503.859466 L276,516.195471 L276,571" id="Stroke-181" stroke="#477393" stroke-width="0.972" stroke-dasharray="4.877,4.877"></path>
                <path d="M276,576 L276,581" id="Stroke-183" stroke="#000000" stroke-width="0.972"></path>
                <polygon id="Fill-185" fill="#477393" points="272 570.545071 273.597204 570 277.500784 580.909456 281.404365 570 283 570.545071 277.500784 586"></polygon>
                <path d="M296,403 L288.71283,403 L285.491906,403 C278.372602,403 276,409.343303 276,417.09519 L276,418.857478 L276,431.191938 L276,480" id="Stroke-189" stroke="#477393" stroke-width="0.972" stroke-dasharray="4.606,4.606"></path>
                <path d="M276,485 L276,490" id="Stroke-191" stroke="#000000" stroke-width="0.972"></path>
                <polygon id="Fill-193" fill="#477393" points="272 478.545071 273.597204 478 277.500784 488.909456 281.404365 478 283 478.545071 277.500784 494"></polygon>
                <path d="M346,217 L346,222" id="Stroke-195" stroke="#477393"></path>
                <path d="M346,222 L346,235.912792 C346,243.660289 352.448576,250 360.329113,250 L485,250" id="Stroke-197" stroke="#477393" stroke-dasharray="5.143,5.143"></path>
                <path d="M487,250 L492,250" id="Stroke-199" stroke="#000000"></path>
                <polygon id="Fill-201" fill="#477393" points="481.702818 256 481 254.280918 491.901458 250.49924 481 246.719082 481.702818 245 497 250.49924"></polygon>
                <path d="M346.66788,126.01172 C346.674037,127.142057 346.335384,128.840898 347.208184,129.212675 C347.382128,129.211008 347.556073,129.211008 347.730017,129.209341 C348.947626,129.202672 348.241074,127.322111 348.408861,126.00005 C349.278582,125.995048 349.803493,126.368493 350.50081,126.553548 C350.505428,127.495496 350.511585,128.437444 350.688608,129.191002 C351.735352,129.372723 352.254106,128.80422 352.074004,127.673883 C353.998166,129.357719 355.574439,131.233279 355.766855,134.625958 C356.639655,134.997736 357.34005,135.746292 356.824374,136.881631 C350.557765,136.921643 344.465099,136.959988 338.19849,137 C337.845983,136.059719 337.838287,134.740992 339.23138,134.921046 C339.211368,131.14992 340.943114,129.442744 342.499376,127.547178 C343.024287,128.109013 342.682556,129.431074 343.900165,129.045959 C344.592864,128.664178 344.412762,127.345451 344.406605,126.403504 C345.277865,126.396835 345.798158,126.016721 346.66788,126.01172" id="Fill-203" fill="#A7A7A7"></path>
                <path d="M355.860489,138.206042 C357.950726,150.561052 335.805866,149.309604 339.394214,138.125548 C344.700697,138.268311 350.918018,137.718524 355.860489,138.206042" id="Fill-205" fill="#A7A7A7"></path>
                <path d="M346.233096,154.730435 C347.51775,155.645188 349.343736,155.633774 350.618694,154.704346 C350.429632,153.598815 350.238954,152.493285 349.868909,151.57364 C346.940867,150.854556 346.220168,152.517744 346.233096,154.730435 M370,156.617012 C367.624602,156.814311 365.624097,158.487282 363.612281,158.130186 C361.60208,157.957345 360.674544,155.749545 358.845326,155.392449 C358.302378,156.318616 358.861486,158.157906 358.686967,159.450953 C355.763773,159.651514 353.577438,160.771719 350.654244,160.973911 C350.644549,159.313984 350.090289,158.210084 350.078978,156.365903 C349.712165,156.000654 347.524213,156.750719 346.788971,156.202845 C346.982881,158.045396 346.260566,159.340074 346.268646,161 C343.343837,160.832051 341.14619,159.739565 338.22138,159.573246 C338.213301,158.28183 338.205221,156.806158 338.197142,155.516373 C336.372772,156.080552 335.102661,157.562746 333.462505,158.30955 C331.26809,157.954084 329.072059,157.598618 327.058627,156.873012 C326.690198,156.321877 328.142907,154.838053 329.052668,154.096141 C331.597737,151.867144 337.600868,147.221633 342.904307,148.111927 C345.830733,148.648387 349.868909,151.389385 353.503105,148.048335 C361.542292,148.001048 366.685755,152.579705 370,156.617012" id="Fill-207" fill="#A7A7A7"></path>
                <path d="M325,159.269063 C332.235909,160.682046 339.119531,162.462373 346.35544,163.875357 C346.723315,166.424205 345.688277,170.439204 346.932193,172.253365 C348.163638,171.881188 347.624296,169.880133 347.614943,168.422037 C347.607149,166.963942 347.596238,165.143336 347.590002,163.867301 C354.631062,162.185254 361.495979,160.503208 368.890885,159 C368.926737,165.376954 368.964148,171.753907 369,178.130861 C365.302547,178.881659 361.781238,179.632458 358.083785,180.383256 C354.562476,181.134054 350.871258,182.977216 347.346831,182.999773 C343.820845,183.020718 339.582492,181.590011 336.053389,180.882714 C332.522726,179.993356 328.990506,178.921938 325.286818,178.398312 C325.073263,172.02297 325.035852,165.646016 325,159.269063" id="Fill-209" fill="#A7A7A7"></path>
                <path d="M322.7514,160 C323.258191,164.250308 322.801366,169.392365 322.988378,174 C317.330885,172.796373 321.152513,162.846076 322.7514,160" id="Fill-211" fill="#A7A7A7"></path>
                <path d="M338.286014,189 C337.9385,189.001396 337.940038,189.318288 338.118408,189.790135 C338.123021,190.578874 338.126096,191.211261 338.132247,192 L347,191.952536 C346.996925,191.479293 346.995387,191.163797 346.992312,190.689158 C344.20605,190.073523 341.246032,189.457887 338.286014,189" id="Fill-213" fill="#A7A7A7"></path>
                <path d="M349,182.910591 C349.00159,183.221458 349.004771,183.687758 349.007952,184 L358,183.953232 C357.992048,182.863824 357.805973,181.9326 357.619898,181 C354.746068,181.481431 351.690935,181.964237 349,182.910591" id="Fill-215" fill="#A7A7A7"></path>
                <path d="M351.914211,467.990993 C355.957106,468.171368 360,465.644521 360,460.230076 C360,457.701632 358.944589,455.535535 357.363803,453.912159 C355.781463,452.287187 353.496551,451.746061 351.035997,452.106812 C349.102371,452.287187 347.344388,453.190658 346.114889,454.453284 C344.883834,455.717506 344.00562,457.521257 344.00562,459.687354 C343.828423,464.92302 347.871317,467.810618 351.914211,467.990993" id="Fill-217" fill="#A7A7A7"></path>
                <path d="M369.435761,465.765114 C368.011509,465.765114 366.407651,465.059762 365.337887,464.000173 C364.269698,462.942145 363.557572,461.529881 363.913635,460.117616 C364.447729,458.352676 366.763714,458.88325 368.367572,460.295515 C369.969855,461.882557 371.039619,464.176511 369.435761,465.765114 M363.735604,464.707086 C362.66584,463.294821 362.131745,461.529881 363.199934,460.117616 C363.021902,461.529881 363.377965,462.942145 364.269698,464.176511 C365.159855,465.412438 366.407651,466.11779 368.187965,466.11779 C366.585682,466.824702 364.803792,466.11779 363.735604,464.707086 M365.159855,458 L363.377965,458 C362.66584,458 362.131745,458.177899 362.131745,458.177899 C359.993793,460.295515 356.964107,463.118483 353.757966,466.11779 C350.728281,469.117096 347.344108,472.117963 344.672061,474.588256 C342.890171,476.176858 341.109857,477.411224 340.040093,478.999827 C338.970328,480.412091 338.614266,482.177032 339.504423,485 C342.890171,483.058722 346.275919,480.588429 349.660092,478.294475 C353.04584,476.00052 356.608044,473.530228 359.993793,471.234713 C361.41962,470.353023 363.199934,468.942319 364.981824,467.88273 C366.763714,467.00104 368.545603,466.646804 370.505525,467.706392 C371.395682,465.2361 371.039619,462.942145 369.793399,461.177205 C368.723635,459.412264 366.763714,458.177899 365.159855,458" id="Fill-219" fill="#A7A7A7"></path>
                <path d="M339.531463,484.903659 C340.075351,483.101166 341.16473,481.660446 342.433801,480.578312 L342.433801,482.380806 L342.433801,484.183299 C343.885772,483.101166 345.700335,481.480356 347.331997,479.857952 C349.14656,478.235549 350.779827,476.613145 352.413094,475.172425 C352.956981,474.632155 353.682164,474.090291 354.227656,473.550021 C354.771544,473.009751 355.134135,472.467888 354.95284,472.107708 C352.775685,472.467888 350.779827,472.287798 348.965264,472.107708 C347.152306,471.927618 345.517434,471.927618 343.704476,472.467888 C340.802138,473.369931 338.260788,475.712695 336.264929,478.595729 C334.450367,481.660446 333.181296,485.263839 333,488.868827 C333,491.75186 333.362592,494.456398 334.087775,496.979251 C334.814563,499.502105 335.902338,501.664779 336.991717,503.827452 C341.16473,504.547812 341.708618,502.925409 341.346026,500.582645 C340.802138,498.059791 339.350167,494.816578 338.987576,491.93195 C338.624984,489.048917 338.987576,486.706153 339.531463,484.903659" id="Fill-221" fill="#A7A7A7"></path>
                <path d="M366.368452,468.651476 C366.723467,468.834002 366.723467,469.016528 366.545959,469.199054 C366.368452,469.564106 366.190944,469.930773 366.190944,470.295825 C366.190944,471.575123 366.545959,472.670279 367.255991,473.76705 C367.967593,474.862206 369.03264,475.592311 370.099257,475.957363 C368.500116,476.32403 366.900975,475.227258 366.190944,473.582909 C365.480912,471.940175 365.124326,469.930773 366.368452,468.651476 M369.210147,468.286423 C370.276765,468.46895 371.51932,469.564106 372.051843,471.025929 C372.585938,472.487753 372.763446,474.313013 371.874336,475.592311 C369.742671,476.139889 367.967593,474.313013 367.433498,472.305227 C366.723467,470.113299 367.078483,468.103897 369.210147,468.286423 M361.750106,484.542547 C363.170169,483.629917 365.480912,482.533146 367.967593,481.255463 C370.454273,479.976166 372.585938,478.514342 373.295969,477.23666 C374.716032,475.227258 373.828493,472.121085 372.051843,469.930773 C370.276765,467.738845 367.788514,466.277022 365.835928,467.372178 C363.525185,468.834002 361.216012,470.295825 359.084347,471.756033 C356.952683,473.217857 354.821018,474.862206 352.689353,476.506556 C350.559259,478.14929 348.248516,479.611114 346.116851,481.071322 C343.985187,482.533146 341.855093,484.177495 339.723428,486.004371 C340.610967,487.831246 341.498506,490.570752 341.320998,492.76268 C341.320998,494.954607 340.255952,496.598957 337.412685,496.049763 C335.992622,495.867237 335.28102,495.137133 334.748497,494.040362 C334.215973,492.945206 333.860957,491.483382 333.505942,490.2057 C332.439324,490.570752 331.551785,491.11833 330.664246,491.848434 C329.775136,492.578538 328.887597,493.492784 327.820979,494.405414 C326.93344,494.954607 325.689314,495.502185 324.624267,496.232289 C323.55765,496.964009 322.492603,497.694113 322.136016,498.606743 C321.781,500.068567 322.136016,501.712916 323.025126,502.990598 C323.912665,504.269896 325.156791,505 326.400916,505 C326.93344,505 327.465963,504.817474 328.177565,504.452422 L328.353502,504.269896 L328.353502,499.155936 L328.353502,494.040362 C328.353502,494.040362 328.887597,493.492784 329.952644,493.127732 C330.840183,492.76268 332.261816,492.76268 333.68345,494.040362 C334.748497,495.137133 335.105083,496.049763 334.926004,496.781483 C334.926004,497.511587 334.570989,497.876639 334.570989,497.876639 L337.057669,497.876639 L338.301795,497.876639 C341.143491,496.049763 344.164265,494.405414 347.005961,492.76268 C351.979322,490.2057 356.776746,487.282053 361.750106,484.542547" id="Fill-223" fill="#A7A7A7"></path>
                <path d="M330.874467,494 C329.748934,495.8 328.14306,496.945981 326.696352,498.254019 C325.249645,499.563505 323.802937,500.87299 323,503 C324.28612,502.344534 325.893415,501.363505 327.499289,500.217524 C329.106585,499.071543 330.71388,497.92701 332,496.781029 C331.677404,496.454019 331.677404,495.8 331.677404,495.145981 C331.356229,494.654019 331.195642,494.163505 330.874467,494" id="Fill-225" fill="#A7A7A7"></path>
                <path d="M361,486.188285 C361,486 361,486 361,486.188285 C361,486 360.825815,486 360.825815,486 C357.68895,488.261087 354.550544,490.145604 351.412137,492.028454 C348.275272,493.912971 344.962681,495.797488 342,497.87029 L342,499 L350.715398,499 L350.715398,497.49372 C350.715398,497.117149 350.541214,496.174058 350.541214,495.420918 C350.541214,494.666111 350.715398,494.102922 351.587863,494.102922 C352.110417,494.289541 352.458786,495.042681 352.458786,495.609203 C352.458786,496.362343 352.284602,497.117149 352.284602,497.682005 L352.284602,499 L352.98134,499 L361,499 L361,486.188285 Z" id="Fill-227" fill="#A7A7A7"></path>
                <path d="M349.723177,359 C349.723177,360.137064 349.375267,361.844336 350.245041,362.223357 L350.768446,362.223357 C351.98613,362.223357 351.290311,360.328251 351.464265,359 C352.33404,359 352.857444,359.379021 353.553264,359.568532 C353.553264,360.517762 353.553264,361.465315 353.727219,362.223357 C354.772488,362.412868 355.294353,361.844336 355.120398,360.707272 C357.035442,362.412868 358.602576,364.309651 358.774992,367.724196 C359.646306,368.103217 360.342126,368.861259 359.820261,370 L341.193226,370 C340.845316,369.05077 340.845316,367.724196 342.238495,367.913706 C342.238495,364.12014 343.979584,362.412868 345.545179,360.517762 C346.067044,361.086294 345.719134,362.412868 346.938358,362.033847 C347.634178,361.654825 347.460223,360.328251 347.460223,359.379021 C348.331537,359.379021 348.853402,359 349.723177,359" id="Fill-229" fill="#A7A7A7"></path>
                <path d="M358.870373,371.236249 C360.882372,383.625768 338.752007,382.248648 342.408862,371.064299 C347.71381,371.236249 353.932567,370.720399 358.870373,371.236249" id="Fill-231" fill="#A7A7A7"></path>
                <path d="M349.244603,387.743821 C350.524399,388.663129 352.35037,388.663129 353.630165,387.743821 C353.447568,386.639023 353.264971,385.535853 352.899777,384.616545 C349.976608,383.879471 349.244603,385.535853 349.244603,387.743821 M373,389.767927 C370.623006,389.951788 368.614438,391.608171 366.604254,391.23882 C364.59407,391.054959 363.681085,388.846991 361.853498,388.479268 C361.304091,389.400203 361.853498,391.23882 361.669285,392.527479 C358.746116,392.711341 356.553335,393.814511 353.630165,394 C353.630165,392.343618 353.082374,391.23882 353.082374,389.400203 C352.715564,389.03248 350.524399,389.767927 349.792395,389.216342 C349.976608,391.054959 349.244603,392.343618 349.244603,394 C346.321434,393.814511 344.128653,392.711341 341.203868,392.527479 L341.203868,388.479268 C339.377897,389.03248 338.098101,390.503373 336.453112,391.23882 C334.261947,390.871097 332.069166,390.503373 330.057366,389.767927 C329.692172,389.216342 331.154564,387.743821 332.069166,387.006747 C334.627141,384.798779 340.656077,380.20061 345.95624,381.119918 C348.879409,381.671503 352.899777,384.431056 356.553335,381.119918 C364.59407,381.119918 369.710021,385.719715 373,389.767927" id="Fill-233" fill="#A7A7A7"></path>
                <path d="M330,390 C337.245827,391.464659 344.136942,393.297104 351.381206,394.763384 C351.734356,397.328158 350.674906,401.359212 351.910931,403.191656 C353.148519,402.825491 352.618794,400.809964 352.618794,399.343685 L352.618794,394.763384 C359.686483,393.114021 366.577598,391.464659 374,390 L374,409.238237 C370.288799,409.970566 366.754173,410.702896 363.042972,411.435226 C359.509908,412.169176 355.798707,414 352.265644,414 C348.731018,414 344.490092,412.535341 340.955466,411.803011 C337.422402,410.885979 333.887776,409.785864 330.176575,409.238237 C330,402.825491 330,396.412746 330,390" id="Fill-235" fill="#A7A7A7"></path>
                <path d="M327.780131,397 C328.260215,401.253442 327.780131,406.392365 327.940159,411 C322.33493,409.760327 326.178435,399.835106 327.780131,397" id="Fill-237" fill="#A7A7A7"></path>
                <path d="M341.28847,419 C340.940256,419 340.940256,419.315642 341.114363,419.789106 L341.114363,422 L350,422 L350,420.73743 C347.212742,420.106145 344.249836,419.473464 341.28847,419" id="Fill-239" fill="#A7A7A7"></path>
                <path d="M352,413.894369 L352,415 L361,415 C361,413.894369 360.820127,412.946487 360.640255,412 C357.7607,412.473243 354.699682,412.946487 352,413.894369" id="Fill-241" fill="#A7A7A7"></path>
                <path d="M332.0613,411.116108 C333.308045,410.676217 334,411.555998 334,412.583708 C333.861609,414.491198 330.399382,414.637828 331.091338,411.997187 C331.091338,411.849259 331.506511,411.262738 332.0613,411.116108" id="Fill-243" fill="#A7A7A7"></path>
                <path d="M369.120072,411.077163 C370.240144,410.786633 370.799562,411.368979 370.939416,411.95004 C371.498833,414.420834 368,414.711365 368,412.531101 C368,411.65951 368.420801,411.222429 369.120072,411.077163" id="Fill-245" fill="#A7A7A7"></path>
                <path d="M365.846866,428.459726 C366.204758,427.945747 365.846866,426.230968 365.66792,425.201494 C365.129499,422.80141 364.771607,420.743979 364.234769,418.515221 C364.055823,417.314421 364.234769,415.943811 363.34004,415.256989 C355.817977,414.914337 345.969618,414.914337 338.628084,415.256989 C337.910717,416.115137 337.552825,419.202042 337.194934,421.602126 C337.014404,422.80141 336.656512,423.658042 336.47915,424.858842 C336.29862,425.888315 335.761783,427.772905 336.121258,428.2884 C336.837042,429.660526 339.70176,428.459726 341.671749,428.802378 C341.313857,427.258926 340.954381,425.201494 341.313857,423.315389 C342.566478,422.630084 345.611726,422.458758 346.685401,423.488231 C347.043293,425.201494 346.685401,427.430252 346.327509,428.802378 L355.639031,428.802378 C355.281139,427.430252 354.563772,425.201494 355.281139,423.315389 C356.535344,422.630084 359.757954,422.458758 360.652684,423.488231 C361.191105,425.545663 360.473738,427.430252 360.115846,428.631052 C362.264781,428.459726 364.952137,429.660526 365.846866,428.459726" id="Fill-247" fill="#A7A7A7"></path>
                <path d="M334.085858,423.983649 C328.703613,424.316999 330.274261,419.480461 330.050166,416.144001 C330.722451,414.809122 333.413574,414.642447 334.309953,415.643975 C335.880601,417.645556 334.309953,422.148743 334.085858,423.983649" id="Fill-249" fill="#A7A7A7"></path>
                <path d="M368.474331,423.983737 C368.0538,421.827223 367.351674,415.357682 369.315394,415.026137 C370.297874,414.858897 370.578228,415.523455 371,416.186546 C370.718405,419.504937 371.700885,424.315283 368.474331,423.983737" id="Fill-251" fill="#A7A7A7"></path>
                <path d="M327.910873,394.880732 C328.764281,398.919958 323.213352,398.919958 323,395.553606 C323,392.635836 327.270817,391.962963 327.910873,394.880732" id="Fill-253" fill="#FFFFFF"></path>
                <path d="M327.877305,409.819904 C328.935611,414.243522 322.793692,413.801356 323.005353,410.040987 C323.217014,407.8282 327.242322,406.943867 327.877305,409.819904" id="Fill-255" fill="#FFFFFF"></path>
                <path d="M329.0613,179.116108 C330.308045,178.676217 331,179.555998 331,180.583708 C330.861609,182.491198 327.399382,182.637828 328.091338,179.997187 C328.091338,179.849259 328.507736,179.262738 329.0613,179.116108" id="Fill-257" fill="#A7A7A7"></path>
                <path d="M365.119289,179.077266 C366.239816,178.786746 366.799461,179.367787 366.939372,179.950112 C367.499017,182.420819 364,182.71134 364,180.531153 C364,179.658307 364.419733,179.222527 365.119289,179.077266" id="Fill-259" fill="#A7A7A7"></path>
                <path d="M362.846866,197.459667 C363.204758,196.945633 362.846866,195.230668 362.66792,194.202599 C362.131082,191.802255 361.771607,189.744601 361.234769,187.514085 C361.055823,186.314672 361.234769,184.942397 360.34004,184.257017 C352.817977,183.914328 342.969618,183.914328 335.628084,184.257017 C334.910717,185.113741 334.552825,188.200981 334.194934,190.601325 C334.015988,191.802255 333.658096,192.658979 333.47915,193.858393 C333.29862,194.887978 332.761783,196.774288 333.121258,197.288322 C333.837042,198.660597 336.70176,197.459667 338.671749,197.802357 C338.313857,196.258737 337.955965,194.202599 338.313857,192.31629 C339.566478,191.629394 342.611726,191.458049 343.685401,192.487634 C344.043293,194.202599 343.685401,196.431598 343.327509,197.802357 L352.639031,197.802357 C352.281139,196.431598 351.565356,194.202599 352.281139,192.31629 C353.535344,191.629394 356.757954,191.458049 357.654268,192.487634 C358.191105,194.545289 357.473738,196.431598 357.115846,197.631012 C359.264781,197.459667 361.952137,198.660597 362.846866,197.459667" id="Fill-261" fill="#A7A7A7"></path>
                <path d="M331.086686,192.983647 C325.704125,193.31702 327.274865,188.480169 327.048774,185.14497 C327.723081,183.810005 330.414362,183.641843 331.310794,184.643436 C332.879551,186.645146 331.310794,191.148624 331.086686,192.983647" id="Fill-263" fill="#A7A7A7"></path>
                <path d="M364.473832,192.983736 C364.053218,190.827133 363.352194,184.357323 365.316302,184.025763 C366.297735,183.859984 366.578145,184.523102 367,185.187688 C366.71959,188.50475 367.701024,193.315296 364.473832,192.983736" id="Fill-265" fill="#A7A7A7"></path>
                <path d="M340.880174,195.089127 C344.920183,194.235719 344.920183,199.786648 341.552847,200 C338.635945,200 337.963271,195.729183 340.880174,195.089127" id="Fill-267" fill="#FFFFFF"></path>
                <path d="M353.81937,195.122695 C358.243647,194.064389 357.80161,200.206308 354.040388,199.994647 C351.82825,199.782986 350.944177,195.757678 353.81937,195.122695" id="Fill-269" fill="#FFFFFF"></path>
                <path d="M328.0613,584.116108 C329.308045,583.676217 330,584.555998 330,585.583708 C329.861609,587.491198 326.399382,587.637828 327.091338,584.997187 C327.091338,584.703926 327.507736,584.262738 328.0613,584.116108" id="Fill-271" fill="#A7A7A7"></path>
                <path d="M362.120072,582.077163 C363.240144,581.786633 363.799562,582.368979 363.939416,582.95004 C364.498833,585.420834 361,585.711365 361,583.531101 C361,582.65951 361.420801,582.222429 362.120072,582.077163" id="Fill-273" fill="#A7A7A7"></path>
                <path d="M360.846167,599.459726 C361.205637,598.945747 360.846167,597.230968 360.667224,596.20301 C360.130396,593.80141 359.77251,591.743979 359.234097,589.515221 C359.056738,588.314421 359.234097,586.943811 358.339382,586.256989 C350.817443,585.914337 340.969245,585.914337 333.627832,586.256989 C332.910476,587.115137 332.552591,590.202042 332.194705,592.602126 C332.015762,593.80141 331.657876,594.658042 331.478933,595.858842 C331.29999,596.888315 330.761577,598.774421 331.121047,599.2884 C331.836819,600.660526 334.70149,599.459726 336.671446,599.802378 C336.31356,598.258926 335.955674,596.20301 336.31356,594.315389 C337.567745,593.630084 340.611359,593.458758 341.685017,594.488231 C342.042903,596.20301 341.685017,598.430252 341.327131,599.802378 L350.640083,599.802378 C350.282197,598.430252 349.564842,596.20301 350.282197,594.315389 C351.534798,593.630084 354.757355,593.458758 355.653654,594.488231 C356.190483,596.545663 355.474711,598.430252 355.116825,599.631052 C357.265724,599.459726 359.951453,600.660526 360.846167,599.459726" id="Fill-275" fill="#A7A7A7"></path>
                <path d="M331.085966,597.983649 C325.704353,598.316999 327.274817,593.480461 327.048765,590.144001 C327.722954,588.809122 330.41376,588.642447 331.310035,589.643975 C332.880498,591.47888 331.310035,596.148743 331.085966,597.983649" id="Fill-277" fill="#A7A7A7"></path>
                <path d="M363.474527,595.983737 C363.053822,593.827223 362.351406,587.357682 364.315938,587.026137 C365.298825,586.858897 365.579295,587.523455 366,588.186546 C365.71953,591.504937 366.702416,596.315283 363.474527,595.983737" id="Fill-279" fill="#A7A7A7"></path>
                <path d="M337.880732,597.089127 C341.919958,596.235719 341.919958,601.786648 338.553606,602 C335.635836,602 334.962963,597.729183 337.880732,597.089127" id="Fill-281" fill="#FFFFFF"></path>
                <path d="M351.819633,597.122695 C356.24455,596.064389 355.800493,602.206308 352.040684,601.994647 C349.828225,601.571325 348.944024,597.757678 351.819633,597.122695" id="Fill-283" fill="#FFFFFF"></path>
                <path d="M332.0613,499.116108 C333.308045,498.676217 334,499.555998 334,500.583708 C333.861609,502.491198 330.399382,502.637828 331.091338,499.997187 C331.091338,499.849259 331.507736,499.262738 332.0613,499.116108" id="Fill-285" fill="#A7A7A7"></path>
                <path d="M367.120072,494.077266 C368.240144,493.786746 368.799562,494.367787 368.939416,494.950112 C369.498833,497.420819 366,497.71134 366,495.531153 C366,494.658307 366.420801,494.222527 367.120072,494.077266" id="Fill-287" fill="#A7A7A7"></path>
                <path d="M364.846167,512.459667 C365.205637,511.945633 364.846167,510.230668 364.667224,509.202599 C364.130396,506.802255 363.77251,504.744601 363.234097,502.514085 C363.056738,501.314672 363.234097,499.942397 362.339382,499.257017 C354.817443,498.914328 344.969245,498.914328 337.627832,499.257017 C336.910476,500.113741 336.552591,503.200981 336.194705,505.601325 C336.015762,506.802255 335.657876,507.658979 335.478933,508.858393 C335.29999,509.887978 334.761577,511.774288 335.121047,512.288322 C335.836819,513.660597 338.70149,512.459667 340.671446,512.802357 C340.31356,511.258737 339.955674,509.202599 340.31356,507.31629 C341.567745,506.629394 344.611359,506.458049 345.685017,507.487634 C346.042903,509.202599 345.685017,511.431598 345.327131,512.802357 L354.640083,512.802357 C354.282197,511.431598 353.564842,509.202599 354.282197,507.31629 C355.534798,506.629394 358.757355,506.458049 359.653654,507.487634 C360.190483,509.545289 359.474711,511.431598 359.116825,512.631012 C361.265724,512.459667 363.951453,513.660597 364.846167,512.459667" id="Fill-289" fill="#A7A7A7"></path>
                <path d="M334.085966,512.983648 C328.704353,513.317016 330.274817,508.480227 330.048765,505.143596 C330.722954,503.810123 333.41376,503.641964 334.310035,504.643544 C335.880498,506.645228 334.310035,511.148648 334.085966,512.983648" id="Fill-291" fill="#A7A7A7"></path>
                <path d="M366.474527,507.983736 C366.053822,505.827133 365.351406,499.357323 367.315938,499.025763 C368.298825,498.859984 368.579295,499.523102 369,500.187688 C368.71953,503.50475 369.702416,508.315296 366.474527,507.983736" id="Fill-293" fill="#A7A7A7"></path>
                <path d="M342.880732,510.089127 C346.919958,509.235719 346.919958,514.786648 343.553606,515 C340.635836,515 339.962963,510.729183 342.880732,510.089127" id="Fill-295" fill="#FFFFFF"></path>
                <path d="M356.819633,502.122695 C361.24455,501.064389 360.800493,507.206308 357.040684,506.994647 C354.828225,506.782986 353.944024,502.757678 356.819633,502.122695" id="Fill-297" fill="#FFFFFF"></path>
                <path d="M352.299779,541.216408 C350.701903,536.263363 342.359359,535.161785 338.276771,538.831549 C337.389934,539.564852 337.035199,540.849756 335.970995,541.216408 C337.035199,539.198201 338.633075,537.546645 339.697279,535.528437 C337.567301,535.528437 335.082588,535.711763 332.775243,535.528437 C332.243141,535.528437 331,535.896711 331,534.978459 C331,533.878504 332.952611,534.245156 334.018384,534.245156 C341.295155,534.245156 349.282964,533.693555 356.737102,534.245156 C357.091837,534.245156 358.157611,533.878504 357.980243,534.795133 C358.157611,535.896711 356.737102,535.345111 356.205,535.528437 C354.25239,535.711763 351.412942,535.528437 349.460332,535.528437 C350.169801,537.179993 351.945044,539.198201 353.009249,540.848134 C353.365553,541.216408 352.831881,541.033082 352.654514,541.399734 C356.027633,548.004335 351.945044,555.158913 346.087213,555.892217 C338.276771,556.993795 332.952611,549.470942 336.32573,541.58306 C336.32573,541.216408 336.503097,541.216408 336.680464,541.033082 C341.64989,541.216408 346.97405,541.216408 352.299779,541.216408" id="Fill-299" fill="#A7A7A7"></path>
                <path d="M357.832719,535 L358.332351,535 C358.332351,537.892944 358.165807,541.127563 359,543 L357,543 C357.999263,541.127563 357.499632,537.552775 357.832719,535" id="Fill-301" fill="#A7A7A7"></path>
                <path d="M343.638103,557.290326 C346.152086,559.766543 347.228826,564.188696 347.409871,557.643848 C353.695622,555.344391 359.800327,559.943304 365.727164,559.943304 C370.216759,559.943304 376.323053,555.16763 379.195949,558.352456 C382.967717,562.774608 372.551285,565.250826 366.983362,565.957869 C363.751552,566.311391 359.979784,565.604347 357.465801,565.957869 C356.927431,571.618912 356.747974,577.810238 356.747974,584 L335.735654,584 C336.634526,580.9935 333.941086,579.579412 333.401128,576.748108 C332.322799,571.618912 333.760041,565.781108 333.760041,560.475152 C335.735654,558.174131 339.866335,557.820609 343.638103,557.290326" id="Fill-303" fill="#A7A7A7"></path>
                <path d="M612.818875,499.091297 C612.63719,498.182873 608.273541,497.817896 608.273541,499.454666 C608.453618,499.454666 608.453618,499.636351 608.453618,499.636351 C609.363649,500.181405 612.998951,500.544775 612.818875,499.091297 M612.818875,495.272702 C612.63719,494.364278 608.273541,493.999301 608.273541,495.636071 C608.453618,495.636071 608.453618,495.817756 608.453618,495.817756 C609.363649,496.364418 612.998951,496.727787 612.818875,495.272702 M612.818875,491.454107 C612.63719,490.545683 608.273541,490.182314 608.273541,491.819084 C608.453618,491.819084 608.453618,492.000769 608.453618,492.000769 C609.363649,492.545823 612.998951,492.909193 612.818875,491.454107 M634.272143,499.272981 L646.454666,499.272981 L646.454666,487.092066 L634.272143,487.092066 C634.090458,490.909053 634.272143,495.272702 634.272143,499.272981 M619.000979,499.272981 L631.181894,499.272981 L631.181894,487.092066 L619.000979,487.092066 C618.817686,490.909053 619.000979,495.272702 619.000979,499.272981 M612.818875,487.635512 C612.63719,486.727088 608.273541,486.363719 608.273541,488.000489 C608.453618,488.000489 608.453618,488.182174 608.453618,488.182174 C609.363649,488.545544 612.998951,489.090598 612.818875,487.635512 M612.818875,483.818525 C612.63719,482.910101 608.273541,482.545124 608.273541,484.181894 C608.453618,484.181894 608.453618,484.363579 608.453618,484.363579 C609.363649,484.726949 612.998951,485.273611 612.818875,483.818525 M612.818875,479.99993 C612.63719,479.091506 608.273541,478.726529 608.273541,480.364907 C608.453618,480.364907 608.453618,480.544984 608.453618,480.544984 C609.363649,480.909962 612.998951,481.455016 612.818875,479.99993 M612.818875,476.181335 C612.63719,475.272912 608.273541,474.909542 608.273541,476.546312 C608.453618,476.546312 608.453618,476.727997 608.453618,476.727997 C609.363649,477.091367 612.998951,477.636421 612.818875,476.181335 M634.272143,484.00021 L646.454666,484.00021 L646.454666,471.819294 L634.272143,471.819294 C634.090458,475.636281 634.272143,479.99993 634.272143,484.00021 M619.000979,484.00021 L631.181894,484.00021 L631.181894,471.819294 L619.000979,471.819294 C618.817686,475.636281 619.000979,479.99993 619.000979,484.00021 M612.818875,472.364348 C612.63719,471.455925 608.273541,471.090947 608.273541,472.727718 C608.453618,472.727718 608.453618,472.909402 608.453618,472.909402 C609.363649,473.272772 612.998951,473.819434 612.818875,472.364348 M605.181685,458 L651,458 L651,504 L615.727438,504 L615.727438,467.272352 L649.36323,467.272352 C649.726599,464.910451 649.36323,462.181964 649.544914,459.63677 L606.635163,459.63677 L606.635163,467.272352 L614.272352,467.272352 L614.272352,504 L605,504 L605,458.546662 C605.181685,458.183293 605.181685,458 605.181685,458" id="Fill-305" fill="#A7A7A7"></path>
                <path d="M612.165894,465.536541 C614.023851,465.357233 614.023851,462.126503 611.609,462.664429 C609.751043,463.024633 610.493568,465.536541 612.165894,465.536541 M611.423368,461.050651 C616.067439,460.331829 616.251428,467.510524 611.609,466.971011 C608.44998,466.612393 607.893086,461.588577 611.423368,461.050651" id="Fill-307" fill="#A7A7A7"></path>
                <path d="M618.165563,465.536541 C620.023325,465.357233 620.023325,462.126503 617.608727,462.664429 C615.750964,463.024633 616.493412,465.536541 618.165563,465.536541 M617.423115,461.050651 C622.0667,460.331829 622.252311,467.510524 617.608727,466.971011 C614.450038,466.612393 613.893202,461.588577 617.423115,461.050651" id="Fill-309" fill="#A7A7A7"></path>
                <path d="M350.622283,837.526354 C351.154558,837.526354 351.688403,837.526354 352.043253,837.695823 C352.398103,838.034763 352.398103,838.544673 352.398103,839.222552 L368.377343,839.222552 C370.153164,839.222552 372.816109,838.882113 372.995104,839.900431 C373.170959,841.42716 368.554768,840.91875 368.022493,840.91875 L332.334947,840.91875 C330.913977,840.91875 327.184912,841.25619 327.007487,840.240871 C326.830062,838.882113 329.849427,839.222552 331.446252,839.222552 L347.427063,839.222552 C347.781913,839.053082 347.427063,838.204233 347.781913,837.865293 C348.136763,837.526354 348.669038,837.526354 349.378738,837.526354 C348.314188,835.491215 351.333553,835.491215 350.622283,837.526354" id="Fill-321" fill="#A7A7A7"></path>
                <path d="M328.179041,844 L371,844 L371,869 L328,869 L328,844.520481 C328.179041,844.173494 328.179041,844 328.179041,844" id="Fill-323" fill="#A7A7A7"></path>
                <path d="M356.660953,872.73673 C357.015911,873.723325 358.082355,874.545488 358.969749,875.697971 C359.679664,876.686021 361.101065,877.837049 360.568629,878.989532 C358.969749,879.153965 358.082355,877.343752 357.19339,876.191269 C356.305996,875.040241 355.417031,873.723325 354.352158,872.73673 C351.155968,873.230028 347.958208,872.077545 345.471934,872.73673 C344.228011,873.065595 343.340617,875.203218 342.453223,876.191269 C341.38678,877.343752 340.676864,878.989532 339.077984,878.989532 C338.545548,877.672617 339.965378,876.686021 340.676864,875.697971 C341.564258,874.709921 342.453223,873.723325 343.163138,872.73673 L330.552718,872.73673 C329.308795,872.73673 327.711486,873.065595 327,872.241977 C327,871.914567 327,871.584247 327.356528,871.419814 C339.965378,870.926517 354.529637,871.090949 368.20493,871.090949 C368.916416,871.090949 373,870.596197 373,871.914567 C373,873.230028 366.962579,872.73673 365.363698,872.73673 L356.660953,872.73673 Z" id="Fill-325" fill="#A7A7A7"></path>
                <text id="Phases" font-family="AvenirNext-Bold, Avenir Next, Lato-Bold, Lato, Sans-serif" font-size="24" font-weight="bold" fill="#000000">
                    <tspan x="497" y="24">Phases</tspan>
                </text>
                <text id="Workshop-1" font-family="AvenirNext-Bold, Avenir Next, Lato-Bold, Lato, Sans-serif" font-size="16" font-weight="bold" letter-spacing="-0.576000035" fill="#6390B1">
                    <tspan x="302.84" y="91">Workshop 1</tspan>
                </text>
                <text id="(techniciens)" font-family="AvenirNext-Bold, Avenir Next, Lato-Bold, Lato, Sans-serif" font-size="12" font-weight="bold" fill="#000000">
                    <tspan x="304.998" y="109">(techniciens)</tspan>
                </text>
                <text id="Workshop-2" font-family="AvenirNext-Bold, Avenir Next, Lato-Bold, Lato, Sans-serif" font-size="16" font-weight="bold" letter-spacing="-0.576000035" fill="#6390B1">
                    <tspan x="306.84" y="304">Workshop 2</tspan>
                </text>
                <text id="(techniciens,-archit" font-family="AvenirNext-Bold, Avenir Next, Lato-Bold, Lato, Sans-serif" font-size="12" font-weight="bold" fill="#000000">
                    <tspan x="318.565697" y="328">(techniciens</tspan>
                    <tspan x="388.465698" y="328" letter-spacing="-0.271395">,</tspan>
                    <tspan x="391.434303" y="328"> </tspan>
                    <tspan x="291.047116" y="344">a</tspan>
                    <tspan x="297.839116" y="344" letter-spacing="-0.162837">r</tspan>
                    <tspan x="302.212279" y="344">chitectes</tspan>
                    <tspan x="354.136279" y="344" letter-spacing="-0.271395">,</tspan>
                    <tspan x="357.104884" y="344"> étudiants)</tspan>
                </text>
                <text id="Exposition-interacti" font-family="AvenirNext-Bold, Avenir Next, Lato-Bold, Lato, Sans-serif" font-size="16" font-weight="bold" fill="#6390B1">
                    <tspan x="311.608" y="916">Exposition</tspan>
                    <tspan x="311.72" y="938">interactive </tspan>
                </text>
                <text id="Geste-urbain-de-l’En" font-family="AvenirNext-Bold, Avenir Next, Lato-Bold, Lato, Sans-serif" font-size="16" font-weight="bold" fill="#6390B1">
                    <tspan x="290.852" y="1217">Geste urbain de </tspan>
                    <tspan x="300.732" y="1239">l’Entrée Nord </tspan>
                    <tspan x="324.428" y="1261">ﬁnalisé </tspan>
                </text>
                <text id="Suggestions" font-family="AvenirNext-Regular, Avenir Next, Lato-Regular, Lato, Sans-serif" font-size="10" font-weight="normal" fill="#477393">
                    <tspan x="347" y="266">Suggestions</tspan>
                </text>
                <text id="Suggestions" font-family="AvenirNext-Regular, Avenir Next, Lato-Regular, Lato, Sans-serif" font-size="10" font-weight="normal" fill="#477393">
                    <tspan x="276" y="639">Suggestions</tspan>
                </text>
                <text id="Suggestions" font-family="AvenirNext-Regular, Avenir Next, Lato-Regular, Lato, Sans-serif" font-size="10" font-weight="normal" fill="#477393">
                    <tspan x="276" y="966">Suggestions</tspan>
                </text>
                <polyline id="Stroke-341" stroke="#477393" stroke-width="0.972" stroke-dasharray="4.861,4.861" points="630 549 630 1015 502 1015"></polyline>
                <polygon id="Fill-343" fill="#477393" points="512.454929 1009 513 1010.51608 502.090544 1014.49916 513 1018.48224 512.454929 1020 497 1014.49916"></polygon>
                <text id="Web-App" font-family="AvenirNext-Bold, Avenir Next, Lato-Bold, Lato, Sans-serif" font-size="12" font-weight="bold" letter-spacing="-0.432000041" fill="#6390B1">
                    <tspan x="604.398" y="537">Web App</tspan>
                </text>
                <g id="Group-347" transform="translate(547.000000, 256.000000)" font-size="16" font-family="AvenirNext-Bold, Avenir Next, Lato-Bold, Lato, Sans-serif" letter-spacing="-0.703999996" fill="#000000" font-weight="bold">
                    <text id="Public-+-Parties">
                        <tspan x="30.0159998" y="12.6029919">P</tspan>
                        <tspan x="38.8639998" y="12.6029919" letter-spacing="-0.938666642">ublic + Parties</tspan>
                    </text>
                </g>
                <text id="prenantes" font-family="AvenirNext-Bold, Avenir Next, Lato-Bold, Lato, Sans-serif" font-size="16" font-weight="bold" fill="#000000">
                    <tspan x="586.629419" y="286">p</tspan>
                    <tspan x="597.141418" y="286" letter-spacing="-0.162837">r</tspan>
                    <tspan x="603.026582" y="286">enantes</tspan>
                </text>
                <path d="M350,764 L350,821" id="Stroke-353" stroke="#000000" stroke-width="0.972" stroke-dasharray="4.861,4.861"></path>
                <polygon id="Fill-355" fill="#000000" points="344 809.546679 345.597204 809 349.499216 819.909456 353.402796 809 355 809.546679 349.499216 825"></polygon>
                <text id="Suggestions" font-family="AvenirNext-Regular, Avenir Next, Lato-Regular, Lato, Sans-serif" font-size="10" font-weight="normal" fill="#477393">
                    <tspan x="525" y="1029">Suggestions</tspan>
                </text>
                <text id="Public-+-Parties" font-family="AvenirNext-Bold, Avenir Next, Lato-Bold, Lato, Sans-serif" font-size="16" font-weight="bold" letter-spacing="-0.703999996" fill="#000000">
                    <tspan x="301.336" y="673">Public + Parties</tspan>
                </text>
                <text id="prenantes" font-family="AvenirNext-Bold, Avenir Next, Lato-Bold, Lato, Sans-serif" font-size="16" font-weight="bold" fill="#000000">
                    <tspan x="312.629418" y="689">p</tspan>
                    <tspan x="323.141418" y="689" letter-spacing="-0.162837">r</tspan>
                    <tspan x="329.026582" y="689">enantes</tspan>
                </text>
                <g id="Group" transform="translate(309.000000, 697.000000)" fill="#000000">
                    <path d="M54.67,44.1274429 L54.67,52.8347286 L54.67,73.0920143 C54.67,75.0468714 53.4254286,76.2914429 51.8257143,76.1123 C50.5827143,75.9347286 49.5172857,74.8677286 49.3381429,73.6247286 L49.3381429,70.7820143 L49.3381429,57.4531571 L49.3381429,56.5653 L47.5624286,56.5653 L47.5624286,56.7428714 L47.5624286,72.5593 C47.0281429,74.3365857 45.9627143,75.5795857 44.363,75.5795857 C42.7632857,75.5795857 40.4548571,72.7368714 40.4548571,72.7368714 L40.4548571,62.9625857 L40.4548571,45.0153 C40.4548571,44.8377286 40.4548571,44.6601571 40.2757143,44.4825857 C40.0981429,44.6601571 40.0981429,44.8377286 39.9205714,45.1928714 C38.8551429,47.6820143 37.6105714,49.9904429 36.3675714,52.6571571 C35.8332857,53.9001571 34.4127143,54.4344429 33.3457143,54.0777286 C31.9235714,53.5450143 31.2132857,52.1228714 31.9235714,50.7023 C32.9905714,48.2147286 34.4127143,45.7271571 35.4781429,43.0604429 C36.9002857,40.0385857 38.4984286,37.0198714 39.9205714,33.6428714 C40.6308571,32.3983 41.5202857,31.6880143 43.2975714,31.8655857 L51.6497143,31.8655857 C53.4254286,31.5104429 54.3148571,32.3983 55.0251429,33.6428714 C57.6902857,39.1507286 60.1778571,44.8377286 63.0221429,50.5231571 C63.7324286,51.9468714 63.3772857,53.1898714 62.1342857,53.9001571 C60.8897143,54.6120143 59.29,54.0777286 58.5797143,52.6571571 C57.8694286,51.0574429 57.1575714,49.4577286 56.2697143,48.0355857 C55.7354286,46.4374429 55.3802857,45.3704429 54.67,44.1274429 C54.8475714,44.1274429 54.67,44.1274429 54.67,44.1274429" id="Fill-91"></path>
                    <path d="M33.5240714,44.6598429 C33.1673571,44.1271286 32.9913571,43.5928429 32.8122143,44.1271286 L33.3465,44.1271286 L33.5240714,44.6598429 C32.8122143,45.9044143 32.4570714,47.3249857 31.7467857,48.5679857 C31.3916429,49.2798429 31.2140714,50.3452714 31.2140714,51.0571286 C31.2140714,51.9465571 31.5692143,52.8344143 32.1019286,53.5447 C32.2795,53.8998429 31.5692143,54.6117 31.5692143,54.6117 L31.5692143,72.0247 C31.5692143,73.0917 31.0365,74.1571286 29.9695,74.6898429 C29.0816429,75.2241286 28.0146429,75.0465571 27.3043571,74.1571286 C26.5940714,73.4468429 26.4165,72.9125571 26.4165,71.8487 L26.4165,62.7847 L26.4165,54.7877 L24.6392143,54.7877 L24.6392143,56.7425571 L24.6392143,72.0247 C24.6392143,72.5589857 24.6392143,72.9125571 24.4600714,73.4468429 C24.1049286,74.6898429 22.8619286,75.5792714 21.6173571,75.4017 C20.3743571,75.2241286 19.4849286,74.1571286 19.3073571,72.7365571 L19.3073571,70.6041286 L19.3073571,44.6598429 L19.3073571,44.1271286 L19.1297857,44.1271286 C18.9522143,44.3031286 18.9522143,44.4822714 18.7746429,44.6598429 C17.7092143,47.1474143 16.6422143,49.4574143 15.5767857,51.7674143 C15.0425,53.0104143 14.1546429,53.5447 13.0892143,53.1895571 C11.8446429,52.8344143 11.1327857,51.5898429 11.4895,50.1692714 C11.8446429,49.2798429 12.1997857,48.3919857 12.7325,47.5041286 C14.6873571,42.8825571 16.8197857,38.2625571 18.9522143,33.4649857 C19.4849286,32.0428429 20.3743571,31.5101286 21.7965,31.5101286 L29.9695,31.5101286 C29.9695,31.5101286 32.4570714,30.9774143 32.9913571,32.3979857 C33.8792143,34.3528429 34.7686429,36.3092714 35.6565,38.2625571 C35.8340714,38.7968429 35.8340714,39.1504143 35.6565,39.6847 C34.9446429,41.2844143 34.2343571,42.8825571 33.5240714,44.6598429" id="Fill-93"></path>
                    <path d="M53.9595571,29.9108857 C54.6698429,28.1336 55.2041286,26.5354571 55.7352714,24.7581714 C56.2695571,23.1584571 57.3349857,22.6241714 59.1122714,22.8033143 L65.3319857,22.8033143 C68.5298429,22.2706 69.5968429,23.3360286 69.7744143,28.6663143 C71.5517,32.3984571 72.9738429,35.5963143 74.7495571,39.3284571 C76.8819857,41.1057429 77.0595571,43.7708857 75.2822714,44.4811714 C74.0392714,45.0154571 72.7947,44.6603143 72.2619857,43.2381714 C71.1965571,40.7490286 70.1295571,38.4406 69.0641286,35.9530286 C68.8865571,35.7738857 68.8865571,35.5963143 68.5298429,35.4203143 L68.5298429,37.1976 L68.5298429,63.4954571 C68.5298429,64.0297429 68.5298429,64.7400286 68.3522714,65.2727429 C67.9971286,66.6948857 66.9317,67.4051714 65.3319857,67.2276 C64.0874143,67.0500286 63.1995571,65.9830286 63.1995571,64.5624571 L63.1995571,57.2757429 L63.1995571,55.1448857 C63.1995571,54.2554571 63.1995571,53.5451714 63.7322714,52.6573143 C64.2665571,51.5903143 64.2665571,50.3457429 63.7322714,49.2803143 C61.2447,43.5933143 58.9347,37.9078857 56.4471286,32.2208857 C56.0919857,30.9778857 55.2041286,30.2676 53.9595571,29.9108857" id="Fill-95"></path>
                    <path d="M8.46795714,35.9525571 C7.40252857,38.0849857 6.5131,40.2174143 5.2701,42.3498429 C5.09252857,42.5274143 5.09252857,42.8825571 4.91338571,43.0601286 C4.38067143,44.3031286 3.13767143,44.6598429 1.8931,44.1271286 C0.827671429,43.5928429 0.472528571,42.3498429 1.00367143,41.2844143 C2.07067143,38.9744143 3.13767143,36.4852714 4.38067143,34.1752714 C5.62524286,31.5101286 6.86824286,28.8449857 8.29038571,26.1782714 C8.8231,25.1128429 9.53495714,24.5801286 10.7779571,24.5801286 L18.5973857,24.5801286 C19.1301,24.5801286 19.4852429,24.7577 19.6628143,25.4679857 C20.0195286,26.5349857 20.3746714,27.4228429 20.9073857,28.4898429 C21.0849571,29.0225571 21.2625286,29.2001286 20.5506714,29.3777 C19.4852429,29.7328429 18.5973857,30.6207 18.0631,31.6877 C15.2203857,37.3731286 12.7328143,43.0601286 9.8901,48.5679857 C8.64552857,51.5898429 10.2452429,54.4341286 13.6206714,54.7877 L13.6206714,54.9668429 L13.6206714,62.6071286 C13.6206714,63.8517 12.5552429,64.7395571 11.4882429,64.9187 C10.2452429,65.0947 9.00067143,64.3844143 8.46795714,63.1414143 C8.29038571,62.6071286 8.29038571,62.0744143 8.29038571,61.7177 L8.29038571,37.0195571 C8.46795714,36.6628429 8.46795714,36.3092714 8.46795714,35.9525571" id="Fill-97"></path>
                    <path d="M31.3910143,23.8692143 C31.3910143,26.8895 28.9034429,29.3786429 25.8831571,29.3786429 C22.8613,29.3786429 20.3737286,26.8895 20.3737286,23.8692143 C20.3737286,20.8473571 22.8613,18.3597857 25.8831571,18.3597857 C28.9034429,18.1822143 31.3910143,20.6713571 31.3910143,23.8692143" id="Fill-99"></path>
                    <path d="M63.1994,21.0255571 C60.1791143,21.0255571 57.6915429,18.5379857 57.6915429,15.5177 C57.6915429,12.4958429 60.1791143,10.0082714 63.1994,10.0082714 C66.2196857,10.0082714 68.7088286,12.4958429 68.7088286,15.5177 C68.7088286,18.7155571 66.2196857,21.2031286 63.1994,21.0255571" id="Fill-101"></path>
                    <path d="M42.5866571,24.2235714 C42.5866571,21.2032857 45.0742286,18.7157143 48.0945143,18.7157143 C51.1163714,18.7157143 53.6039429,21.2032857 53.6039429,24.2235714 C53.6039429,27.2454286 51.1163714,29.733 48.0945143,29.733 C45.0742286,29.733 42.5866571,27.2454286 42.5866571,24.2235714" id="Fill-103"></path>
                    <path d="M45.7846714,14.9838857 L45.7846714,15.8717429 C45.6071,16.5836 45.4295286,16.9387429 44.7192429,17.2938857 C43.6522429,17.8281714 42.5868143,18.5384571 41.8749571,19.4263143 C41.1646714,20.4933143 40.2768143,20.4933143 39.2098143,20.3157429 C36.5446714,19.7830286 34.7673857,17.2938857 34.9449571,14.2736 C35.1225286,11.6084571 37.4341,9.47445714 40.0976714,9.29845714 C42.7643857,9.12088571 45.2519571,11.0757429 45.7846714,13.7408857 L45.7846714,14.9838857 Z" id="Fill-105"></path>
                    <path d="M31.7469429,28.1337571 C32.4572286,26.3564714 33.1675143,24.7583286 33.8793714,22.9810429 C34.4120857,21.7364714 35.2999429,21.0261857 36.7220857,21.0261857 L41.1645143,21.0261857 C40.2766571,23.6913286 40.6318,26.1789 42.5866571,28.4904714 C40.4542286,28.8440429 39.5663714,30.4437571 38.8545143,32.2210429 C38.3218,33.4656143 37.7890857,34.5310429 37.2548,35.9531857 C36.5445143,34.1759 35.6566571,32.5761857 34.9448,30.9780429 C34.2345143,29.7334714 33.3466571,28.4904714 31.7469429,28.1337571" id="Fill-107"></path>
                    <path d="M18.9522143,18.1819 C18.9522143,21.0261857 16.6422143,23.1586143 13.9770714,23.1586143 C11.1327857,23.1586143 9.00035714,20.8470429 9.00035714,18.1819 C9.00035714,15.3391857 11.3119286,13.2067571 13.9770714,13.2067571 C16.6422143,13.2067571 18.9522143,15.3391857 18.9522143,18.1819" id="Fill-109"></path>
                    <path d="M34.5898143,10.5411429 C32.9901,14.63 33.1676714,15.3402857 35.3001,19.2484286 C34.5898143,19.6051429 33.7019571,20.1362857 32.9901,20.6705714 C32.1022429,18.5381429 30.5025286,16.7608571 28.0149571,16.0505714 C25.5273857,15.3402857 23.2173857,16.0505714 21.0849571,17.6487143 C21.2625286,17.2935714 21.2625286,17.1175714 21.2625286,16.9384286 C21.9728143,15.3402857 22.8622429,13.563 23.5725286,11.9632857 C24.2828143,10.5411429 25.1722429,10.0084286 26.9495286,10.5411429 C29.2579571,10.5411429 31.2143857,10.3635714 33.5243857,10.3635714 C33.7019571,10.3635714 34.2346714,10.5411429 34.5898143,10.5411429" id="Fill-111"></path>
                    <path d="M52.8930286,5.03344286 C55.9133143,5.03344286 58.2248857,7.69858571 57.8697429,10.7188714 C57.8697429,10.8964429 57.6906,11.0755857 57.6906,11.2515857 C57.3354571,11.9634429 56.8027429,12.6737286 56.4476,13.3840143 C55.9133143,14.4510143 54.8478857,14.8061571 53.7808857,14.8061571 C51.1157429,15.1613 48.6281714,13.5631571 48.0954571,10.8964429 C47.5611714,8.2313 49.1608857,5.74372857 51.6484571,5.03344286 L52.8930286,5.03344286 Z" id="Fill-113"></path>
                    <path d="M29.7919286,9.8307 C27.1267857,9.8307 24.9943571,7.5207 24.9943571,5.03312857 C24.9943571,2.36798571 27.1267857,0.235557143 29.7919286,0.235557143 C32.4570714,0.235557143 34.5895,2.36798571 34.5895,5.03312857 C34.5895,7.69827143 32.4570714,9.8307 29.7919286,9.8307" id="Fill-115"></path>
                    <path d="M56.4471286,52.4786429 C57.8692714,54.4335 59.4674143,55.1437857 61.7789857,54.6110714 L61.7789857,54.9662143 L61.7789857,64.0302143 C61.7789857,65.8059286 60.3568429,67.0489286 58.5795571,66.6953571 C57.3349857,66.5177857 56.4471286,65.6283571 56.4471286,64.2062143 L56.4471286,53.0113571 L56.4471286,52.4786429 Z" id="Fill-117"></path>
                    <path d="M35.1231571,54.6117 C37.0780143,54.2549857 38.4985857,54.0774143 40.4550143,53.8998429 L40.4550143,54.9668429 L40.4550143,64.5619857 C40.4550143,66.1617 39.3880143,67.0495571 37.7883,67.0495571 C36.3677286,67.0495571 34.9455857,66.1617 35.1231571,64.2052714 C35.3007286,61.3641286 35.1231571,58.5198429 35.1231571,55.6771286 L35.1231571,54.6117 Z" id="Fill-119"></path>
                    <path d="M55.7359,15.5178571 C55.7359,17.4711429 56.4477571,19.0708571 57.5131857,20.3154286 C56.6237571,20.8481429 55.9134714,21.2032857 55.0256143,21.736 C54.4913286,20.493 53.6034714,19.2484286 52.3604714,18.3605714 C51.1159,17.4711429 49.6937571,16.9384286 48.2731857,16.9384286 C48.0956143,15.6938571 48.2731857,15.5178571 49.3386143,15.5178571 C51.6486143,15.3402857 53.6034714,15.5178571 55.7359,15.5178571" id="Fill-121"></path>
                    <path d="M17.3532857,52.1225571 L17.3532857,64.5619857 C15.9311429,64.3844143 14.8657143,63.4949857 15.576,62.2519857 L15.576,54.4341286 C14.8657143,54.2549857 15.0432857,54.0774143 15.0432857,53.8998429 C15.7535714,53.1895571 16.4654286,52.6568429 17.3532857,52.1225571" id="Fill-123"></path>
                </g>
                <g id="Group" transform="translate(591.000000, 296.000000)" fill="#000000">
                    <path d="M54.67,44.1274429 L54.67,52.8347286 L54.67,73.0920143 C54.67,75.0468714 53.4254286,76.2914429 51.8257143,76.1123 C50.5827143,75.9347286 49.5172857,74.8677286 49.3381429,73.6247286 L49.3381429,70.7820143 L49.3381429,57.4531571 L49.3381429,56.5653 L47.5624286,56.5653 L47.5624286,56.7428714 L47.5624286,72.5593 C47.0281429,74.3365857 45.9627143,75.5795857 44.363,75.5795857 C42.7632857,75.5795857 40.4548571,72.7368714 40.4548571,72.7368714 L40.4548571,62.9625857 L40.4548571,45.0153 C40.4548571,44.8377286 40.4548571,44.6601571 40.2757143,44.4825857 C40.0981429,44.6601571 40.0981429,44.8377286 39.9205714,45.1928714 C38.8551429,47.6820143 37.6105714,49.9904429 36.3675714,52.6571571 C35.8332857,53.9001571 34.4127143,54.4344429 33.3457143,54.0777286 C31.9235714,53.5450143 31.2132857,52.1228714 31.9235714,50.7023 C32.9905714,48.2147286 34.4127143,45.7271571 35.4781429,43.0604429 C36.9002857,40.0385857 38.4984286,37.0198714 39.9205714,33.6428714 C40.6308571,32.3983 41.5202857,31.6880143 43.2975714,31.8655857 L51.6497143,31.8655857 C53.4254286,31.5104429 54.3148571,32.3983 55.0251429,33.6428714 C57.6902857,39.1507286 60.1778571,44.8377286 63.0221429,50.5231571 C63.7324286,51.9468714 63.3772857,53.1898714 62.1342857,53.9001571 C60.8897143,54.6120143 59.29,54.0777286 58.5797143,52.6571571 C57.8694286,51.0574429 57.1575714,49.4577286 56.2697143,48.0355857 C55.7354286,46.4374429 55.3802857,45.3704429 54.67,44.1274429 C54.8475714,44.1274429 54.67,44.1274429 54.67,44.1274429" id="Fill-91"></path>
                    <path d="M33.5240714,44.6598429 C33.1673571,44.1271286 32.9913571,43.5928429 32.8122143,44.1271286 L33.3465,44.1271286 L33.5240714,44.6598429 C32.8122143,45.9044143 32.4570714,47.3249857 31.7467857,48.5679857 C31.3916429,49.2798429 31.2140714,50.3452714 31.2140714,51.0571286 C31.2140714,51.9465571 31.5692143,52.8344143 32.1019286,53.5447 C32.2795,53.8998429 31.5692143,54.6117 31.5692143,54.6117 L31.5692143,72.0247 C31.5692143,73.0917 31.0365,74.1571286 29.9695,74.6898429 C29.0816429,75.2241286 28.0146429,75.0465571 27.3043571,74.1571286 C26.5940714,73.4468429 26.4165,72.9125571 26.4165,71.8487 L26.4165,62.7847 L26.4165,54.7877 L24.6392143,54.7877 L24.6392143,56.7425571 L24.6392143,72.0247 C24.6392143,72.5589857 24.6392143,72.9125571 24.4600714,73.4468429 C24.1049286,74.6898429 22.8619286,75.5792714 21.6173571,75.4017 C20.3743571,75.2241286 19.4849286,74.1571286 19.3073571,72.7365571 L19.3073571,70.6041286 L19.3073571,44.6598429 L19.3073571,44.1271286 L19.1297857,44.1271286 C18.9522143,44.3031286 18.9522143,44.4822714 18.7746429,44.6598429 C17.7092143,47.1474143 16.6422143,49.4574143 15.5767857,51.7674143 C15.0425,53.0104143 14.1546429,53.5447 13.0892143,53.1895571 C11.8446429,52.8344143 11.1327857,51.5898429 11.4895,50.1692714 C11.8446429,49.2798429 12.1997857,48.3919857 12.7325,47.5041286 C14.6873571,42.8825571 16.8197857,38.2625571 18.9522143,33.4649857 C19.4849286,32.0428429 20.3743571,31.5101286 21.7965,31.5101286 L29.9695,31.5101286 C29.9695,31.5101286 32.4570714,30.9774143 32.9913571,32.3979857 C33.8792143,34.3528429 34.7686429,36.3092714 35.6565,38.2625571 C35.8340714,38.7968429 35.8340714,39.1504143 35.6565,39.6847 C34.9446429,41.2844143 34.2343571,42.8825571 33.5240714,44.6598429" id="Fill-93"></path>
                    <path d="M53.9595571,29.9108857 C54.6698429,28.1336 55.2041286,26.5354571 55.7352714,24.7581714 C56.2695571,23.1584571 57.3349857,22.6241714 59.1122714,22.8033143 L65.3319857,22.8033143 C68.5298429,22.2706 69.5968429,23.3360286 69.7744143,28.6663143 C71.5517,32.3984571 72.9738429,35.5963143 74.7495571,39.3284571 C76.8819857,41.1057429 77.0595571,43.7708857 75.2822714,44.4811714 C74.0392714,45.0154571 72.7947,44.6603143 72.2619857,43.2381714 C71.1965571,40.7490286 70.1295571,38.4406 69.0641286,35.9530286 C68.8865571,35.7738857 68.8865571,35.5963143 68.5298429,35.4203143 L68.5298429,37.1976 L68.5298429,63.4954571 C68.5298429,64.0297429 68.5298429,64.7400286 68.3522714,65.2727429 C67.9971286,66.6948857 66.9317,67.4051714 65.3319857,67.2276 C64.0874143,67.0500286 63.1995571,65.9830286 63.1995571,64.5624571 L63.1995571,57.2757429 L63.1995571,55.1448857 C63.1995571,54.2554571 63.1995571,53.5451714 63.7322714,52.6573143 C64.2665571,51.5903143 64.2665571,50.3457429 63.7322714,49.2803143 C61.2447,43.5933143 58.9347,37.9078857 56.4471286,32.2208857 C56.0919857,30.9778857 55.2041286,30.2676 53.9595571,29.9108857" id="Fill-95"></path>
                    <path d="M8.46795714,35.9525571 C7.40252857,38.0849857 6.5131,40.2174143 5.2701,42.3498429 C5.09252857,42.5274143 5.09252857,42.8825571 4.91338571,43.0601286 C4.38067143,44.3031286 3.13767143,44.6598429 1.8931,44.1271286 C0.827671429,43.5928429 0.472528571,42.3498429 1.00367143,41.2844143 C2.07067143,38.9744143 3.13767143,36.4852714 4.38067143,34.1752714 C5.62524286,31.5101286 6.86824286,28.8449857 8.29038571,26.1782714 C8.8231,25.1128429 9.53495714,24.5801286 10.7779571,24.5801286 L18.5973857,24.5801286 C19.1301,24.5801286 19.4852429,24.7577 19.6628143,25.4679857 C20.0195286,26.5349857 20.3746714,27.4228429 20.9073857,28.4898429 C21.0849571,29.0225571 21.2625286,29.2001286 20.5506714,29.3777 C19.4852429,29.7328429 18.5973857,30.6207 18.0631,31.6877 C15.2203857,37.3731286 12.7328143,43.0601286 9.8901,48.5679857 C8.64552857,51.5898429 10.2452429,54.4341286 13.6206714,54.7877 L13.6206714,54.9668429 L13.6206714,62.6071286 C13.6206714,63.8517 12.5552429,64.7395571 11.4882429,64.9187 C10.2452429,65.0947 9.00067143,64.3844143 8.46795714,63.1414143 C8.29038571,62.6071286 8.29038571,62.0744143 8.29038571,61.7177 L8.29038571,37.0195571 C8.46795714,36.6628429 8.46795714,36.3092714 8.46795714,35.9525571" id="Fill-97"></path>
                    <path d="M31.3910143,23.8692143 C31.3910143,26.8895 28.9034429,29.3786429 25.8831571,29.3786429 C22.8613,29.3786429 20.3737286,26.8895 20.3737286,23.8692143 C20.3737286,20.8473571 22.8613,18.3597857 25.8831571,18.3597857 C28.9034429,18.1822143 31.3910143,20.6713571 31.3910143,23.8692143" id="Fill-99"></path>
                    <path d="M63.1994,21.0255571 C60.1791143,21.0255571 57.6915429,18.5379857 57.6915429,15.5177 C57.6915429,12.4958429 60.1791143,10.0082714 63.1994,10.0082714 C66.2196857,10.0082714 68.7088286,12.4958429 68.7088286,15.5177 C68.7088286,18.7155571 66.2196857,21.2031286 63.1994,21.0255571" id="Fill-101"></path>
                    <path d="M42.5866571,24.2235714 C42.5866571,21.2032857 45.0742286,18.7157143 48.0945143,18.7157143 C51.1163714,18.7157143 53.6039429,21.2032857 53.6039429,24.2235714 C53.6039429,27.2454286 51.1163714,29.733 48.0945143,29.733 C45.0742286,29.733 42.5866571,27.2454286 42.5866571,24.2235714" id="Fill-103"></path>
                    <path d="M45.7846714,14.9838857 L45.7846714,15.8717429 C45.6071,16.5836 45.4295286,16.9387429 44.7192429,17.2938857 C43.6522429,17.8281714 42.5868143,18.5384571 41.8749571,19.4263143 C41.1646714,20.4933143 40.2768143,20.4933143 39.2098143,20.3157429 C36.5446714,19.7830286 34.7673857,17.2938857 34.9449571,14.2736 C35.1225286,11.6084571 37.4341,9.47445714 40.0976714,9.29845714 C42.7643857,9.12088571 45.2519571,11.0757429 45.7846714,13.7408857 L45.7846714,14.9838857 Z" id="Fill-105"></path>
                    <path d="M31.7469429,28.1337571 C32.4572286,26.3564714 33.1675143,24.7583286 33.8793714,22.9810429 C34.4120857,21.7364714 35.2999429,21.0261857 36.7220857,21.0261857 L41.1645143,21.0261857 C40.2766571,23.6913286 40.6318,26.1789 42.5866571,28.4904714 C40.4542286,28.8440429 39.5663714,30.4437571 38.8545143,32.2210429 C38.3218,33.4656143 37.7890857,34.5310429 37.2548,35.9531857 C36.5445143,34.1759 35.6566571,32.5761857 34.9448,30.9780429 C34.2345143,29.7334714 33.3466571,28.4904714 31.7469429,28.1337571" id="Fill-107"></path>
                    <path d="M18.9522143,18.1819 C18.9522143,21.0261857 16.6422143,23.1586143 13.9770714,23.1586143 C11.1327857,23.1586143 9.00035714,20.8470429 9.00035714,18.1819 C9.00035714,15.3391857 11.3119286,13.2067571 13.9770714,13.2067571 C16.6422143,13.2067571 18.9522143,15.3391857 18.9522143,18.1819" id="Fill-109"></path>
                    <path d="M34.5898143,10.5411429 C32.9901,14.63 33.1676714,15.3402857 35.3001,19.2484286 C34.5898143,19.6051429 33.7019571,20.1362857 32.9901,20.6705714 C32.1022429,18.5381429 30.5025286,16.7608571 28.0149571,16.0505714 C25.5273857,15.3402857 23.2173857,16.0505714 21.0849571,17.6487143 C21.2625286,17.2935714 21.2625286,17.1175714 21.2625286,16.9384286 C21.9728143,15.3402857 22.8622429,13.563 23.5725286,11.9632857 C24.2828143,10.5411429 25.1722429,10.0084286 26.9495286,10.5411429 C29.2579571,10.5411429 31.2143857,10.3635714 33.5243857,10.3635714 C33.7019571,10.3635714 34.2346714,10.5411429 34.5898143,10.5411429" id="Fill-111"></path>
                    <path d="M52.8930286,5.03344286 C55.9133143,5.03344286 58.2248857,7.69858571 57.8697429,10.7188714 C57.8697429,10.8964429 57.6906,11.0755857 57.6906,11.2515857 C57.3354571,11.9634429 56.8027429,12.6737286 56.4476,13.3840143 C55.9133143,14.4510143 54.8478857,14.8061571 53.7808857,14.8061571 C51.1157429,15.1613 48.6281714,13.5631571 48.0954571,10.8964429 C47.5611714,8.2313 49.1608857,5.74372857 51.6484571,5.03344286 L52.8930286,5.03344286 Z" id="Fill-113"></path>
                    <path d="M29.7919286,9.8307 C27.1267857,9.8307 24.9943571,7.5207 24.9943571,5.03312857 C24.9943571,2.36798571 27.1267857,0.235557143 29.7919286,0.235557143 C32.4570714,0.235557143 34.5895,2.36798571 34.5895,5.03312857 C34.5895,7.69827143 32.4570714,9.8307 29.7919286,9.8307" id="Fill-115"></path>
                    <path d="M56.4471286,52.4786429 C57.8692714,54.4335 59.4674143,55.1437857 61.7789857,54.6110714 L61.7789857,54.9662143 L61.7789857,64.0302143 C61.7789857,65.8059286 60.3568429,67.0489286 58.5795571,66.6953571 C57.3349857,66.5177857 56.4471286,65.6283571 56.4471286,64.2062143 L56.4471286,53.0113571 L56.4471286,52.4786429 Z" id="Fill-117"></path>
                    <path d="M35.1231571,54.6117 C37.0780143,54.2549857 38.4985857,54.0774143 40.4550143,53.8998429 L40.4550143,54.9668429 L40.4550143,64.5619857 C40.4550143,66.1617 39.3880143,67.0495571 37.7883,67.0495571 C36.3677286,67.0495571 34.9455857,66.1617 35.1231571,64.2052714 C35.3007286,61.3641286 35.1231571,58.5198429 35.1231571,55.6771286 L35.1231571,54.6117 Z" id="Fill-119"></path>
                    <path d="M55.7359,15.5178571 C55.7359,17.4711429 56.4477571,19.0708571 57.5131857,20.3154286 C56.6237571,20.8481429 55.9134714,21.2032857 55.0256143,21.736 C54.4913286,20.493 53.6034714,19.2484286 52.3604714,18.3605714 C51.1159,17.4711429 49.6937571,16.9384286 48.2731857,16.9384286 C48.0956143,15.6938571 48.2731857,15.5178571 49.3386143,15.5178571 C51.6486143,15.3402857 53.6034714,15.5178571 55.7359,15.5178571" id="Fill-121"></path>
                    <path d="M17.3532857,52.1225571 L17.3532857,64.5619857 C15.9311429,64.3844143 14.8657143,63.4949857 15.576,62.2519857 L15.576,54.4341286 C14.8657143,54.2549857 15.0432857,54.0774143 15.0432857,53.8998429 C15.7535714,53.1895571 16.4654286,52.6568429 17.3532857,52.1225571" id="Fill-123"></path>
                </g>
                <text id="L’exposition-aura-li" font-family="AvenirNext-Regular, Avenir Next, Lato-Regular, Lato, Sans-serif" font-size="16" font-weight="normal" fill="#4A4A4A">
                    <tspan x="14" y="633">L’exposition aura lieu à la salle </tspan>
                    <tspan x="14" y="652">d’honneur de l’Hòtel de Ville de </tspan>
                    <tspan x="14" y="671">Nouméa le 30 octobre 2017 de </tspan>
                    <tspan x="14" y="690">17:00 à 19:00, et du mardi 31 </tspan>
                    <tspan x="14" y="709">octobre au 2 novembre de </tspan>
                    <tspan x="14" y="728">12:00 à 19:00. L’exposition aura </tspan>
                    <tspan x="14" y="747">lieu le 30 octobre 2017 de </tspan>
                    <tspan x="14" y="766">17:00 à 19:00, et du mardi 31 </tspan>
                    <tspan x="14" y="785">octobre au 2 novembre de </tspan>
                    <tspan x="14" y="804">12:00 à 19:00.</tspan>
                </text>
            </g>
        </g>
    </g>
</svg>
