<?xml version="1.0" encoding="UTF-8"?>
<svg width="410px" height="1257px" viewBox="0 0 410 1257" version="1.1" xmlns="http://www.w3.org/2000/svg" xmlns:xlink="http://www.w3.org/1999/xlink">
    <!-- Generator: Sketch 46 (44423) - http://www.bohemiancoding.com/sketch -->
    <title>Group 11 Copy</title>
    <desc>Created with Sketch.</desc>
    <defs></defs>
    <g id="Page-1" stroke="none" stroke-width="1" fill="none" fill-rule="evenodd">
        <g id="mobile/landing" transform="translate(-155.000000, -2693.000000)">
            <g id="Group-11-Copy" transform="translate(137.000000, 2688.000000)">
                <path d="M367,951 L372,951" id="Stroke-175" stroke="#477393" stroke-width="0.972"></path>
                <path d="M373.226079,465.536541 C375.044178,465.357233 375.044178,462.126503 372.681132,462.664429 C370.863034,463.024633 371.58963,465.536541 373.226079,465.536541 M372.499483,461.050651 C377.043925,460.331829 377.225574,467.510524 372.681132,466.971011 C369.044936,466.612393 369.228192,461.588577 372.499483,461.050651" id="Fill-311" fill="#A7A7A7"></path>
                <path d="M376,474 L376,483 L367.043672,483 C367.043672,480.00052 366.86821,476.823132 367.220687,474 L376,474 Z" id="Fill-313" fill="#A7A7A7"></path>
                <path d="M390,474 L390,483 L381.04368,483 C381.04368,480.00052 380.868187,476.823132 381.220725,474 L390,474 Z" id="Fill-315" fill="#A7A7A7"></path>
                <path d="M376,488 L376,497 L367.043672,497 C367.043672,494.00052 366.86821,490.824692 367.220687,488 L376,488 Z" id="Fill-317" fill="#A7A7A7"></path>
                <path d="M390,488 L390,497 L381.04368,497 C381.04368,494.00052 380.868187,490.824692 381.220725,488 L390,488 Z" id="Fill-319" fill="#A7A7A7"></path>
                <path d="M377,379 L377,436" id="Stroke-349" stroke="#477393" stroke-width="0.972" stroke-dasharray="4.861,4.861"></path>
                <polygon id="Fill-351" fill="#477393" points="370 427.545071 371.597204 427 375.500784 437.909456 379.402796 427 381 427.545071 375.500784 443"></polygon>
                <path d="M245,135 C261.01699,135 274,147.984216 274,163.999223 C274,180.015784 261.01699,193 245,193 C228.98301,193 216,180.015784 216,163.999223 C216,147.984216 228.98301,135 245,135 Z" id="Stroke-1" stroke="#635D58" stroke-width="1.645"></path>
                <path d="M245,452 C261.01699,452 274,464.984216 274,480.999223 C274,497.015784 261.01699,510 245,510 C228.98301,510 216,497.015784 216,480.999223 C216,464.984216 228.98301,452 245,452 Z" id="Stroke-3" stroke="#635D58" stroke-width="1.645"></path>
                <path d="M288,482 C288,457.949241 268.344158,438.886344 244,438.886344 L244,208" id="Stroke-5" stroke="#020202" stroke-width="2"></path>
                <path d="M288,482 C288,506.344158 268.571493,526 244.508894,526 C220.447872,526 201.017789,506.344158 201.017789,482 L134,482" id="Stroke-7" stroke="#020202" stroke-width="2"></path>
                <path d="M245,1135 C261.01699,1135 274,1147.98422 274,1163.99922 C274,1180.01734 261.01699,1193 245,1193 C228.98301,1193 216,1180.01734 216,1163.99922 C216,1147.98422 228.98301,1135 245,1135 Z" id="Stroke-9" stroke="#635D58" stroke-width="1.645"></path>
                <path d="M334,482 L290,482" id="Stroke-11" stroke="#020202" stroke-width="2" stroke-linecap="square"></path>
                <polyline id="Stroke-13" stroke="#020202" stroke-width="2" points="202 163 196.675628 163 131 163"></polyline>
                <path d="M245,828 C261.01699,828 274,840.984216 274,856.999223 C274,873.015784 261.01699,886 245,886 C228.98301,886 216,873.015784 216,856.999223 C216,840.984216 228.98301,828 245,828 Z" id="Stroke-15" stroke="#635D58" stroke-width="1.645"></path>
                <path d="M131,857.643761 L202.817027,857.643761 C202.817027,880.838931 221.669949,901 245.908514,901 C270.147078,901 289,881.373804 289,857.28718 C289,833.200556 270.147078,814.109232 245.908514,814.109232 L245.908514,524" id="Stroke-17" stroke="#000000" stroke-width="2"></path>
                <polyline id="Stroke-19" stroke="#020202" stroke-width="2" points="133 393 158 393 158 480.791964 158 565 133 565"></polyline>
                <path d="M246,207 C221.674887,207 202,187.325113 202,163" id="Stroke-21" stroke="#635D58" stroke-width="1.928" stroke-linecap="square"></path>
                <path d="M244,208 C268.325113,208 288,188.431766 288,164.016719 C288,139.601672 268.325113,120.033438 244,120.033438 L244,80" id="Stroke-23" stroke="#020202" stroke-width="2" stroke-linecap="square"></path>
                <path d="M244,1208 C268.325113,1208 288,1188.42208 288,1164.21333 C288,1140.00615 268.325113,1120.42665 244,1120.42665 L244,1121.49543 L244,899" id="Stroke-25" stroke="#020202" stroke-width="2" stroke-linecap="square"></path>
                <path d="M250,1208.36292 C250,1199.87903 236,1199.87903 236,1208.36292 C236,1218.54569 250,1218.54569 250,1208.36292" id="Fill-27" fill="#635D58"></path>
                <path d="M252,206.363534 C252,197.878822 238,197.878822 238,206.363534 C238,216.545489 252,216.545489 252,206.363534" id="Fill-29" fill="#635D58"></path>
                <path d="M252,80.363534 C252,71.878822 238,71.878822 238,80.363534 C238,90.5454887 252,90.5454887 252,80.363534" id="Fill-31" fill="#635D58"></path>
                <path d="M252,524.363534 C252,515.878822 238,515.878822 238,524.363534 C238,534.545489 252,534.545489 252,524.363534" id="Fill-33" fill="#635D58"></path>
                <path d="M252,899.36292 C252,890.879027 238,890.879027 238,899.36292 C238,909.545693 252,909.545693 252,899.36292" id="Fill-35" fill="#635D58"></path>
                <path d="M77.3626082,1141.36463 C77.0154985,1140.81797 76.6683887,1140.27291 76.321279,1139.91115 C76.321279,1139.72786 75.9741692,1139.72786 75.9741692,1139.72786 C74.2370846,1140.27291 73.0206646,1139.72786 71.8042446,1138.27277 C71.4571349,1138.81943 71.1100251,1139.36449 70.7629154,1139.72786 C70.9364703,1140.09123 71.1100251,1140.4562 71.28358,1140.63789 C71.4571349,1140.81797 71.8042446,1141.36463 71.9793354,1141.36463 L77.3626082,1141.36463 Z M83.962301,1139.91115 C83.0945267,1139.72786 82.7474169,1140.09123 82.0516615,1141.36463 L83.0945267,1141.36463 L83.7887462,1141.36463 C83.4416364,1143.18308 83.0945267,1144.81825 82.573862,1146.45502 C82.0516615,1148.45516 82.573862,1150.09193 83.962301,1151.36533 C85.5258308,1153.00049 87.0893605,1154.63726 88.4777995,1156.27242 C88.8249092,1156.6374 89,1157.18245 89,1157.54582 L89,1166.99986 C89,1168.27326 88.3057805,1169 87.2629154,1169 C85.178721,1169 84.4845015,1166.09144 87.9571349,1161.72779 C86.2200503,1157.90919 86.9158056,1159.54596 85.3522759,1155.72898 L83.7887462,1155.72898 L83.7887462,1156.6374 L83.7887462,1166.63649 C83.7887462,1167.7266 83.4416364,1168.27326 82.573862,1168.45495 C81.5309969,1168.63663 80.4896677,1168.09158 80.3145769,1166.99986 L80.3145769,1166.09144 L80.3145769,1146.27333 C80.3145769,1145.72828 79.9674672,1145.18322 79.9674672,1144.63656 L78.926138,1144.63656 C78.7525831,1145.18322 78.5790282,1145.72828 78.5790282,1146.27333 L78.5790282,1166.63649 C78.5790282,1167.54491 78.4054733,1168.27326 77.5361631,1168.63663 C76.321279,1169.18329 75.104859,1168.27326 75.104859,1166.99986 L75.104859,1156.6374 L75.104859,1155.54568 L73.3677744,1155.54568 L73.3677744,1156.45571 L73.3677744,1166.99986 C73.3677744,1168.27326 72.6735549,1169 71.4571349,1169 C70.2422508,1169 69.895141,1168.27326 69.895141,1166.99986 L69.895141,1165.72646 L69.895141,1148.09179 C69.895141,1147.00007 69.7200503,1145.90996 69.0258308,1145.00154 C68.678721,1144.63656 68.5051662,1144.27319 68.1580564,1144.09151 L68.1580564,1144.45488 L68.1580564,1164.99972 C68.1580564,1165.72646 68.1580564,1166.45481 67.4638369,1166.81818 C66.9416364,1166.99986 66.2474169,1167.18315 65.5531974,1166.99986 C65.2045518,1166.81818 64.6838872,1166.09144 64.6838872,1165.54638 L64.6838872,1154.81894 L64.6838872,1153.91052 C64.1632226,1153.91052 65.2045518,1153.91052 64.6838872,1153.91052 L64.6838872,1154.81894 L64.6838872,1165.3647 C64.6838872,1166.63649 63.9896677,1167.36323 63.1218933,1167.54491 C62.0790282,1167.54491 61.209718,1166.81818 61.209718,1165.3647 L61.209718,1143.90982 C61.209718,1143.90982 60.5154985,1142.63642 60.1683887,1142.09137 C58.9535046,1140.09123 57.7370846,1138.27277 56.5206646,1136.27263 C56.1735549,1135.72758 56,1135.18252 56,1134.45578 L56,1126.27354 C56,1125.00014 56.6942195,1124.2734 57.5635297,1124.2734 C58.6063949,1124.2734 59.4741692,1125.00014 59.4741692,1126.27354 L59.4741692,1134.63586 C59.4741692,1135.00084 59.6477241,1135.54589 59.821279,1135.90926 C60.3419436,1137.00098 61.037699,1137.91101 61.9054733,1138.81943 C62.0790282,1138.99951 62.426138,1139.36449 62.7732477,1139.36449 L64.6838872,1139.36449 L64.6838872,1137.00098 C62.7732477,1137.00098 61.037699,1135.54589 61.3848087,1133.18238 C61.5583636,1130.81887 66.4209718,1130.09053 66.4209718,1130.09053 L66.4209718,1128.092 C66.4209718,1128.092 66.7680815,1126.27354 67.6358559,1126.27354 C68.5051662,1126.27354 68.1580564,1128.092 68.1580564,1128.092 L68.1580564,1135.90926 L69.895141,1133.72744 L69.895141,1125.36512 C69.895141,1123.91003 70.5893605,1123 71.8042446,1123 C73.0206646,1123 73.3677744,1123.72835 73.3677744,1125.36512 L73.3677744,1131.90898 L73.3677744,1132.81901 C74.0635297,1132.81901 74.5841944,1132.81901 75.104859,1132.63733 L75.104859,1127.91031 C75.104859,1126.81859 75.6255236,1125.91017 76.4948338,1125.91017 C77.5361631,1125.72688 78.4054733,1126.45683 78.5790282,1127.91031 L78.5790282,1135.90926 C78.5790282,1136.81929 78.7525831,1137.54603 79.4468026,1138.27277 C79.9674672,1137.72772 80.3145769,1137.18266 80.3145769,1136.45432 L80.3145769,1127.54533 C80.3145769,1126.27354 81.0103323,1125.5468 81.8781067,1125.5468 C82.9209718,1125.5468 83.7887462,1126.27354 83.7887462,1127.54533 L83.7887462,1132.09067 L85.5258308,1132.09067 L85.5258308,1130.09053 C85.5258308,1129.00203 86.2200503,1128.27368 87.0893605,1128.27368 C87.9571349,1128.27368 89,1129.00203 89,1129.91045 L89,1135.90926 C86.5686959,1136.45432 84.8316113,1137.54603 83.962301,1139.91115 L83.962301,1139.91115 Z" id="Fill-37" fill="#000000"></path>
                <path d="M102.136242,1174.52771 L96.5310956,1174.52771 C96.3503876,1174.52771 96.1696796,1174.70764 95.9873724,1174.70764 C94.5417084,1176.32865 93.0944453,1178.12958 91.6471821,1179.93052 C93.2751533,1181.37 94.9031244,1182.81106 96.3503876,1184.25054 C97.4346356,1185.33174 97.6153436,1186.41294 97.0732196,1187.49255 C96.3503876,1188.93361 94.3610004,1189.47342 93.0944453,1188.39222 C90.7436421,1186.41294 88.573547,1184.25054 86.0420358,1181.91139 C84.7770798,1180.83019 84.7770798,1179.38912 85.8613278,1178.12958 C88.573547,1174.70764 91.2857661,1171.2873 94.1786932,1167.86536 C94.3610004,1167.50549 94.5417084,1167.14403 94.5417084,1166.78575 L94.5417084,1158.86226 C94.5417084,1158.50239 94.3610004,1157.96259 93.9995844,1157.78106 C91.4680733,1155.08045 88.754255,1152.19991 86.0420358,1149.31937 C85.1384958,1148.41969 84.7770798,1147.33849 85.1384958,1145.89902 C85.6806198,1143.91656 86.0420358,1142.11721 86.5841598,1140.13475 C86.9455758,1138.51534 88.392839,1137.61407 89.8401021,1137.97553 C91.2857661,1138.3354 92.1909053,1139.77488 91.8294893,1141.21595 C91.4680733,1142.65542 91.1050581,1144.09808 90.7436421,1145.53756 C90.7436421,1145.89902 90.7436421,1146.43723 90.9243501,1146.61876 C92.0085981,1147.8783 93.2751533,1149.13943 94.5417084,1150.39897 C94.7224164,1150.57891 95.2645404,1150.75884 95.4452484,1150.75884 L105.211476,1150.75884 C105.211476,1150.75884 105.934308,1150.21904 106.115016,1149.85917 C107.381571,1148.05823 108.465819,1146.43723 109.551666,1144.63789 C109.732374,1144.27642 109.913082,1143.91656 110.635914,1143.37675 L110.635914,1126.63011 C109.913082,1125.37057 110.635914,1124.4693 111.90087,1124.10943 C113.167426,1123.74956 114.433981,1124.28937 114.976105,1125.5505 C115.156813,1125.91037 114.253273,1126.81004 114.253273,1126.81004 L114.253273,1145.35762 C114.253273,1146.07736 113.891857,1146.7971 113.530441,1147.33849 C111.360346,1150.57891 109.369359,1153.64098 107.381571,1156.88139 C107.018556,1157.24285 107.018556,1157.96259 107.018556,1158.32087 L107.018556,1192.17403 C107.018556,1194.1549 105.392184,1195.41444 103.402797,1194.87464 C102.31695,1194.51477 101.594118,1193.43357 101.594118,1191.99409 L101.594118,1175.42738 C102.136242,1175.42738 102.136242,1175.06751 102.136242,1174.52771" id="Fill-39" fill="#000000"></path>
                <path d="M120.678289,1142.21985 C122.285895,1142.21985 123.8935,1142.04161 125.321079,1142.21985 C126.393342,1142.39808 126.750237,1141.68514 127.107132,1140.97063 C127.464026,1140.25769 126.750237,1140.07945 126.57179,1139.72298 C126.57179,1139.54475 126.393342,1139.36494 126.214895,1139.18828 C125.142632,1140.61416 123.713474,1141.14886 121.929,1140.61416 C121.750553,1140.61416 121.570526,1140.61416 121.393658,1140.79397 C121.213631,1141.14886 121.036763,1141.68514 120.678289,1142.21985 M133.892868,1154.88397 L132.286842,1154.88397 L132.286842,1155.95338 L132.286842,1165.9424 L132.286842,1166.83358 C132.106816,1167.72633 131.393026,1168.26103 130.320763,1168.26103 C129.250079,1168.26103 128.714737,1167.54809 128.714737,1166.83358 L128.714737,1164.15848 L128.714737,1145.07475 L128.714737,1144.182 C128.000948,1145.25141 126.928684,1146.14259 126.928684,1147.74985 L126.928684,1168.26103 C126.928684,1168.26103 127.285579,1169.68691 126.750237,1169.86514 C126.214895,1170.04495 125.499526,1170.04495 125.142632,1169.86514 C124.428842,1169.68848 124.250395,1168.97397 123.356579,1168.26103 L123.356579,1157.91553 L123.356579,1156.66631 L123.356579,1157.7373 L123.356579,1168.08122 C122.642789,1168.97397 122.464342,1169.68691 121.570526,1169.86514 C120.499842,1170.22319 118,1168.26103 118,1168.26103 L118,1163.08749 L118,1147.21357 C119.250711,1146.85552 119.250711,1146.3224 119.070684,1146.14259 C118.535342,1145.60788 118,1144.182 118,1144.182 L118,1140.97063 C118,1140.97063 118.535342,1139.1867 119.250711,1138.47376 C119.427579,1138.29553 119.786053,1137.40278 119.786053,1137.40278 L119.786053,1129.19925 C119.786053,1127.95003 120.499842,1126.88063 121.750553,1126.88063 C122.999684,1126.88063 123.356579,1127.77338 123.356579,1129.19925 L123.356579,1133.48004 C124.071947,1133.48004 124.607289,1133.65827 125.142632,1133.65827 L125.142632,1127.77338 L125.142632,1125.63141 C125.142632,1124.562 125.856421,1124.0273 127.107132,1124.0273 C128.000948,1124.0273 128.714737,1124.74023 128.714737,1125.98788 L128.714737,1134.19298 L130.50079,1136.51161 L130.50079,1135.61886 L130.50079,1129.19925 C129.250079,1127.95003 129.963868,1127.2371 131.036132,1127.2371 C132.106816,1127.2371 132.286842,1129.19925 132.286842,1129.19925 L132.286842,1130.98318 C132.286842,1130.98318 135.500474,1130.80494 136.571158,1132.05259 C137.286526,1132.7671 137.464974,1133.65827 137.464974,1134.72768 C137.286526,1136.86808 135.678921,1137.93906 134.071316,1137.93906 L134.071316,1138.83181 L136.392711,1138.83181 C136.571158,1138.83181 136.929632,1138.652 136.929632,1138.47376 C137.643421,1137.40278 138.357211,1136.33495 139.251026,1135.26396 C139.607921,1134.72768 139.251026,1134.01474 139.429474,1133.48004 L139.429474,1126.52416 C139.251026,1125.27494 139.786369,1124.38219 140.857053,1124.0273 C141.929316,1123.84906 143,1124.562 143,1125.63141 L143,1135.61886 C143,1135.9769 142.821553,1136.51161 142.464658,1137.04789 C141.037079,1139.1867 139.607921,1141.32867 138.178763,1143.29083 C137.821868,1143.64572 137.643421,1144.35866 137.643421,1144.89494 L137.643421,1166.47711 C137.643421,1167.54809 137.108079,1168.26103 136.035816,1168.43926 C134.965132,1168.43926 134.249763,1167.72475 134.071316,1166.47711 L134.071316,1156.13161 C133.892868,1155.59691 133.892868,1155.24044 133.892868,1154.88397" id="Fill-41" fill="#000000"></path>
                <path d="M94,1143.3081 C94,1139.86747 96.8671001,1137 100.5,1137 C104.1329,1137 107,1139.86747 107,1143.49915 C107,1146.93978 104.1329,1150 100.5,1150 C96.8671001,1149.80895 94,1146.93978 94,1143.3081" id="Fill-43" fill="#000000"></path>
                <path d="M112.000442,1156.45713 L112.000442,1160.59817 L112.000442,1167.97468 C112.000442,1169.23514 111.199204,1169.77465 110,1169.77465 L110,1168.51579 L110,1159.33771 C110,1158.97804 110.199867,1158.43694 110.399735,1158.2571 C112.799912,1155.01843 115.399956,1151.59834 117.600265,1148.35967 C117.600265,1148.35967 117.800133,1148.17984 118,1148 L118,1148.71935 L118,1167.97468 C118,1169.0553 117.400398,1169.77465 116.401061,1169.95449 C115.599823,1170.13592 114.600486,1169.77465 114.200752,1168.87546 C114.000884,1168.51579 114.000884,1168.15611 114.000884,1167.79644 L114.000884,1157.53775 L114.000884,1156.45872 C113.401282,1156.45713 112.799912,1156.45713 112.000442,1156.45713" id="Fill-45" fill="#000000"></path>
                <path d="M93.9837292,1130.23088 C94.3399693,1130.23088 94.5157353,1130.06177 94.8704061,1130.06177 C95.9359877,1129.89116 96.6453292,1130.56912 97,1131.41469 L97,1131.75442 C97,1133.10735 96.824234,1134.29265 95.2266462,1134.96912 C94.3399693,1135.30884 93.6290584,1136.32204 92.9197169,1137 C92.3861414,1136.66177 91.6767999,1136.32204 91.1447937,1135.81469 C90.9674584,1135.64558 90.790123,1135.47646 91.6767999,1135.30884 L91.6767999,1127.69265 C90.790123,1126.67646 91.4994645,1126 92.5650461,1126 C93.451723,1126 94.1610646,1126.67646 94.1610646,1127.69265 C93.9837292,1128.70735 93.9837292,1129.55442 93.9837292,1130.23088" id="Fill-47" fill="#000000"></path>
                <path d="M102.515732,1129.69848 C102.86385,1128.5106 103.561628,1128 104.431925,1128 C105.303762,1128.1697 105.8244,1128.67879 106,1129.35909 L106,1137 C104.257866,1135.30152 102.341672,1134.28483 100.07736,1134.28483 C100.07736,1133.09544 99.9033003,1131.73636 100.07736,1130.54697 C100.07736,1129.69848 101.121716,1129.35909 102.515732,1129.69848" id="Fill-49" fill="#000000"></path>
                <path d="M66.3617432,1109 C66.5333959,1109.17227 67.0483539,1109.34762 67.2200065,1109.69524 C67.3931783,1110.0444 67.2200065,1110.56583 66.8767012,1110.91191 C66.3617432,1111.60869 66.1900905,1112.30392 66.5333959,1113.0007 C67.0483539,1113.86975 67.7364836,1114.7388 68.4230943,1115.60939 C68.9380523,1116.30463 69.4545293,1116.82759 69.6246629,1117.52283 C70.3127926,1118.91331 69.9694873,1120.13152 69.2813576,1121.34819 C68.9380523,1122.04343 68.0797889,1122.21878 67.5648309,1121.69735 C66.8767012,1121.17438 66.8767012,1120.65295 67.3931783,1120.13152 C67.9081363,1119.26247 67.7364836,1118.39188 67.2200065,1117.69511 C66.5333959,1116.82606 65.8467852,1115.95701 65.1586555,1115.08796 C64.1287395,1113.86975 63.7854342,1112.47927 64.1287395,1111.08572 C64.4720448,1110.21667 65.3318272,1109.17381 66.3617432,1109" id="Fill-51" fill="#000000"></path>
                <path d="M133,1111.48127 C132.840311,1111.66209 132.679208,1112.02533 132.359829,1112.20614 C130.922625,1112.7486 130.603246,1113.47187 130.762936,1115.10083 C130.922625,1116.18574 131.082314,1117.45306 131.082314,1118.53957 C131.242004,1120.34774 130.283868,1122.15752 128.84525,1122.88239 C128.364769,1123.06161 127.885701,1123.06161 127.406633,1122.70158 C126.767875,1122.15912 126.927565,1121.25343 127.566322,1120.8918 C128.524458,1120.34934 129.004939,1119.44526 128.84525,1118.35875 C128.84525,1117.09142 128.524458,1116.00492 128.524458,1114.73919 C128.366182,1112.56778 129.643697,1110.39637 131.401693,1110.03473 C132.359829,1109.85231 133,1110.39637 133,1111.48127" id="Fill-53" fill="#000000"></path>
                <path d="M90.5270425,1107 C92.3537981,1107 93.8486833,1108.41834 94.3464889,1110.37013 C94.5124241,1111.25817 94.6783593,1112.14463 94.8442944,1113.03266 C95.1776333,1114.45101 95.6739704,1115.51633 97.1688556,1115.69362 C97.8340648,1115.69362 98,1116.2255 98,1116.93467 C97.8340648,1117.64541 97.3347908,1118 96.67105,1118 C95.1776333,1118 93.6812796,1116.75738 93.1849425,1115.16018 C92.8516037,1114.09642 92.6856685,1113.03266 92.5197333,1112.14463 C92.3537981,1111.43546 92.0219277,1110.72472 91.8559925,1110.19284 C91.5241221,1109.48367 91.0248481,1109.30638 90.3611073,1109.30638 C89.5314314,1109.30638 89.0321574,1109.12751 89.0321574,1108.41834 C88.8662222,1107.70917 89.3640277,1107.17729 90.029237,1107 L90.5270425,1107 Z" id="Fill-55" fill="#000000"></path>
                <path d="M85.9730274,1119.86445 C85.7895374,1118.75651 85.7895374,1117.83458 85.6060474,1116.72663 C85.4225573,1115.98909 84.8720872,1115.43593 84.1365033,1115.43593 C83.4025432,1115.43593 82.852073,1115.06716 83.0355631,1114.1436 C83.0355631,1113.40606 83.7695232,1112.85127 84.6869734,1113.03566 C86.7086114,1113.22168 88.3600217,1115.06716 88.3600217,1117.27979 L88.3600217,1120.23322 C88.3600217,1121.70994 88.5435117,1123.18502 90.3800359,1123.73818 C90.930506,1123.92256 91.1156198,1124.47735 90.930506,1125.03051 C90.747016,1125.76805 90.0130558,1126.13845 89.2790957,1125.95244 C87.6260616,1125.58366 86.5234976,1124.29297 86.1565175,1122.63186 C85.9730274,1121.70994 85.9730274,1120.97076 85.9730274,1119.86445 C85.7895374,1119.86445 85.9730274,1119.86445 85.9730274,1119.86445" id="Fill-57" fill="#000000"></path>
                <path d="M115.85561,1111.82373 C115.85561,1113.25099 115.278048,1114.32302 114.121221,1115.21506 C113.351139,1115.93027 112.388536,1116.6439 111.61675,1117.35753 C110.846668,1118.07274 110.269107,1119.14319 110.846668,1120.21364 C111.231709,1120.92885 111.039189,1121.46407 110.461627,1121.82089 C109.689841,1122.17929 108.919759,1121.9993 108.534718,1121.28567 C107.572116,1119.8584 107.957157,1117.71435 109.3048,1116.46391 C110.076586,1115.75028 111.039189,1115.03665 112.003495,1114.14461 C112.388536,1113.78621 112.773577,1113.25099 113.158618,1112.71577 C113.54366,1112.00056 113.351139,1111.46533 112.966098,1110.93169 C112.388536,1110.39488 112.388536,1109.85966 112.966098,1109.32444 C113.54366,1108.78763 114.506262,1108.96604 114.893007,1109.50126 C115.470569,1110.21648 115.663089,1111.11009 115.85561,1111.82373 C116.04813,1111.82373 116.04813,1111.82373 115.85561,1111.82373" id="Fill-59" fill="#000000"></path>
                <path d="M91,1168 L91,1159 C91.904,1159.65402 92.81,1160.14598 92.584,1161.12701 C92.356,1162.4365 92.356,1163.90949 92.584,1165.21752 C92.81,1166.52701 92.356,1167.34598 91,1168" id="Fill-61" fill="#000000"></path>
                <path d="M138,1118.62023 C138,1117.64752 138.666339,1117 139.500737,1117 C140.333661,1117 141,1117.64752 141,1118.45835 C141,1119.26775 140.333661,1119.91526 139.500737,1119.91526 C138.666339,1120.24046 138,1119.59151 138,1118.62023" id="Fill-63" fill="#000000"></path>
                <path d="M101.5,1118 C102.332515,1118 103,1118.63128 103,1119.42179 C103,1120.36872 102.332515,1121 101.5,1121 C100.667485,1121 100,1120.36872 100,1119.42179 C100,1118.63128 100.667485,1118 101.5,1118" id="Fill-65" fill="#000000"></path>
                <path d="M119,1114.42113 C119,1113.63239 119.666339,1113 120.500737,1113 C121.333661,1113 122,1113.63239 122,1114.57887 C122,1115.52536 121.333661,1116 120.332678,1116 C119.499754,1115.84225 119,1115.20987 119,1114.42113" id="Fill-67" fill="#000000"></path>
                <path d="M104.5,1113 C103.667485,1113 103,1112.52654 103,1111.57821 C103,1110.63128 103.667485,1110 104.5,1110 C105.332515,1110 106,1110.63128 106,1111.42039 C106,1112.36872 105.332515,1113 104.5,1113" id="Fill-69" fill="#000000"></path>
                <path d="M76.5,1120 C77.3325147,1120 78,1120.63128 78,1121.42179 C78,1122.21089 77.3325147,1123 76.5,1123 C75.6674853,1123 75,1122.36872 75,1121.57961 C75,1120.63128 75.6674853,1120 76.5,1120" id="Fill-71" fill="#000000"></path>
                <path d="M62,1119.42113 C62,1120.36901 61.3325147,1121 60.5,1121 C59.6674853,1121 59,1120.36901 59,1119.57887 C59,1118.79013 59.6674853,1118 60.5,1118 C61.3325147,1118 62,1118.47324 62,1119.42113" id="Fill-73" fill="#000000"></path>
                <path d="M78,1142 L73.1357553,1142 C72.9737094,1142 72.6496176,1141.64587 72.4861377,1141.29485 C72.3240918,1141.11856 72.1620459,1140.76443 72,1140.41186 C72.3240918,1139.883 72.6496176,1139.53042 72.9737094,1139 C73.9459847,1140.41186 75.2437859,1140.94072 76.8642447,1140.41186 C77.0277247,1140.41186 77.1897706,1140.41186 77.1897706,1140.58814 C77.3518164,1140.94072 77.6759082,1141.29485 78,1142" id="Fill-75" fill="#FFFFFF"></path>
                <path d="M119,1142.97284 C119.320742,1142.44849 119.64007,1141.9226 119.798322,1141.57458 C119.959399,1141.39825 120.119063,1141.39825 120.278728,1141.39825 C121.876784,1141.9226 122.994435,1141.39825 124.113498,1140 C124.273162,1140.17323 124.432827,1140.34956 124.432827,1140.52435 C124.592491,1140.87546 125.231149,1141.22347 124.91182,1141.74936 C124.592491,1142.44849 124.273162,1143.14762 123.313763,1142.97284 C121.715707,1142.79805 120.438392,1142.97284 119,1142.97284" id="Fill-77" fill="#FFFFFF"></path>
                <path d="M375.5,442 C397.314073,442 415,459.68434 415,481.5 C415,503.31566 397.314073,521 375.5,521 C353.68434,521 336,503.31566 336,481.5 C336,459.68434 353.68434,442 375.5,442 Z" id="Stroke-79" stroke="#000000" stroke-width="1.5"></path>
                <path d="M96.5,442 C118.31566,442 136,459.68434 136,481.5 C136,503.31566 118.31566,521 96.5,521 C74.6843396,521 57,503.31566 57,481.5 C57,459.68434 74.6843396,442 96.5,442 Z" id="Stroke-81" stroke="#000000" stroke-width="1.5"></path>
                <path d="M96.5,357 C118.31566,357 136,374.68434 136,396.5 C136,418.314073 118.31566,436 96.5,436 C74.6843396,436 57,418.314073 57,396.5 C57,374.68434 74.6843396,357 96.5,357 Z" id="Stroke-83" stroke="#000000" stroke-width="1.5"></path>
                <path d="M91.5,124 C113.31566,124 131,141.685927 131,163.5 C131,185.31566 113.31566,203 91.5,203 C69.6843396,203 52,185.31566 52,163.5 C52,141.685927 69.6843396,124 91.5,124 Z" id="Stroke-85" stroke="#000000" stroke-width="1.5"></path>
                <path d="M94.5,527 C116.31566,527 134,544.68434 134,566.5 C134,588.31566 116.31566,606 94.5,606 C72.6843396,606 55,588.31566 55,566.5 C55,544.68434 72.6843396,527 94.5,527 Z" id="Stroke-87" stroke="#000000" stroke-width="1.5"></path>
                <path d="M94.5,817 C116.31566,817 134,834.685927 134,856.5 C134,878.31566 116.31566,896 94.5,896 C72.6843396,896 55,878.31566 55,856.5 C55,834.685927 72.6843396,817 94.5,817 Z" id="Stroke-89" stroke="#000000" stroke-width="1.5"></path>
                <text id="1" font-family="AvenirNext-Bold, Avenir Next, Lato, Sans-serif" font-size="36" font-weight="bold" fill="#6390B1">
                    <tspan x="233" y="178">1</tspan>
                </text>
                <text id="2" font-family="AvenirNext-Bold, Avenir Next, Lato, Sans-serif" font-size="36" font-weight="bold" fill="#6390B1">
                    <tspan x="233" y="495">2</tspan>
                </text>
                <text id="4" font-family="AvenirNext-Bold, Avenir Next, Lato, Sans-serif" font-size="36" font-weight="bold" fill="#6390B1">
                    <tspan x="232" y="1178">4</tspan>
                </text>
                <text id="3" font-family="AvenirNext-Bold, Avenir Next, Lato, Sans-serif" font-size="36" font-weight="bold" fill="#6390B1">
                    <tspan x="234" y="871">3</tspan>
                </text>
                <path d="M42.5751435,565 L35.4187782,565 L32.018595,565 C24.5046487,565 22,570.70014 22,577.666044 L22,579.24965 L22,590.333489 L22,609.333956 C22,616.29986 24.681857,622 32.018595,622 L38.8173793,622 L224,622" id="Stroke-165" stroke="#477393" stroke-width="0.972" stroke-dasharray="4.926,4.926"></path>
                <path d="M227,620 L232,620" id="Stroke-167" stroke="#477393" stroke-width="0.972"></path>
                <polygon id="Fill-169" fill="#477393" points="221.546679 627 221 625.402796 231.909456 621.499216 221 617.595635 221.546679 616 237 621.499216"></polygon>
                <path d="M57,863 L52,863" id="Stroke-171" stroke="#000000" stroke-width="0.972"></path>
                <path d="M42.639236,855 L35.3446184,855 L31.9632265,855.179356 C24.4908066,855.179356 22,864.872536 22,876.898936 L22,879.589281 L22,898.615341 L22,931.283595 C22,943.308407 24.668609,953 31.9632265,953 L38.7244369,953 L359,953" id="Stroke-173" stroke="#477393" stroke-width="0.972" stroke-dasharray="4.842000000000001,4.842"></path>
                <polygon id="Fill-177" fill="#477393" points="358.545071 957 358 955.401455 368.907848 951.5 358 947.596977 358.545071 946 374 951.5"></polygon>
                <path d="M42,488 L35.0436789,488 L31.738542,488 C24.4346355,488 22,494.344098 22,502.096956 L22,503.859466 L22,516.195471 L22,571" id="Stroke-181" stroke="#477393" stroke-width="0.972" stroke-dasharray="4.877,4.877"></path>
                <path d="M22,576 L22,581" id="Stroke-183" stroke="#000000" stroke-width="0.972"></path>
                <polygon id="Fill-185" fill="#477393" points="18 570.545071 19.5972044 570 23.5007845 580.909456 27.4043646 570 29 570.545071 23.5007845 586"></polygon>
                <path d="M42,403 L34.7128297,403 L31.4919065,403 C24.3726019,403 22,409.343303 22,417.09519 L22,418.857478 L22,431.191938 L22,480" id="Stroke-189" stroke="#477393" stroke-width="0.972" stroke-dasharray="4.606,4.606"></path>
                <path d="M22,485 L22,490" id="Stroke-191" stroke="#000000" stroke-width="0.972"></path>
                <polygon id="Fill-193" fill="#477393" points="18 478.545071 19.5972044 478 23.5007845 488.909456 27.4043646 478 29 478.545071 23.5007845 494"></polygon>
                <path d="M92,217 L92,222" id="Stroke-195" stroke="#477393"></path>
                <path d="M92,222 L92,235.912792 C92,243.660289 98.4485761,250 106.329113,250 L231,250" id="Stroke-197" stroke="#477393" stroke-dasharray="5.143,5.143"></path>
                <path d="M233,250 L238,250" id="Stroke-199" stroke="#000000"></path>
                <polygon id="Fill-201" fill="#477393" points="227.702818 256 227 254.280918 237.901458 250.49924 227 246.719082 227.702818 245 243 250.49924"></polygon>
                <path d="M92.6678796,126.01172 C92.6740369,127.142057 92.3353844,128.840898 93.2081841,129.212675 C93.3821284,129.211008 93.5560726,129.211008 93.7300168,129.209341 C94.9476263,129.202672 94.2410741,127.322111 94.408861,126.00005 C95.2785821,125.995048 95.8034934,126.368493 96.5008095,126.553548 C96.5054275,127.495496 96.5115849,128.437444 96.6886077,129.191002 C97.7353517,129.372723 98.2541056,128.80422 98.0740041,127.673883 C99.9981658,129.357719 101.574439,131.233279 101.766855,134.625958 C102.639655,134.997736 103.34005,135.746292 102.824374,136.881631 C96.5577647,136.921643 90.4650993,136.959988 84.1984897,137 C83.8459832,136.059719 83.8382866,134.740992 85.2313796,134.921046 C85.2113683,131.14992 86.9431138,129.442744 88.4993758,127.547178 C89.0242871,128.109013 88.682556,129.431074 89.9001654,129.045959 C90.5928636,128.664178 90.4127621,127.345451 90.4066048,126.403504 C91.2778652,126.396835 91.7981585,126.016721 92.6678796,126.01172" id="Fill-203" fill="#A7A7A7"></path>
                <path d="M101.860489,138.206042 C103.950726,150.561052 81.8058664,149.309604 85.3942137,138.125548 C90.7006967,138.268311 96.9180181,137.718524 101.860489,138.206042" id="Fill-205" fill="#A7A7A7"></path>
                <path d="M92.2330958,154.730435 C93.5177497,155.645188 95.3437356,155.633774 96.618694,154.704346 C96.4296317,153.598815 96.2389535,152.493285 95.8689086,151.57364 C92.9408674,150.854556 92.2201685,152.517744 92.2330958,154.730435 M116,156.617012 C113.624602,156.814311 111.624097,158.487282 109.612281,158.130186 C107.60208,157.957345 106.674544,155.749545 104.845326,155.392449 C104.302378,156.318616 104.861486,158.157906 104.686967,159.450953 C101.763773,159.651514 99.5774376,160.771719 96.6542442,160.973911 C96.6445487,159.313984 96.0902892,158.210084 96.0789778,156.365903 C95.7121647,156.000654 93.5242133,156.750719 92.7889712,156.202845 C92.9828812,158.045396 92.2605664,159.340074 92.268646,161 C89.3438366,160.832051 87.1461897,159.739565 84.2213803,159.573246 C84.2133008,158.28183 84.2052212,156.806158 84.1971416,155.516373 C82.3727715,156.080552 81.1026609,157.562746 79.4625054,158.30955 C77.2680904,157.954084 75.0720595,157.598618 73.0586271,156.873012 C72.6901981,156.321877 74.1429073,154.838053 75.0526685,154.096141 C77.5977374,151.867144 83.6008683,147.221633 88.9043072,148.111927 C91.8307325,148.648387 95.8689086,151.389385 99.5031055,148.048335 C107.542292,148.001048 112.685755,152.579705 116,156.617012" id="Fill-207" fill="#A7A7A7"></path>
                <path d="M71,159.269063 C78.2359089,160.682046 85.1195309,162.462373 92.3554398,163.875357 C92.7233146,166.424205 91.6882772,170.439204 92.9321926,172.253365 C94.1636377,171.881188 93.6242959,169.880133 93.6149431,168.422037 C93.6071492,166.963942 93.5962376,165.143336 93.5900025,163.867301 C100.631062,162.185254 107.495979,160.503208 114.890885,159 C114.926737,165.376954 114.964148,171.753907 115,178.130861 C111.302547,178.881659 107.781238,179.632458 104.083785,180.383256 C100.562476,181.134054 96.871258,182.977216 93.346831,182.999773 C89.8208453,183.020718 85.5824919,181.590011 82.0533886,180.882714 C78.5227265,179.993356 74.9905055,178.921938 71.2868176,178.398312 C71.0732632,172.02297 71.0358522,165.646016 71,159.269063" id="Fill-209" fill="#A7A7A7"></path>
                <path d="M68.7514003,160 C69.2581906,164.250308 68.8013655,169.392365 68.9883783,174 C63.3308855,172.796373 67.1525126,162.846076 68.7514003,160" id="Fill-211" fill="#A7A7A7"></path>
                <path d="M84.2860142,189 C83.9385004,189.001396 83.9400381,189.318288 84.118408,189.790135 C84.123021,190.578874 84.1260964,191.211261 84.132247,192 L93,191.952536 C92.9969247,191.479293 92.995387,191.163797 92.9923116,190.689158 C90.2060504,190.073523 87.2460323,189.457887 84.2860142,189" id="Fill-213" fill="#A7A7A7"></path>
                <path d="M95,182.910591 C95.0015904,183.221458 95.0047712,183.687758 95.0079519,184 L104,183.953232 C103.992048,182.863824 103.805973,181.9326 103.619898,181 C100.746068,181.481431 97.6909348,181.964237 95,182.910591" id="Fill-215" fill="#A7A7A7"></path>
                <path d="M97.9142114,467.990993 C101.957106,468.171368 106,465.644521 106,460.230076 C106,457.701632 104.944589,455.535535 103.363803,453.912159 C101.781463,452.287187 99.4965514,451.746061 97.0359971,452.106812 C95.1023714,452.287187 93.3443885,453.190658 92.1148885,454.453284 C90.8838342,455.717506 90.0056199,457.521257 90.0056199,459.687354 C89.8284227,464.92302 93.871317,467.810618 97.9142114,467.990993" id="Fill-217" fill="#A7A7A7"></path>
                <path d="M115.435761,465.765114 C114.011509,465.765114 112.407651,465.059762 111.337887,464.000173 C110.269698,462.942145 109.557572,461.529881 109.913635,460.117616 C110.447729,458.352676 112.763714,458.88325 114.367572,460.295515 C115.969855,461.882557 117.039619,464.176511 115.435761,465.765114 M109.735604,464.707086 C108.66584,463.294821 108.131745,461.529881 109.199934,460.117616 C109.021902,461.529881 109.377965,462.942145 110.269698,464.176511 C111.159855,465.412438 112.407651,466.11779 114.187965,466.11779 C112.585682,466.824702 110.803792,466.11779 109.735604,464.707086 M111.159855,458 L109.377965,458 C108.66584,458 108.131745,458.177899 108.131745,458.177899 C105.993793,460.295515 102.964107,463.118483 99.7579659,466.11779 C96.7282805,469.117096 93.3441078,472.117963 90.6720608,474.588256 C88.890171,476.176858 87.1098566,477.411224 86.0400925,478.999827 C84.9703284,480.412091 84.6142656,482.177032 85.5044227,485 C88.890171,483.058722 92.2759192,480.588429 95.6600919,478.294475 C99.0458402,476.00052 102.608044,473.530228 105.993793,471.234713 C107.41962,470.353023 109.199934,468.942319 110.981824,467.88273 C112.763714,467.00104 114.545603,466.646804 116.505525,467.706392 C117.395682,465.2361 117.039619,462.942145 115.793399,461.177205 C114.723635,459.412264 112.763714,458.177899 111.159855,458" id="Fill-219" fill="#A7A7A7"></path>
                <path d="M85.5314631,484.903659 C86.0753506,483.101166 87.16473,481.660446 88.4338008,480.578312 L88.4338008,482.380806 L88.4338008,484.183299 C89.8857719,483.101166 91.7003346,481.480356 93.3319971,479.857952 C95.1465598,478.235549 96.7798267,476.613145 98.4130935,475.172425 C98.956981,474.632155 99.6821644,474.090291 100.227656,473.550021 C100.771544,473.009751 101.134135,472.467888 100.95284,472.107708 C98.7756852,472.467888 96.7798267,472.287798 94.965264,472.107708 C93.1523056,471.927618 91.5174344,471.927618 89.704476,472.467888 C86.8021383,473.369931 84.2607879,475.712695 82.2649294,478.595729 C80.4503667,481.660446 79.1812958,485.263839 79,488.868827 C79,491.75186 79.3625917,494.456398 80.087775,496.979251 C80.8145627,499.502105 81.9023377,501.664779 82.9917171,503.827452 C87.16473,504.547812 87.7086175,502.925409 87.3460258,500.582645 C86.8021383,498.059791 85.3501673,494.816578 84.9875756,491.93195 C84.624984,489.048917 84.9875756,486.706153 85.5314631,484.903659" id="Fill-221" fill="#A7A7A7"></path>
                <path d="M112.368452,468.651476 C112.723467,468.834002 112.723467,469.016528 112.545959,469.199054 C112.368452,469.564106 112.190944,469.930773 112.190944,470.295825 C112.190944,471.575123 112.545959,472.670279 113.255991,473.76705 C113.967593,474.862206 115.03264,475.592311 116.099257,475.957363 C114.500116,476.32403 112.900975,475.227258 112.190944,473.582909 C111.480912,471.940175 111.124326,469.930773 112.368452,468.651476 M115.210147,468.286423 C116.276765,468.46895 117.51932,469.564106 118.051843,471.025929 C118.585938,472.487753 118.763446,474.313013 117.874336,475.592311 C115.742671,476.139889 113.967593,474.313013 113.433498,472.305227 C112.723467,470.113299 113.078483,468.103897 115.210147,468.286423 M107.750106,484.542547 C109.170169,483.629917 111.480912,482.533146 113.967593,481.255463 C116.454273,479.976166 118.585938,478.514342 119.295969,477.23666 C120.716032,475.227258 119.828493,472.121085 118.051843,469.930773 C116.276765,467.738845 113.788514,466.277022 111.835928,467.372178 C109.525185,468.834002 107.216012,470.295825 105.084347,471.756033 C102.952683,473.217857 100.821018,474.862206 98.6893533,476.506556 C96.5592595,478.14929 94.2485161,479.611114 92.1168514,481.071322 C89.9851867,482.533146 87.8550928,484.177495 85.7234281,486.004371 C86.6109672,487.831246 87.4985063,490.570752 87.3209985,492.76268 C87.3209985,494.954607 86.2559516,496.598957 83.4126847,496.049763 C81.9926222,495.867237 81.28102,495.137133 80.7484966,494.040362 C80.2159731,492.945206 79.8609575,491.483382 79.5059418,490.2057 C78.439324,490.570752 77.5517849,491.11833 76.6642458,491.848434 C75.7751359,492.578538 74.8875968,493.492784 73.820979,494.405414 C72.9334399,494.954607 71.6893143,495.502185 70.6242673,496.232289 C69.5576496,496.964009 68.4926026,497.694113 68.1360161,498.606743 C67.7810005,500.068567 68.1360161,501.712916 69.0251261,502.990598 C69.9126652,504.269896 71.1567908,505 72.4009164,505 C72.9334399,505 73.4659633,504.817474 74.1775655,504.452422 L74.3535024,504.269896 L74.3535024,499.155936 L74.3535024,494.040362 C74.3535024,494.040362 74.8875968,493.492784 75.9526437,493.127732 C76.8401828,492.76268 78.2618162,492.76268 79.6834496,494.040362 C80.7484966,495.137133 81.1050831,496.049763 80.9260044,496.781483 C80.9260044,497.511587 80.5709887,497.876639 80.5709887,497.876639 L83.0576691,497.876639 L84.3017947,497.876639 C87.1434907,496.049763 90.1642653,494.405414 93.0059613,492.76268 C97.979322,490.2057 102.776746,487.282053 107.750106,484.542547" id="Fill-223" fill="#A7A7A7"></path>
                <path d="M76.8744671,494 C75.7489342,495.8 74.1430602,496.945981 72.6963524,498.254019 C71.2496447,499.563505 69.802937,500.87299 69,503 C70.2861203,502.344534 71.8934154,501.363505 73.4992894,500.217524 C75.1065846,499.071543 76.7138797,497.92701 78,496.781029 C77.6774041,496.454019 77.6774041,495.8 77.6774041,495.145981 C77.3562293,494.654019 77.1956419,494.163505 76.8744671,494" id="Fill-225" fill="#A7A7A7"></path>
                <path d="M107,486.188285 C107,486 107,486 107,486.188285 C107,486 106.825815,486 106.825815,486 C103.68895,488.261087 100.550544,490.145604 97.4121369,492.028454 C94.2752718,493.912971 90.9626805,495.797488 88,497.87029 L88,499 L96.7153983,499 L96.7153983,497.49372 C96.7153983,497.117149 96.5412137,496.174058 96.5412137,495.420918 C96.5412137,494.666111 96.7153983,494.102922 97.5878631,494.102922 C98.110417,494.289541 98.4587863,495.042681 98.4587863,495.609203 C98.4587863,496.362343 98.2846017,497.117149 98.2846017,497.682005 L98.2846017,499 L98.9813403,499 L107,499 L107,486.188285 Z" id="Fill-227" fill="#A7A7A7"></path>
                <path d="M95.7231765,359 C95.7231765,360.137064 95.3752666,361.844336 96.2450414,362.223357 L96.7684457,362.223357 C97.9861303,362.223357 97.2903105,360.328251 97.4642655,359 C98.3340402,359 98.8574445,359.379021 99.5532643,359.568532 C99.5532643,360.517762 99.5532643,361.465315 99.7272192,362.223357 C100.772488,362.412868 101.294353,361.844336 101.120398,360.707272 C103.035442,362.412868 104.602576,364.309651 104.774992,367.724196 C105.646306,368.103217 106.342126,368.861259 105.820261,370 L87.1932263,370 C86.8453164,369.05077 86.8453164,367.724196 88.2384954,367.913706 C88.2384954,364.12014 89.9795843,362.412868 91.5451789,360.517762 C92.0670437,361.086294 91.7191338,362.412868 92.9383579,362.033847 C93.6341777,361.654825 93.4602228,360.328251 93.4602228,359.379021 C94.3315369,359.379021 94.8534018,359 95.7231765,359" id="Fill-229" fill="#A7A7A7"></path>
                <path d="M104.870373,371.236249 C106.882372,383.625768 84.7520068,382.248648 88.4088624,371.064299 C93.7138099,371.236249 99.9325669,370.720399 104.870373,371.236249" id="Fill-231" fill="#A7A7A7"></path>
                <path d="M95.2446034,387.743821 C96.524399,388.663129 98.3503699,388.663129 99.6301654,387.743821 C99.4475683,386.639023 99.2649712,385.535853 98.899777,384.616545 C95.9766077,383.879471 95.2446034,385.535853 95.2446034,387.743821 M119,389.767927 C116.623006,389.951788 114.614438,391.608171 112.604254,391.23882 C110.59407,391.054959 109.681085,388.846991 107.853498,388.479268 C107.304091,389.400203 107.853498,391.23882 107.669285,392.527479 C104.746116,392.711341 102.553335,393.814511 99.6301654,394 C99.6301654,392.343618 99.0823741,391.23882 99.0823741,389.400203 C98.715564,389.03248 96.524399,389.767927 95.7923947,389.216342 C95.9766077,391.054959 95.2446034,392.343618 95.2446034,394 C92.3214341,393.814511 90.1286531,392.711341 87.2038679,392.527479 L87.2038679,388.479268 C85.377897,389.03248 84.0981015,390.503373 82.4531118,391.23882 C80.2619467,390.871097 78.0691657,390.503373 76.0573659,389.767927 C75.6921718,389.216342 77.1545644,387.743821 78.0691657,387.006747 C80.6271409,384.798779 86.6560766,380.20061 91.9562399,381.119918 C94.8794093,381.671503 98.899777,384.431056 102.553335,381.119918 C110.59407,381.119918 115.710021,385.719715 119,389.767927" id="Fill-233" fill="#A7A7A7"></path>
                <path d="M76,390 C83.2458271,391.464659 90.1369415,393.297104 97.3812061,394.763384 C97.7343561,397.328158 96.6749059,401.359212 97.9109312,403.191656 C99.1485191,402.825491 98.6187939,400.809964 98.6187939,399.343685 L98.6187939,394.763384 C105.686483,393.114021 112.577598,391.464659 120,390 L120,409.238237 C116.288799,409.970566 112.754173,410.702896 109.042972,411.435226 C105.509908,412.169176 101.798707,414 98.2656439,414 C94.7310178,414 90.4900916,412.535341 86.9554656,411.803011 C83.4224022,410.885979 79.8877761,409.785864 76.176575,409.238237 C76,402.825491 76,396.412746 76,390" id="Fill-235" fill="#A7A7A7"></path>
                <path d="M73.7801313,397 C74.2602153,401.253442 73.7801313,406.392365 73.9401593,411 C68.3349304,409.760327 72.178435,399.835106 73.7801313,397" id="Fill-237" fill="#A7A7A7"></path>
                <path d="M87.2884705,419 C86.9402558,419 86.9402558,419.315642 87.1143631,419.789106 L87.1143631,422 L96,422 L96,420.73743 C93.212742,420.106145 90.2498358,419.473464 87.2884705,419" id="Fill-239" fill="#A7A7A7"></path>
                <path d="M98,413.894369 L98,415 L107,415 C107,413.894369 106.820127,412.946487 106.640255,412 C103.7607,412.473243 100.699682,412.946487 98,413.894369" id="Fill-241" fill="#A7A7A7"></path>
                <path d="M78.0613001,411.116108 C79.3080446,410.676217 80,411.555998 80,412.583708 C79.8616089,414.491198 76.3993823,414.637828 77.0913377,411.997187 C77.0913377,411.849259 77.506511,411.262738 78.0613001,411.116108" id="Fill-243" fill="#A7A7A7"></path>
                <path d="M115.120072,411.077163 C116.240144,410.786633 116.799562,411.368979 116.939416,411.95004 C117.498833,414.420834 114,414.711365 114,412.531101 C114,411.65951 114.420801,411.222429 115.120072,411.077163" id="Fill-245" fill="#A7A7A7"></path>
                <path d="M111.846866,428.459726 C112.204758,427.945747 111.846866,426.230968 111.66792,425.201494 C111.129499,422.80141 110.771607,420.743979 110.234769,418.515221 C110.055823,417.314421 110.234769,415.943811 109.34004,415.256989 C101.817977,414.914337 91.9696176,414.914337 84.6280844,415.256989 C83.9107172,416.115137 83.5528254,419.202042 83.1949336,421.602126 C83.014404,422.80141 82.6565122,423.658042 82.4791499,424.858842 C82.2986204,425.888315 81.7617827,427.772905 82.1212581,428.2884 C82.8370417,429.660526 85.7017599,428.459726 87.6717485,428.802378 C87.3138567,427.258926 86.9543813,425.201494 87.3138567,423.315389 C88.5664781,422.630084 91.6117258,422.458758 92.6854012,423.488231 C93.0432931,425.201494 92.6854012,427.430252 92.3275094,428.802378 L101.639031,428.802378 C101.281139,427.430252 100.563772,425.201494 101.281139,423.315389 C102.535344,422.630084 105.757954,422.458758 106.652684,423.488231 C107.191105,425.545663 106.473738,427.430252 106.115846,428.631052 C108.264781,428.459726 110.952137,429.660526 111.846866,428.459726" id="Fill-247" fill="#A7A7A7"></path>
                <path d="M80.0858585,423.983649 C74.7036134,424.316999 76.2742612,419.480461 76.0501663,416.144001 C76.7224511,414.809122 79.4135736,414.642447 80.3099534,415.643975 C81.8806012,417.645556 80.3099534,422.148743 80.0858585,423.983649" id="Fill-249" fill="#A7A7A7"></path>
                <path d="M114.474331,423.983737 C114.0538,421.827223 113.351674,415.357682 115.315394,415.026137 C116.297874,414.858897 116.578228,415.523455 117,416.186546 C116.718405,419.504937 117.700885,424.315283 114.474331,423.983737" id="Fill-251" fill="#A7A7A7"></path>
                <path d="M73.9108729,394.880732 C74.7642811,398.919958 69.213352,398.919958 69,395.553606 C69,392.635836 73.2708168,391.962963 73.9108729,394.880732" id="Fill-253" fill="#FFFFFF"></path>
                <path d="M73.8773054,409.819904 C74.9356112,414.243522 68.7936916,413.801356 69.0053528,410.040987 C69.2170139,407.8282 73.242322,406.943867 73.8773054,409.819904" id="Fill-255" fill="#FFFFFF"></path>
                <path d="M75.0613001,179.116108 C76.3080446,178.676217 77,179.555998 77,180.583708 C76.8616089,182.491198 73.3993823,182.637828 74.0913377,179.997187 C74.0913377,179.849259 74.5077357,179.262738 75.0613001,179.116108" id="Fill-257" fill="#A7A7A7"></path>
                <path d="M111.119289,179.077266 C112.239816,178.786746 112.799461,179.367787 112.939372,179.950112 C113.499017,182.420819 110,182.71134 110,180.531153 C110,179.658307 110.419733,179.222527 111.119289,179.077266" id="Fill-259" fill="#A7A7A7"></path>
                <path d="M108.846866,197.459667 C109.204758,196.945633 108.846866,195.230668 108.66792,194.202599 C108.131082,191.802255 107.771607,189.744601 107.234769,187.514085 C107.055823,186.314672 107.234769,184.942397 106.34004,184.257017 C98.8179771,183.914328 88.9696176,183.914328 81.6280844,184.257017 C80.9107172,185.113741 80.5528254,188.200981 80.1949336,190.601325 C80.0159876,191.802255 79.6580958,192.658979 79.4791499,193.858393 C79.2986204,194.887978 78.7617827,196.774288 79.1212581,197.288322 C79.8370417,198.660597 82.7017599,197.459667 84.6717485,197.802357 C84.3138567,196.258737 83.9559649,194.202599 84.3138567,192.31629 C85.5664781,191.629394 88.6117258,191.458049 89.6854012,192.487634 C90.0432931,194.202599 89.6854012,196.431598 89.3275094,197.802357 L98.6390312,197.802357 C98.2811394,196.431598 97.5653557,194.202599 98.2811394,192.31629 C99.5353443,191.629394 102.757954,191.458049 103.654268,192.487634 C104.191105,194.545289 103.473738,196.431598 103.115846,197.631012 C105.264781,197.459667 107.952137,198.660597 108.846866,197.459667" id="Fill-261" fill="#A7A7A7"></path>
                <path d="M77.0866859,192.983647 C71.704125,193.31702 73.2748649,188.480169 73.0487736,185.14497 C73.7230811,183.810005 76.4143616,183.641843 77.310794,184.643436 C78.8795508,186.645146 77.310794,191.148624 77.0866859,192.983647" id="Fill-263" fill="#A7A7A7"></path>
                <path d="M110.473832,192.983736 C110.053218,190.827133 109.352194,184.357323 111.316302,184.025763 C112.297735,183.859984 112.578145,184.523102 113,185.187688 C112.71959,188.50475 113.701024,193.315296 110.473832,192.983736" id="Fill-265" fill="#A7A7A7"></path>
                <path d="M86.8801738,195.089127 C90.9201835,194.235719 90.9201835,199.786648 87.5528473,200 C84.6359445,200 83.963271,195.729183 86.8801738,195.089127" id="Fill-267" fill="#FFFFFF"></path>
                <path d="M99.81937,195.122695 C104.243647,194.064389 103.80161,200.206308 100.040388,199.994647 C97.82825,199.782986 96.9441771,195.757678 99.81937,195.122695" id="Fill-269" fill="#FFFFFF"></path>
                <path d="M74.0613001,584.116108 C75.3080446,583.676217 76,584.555998 76,585.583708 C75.8616089,587.491198 72.3993823,587.637828 73.0913377,584.997187 C73.0913377,584.703926 73.5077357,584.262738 74.0613001,584.116108" id="Fill-271" fill="#A7A7A7"></path>
                <path d="M108.120072,582.077163 C109.240144,581.786633 109.799562,582.368979 109.939416,582.95004 C110.498833,585.420834 107,585.711365 107,583.531101 C107,582.65951 107.420801,582.222429 108.120072,582.077163" id="Fill-273" fill="#A7A7A7"></path>
                <path d="M106.846167,599.459726 C107.205637,598.945747 106.846167,597.230968 106.667224,596.20301 C106.130396,593.80141 105.77251,591.743979 105.234097,589.515221 C105.056738,588.314421 105.234097,586.943811 104.339382,586.256989 C96.8174428,585.914337 86.9692448,585.914337 79.627832,586.256989 C78.9104765,587.115137 78.5525905,590.202042 78.1947046,592.602126 C78.0157616,593.80141 77.6578756,594.658042 77.4789327,595.858842 C77.2999897,596.888315 76.7615772,598.774421 77.1210467,599.2884 C77.8368186,600.660526 80.7014898,599.459726 82.6714462,599.802378 C82.3135602,598.258926 81.9556743,596.20301 82.3135602,594.315389 C83.5677446,593.630084 86.6113588,593.458758 87.6850167,594.488231 C88.0429026,596.20301 87.6850167,598.430252 87.3271307,599.802378 L96.6400834,599.802378 C96.2821975,598.430252 95.564842,596.20301 96.2821975,594.315389 C97.5347983,593.630084 100.757355,593.458758 101.653654,594.488231 C102.190483,596.545663 101.474711,598.430252 101.116825,599.631052 C103.265724,599.459726 105.951453,600.660526 106.846167,599.459726" id="Fill-275" fill="#A7A7A7"></path>
                <path d="M77.0859659,597.983649 C71.7043533,598.316999 73.2748165,593.480461 73.048765,590.144001 C73.7229537,588.809122 76.4137601,588.642447 77.3100345,589.643975 C78.8804977,591.47888 77.3100345,596.148743 77.0859659,597.983649" id="Fill-277" fill="#A7A7A7"></path>
                <path d="M109.474527,595.983737 C109.053822,593.827223 108.351406,587.357682 110.315938,587.026137 C111.298825,586.858897 111.579295,587.523455 112,588.186546 C111.71953,591.504937 112.702416,596.315283 109.474527,595.983737" id="Fill-279" fill="#A7A7A7"></path>
                <path d="M83.8807325,597.089127 C87.9199575,596.235719 87.9199575,601.786648 84.5536058,602 C81.6358363,602 80.962963,597.729183 83.8807325,597.089127" id="Fill-281" fill="#FFFFFF"></path>
                <path d="M97.8196333,597.122695 C102.24455,596.064389 101.800493,602.206308 98.0406835,601.994647 C95.8282252,601.571325 94.9440243,597.757678 97.8196333,597.122695" id="Fill-283" fill="#FFFFFF"></path>
                <path d="M78.0613001,499.116108 C79.3080446,498.676217 80,499.555998 80,500.583708 C79.8616089,502.491198 76.3993823,502.637828 77.0913377,499.997187 C77.0913377,499.849259 77.5077357,499.262738 78.0613001,499.116108" id="Fill-285" fill="#A7A7A7"></path>
                <path d="M113.120072,494.077266 C114.240144,493.786746 114.799562,494.367787 114.939416,494.950112 C115.498833,497.420819 112,497.71134 112,495.531153 C112,494.658307 112.420801,494.222527 113.120072,494.077266" id="Fill-287" fill="#A7A7A7"></path>
                <path d="M110.846167,512.459667 C111.205637,511.945633 110.846167,510.230668 110.667224,509.202599 C110.130396,506.802255 109.77251,504.744601 109.234097,502.514085 C109.056738,501.314672 109.234097,499.942397 108.339382,499.257017 C100.817443,498.914328 90.9692448,498.914328 83.627832,499.257017 C82.9104765,500.113741 82.5525905,503.200981 82.1947046,505.601325 C82.0157616,506.802255 81.6578756,507.658979 81.4789327,508.858393 C81.2999897,509.887978 80.7615772,511.774288 81.1210467,512.288322 C81.8368186,513.660597 84.7014898,512.459667 86.6714462,512.802357 C86.3135602,511.258737 85.9556743,509.202599 86.3135602,507.31629 C87.5677446,506.629394 90.6113588,506.458049 91.6850167,507.487634 C92.0429026,509.202599 91.6850167,511.431598 91.3271307,512.802357 L100.640083,512.802357 C100.282197,511.431598 99.564842,509.202599 100.282197,507.31629 C101.534798,506.629394 104.757355,506.458049 105.653654,507.487634 C106.190483,509.545289 105.474711,511.431598 105.116825,512.631012 C107.265724,512.459667 109.951453,513.660597 110.846167,512.459667" id="Fill-289" fill="#A7A7A7"></path>
                <path d="M80.0859659,512.983648 C74.7043533,513.317016 76.2748165,508.480227 76.048765,505.143596 C76.7229537,503.810123 79.4137601,503.641964 80.3100345,504.643544 C81.8804977,506.645228 80.3100345,511.148648 80.0859659,512.983648" id="Fill-291" fill="#A7A7A7"></path>
                <path d="M112.474527,507.983736 C112.053822,505.827133 111.351406,499.357323 113.315938,499.025763 C114.298825,498.859984 114.579295,499.523102 115,500.187688 C114.71953,503.50475 115.702416,508.315296 112.474527,507.983736" id="Fill-293" fill="#A7A7A7"></path>
                <path d="M88.8807325,510.089127 C92.9199575,509.235719 92.9199575,514.786648 89.5536058,515 C86.6358363,515 85.962963,510.729183 88.8807325,510.089127" id="Fill-295" fill="#FFFFFF"></path>
                <path d="M102.819633,502.122695 C107.24455,501.064389 106.800493,507.206308 103.040684,506.994647 C100.828225,506.782986 99.9440243,502.757678 102.819633,502.122695" id="Fill-297" fill="#FFFFFF"></path>
                <path d="M98.2997792,541.216408 C96.7019033,536.263363 88.359359,535.161785 84.2767705,538.831549 C83.3899338,539.564852 83.035199,540.849756 81.9709949,541.216408 C83.035199,539.198201 84.6330749,537.546645 85.697279,535.528437 C83.5673011,535.528437 81.0825885,535.711763 78.7752432,535.528437 C78.2431411,535.528437 77,535.896711 77,534.978459 C77,533.878504 78.9526106,534.245156 80.0183843,534.245156 C87.2951549,534.245156 95.2829645,533.693555 102.737102,534.245156 C103.091837,534.245156 104.157611,533.878504 103.980243,534.795133 C104.157611,535.896711 102.737102,535.345111 102.205,535.528437 C100.25239,535.711763 97.4129424,535.528437 95.4603318,535.528437 C96.1698013,537.179993 97.9450445,539.198201 99.0092486,540.848134 C99.3655529,541.216408 98.8318812,541.033082 98.6545139,541.399734 C102.027633,548.004335 97.9450445,555.158913 92.0872128,555.892217 C84.2767705,556.993795 78.9526106,549.470942 82.3257296,541.58306 C82.3257296,541.216408 82.503097,541.216408 82.6804643,541.033082 C87.6498896,541.216408 92.9740496,541.216408 98.2997792,541.216408" id="Fill-299" fill="#A7A7A7"></path>
                <path d="M103.832719,535 L104.332351,535 C104.332351,537.892944 104.165807,541.127563 105,543 L103,543 C103.999263,541.127563 103.499632,537.552775 103.832719,535" id="Fill-301" fill="#A7A7A7"></path>
                <path d="M89.6381032,557.290326 C92.1520857,559.766543 93.2288262,564.188696 93.4098711,557.643848 C99.6956216,555.344391 105.800327,559.943304 111.727164,559.943304 C116.216759,559.943304 122.323053,555.16763 125.195949,558.352456 C128.967717,562.774608 118.551285,565.250826 112.983362,565.957869 C109.751552,566.311391 105.979784,565.604347 103.465801,565.957869 C102.927431,571.618912 102.747974,577.810238 102.747974,584 L81.7356538,584 C82.6345257,580.9935 79.9410863,579.579412 79.401128,576.748108 C78.3227994,571.618912 79.7600415,565.781108 79.7600415,560.475152 C81.7356538,558.174131 85.8663352,557.820609 89.6381032,557.290326" id="Fill-303" fill="#A7A7A7"></path>
                <path d="M358.818875,499.091297 C358.63719,498.182873 354.273541,497.817896 354.273541,499.454666 C354.453618,499.454666 354.453618,499.636351 354.453618,499.636351 C355.363649,500.181405 358.998951,500.544775 358.818875,499.091297 M358.818875,495.272702 C358.63719,494.364278 354.273541,493.999301 354.273541,495.636071 C354.453618,495.636071 354.453618,495.817756 354.453618,495.817756 C355.363649,496.364418 358.998951,496.727787 358.818875,495.272702 M358.818875,491.454107 C358.63719,490.545683 354.273541,490.182314 354.273541,491.819084 C354.453618,491.819084 354.453618,492.000769 354.453618,492.000769 C355.363649,492.545823 358.998951,492.909193 358.818875,491.454107 M380.272143,499.272981 L392.454666,499.272981 L392.454666,487.092066 L380.272143,487.092066 C380.090458,490.909053 380.272143,495.272702 380.272143,499.272981 M365.000979,499.272981 L377.181894,499.272981 L377.181894,487.092066 L365.000979,487.092066 C364.817686,490.909053 365.000979,495.272702 365.000979,499.272981 M358.818875,487.635512 C358.63719,486.727088 354.273541,486.363719 354.273541,488.000489 C354.453618,488.000489 354.453618,488.182174 354.453618,488.182174 C355.363649,488.545544 358.998951,489.090598 358.818875,487.635512 M358.818875,483.818525 C358.63719,482.910101 354.273541,482.545124 354.273541,484.181894 C354.453618,484.181894 354.453618,484.363579 354.453618,484.363579 C355.363649,484.726949 358.998951,485.273611 358.818875,483.818525 M358.818875,479.99993 C358.63719,479.091506 354.273541,478.726529 354.273541,480.364907 C354.453618,480.364907 354.453618,480.544984 354.453618,480.544984 C355.363649,480.909962 358.998951,481.455016 358.818875,479.99993 M358.818875,476.181335 C358.63719,475.272912 354.273541,474.909542 354.273541,476.546312 C354.453618,476.546312 354.453618,476.727997 354.453618,476.727997 C355.363649,477.091367 358.998951,477.636421 358.818875,476.181335 M380.272143,484.00021 L392.454666,484.00021 L392.454666,471.819294 L380.272143,471.819294 C380.090458,475.636281 380.272143,479.99993 380.272143,484.00021 M365.000979,484.00021 L377.181894,484.00021 L377.181894,471.819294 L365.000979,471.819294 C364.817686,475.636281 365.000979,479.99993 365.000979,484.00021 M358.818875,472.364348 C358.63719,471.455925 354.273541,471.090947 354.273541,472.727718 C354.453618,472.727718 354.453618,472.909402 354.453618,472.909402 C355.363649,473.272772 358.998951,473.819434 358.818875,472.364348 M351.181685,458 L397,458 L397,504 L361.727438,504 L361.727438,467.272352 L395.36323,467.272352 C395.726599,464.910451 395.36323,462.181964 395.544914,459.63677 L352.635163,459.63677 L352.635163,467.272352 L360.272352,467.272352 L360.272352,504 L351,504 L351,458.546662 C351.181685,458.183293 351.181685,458 351.181685,458" id="Fill-305" fill="#A7A7A7"></path>
                <path d="M358.165894,465.536541 C360.023851,465.357233 360.023851,462.126503 357.609,462.664429 C355.751043,463.024633 356.493568,465.536541 358.165894,465.536541 M357.423368,461.050651 C362.067439,460.331829 362.251428,467.510524 357.609,466.971011 C354.44998,466.612393 353.893086,461.588577 357.423368,461.050651" id="Fill-307" fill="#A7A7A7"></path>
                <path d="M364.165563,465.536541 C366.023325,465.357233 366.023325,462.126503 363.608727,462.664429 C361.750964,463.024633 362.493412,465.536541 364.165563,465.536541 M363.423115,461.050651 C368.0667,460.331829 368.252311,467.510524 363.608727,466.971011 C360.450038,466.612393 359.893202,461.588577 363.423115,461.050651" id="Fill-309" fill="#A7A7A7"></path>
                <path d="M96.6222829,837.526354 C97.1545579,837.526354 97.688403,837.526354 98.043253,837.695823 C98.398103,838.034763 98.398103,838.544673 98.398103,839.222552 L114.377343,839.222552 C116.153164,839.222552 118.816109,838.882113 118.995104,839.900431 C119.170959,841.42716 114.554768,840.91875 114.022493,840.91875 L78.3349475,840.91875 C76.9139774,840.91875 73.1849123,841.25619 73.0074873,840.240871 C72.8300623,838.882113 75.8494274,839.222552 77.4462524,839.222552 L93.4270629,839.222552 C93.7819129,839.053082 93.4270629,838.204233 93.7819129,837.865293 C94.1367629,837.526354 94.6690379,837.526354 95.3787379,837.526354 C94.3141879,835.491215 97.3335531,835.491215 96.6222829,837.526354" id="Fill-321" fill="#A7A7A7"></path>
                <path d="M74.1790412,844 L117,844 L117,869 L74,869 L74,844.520481 C74.1790412,844.173494 74.1790412,844 74.1790412,844" id="Fill-323" fill="#A7A7A7"></path>
                <path d="M102.660953,872.73673 C103.015911,873.723325 104.082355,874.545488 104.969749,875.697971 C105.679664,876.686021 107.101065,877.837049 106.568629,878.989532 C104.969749,879.153965 104.082355,877.343752 103.19339,876.191269 C102.305996,875.040241 101.417031,873.723325 100.352158,872.73673 C97.1559683,873.230028 93.9582081,872.077545 91.4719339,872.73673 C90.2280115,873.065595 89.3406173,875.203218 88.4532232,876.191269 C87.3867796,877.343752 86.6768642,878.989532 85.0779842,878.989532 C84.5455477,877.672617 85.9653783,876.686021 86.6768642,875.697971 C87.5642584,874.709921 88.4532232,873.723325 89.1631385,872.73673 L76.5527178,872.73673 C75.3087954,872.73673 73.7114859,873.065595 73,872.241977 C73,871.914567 73,871.584247 73.3565283,871.419814 C85.9653783,870.926517 100.529637,871.090949 114.20493,871.090949 C114.916416,871.090949 119,870.596197 119,871.914567 C119,873.230028 112.962579,872.73673 111.363698,872.73673 L102.660953,872.73673 Z" id="Fill-325" fill="#A7A7A7"></path>
                <text id="Phases" font-family="AvenirNext-Bold, Avenir Next" font-size="24" font-weight="bold" fill="#000000">
                    <tspan x="243" y="24">Phases</tspan>
                </text>
                <text id="Workshop-1" font-family="AvenirNext-Bold, Avenir Next" font-size="16" font-weight="bold" letter-spacing="-0.576000035" fill="#6390B1">
                    <tspan x="48.8400002" y="91">Workshop 1</tspan>
                </text>
                <text id="(techniciens)" font-family="AvenirNext-Bold, Avenir Next" font-size="12" font-weight="bold" fill="#000000">
                    <tspan x="50.998" y="109">(techniciens)</tspan>
                </text>
                <text id="Workshop-2" font-family="AvenirNext-Bold, Avenir Next" font-size="16" font-weight="bold" letter-spacing="-0.576000035" fill="#6390B1">
                    <tspan x="52.8400002" y="304">Workshop 2</tspan>
                </text>
                <text id="(techniciens,-archit" font-family="AvenirNext-Bold, Avenir Next" font-size="12" font-weight="bold" fill="#000000">
                    <tspan x="64.5656975" y="328">(techniciens</tspan>
                    <tspan x="134.465698" y="328" letter-spacing="-0.271395">,</tspan>
                    <tspan x="137.434303" y="328"> </tspan>
                    <tspan x="37.047116" y="344">a</tspan>
                    <tspan x="43.839116" y="344" letter-spacing="-0.162837">r</tspan>
                    <tspan x="48.212279" y="344">chitectes</tspan>
                    <tspan x="100.136279" y="344" letter-spacing="-0.271395">,</tspan>
                    <tspan x="103.104884" y="344"> tudiants)</tspan>
                </text>
                <text id="Exposition-interacti" font-family="AvenirNext-Bold, Avenir Next" font-size="16" font-weight="bold" fill="#6390B1">
                    <tspan x="57.608" y="916">Exposition</tspan>
                    <tspan x="57.72" y="938">interactive </tspan>
                </text>
                <text id="Geste-urbain-de-lEn" font-family="AvenirNext-Bold, Avenir Next" font-size="16" font-weight="bold" fill="#6390B1">
                    <tspan x="36.852" y="1217">Geste urbain de </tspan>
                    <tspan x="46.732" y="1239">lEntre Nord </tspan>
                    <tspan x="70.428" y="1261">nalis </tspan>
                </text>
                <text id="Suggestions" font-family="AvenirNext-Regular, Avenir Next" font-size="10" font-weight="normal" fill="#477393">
                    <tspan x="93" y="266">Suggestions</tspan>
                </text>
                <text id="Suggestions" font-family="AvenirNext-Regular, Avenir Next" font-size="10" font-weight="normal" fill="#477393">
                    <tspan x="22" y="639">Suggestions</tspan>
                </text>
                <text id="Suggestions" font-family="AvenirNext-Regular, Avenir Next" font-size="10" font-weight="normal" fill="#477393">
                    <tspan x="22" y="966">Suggestions</tspan>
                </text>
                <polyline id="Stroke-341" stroke="#477393" stroke-width="0.972" stroke-dasharray="4.861,4.861" points="376 549 376 1015 248 1015"></polyline>
                <polygon id="Fill-343" fill="#477393" points="258.454929 1009 259 1010.51608 248.090544 1014.49916 259 1018.48224 258.454929 1020 243 1014.49916"></polygon>
                <text id="Web-App" font-family="AvenirNext-Bold, Avenir Next" font-size="12" font-weight="bold" letter-spacing="-0.432000041" fill="#6390B1">
                    <tspan x="350.398" y="537">Web App</tspan>
                </text>
                <g id="Group-347" transform="translate(293.000000, 256.000000)" font-size="16" font-family="AvenirNext-Bold, Avenir Next" letter-spacing="-0.703999996" fill="#000000" font-weight="bold">
                    <text id="Public-+-Parties">
                        <tspan x="30.0159998" y="12.6029919">P</tspan>
                        <tspan x="38.8639998" y="12.6029919" letter-spacing="-0.938666642">ublic + Parties</tspan>
                    </text>
                </g>
                <text id="prenantes" font-family="AvenirNext-Bold, Avenir Next" font-size="16" font-weight="bold" fill="#000000">
                    <tspan x="332.629418" y="286">p</tspan>
                    <tspan x="343.141418" y="286" letter-spacing="-0.162837">r</tspan>
                    <tspan x="349.026582" y="286">enantes</tspan>
                </text>
                <path d="M96,764 L96,821" id="Stroke-353" stroke="#000000" stroke-width="0.972" stroke-dasharray="4.861,4.861"></path>
                <polygon id="Fill-355" fill="#000000" points="90 809.546679 91.5972044 809 95.4992155 819.909456 99.4027956 809 101 809.546679 95.4992155 825"></polygon>
                <text id="Suggestions" font-family="AvenirNext-Regular, Avenir Next" font-size="10" font-weight="normal" fill="#477393">
                    <tspan x="271" y="1029">Suggestions</tspan>
                </text>
                <text id="Public-+-Parties" font-family="AvenirNext-Bold, Avenir Next" font-size="16" font-weight="bold" letter-spacing="-0.703999996" fill="#000000">
                    <tspan x="47.336" y="673">Public + Parties</tspan>
                </text>
                <text id="prenantes" font-family="AvenirNext-Bold, Avenir Next" font-size="16" font-weight="bold" fill="#000000">
                    <tspan x="58.6294185" y="689">p</tspan>
                    <tspan x="69.1414185" y="689" letter-spacing="-0.162837">r</tspan>
                    <tspan x="75.0265815" y="689">enantes</tspan>
                </text>
                <g id="Group" transform="translate(55.000000, 697.000000)" fill="#000000">
                    <path d="M54.67,44.1274429 L54.67,52.8347286 L54.67,73.0920143 C54.67,75.0468714 53.4254286,76.2914429 51.8257143,76.1123 C50.5827143,75.9347286 49.5172857,74.8677286 49.3381429,73.6247286 L49.3381429,70.7820143 L49.3381429,57.4531571 L49.3381429,56.5653 L47.5624286,56.5653 L47.5624286,56.7428714 L47.5624286,72.5593 C47.0281429,74.3365857 45.9627143,75.5795857 44.363,75.5795857 C42.7632857,75.5795857 40.4548571,72.7368714 40.4548571,72.7368714 L40.4548571,62.9625857 L40.4548571,45.0153 C40.4548571,44.8377286 40.4548571,44.6601571 40.2757143,44.4825857 C40.0981429,44.6601571 40.0981429,44.8377286 39.9205714,45.1928714 C38.8551429,47.6820143 37.6105714,49.9904429 36.3675714,52.6571571 C35.8332857,53.9001571 34.4127143,54.4344429 33.3457143,54.0777286 C31.9235714,53.5450143 31.2132857,52.1228714 31.9235714,50.7023 C32.9905714,48.2147286 34.4127143,45.7271571 35.4781429,43.0604429 C36.9002857,40.0385857 38.4984286,37.0198714 39.9205714,33.6428714 C40.6308571,32.3983 41.5202857,31.6880143 43.2975714,31.8655857 L51.6497143,31.8655857 C53.4254286,31.5104429 54.3148571,32.3983 55.0251429,33.6428714 C57.6902857,39.1507286 60.1778571,44.8377286 63.0221429,50.5231571 C63.7324286,51.9468714 63.3772857,53.1898714 62.1342857,53.9001571 C60.8897143,54.6120143 59.29,54.0777286 58.5797143,52.6571571 C57.8694286,51.0574429 57.1575714,49.4577286 56.2697143,48.0355857 C55.7354286,46.4374429 55.3802857,45.3704429 54.67,44.1274429 C54.8475714,44.1274429 54.67,44.1274429 54.67,44.1274429" id="Fill-91"></path>
                    <path d="M33.5240714,44.6598429 C33.1673571,44.1271286 32.9913571,43.5928429 32.8122143,44.1271286 L33.3465,44.1271286 L33.5240714,44.6598429 C32.8122143,45.9044143 32.4570714,47.3249857 31.7467857,48.5679857 C31.3916429,49.2798429 31.2140714,50.3452714 31.2140714,51.0571286 C31.2140714,51.9465571 31.5692143,52.8344143 32.1019286,53.5447 C32.2795,53.8998429 31.5692143,54.6117 31.5692143,54.6117 L31.5692143,72.0247 C31.5692143,73.0917 31.0365,74.1571286 29.9695,74.6898429 C29.0816429,75.2241286 28.0146429,75.0465571 27.3043571,74.1571286 C26.5940714,73.4468429 26.4165,72.9125571 26.4165,71.8487 L26.4165,62.7847 L26.4165,54.7877 L24.6392143,54.7877 L24.6392143,56.7425571 L24.6392143,72.0247 C24.6392143,72.5589857 24.6392143,72.9125571 24.4600714,73.4468429 C24.1049286,74.6898429 22.8619286,75.5792714 21.6173571,75.4017 C20.3743571,75.2241286 19.4849286,74.1571286 19.3073571,72.7365571 L19.3073571,70.6041286 L19.3073571,44.6598429 L19.3073571,44.1271286 L19.1297857,44.1271286 C18.9522143,44.3031286 18.9522143,44.4822714 18.7746429,44.6598429 C17.7092143,47.1474143 16.6422143,49.4574143 15.5767857,51.7674143 C15.0425,53.0104143 14.1546429,53.5447 13.0892143,53.1895571 C11.8446429,52.8344143 11.1327857,51.5898429 11.4895,50.1692714 C11.8446429,49.2798429 12.1997857,48.3919857 12.7325,47.5041286 C14.6873571,42.8825571 16.8197857,38.2625571 18.9522143,33.4649857 C19.4849286,32.0428429 20.3743571,31.5101286 21.7965,31.5101286 L29.9695,31.5101286 C29.9695,31.5101286 32.4570714,30.9774143 32.9913571,32.3979857 C33.8792143,34.3528429 34.7686429,36.3092714 35.6565,38.2625571 C35.8340714,38.7968429 35.8340714,39.1504143 35.6565,39.6847 C34.9446429,41.2844143 34.2343571,42.8825571 33.5240714,44.6598429" id="Fill-93"></path>
                    <path d="M53.9595571,29.9108857 C54.6698429,28.1336 55.2041286,26.5354571 55.7352714,24.7581714 C56.2695571,23.1584571 57.3349857,22.6241714 59.1122714,22.8033143 L65.3319857,22.8033143 C68.5298429,22.2706 69.5968429,23.3360286 69.7744143,28.6663143 C71.5517,32.3984571 72.9738429,35.5963143 74.7495571,39.3284571 C76.8819857,41.1057429 77.0595571,43.7708857 75.2822714,44.4811714 C74.0392714,45.0154571 72.7947,44.6603143 72.2619857,43.2381714 C71.1965571,40.7490286 70.1295571,38.4406 69.0641286,35.9530286 C68.8865571,35.7738857 68.8865571,35.5963143 68.5298429,35.4203143 L68.5298429,37.1976 L68.5298429,63.4954571 C68.5298429,64.0297429 68.5298429,64.7400286 68.3522714,65.2727429 C67.9971286,66.6948857 66.9317,67.4051714 65.3319857,67.2276 C64.0874143,67.0500286 63.1995571,65.9830286 63.1995571,64.5624571 L63.1995571,57.2757429 L63.1995571,55.1448857 C63.1995571,54.2554571 63.1995571,53.5451714 63.7322714,52.6573143 C64.2665571,51.5903143 64.2665571,50.3457429 63.7322714,49.2803143 C61.2447,43.5933143 58.9347,37.9078857 56.4471286,32.2208857 C56.0919857,30.9778857 55.2041286,30.2676 53.9595571,29.9108857" id="Fill-95"></path>
                    <path d="M8.46795714,35.9525571 C7.40252857,38.0849857 6.5131,40.2174143 5.2701,42.3498429 C5.09252857,42.5274143 5.09252857,42.8825571 4.91338571,43.0601286 C4.38067143,44.3031286 3.13767143,44.6598429 1.8931,44.1271286 C0.827671429,43.5928429 0.472528571,42.3498429 1.00367143,41.2844143 C2.07067143,38.9744143 3.13767143,36.4852714 4.38067143,34.1752714 C5.62524286,31.5101286 6.86824286,28.8449857 8.29038571,26.1782714 C8.8231,25.1128429 9.53495714,24.5801286 10.7779571,24.5801286 L18.5973857,24.5801286 C19.1301,24.5801286 19.4852429,24.7577 19.6628143,25.4679857 C20.0195286,26.5349857 20.3746714,27.4228429 20.9073857,28.4898429 C21.0849571,29.0225571 21.2625286,29.2001286 20.5506714,29.3777 C19.4852429,29.7328429 18.5973857,30.6207 18.0631,31.6877 C15.2203857,37.3731286 12.7328143,43.0601286 9.8901,48.5679857 C8.64552857,51.5898429 10.2452429,54.4341286 13.6206714,54.7877 L13.6206714,54.9668429 L13.6206714,62.6071286 C13.6206714,63.8517 12.5552429,64.7395571 11.4882429,64.9187 C10.2452429,65.0947 9.00067143,64.3844143 8.46795714,63.1414143 C8.29038571,62.6071286 8.29038571,62.0744143 8.29038571,61.7177 L8.29038571,37.0195571 C8.46795714,36.6628429 8.46795714,36.3092714 8.46795714,35.9525571" id="Fill-97"></path>
                    <path d="M31.3910143,23.8692143 C31.3910143,26.8895 28.9034429,29.3786429 25.8831571,29.3786429 C22.8613,29.3786429 20.3737286,26.8895 20.3737286,23.8692143 C20.3737286,20.8473571 22.8613,18.3597857 25.8831571,18.3597857 C28.9034429,18.1822143 31.3910143,20.6713571 31.3910143,23.8692143" id="Fill-99"></path>
                    <path d="M63.1994,21.0255571 C60.1791143,21.0255571 57.6915429,18.5379857 57.6915429,15.5177 C57.6915429,12.4958429 60.1791143,10.0082714 63.1994,10.0082714 C66.2196857,10.0082714 68.7088286,12.4958429 68.7088286,15.5177 C68.7088286,18.7155571 66.2196857,21.2031286 63.1994,21.0255571" id="Fill-101"></path>
                    <path d="M42.5866571,24.2235714 C42.5866571,21.2032857 45.0742286,18.7157143 48.0945143,18.7157143 C51.1163714,18.7157143 53.6039429,21.2032857 53.6039429,24.2235714 C53.6039429,27.2454286 51.1163714,29.733 48.0945143,29.733 C45.0742286,29.733 42.5866571,27.2454286 42.5866571,24.2235714" id="Fill-103"></path>
                    <path d="M45.7846714,14.9838857 L45.7846714,15.8717429 C45.6071,16.5836 45.4295286,16.9387429 44.7192429,17.2938857 C43.6522429,17.8281714 42.5868143,18.5384571 41.8749571,19.4263143 C41.1646714,20.4933143 40.2768143,20.4933143 39.2098143,20.3157429 C36.5446714,19.7830286 34.7673857,17.2938857 34.9449571,14.2736 C35.1225286,11.6084571 37.4341,9.47445714 40.0976714,9.29845714 C42.7643857,9.12088571 45.2519571,11.0757429 45.7846714,13.7408857 L45.7846714,14.9838857 Z" id="Fill-105"></path>
                    <path d="M31.7469429,28.1337571 C32.4572286,26.3564714 33.1675143,24.7583286 33.8793714,22.9810429 C34.4120857,21.7364714 35.2999429,21.0261857 36.7220857,21.0261857 L41.1645143,21.0261857 C40.2766571,23.6913286 40.6318,26.1789 42.5866571,28.4904714 C40.4542286,28.8440429 39.5663714,30.4437571 38.8545143,32.2210429 C38.3218,33.4656143 37.7890857,34.5310429 37.2548,35.9531857 C36.5445143,34.1759 35.6566571,32.5761857 34.9448,30.9780429 C34.2345143,29.7334714 33.3466571,28.4904714 31.7469429,28.1337571" id="Fill-107"></path>
                    <path d="M18.9522143,18.1819 C18.9522143,21.0261857 16.6422143,23.1586143 13.9770714,23.1586143 C11.1327857,23.1586143 9.00035714,20.8470429 9.00035714,18.1819 C9.00035714,15.3391857 11.3119286,13.2067571 13.9770714,13.2067571 C16.6422143,13.2067571 18.9522143,15.3391857 18.9522143,18.1819" id="Fill-109"></path>
                    <path d="M34.5898143,10.5411429 C32.9901,14.63 33.1676714,15.3402857 35.3001,19.2484286 C34.5898143,19.6051429 33.7019571,20.1362857 32.9901,20.6705714 C32.1022429,18.5381429 30.5025286,16.7608571 28.0149571,16.0505714 C25.5273857,15.3402857 23.2173857,16.0505714 21.0849571,17.6487143 C21.2625286,17.2935714 21.2625286,17.1175714 21.2625286,16.9384286 C21.9728143,15.3402857 22.8622429,13.563 23.5725286,11.9632857 C24.2828143,10.5411429 25.1722429,10.0084286 26.9495286,10.5411429 C29.2579571,10.5411429 31.2143857,10.3635714 33.5243857,10.3635714 C33.7019571,10.3635714 34.2346714,10.5411429 34.5898143,10.5411429" id="Fill-111"></path>
                    <path d="M52.8930286,5.03344286 C55.9133143,5.03344286 58.2248857,7.69858571 57.8697429,10.7188714 C57.8697429,10.8964429 57.6906,11.0755857 57.6906,11.2515857 C57.3354571,11.9634429 56.8027429,12.6737286 56.4476,13.3840143 C55.9133143,14.4510143 54.8478857,14.8061571 53.7808857,14.8061571 C51.1157429,15.1613 48.6281714,13.5631571 48.0954571,10.8964429 C47.5611714,8.2313 49.1608857,5.74372857 51.6484571,5.03344286 L52.8930286,5.03344286 Z" id="Fill-113"></path>
                    <path d="M29.7919286,9.8307 C27.1267857,9.8307 24.9943571,7.5207 24.9943571,5.03312857 C24.9943571,2.36798571 27.1267857,0.235557143 29.7919286,0.235557143 C32.4570714,0.235557143 34.5895,2.36798571 34.5895,5.03312857 C34.5895,7.69827143 32.4570714,9.8307 29.7919286,9.8307" id="Fill-115"></path>
                    <path d="M56.4471286,52.4786429 C57.8692714,54.4335 59.4674143,55.1437857 61.7789857,54.6110714 L61.7789857,54.9662143 L61.7789857,64.0302143 C61.7789857,65.8059286 60.3568429,67.0489286 58.5795571,66.6953571 C57.3349857,66.5177857 56.4471286,65.6283571 56.4471286,64.2062143 L56.4471286,53.0113571 L56.4471286,52.4786429 Z" id="Fill-117"></path>
                    <path d="M35.1231571,54.6117 C37.0780143,54.2549857 38.4985857,54.0774143 40.4550143,53.8998429 L40.4550143,54.9668429 L40.4550143,64.5619857 C40.4550143,66.1617 39.3880143,67.0495571 37.7883,67.0495571 C36.3677286,67.0495571 34.9455857,66.1617 35.1231571,64.2052714 C35.3007286,61.3641286 35.1231571,58.5198429 35.1231571,55.6771286 L35.1231571,54.6117 Z" id="Fill-119"></path>
                    <path d="M55.7359,15.5178571 C55.7359,17.4711429 56.4477571,19.0708571 57.5131857,20.3154286 C56.6237571,20.8481429 55.9134714,21.2032857 55.0256143,21.736 C54.4913286,20.493 53.6034714,19.2484286 52.3604714,18.3605714 C51.1159,17.4711429 49.6937571,16.9384286 48.2731857,16.9384286 C48.0956143,15.6938571 48.2731857,15.5178571 49.3386143,15.5178571 C51.6486143,15.3402857 53.6034714,15.5178571 55.7359,15.5178571" id="Fill-121"></path>
                    <path d="M17.3532857,52.1225571 L17.3532857,64.5619857 C15.9311429,64.3844143 14.8657143,63.4949857 15.576,62.2519857 L15.576,54.4341286 C14.8657143,54.2549857 15.0432857,54.0774143 15.0432857,53.8998429 C15.7535714,53.1895571 16.4654286,52.6568429 17.3532857,52.1225571" id="Fill-123"></path>
                </g>
                <g id="Group" transform="translate(337.000000, 296.000000)" fill="#000000">
                    <path d="M54.67,44.1274429 L54.67,52.8347286 L54.67,73.0920143 C54.67,75.0468714 53.4254286,76.2914429 51.8257143,76.1123 C50.5827143,75.9347286 49.5172857,74.8677286 49.3381429,73.6247286 L49.3381429,70.7820143 L49.3381429,57.4531571 L49.3381429,56.5653 L47.5624286,56.5653 L47.5624286,56.7428714 L47.5624286,72.5593 C47.0281429,74.3365857 45.9627143,75.5795857 44.363,75.5795857 C42.7632857,75.5795857 40.4548571,72.7368714 40.4548571,72.7368714 L40.4548571,62.9625857 L40.4548571,45.0153 C40.4548571,44.8377286 40.4548571,44.6601571 40.2757143,44.4825857 C40.0981429,44.6601571 40.0981429,44.8377286 39.9205714,45.1928714 C38.8551429,47.6820143 37.6105714,49.9904429 36.3675714,52.6571571 C35.8332857,53.9001571 34.4127143,54.4344429 33.3457143,54.0777286 C31.9235714,53.5450143 31.2132857,52.1228714 31.9235714,50.7023 C32.9905714,48.2147286 34.4127143,45.7271571 35.4781429,43.0604429 C36.9002857,40.0385857 38.4984286,37.0198714 39.9205714,33.6428714 C40.6308571,32.3983 41.5202857,31.6880143 43.2975714,31.8655857 L51.6497143,31.8655857 C53.4254286,31.5104429 54.3148571,32.3983 55.0251429,33.6428714 C57.6902857,39.1507286 60.1778571,44.8377286 63.0221429,50.5231571 C63.7324286,51.9468714 63.3772857,53.1898714 62.1342857,53.9001571 C60.8897143,54.6120143 59.29,54.0777286 58.5797143,52.6571571 C57.8694286,51.0574429 57.1575714,49.4577286 56.2697143,48.0355857 C55.7354286,46.4374429 55.3802857,45.3704429 54.67,44.1274429 C54.8475714,44.1274429 54.67,44.1274429 54.67,44.1274429" id="Fill-91"></path>
                    <path d="M33.5240714,44.6598429 C33.1673571,44.1271286 32.9913571,43.5928429 32.8122143,44.1271286 L33.3465,44.1271286 L33.5240714,44.6598429 C32.8122143,45.9044143 32.4570714,47.3249857 31.7467857,48.5679857 C31.3916429,49.2798429 31.2140714,50.3452714 31.2140714,51.0571286 C31.2140714,51.9465571 31.5692143,52.8344143 32.1019286,53.5447 C32.2795,53.8998429 31.5692143,54.6117 31.5692143,54.6117 L31.5692143,72.0247 C31.5692143,73.0917 31.0365,74.1571286 29.9695,74.6898429 C29.0816429,75.2241286 28.0146429,75.0465571 27.3043571,74.1571286 C26.5940714,73.4468429 26.4165,72.9125571 26.4165,71.8487 L26.4165,62.7847 L26.4165,54.7877 L24.6392143,54.7877 L24.6392143,56.7425571 L24.6392143,72.0247 C24.6392143,72.5589857 24.6392143,72.9125571 24.4600714,73.4468429 C24.1049286,74.6898429 22.8619286,75.5792714 21.6173571,75.4017 C20.3743571,75.2241286 19.4849286,74.1571286 19.3073571,72.7365571 L19.3073571,70.6041286 L19.3073571,44.6598429 L19.3073571,44.1271286 L19.1297857,44.1271286 C18.9522143,44.3031286 18.9522143,44.4822714 18.7746429,44.6598429 C17.7092143,47.1474143 16.6422143,49.4574143 15.5767857,51.7674143 C15.0425,53.0104143 14.1546429,53.5447 13.0892143,53.1895571 C11.8446429,52.8344143 11.1327857,51.5898429 11.4895,50.1692714 C11.8446429,49.2798429 12.1997857,48.3919857 12.7325,47.5041286 C14.6873571,42.8825571 16.8197857,38.2625571 18.9522143,33.4649857 C19.4849286,32.0428429 20.3743571,31.5101286 21.7965,31.5101286 L29.9695,31.5101286 C29.9695,31.5101286 32.4570714,30.9774143 32.9913571,32.3979857 C33.8792143,34.3528429 34.7686429,36.3092714 35.6565,38.2625571 C35.8340714,38.7968429 35.8340714,39.1504143 35.6565,39.6847 C34.9446429,41.2844143 34.2343571,42.8825571 33.5240714,44.6598429" id="Fill-93"></path>
                    <path d="M53.9595571,29.9108857 C54.6698429,28.1336 55.2041286,26.5354571 55.7352714,24.7581714 C56.2695571,23.1584571 57.3349857,22.6241714 59.1122714,22.8033143 L65.3319857,22.8033143 C68.5298429,22.2706 69.5968429,23.3360286 69.7744143,28.6663143 C71.5517,32.3984571 72.9738429,35.5963143 74.7495571,39.3284571 C76.8819857,41.1057429 77.0595571,43.7708857 75.2822714,44.4811714 C74.0392714,45.0154571 72.7947,44.6603143 72.2619857,43.2381714 C71.1965571,40.7490286 70.1295571,38.4406 69.0641286,35.9530286 C68.8865571,35.7738857 68.8865571,35.5963143 68.5298429,35.4203143 L68.5298429,37.1976 L68.5298429,63.4954571 C68.5298429,64.0297429 68.5298429,64.7400286 68.3522714,65.2727429 C67.9971286,66.6948857 66.9317,67.4051714 65.3319857,67.2276 C64.0874143,67.0500286 63.1995571,65.9830286 63.1995571,64.5624571 L63.1995571,57.2757429 L63.1995571,55.1448857 C63.1995571,54.2554571 63.1995571,53.5451714 63.7322714,52.6573143 C64.2665571,51.5903143 64.2665571,50.3457429 63.7322714,49.2803143 C61.2447,43.5933143 58.9347,37.9078857 56.4471286,32.2208857 C56.0919857,30.9778857 55.2041286,30.2676 53.9595571,29.9108857" id="Fill-95"></path>
                    <path d="M8.46795714,35.9525571 C7.40252857,38.0849857 6.5131,40.2174143 5.2701,42.3498429 C5.09252857,42.5274143 5.09252857,42.8825571 4.91338571,43.0601286 C4.38067143,44.3031286 3.13767143,44.6598429 1.8931,44.1271286 C0.827671429,43.5928429 0.472528571,42.3498429 1.00367143,41.2844143 C2.07067143,38.9744143 3.13767143,36.4852714 4.38067143,34.1752714 C5.62524286,31.5101286 6.86824286,28.8449857 8.29038571,26.1782714 C8.8231,25.1128429 9.53495714,24.5801286 10.7779571,24.5801286 L18.5973857,24.5801286 C19.1301,24.5801286 19.4852429,24.7577 19.6628143,25.4679857 C20.0195286,26.5349857 20.3746714,27.4228429 20.9073857,28.4898429 C21.0849571,29.0225571 21.2625286,29.2001286 20.5506714,29.3777 C19.4852429,29.7328429 18.5973857,30.6207 18.0631,31.6877 C15.2203857,37.3731286 12.7328143,43.0601286 9.8901,48.5679857 C8.64552857,51.5898429 10.2452429,54.4341286 13.6206714,54.7877 L13.6206714,54.9668429 L13.6206714,62.6071286 C13.6206714,63.8517 12.5552429,64.7395571 11.4882429,64.9187 C10.2452429,65.0947 9.00067143,64.3844143 8.46795714,63.1414143 C8.29038571,62.6071286 8.29038571,62.0744143 8.29038571,61.7177 L8.29038571,37.0195571 C8.46795714,36.6628429 8.46795714,36.3092714 8.46795714,35.9525571" id="Fill-97"></path>
                    <path d="M31.3910143,23.8692143 C31.3910143,26.8895 28.9034429,29.3786429 25.8831571,29.3786429 C22.8613,29.3786429 20.3737286,26.8895 20.3737286,23.8692143 C20.3737286,20.8473571 22.8613,18.3597857 25.8831571,18.3597857 C28.9034429,18.1822143 31.3910143,20.6713571 31.3910143,23.8692143" id="Fill-99"></path>
                    <path d="M63.1994,21.0255571 C60.1791143,21.0255571 57.6915429,18.5379857 57.6915429,15.5177 C57.6915429,12.4958429 60.1791143,10.0082714 63.1994,10.0082714 C66.2196857,10.0082714 68.7088286,12.4958429 68.7088286,15.5177 C68.7088286,18.7155571 66.2196857,21.2031286 63.1994,21.0255571" id="Fill-101"></path>
                    <path d="M42.5866571,24.2235714 C42.5866571,21.2032857 45.0742286,18.7157143 48.0945143,18.7157143 C51.1163714,18.7157143 53.6039429,21.2032857 53.6039429,24.2235714 C53.6039429,27.2454286 51.1163714,29.733 48.0945143,29.733 C45.0742286,29.733 42.5866571,27.2454286 42.5866571,24.2235714" id="Fill-103"></path>
                    <path d="M45.7846714,14.9838857 L45.7846714,15.8717429 C45.6071,16.5836 45.4295286,16.9387429 44.7192429,17.2938857 C43.6522429,17.8281714 42.5868143,18.5384571 41.8749571,19.4263143 C41.1646714,20.4933143 40.2768143,20.4933143 39.2098143,20.3157429 C36.5446714,19.7830286 34.7673857,17.2938857 34.9449571,14.2736 C35.1225286,11.6084571 37.4341,9.47445714 40.0976714,9.29845714 C42.7643857,9.12088571 45.2519571,11.0757429 45.7846714,13.7408857 L45.7846714,14.9838857 Z" id="Fill-105"></path>
                    <path d="M31.7469429,28.1337571 C32.4572286,26.3564714 33.1675143,24.7583286 33.8793714,22.9810429 C34.4120857,21.7364714 35.2999429,21.0261857 36.7220857,21.0261857 L41.1645143,21.0261857 C40.2766571,23.6913286 40.6318,26.1789 42.5866571,28.4904714 C40.4542286,28.8440429 39.5663714,30.4437571 38.8545143,32.2210429 C38.3218,33.4656143 37.7890857,34.5310429 37.2548,35.9531857 C36.5445143,34.1759 35.6566571,32.5761857 34.9448,30.9780429 C34.2345143,29.7334714 33.3466571,28.4904714 31.7469429,28.1337571" id="Fill-107"></path>
                    <path d="M18.9522143,18.1819 C18.9522143,21.0261857 16.6422143,23.1586143 13.9770714,23.1586143 C11.1327857,23.1586143 9.00035714,20.8470429 9.00035714,18.1819 C9.00035714,15.3391857 11.3119286,13.2067571 13.9770714,13.2067571 C16.6422143,13.2067571 18.9522143,15.3391857 18.9522143,18.1819" id="Fill-109"></path>
                    <path d="M34.5898143,10.5411429 C32.9901,14.63 33.1676714,15.3402857 35.3001,19.2484286 C34.5898143,19.6051429 33.7019571,20.1362857 32.9901,20.6705714 C32.1022429,18.5381429 30.5025286,16.7608571 28.0149571,16.0505714 C25.5273857,15.3402857 23.2173857,16.0505714 21.0849571,17.6487143 C21.2625286,17.2935714 21.2625286,17.1175714 21.2625286,16.9384286 C21.9728143,15.3402857 22.8622429,13.563 23.5725286,11.9632857 C24.2828143,10.5411429 25.1722429,10.0084286 26.9495286,10.5411429 C29.2579571,10.5411429 31.2143857,10.3635714 33.5243857,10.3635714 C33.7019571,10.3635714 34.2346714,10.5411429 34.5898143,10.5411429" id="Fill-111"></path>
                    <path d="M52.8930286,5.03344286 C55.9133143,5.03344286 58.2248857,7.69858571 57.8697429,10.7188714 C57.8697429,10.8964429 57.6906,11.0755857 57.6906,11.2515857 C57.3354571,11.9634429 56.8027429,12.6737286 56.4476,13.3840143 C55.9133143,14.4510143 54.8478857,14.8061571 53.7808857,14.8061571 C51.1157429,15.1613 48.6281714,13.5631571 48.0954571,10.8964429 C47.5611714,8.2313 49.1608857,5.74372857 51.6484571,5.03344286 L52.8930286,5.03344286 Z" id="Fill-113"></path>
                    <path d="M29.7919286,9.8307 C27.1267857,9.8307 24.9943571,7.5207 24.9943571,5.03312857 C24.9943571,2.36798571 27.1267857,0.235557143 29.7919286,0.235557143 C32.4570714,0.235557143 34.5895,2.36798571 34.5895,5.03312857 C34.5895,7.69827143 32.4570714,9.8307 29.7919286,9.8307" id="Fill-115"></path>
                    <path d="M56.4471286,52.4786429 C57.8692714,54.4335 59.4674143,55.1437857 61.7789857,54.6110714 L61.7789857,54.9662143 L61.7789857,64.0302143 C61.7789857,65.8059286 60.3568429,67.0489286 58.5795571,66.6953571 C57.3349857,66.5177857 56.4471286,65.6283571 56.4471286,64.2062143 L56.4471286,53.0113571 L56.4471286,52.4786429 Z" id="Fill-117"></path>
                    <path d="M35.1231571,54.6117 C37.0780143,54.2549857 38.4985857,54.0774143 40.4550143,53.8998429 L40.4550143,54.9668429 L40.4550143,64.5619857 C40.4550143,66.1617 39.3880143,67.0495571 37.7883,67.0495571 C36.3677286,67.0495571 34.9455857,66.1617 35.1231571,64.2052714 C35.3007286,61.3641286 35.1231571,58.5198429 35.1231571,55.6771286 L35.1231571,54.6117 Z" id="Fill-119"></path>
                    <path d="M55.7359,15.5178571 C55.7359,17.4711429 56.4477571,19.0708571 57.5131857,20.3154286 C56.6237571,20.8481429 55.9134714,21.2032857 55.0256143,21.736 C54.4913286,20.493 53.6034714,19.2484286 52.3604714,18.3605714 C51.1159,17.4711429 49.6937571,16.9384286 48.2731857,16.9384286 C48.0956143,15.6938571 48.2731857,15.5178571 49.3386143,15.5178571 C51.6486143,15.3402857 53.6034714,15.5178571 55.7359,15.5178571" id="Fill-121"></path>
                    <path d="M17.3532857,52.1225571 L17.3532857,64.5619857 C15.9311429,64.3844143 14.8657143,63.4949857 15.576,62.2519857 L15.576,54.4341286 C14.8657143,54.2549857 15.0432857,54.0774143 15.0432857,53.8998429 C15.7535714,53.1895571 16.4654286,52.6568429 17.3532857,52.1225571" id="Fill-123"></path>
                </g>
            </g>
        </g>
    </g>
</svg>
