<?xml version="1.0" encoding="utf-8"?>
<!-- Generator: Adobe Illustrator 21.1.0, SVG Export Plug-In . SVG Version: 6.00 Build 0)  -->
<svg version="1.1" id="Layer_1" xmlns="http://www.w3.org/2000/svg" xmlns:xlink="http://www.w3.org/1999/xlink" x="0px" y="0px"
	 viewBox="0 0 953 1257" style="enable-background:new 0 0 953 1257;" xml:space="preserve">
<style type="text/css">
	.st0{fill:#4A4A4A;}
	.st1{font-family:'AvenirNext-Regular, Lato, Sans-serif';}
	.st2{font-size:16px;}
	.st3{fill:none;stroke:#979797;}
	.st4{fill:none;stroke:#477393;stroke-width:0.972;}
	.st5{fill:#A7A7A7;}
	.st6{fill:none;stroke:#477393;stroke-width:0.972;stroke-dasharray:4.861,4.861;}
	.st7{fill:#477393;}
	.st8{fill:none;stroke:#635D58;stroke-width:1.645;}
	.st9{fill:none;stroke:#020202;stroke-width:2;}
	.st10{fill:none;stroke:#020202;stroke-width:2;stroke-linecap:square;}
	.st11{fill:none;stroke:#000000;stroke-width:2;}
	.st12{fill:none;stroke:#635D58;stroke-width:1.928;stroke-linecap:square;}
	.st13{fill:#635D58;}
	.st14{fill:#FFFFFF;}
	.st15{fill:none;stroke:#000000;stroke-width:1.5;}
	.st16{fill:#6390B1;}
	.st17{font-family:'AvenirNext-Bold, Lato, Sans-serif';}
	.st18{font-size:36px;}
	.st19{fill:none;stroke:#477393;stroke-width:0.972;stroke-dasharray:4.926,4.926;}
	.st20{fill:none;stroke:#000000;stroke-width:0.972;}
	.st21{fill:none;stroke:#477393;stroke-width:0.972;stroke-dasharray:4.842,4.842;}
	.st22{fill:none;stroke:#477393;stroke-width:0.972;stroke-dasharray:4.877,4.877;}
	.st23{fill:none;stroke:#477393;stroke-width:0.972;stroke-dasharray:4.606,4.606;}
	.st24{fill:none;stroke:#477393;}
	.st25{fill:none;stroke:#477393;stroke-dasharray:5.143,5.143;}
	.st26{fill:none;stroke:#000000;}
	.st27{font-size:24px;}
	.st28{font-size:12px;}
	.st29{font-size:10px;}
	.st30{fill:none;stroke:#000000;stroke-width:0.972;stroke-dasharray:4.861,4.861;}
</style>
<title>Group 11</title>
<desc>Created with Sketch.</desc>
<g id="Page-1">
	<g id="Landing-Screen--desktop" transform="translate(-224.000000, -2238.000000)">
		<g id="Group-11" transform="translate(224.000000, 2233.000000)">
			<g>
				<text transform="matrix(1 0 0 1 702 169)" class="st0 st1 st2">Votre participation peut </text>
				<text transform="matrix(1 0 0 1 702 188)" class="st0 st1 st2">influencer les futurs </text>
				<text transform="matrix(1 0 0 1 702 207)" class="st0 st1 st2">aménagements de votre ville, et </text>
				<text transform="matrix(1 0 0 1 702 226)" class="st0 st1 st2">en l&apos;occurence la vision urbaine de </text>
				<text transform="matrix(1 0 0 1 702 245)" class="st0 st1 st2">l’Entrée Nord. Grâce à ce site web </text>
				<text transform="matrix(1 0 0 1 702 264)" class="st0 st1 st2">la concertation se déroulera </text>
				<text transform="matrix(1 0 0 1 702 283)" class="st0 st1 st2">d’août à octobre.</text>
			</g>
			<g>
				<text transform="matrix(1 0 0 1 700 536)" class="st0 st1 st2">L&apos;engagement civique est crucial. </text>
				<text transform="matrix(1 0 0 1 700 555)" class="st0 st1 st2">Vous pouvez donner votre avis sur </text>
				<text transform="matrix(1 0 0 1 700 574)" class="st0 st1 st2">l&apos;avenir de votre ville durant des </text>
				<text transform="matrix(1 0 0 1 700 593)" class="st0 st1 st2">consultations publiques ou bien </text>
				<text transform="matrix(1 0 0 1 700 612)" class="st0 st1 st2">en utilisant ce site web initié par </text>
				<text transform="matrix(1 0 0 1 700 631)" class="st0 st1 st2">la Ville de Nouméa.</text>
			</g>
			<path id="Rectangle-26" class="st3" d="M690,142.5c-1.4,0-2.5,1.1-2.5,2.5v154.2c0,1.4,1.1,2.5,2.5,2.5h10.1c0.4,0,0.7,0.1,1,0.2
				c1.8,0.6,2.9,2.5,2.3,4.4l-6.5,21c-0.3,0.9,0,2,0.7,2.6c1,0.9,2.6,0.8,3.5-0.2l23.6-26.8c0.7-0.8,1.6-1.2,2.6-1.2H950
				c1.4,0,2.5-1.1,2.5-2.5V145c0-1.4-1.1-2.5-2.5-2.5H690z"/>
			<path id="Rectangle-26-Copy" class="st3" d="M690,646.5c-1.4,0-2.5-1.1-2.5-2.5V510.1c0-1.4,1.1-2.5,2.5-2.5h6.6
				c0.5,0,1-0.1,1.4-0.3c1.8-0.8,2.6-2.8,1.8-4.6l-7.3-16.7c-0.4-0.9-0.2-1.9,0.4-2.6c0.9-1.1,2.5-1.2,3.5-0.3l28.5,23.7
				c0.6,0.5,1.4,0.8,2.2,0.8H950c1.4,0,2.5,1.1,2.5,2.5V644c0,1.4-1.1,2.5-2.5,2.5H690z"/>
			<path id="Rectangle-26-Copy-2" class="st3" d="M263,670.5c1.4,0,2.5,1.1,2.5,2.5v133.9c0,1.4-1.1,2.5-2.5,2.5h-6.6
				c-0.5,0-1,0.1-1.4,0.3c-1.8,0.8-2.6,2.8-1.8,4.6l7.3,16.7c0.4,0.9,0.2,1.9-0.4,2.6c-0.9,1.1-2.5,1.2-3.5,0.3l-28.5-23.7
				c-0.6-0.5-1.4-0.8-2.2-0.8H3c-1.4,0-2.5-1.1-2.5-2.5V673c0-1.4,1.1-2.5,2.5-2.5H263z"/>
			<path id="Stroke-175" class="st4" d="M621,951h5"/>
			<path id="Fill-311" class="st5" d="M627.2,465.5c1.8-0.2,1.8-3.4-0.5-2.9C624.9,463,625.6,465.5,627.2,465.5 M626.5,461.1
				c4.5-0.7,4.7,6.5,0.2,5.9C623,466.6,623.2,461.6,626.5,461.1"/>
			<path id="Fill-313" class="st5" d="M630,474v9h-9c0-3-0.2-6.2,0.2-9H630z"/>
			<path id="Fill-315" class="st5" d="M644,474v9h-9c0-3-0.2-6.2,0.2-9H644z"/>
			<path id="Fill-317" class="st5" d="M630,488v9h-9c0-3-0.2-6.2,0.2-9H630z"/>
			<path id="Fill-319" class="st5" d="M644,488v9h-9c0-3-0.2-6.2,0.2-9H644z"/>
			<path id="Stroke-349" class="st6" d="M631,379v57"/>
			<polygon id="Fill-351" class="st7" points="624,427.5 625.6,427 629.5,437.9 633.4,427 635,427.5 629.5,443 			"/>
			<path id="Stroke-1" class="st8" d="M499,135c16,0,29,13,29,29c0,16-13,29-29,29c-16,0-29-13-29-29C470,148,483,135,499,135z"/>
			<path id="Stroke-3" class="st8" d="M499,452c16,0,29,13,29,29c0,16-13,29-29,29c-16,0-29-13-29-29C470,465,483,452,499,452z"/>
			<path id="Stroke-5" class="st9" d="M542,482c0-24.1-19.7-43.1-44-43.1V208"/>
			<path id="Stroke-7" class="st9" d="M542,482c0,24.3-19.4,44-43.5,44c-24.1,0-43.5-19.7-43.5-44h-67"/>
			<path id="Stroke-9" class="st8" d="M499,1135c16,0,29,13,29,29c0,16-13,29-29,29c-16,0-29-13-29-29C470,1148,483,1135,499,1135z"
				/>
			<path id="Stroke-11" class="st10" d="M588,482h-44"/>
			<polyline id="Stroke-13" class="st9" points="456,163 450.7,163 385,163 			"/>
			<path id="Stroke-15" class="st8" d="M499,828c16,0,29,13,29,29c0,16-13,29-29,29c-16,0-29-13-29-29C470,841,483,828,499,828z"/>
			<path id="Stroke-17" class="st11" d="M385,857.6h71.8c0,23.2,18.9,43.4,43.1,43.4c24.2,0,43.1-19.6,43.1-43.7
				s-18.9-43.2-43.1-43.2V524"/>
			<polyline id="Stroke-19" class="st9" points="387,393 412,393 412,480.8 412,565 387,565 			"/>
			<path id="Stroke-21" class="st12" d="M500,207c-24.3,0-44-19.7-44-44"/>
			<path id="Stroke-23" class="st10" d="M498,208c24.3,0,44-19.6,44-44s-19.7-44-44-44V80"/>
			<path id="Stroke-25" class="st10" d="M498,1208c24.3,0,44-19.6,44-43.8c0-24.2-19.7-43.8-44-43.8v1.1V899"/>
			<path id="Fill-27" class="st13" d="M504,1208.4c0-8.5-14-8.5-14,0C490,1218.5,504,1218.5,504,1208.4"/>
			<path id="Fill-29" class="st13" d="M506,206.4c0-8.5-14-8.5-14,0C492,216.5,506,216.5,506,206.4"/>
			<path id="Fill-31" class="st13" d="M506,80.4c0-8.5-14-8.5-14,0C492,90.5,506,90.5,506,80.4"/>
			<path id="Fill-33" class="st13" d="M506,524.4c0-8.5-14-8.5-14,0C492,534.5,506,534.5,506,524.4"/>
			<path id="Fill-35" class="st13" d="M506,899.4c0-8.5-14-8.5-14,0C492,909.5,506,909.5,506,899.4"/>
			<path id="Fill-37" d="M331.4,1141.4c-0.3-0.5-0.7-1.1-1-1.5c0-0.2-0.3-0.2-0.3-0.2c-1.7,0.5-3,0-4.2-1.5c-0.3,0.5-0.7,1.1-1,1.5
				c0.2,0.4,0.3,0.7,0.5,0.9c0.2,0.2,0.5,0.7,0.7,0.7H331.4z M338,1139.9c-0.9-0.2-1.2,0.2-1.9,1.5h1h0.7c-0.3,1.8-0.7,3.5-1.2,5.1
				c-0.5,2,0,3.6,1.4,4.9c1.6,1.6,3.1,3.3,4.5,4.9c0.3,0.4,0.5,0.9,0.5,1.3v9.5c0,1.3-0.7,2-1.7,2c-2.1,0-2.8-2.9,0.7-7.3
				c-1.7-3.8-1-2.2-2.6-6h-1.6v0.9v10c0,1.1-0.3,1.6-1.2,1.8c-1,0.2-2.1-0.4-2.3-1.5v-0.9v-19.8c0-0.5-0.3-1.1-0.3-1.6h-1
				c-0.2,0.5-0.3,1.1-0.3,1.6v20.4c0,0.9-0.2,1.6-1,2c-1.2,0.5-2.4-0.4-2.4-1.6v-10.4v-1.1h-1.7v0.9v10.5c0,1.3-0.7,2-1.9,2
				c-1.2,0-1.6-0.7-1.6-2v-1.3v-17.6c0-1.1-0.2-2.2-0.9-3.1c-0.3-0.4-0.5-0.7-0.9-0.9v0.4v20.5c0,0.7,0,1.5-0.7,1.8
				c-0.5,0.2-1.2,0.4-1.9,0.2c-0.3-0.2-0.9-0.9-0.9-1.5v-10.7v-0.9c-0.5,0,0.5,0,0,0v0.9v10.5c0,1.3-0.7,2-1.6,2.2
				c-1,0-1.9-0.7-1.9-2.2v-21.5c0,0-0.7-1.3-1-1.8c-1.2-2-2.4-3.8-3.6-5.8c-0.3-0.5-0.5-1.1-0.5-1.8v-8.2c0-1.3,0.7-2,1.6-2
				c1,0,1.9,0.7,1.9,2v8.4c0,0.4,0.2,0.9,0.3,1.3c0.5,1.1,1.2,2,2.1,2.9c0.2,0.2,0.5,0.5,0.9,0.5h1.9v-2.4c-1.9,0-3.6-1.5-3.3-3.8
				c0.2-2.4,5-3.1,5-3.1v-2c0,0,0.3-1.8,1.2-1.8c0.9,0,0.5,1.8,0.5,1.8v7.8l1.7-2.2v-8.4c0-1.5,0.7-2.4,1.9-2.4
				c1.2,0,1.6,0.7,1.6,2.4v6.5v0.9c0.7,0,1.2,0,1.7-0.2v-4.7c0-1.1,0.5-2,1.4-2c1-0.2,1.9,0.5,2.1,2v8c0,0.9,0.2,1.6,0.9,2.4
				c0.5-0.5,0.9-1.1,0.9-1.8v-8.9c0-1.3,0.7-2,1.6-2c1,0,1.9,0.7,1.9,2v4.5h1.7v-2c0-1.1,0.7-1.8,1.6-1.8c0.9,0,1.9,0.7,1.9,1.6v6
				C340.6,1136.5,338.8,1137.5,338,1139.9L338,1139.9z"/>
			<path id="Fill-39" d="M356.1,1174.5h-5.6c-0.2,0-0.4,0.2-0.5,0.2c-1.4,1.6-2.9,3.4-4.3,5.2c1.6,1.4,3.3,2.9,4.7,4.3
				c1.1,1.1,1.3,2.2,0.7,3.2c-0.7,1.4-2.7,2-4,0.9c-2.4-2-4.5-4.1-7.1-6.5c-1.3-1.1-1.3-2.5-0.2-3.8c2.7-3.4,5.4-6.8,8.3-10.3
				c0.2-0.4,0.4-0.7,0.4-1.1v-7.9c0-0.4-0.2-0.9-0.5-1.1c-2.5-2.7-5.2-5.6-8-8.5c-0.9-0.9-1.3-2-0.9-3.4c0.5-2,0.9-3.8,1.4-5.8
				c0.4-1.6,1.8-2.5,3.3-2.2c1.4,0.4,2.4,1.8,2,3.2c-0.4,1.4-0.7,2.9-1.1,4.3c0,0.4,0,0.9,0.2,1.1c1.1,1.3,2.4,2.5,3.6,3.8
				c0.2,0.2,0.7,0.4,0.9,0.4h9.8c0,0,0.7-0.5,0.9-0.9c1.3-1.8,2.4-3.4,3.4-5.2c0.2-0.4,0.4-0.7,1.1-1.3v-16.7
				c-0.7-1.3,0-2.2,1.3-2.5c1.3-0.4,2.5,0.2,3.1,1.4c0.2,0.4-0.7,1.3-0.7,1.3v18.5c0,0.7-0.4,1.4-0.7,2c-2.2,3.2-4.2,6.3-6.1,9.5
				c-0.4,0.4-0.4,1.1-0.4,1.4v33.9c0,2-1.6,3.2-3.6,2.7c-1.1-0.4-1.8-1.4-1.8-2.9v-16.6C356.1,1175.4,356.1,1175.1,356.1,1174.5"/>
			<path id="Fill-41" d="M374.7,1142.2c1.6,0,3.2-0.2,4.6,0c1.1,0.2,1.4-0.5,1.8-1.2c0.4-0.7-0.4-0.9-0.5-1.2c0-0.2-0.2-0.4-0.4-0.5
				c-1.1,1.4-2.5,2-4.3,1.4c-0.2,0-0.4,0-0.5,0.2C375.2,1141.1,375,1141.7,374.7,1142.2 M387.9,1154.9h-1.6v1.1v10v0.9
				c-0.2,0.9-0.9,1.4-2,1.4c-1.1,0-1.6-0.7-1.6-1.4v-2.7v-19.1v-0.9c-0.7,1.1-1.8,2-1.8,3.6v20.5c0,0,0.4,1.4-0.2,1.6
				c-0.5,0.2-1.3,0.2-1.6,0c-0.7-0.2-0.9-0.9-1.8-1.6v-10.3v-1.2v1.1v10.3c-0.7,0.9-0.9,1.6-1.8,1.8c-1.1,0.4-3.6-1.6-3.6-1.6v-5.2
				v-15.9c1.3-0.4,1.3-0.9,1.1-1.1c-0.5-0.5-1.1-2-1.1-2v-3.2c0,0,0.5-1.8,1.3-2.5c0.2-0.2,0.5-1.1,0.5-1.1v-8.2
				c0-1.2,0.7-2.3,2-2.3c1.2,0,1.6,0.9,1.6,2.3v4.3c0.7,0,1.3,0.2,1.8,0.2v-5.9v-2.1c0-1.1,0.7-1.6,2-1.6c0.9,0,1.6,0.7,1.6,2v8.2
				l1.8,2.3v-0.9v-6.4c-1.3-1.2-0.5-2,0.5-2c1.1,0,1.3,2,1.3,2v1.8c0,0,3.2-0.2,4.3,1.1c0.7,0.7,0.9,1.6,0.9,2.7
				c-0.2,2.1-1.8,3.2-3.4,3.2v0.9h2.3c0.2,0,0.5-0.2,0.5-0.4c0.7-1.1,1.4-2.1,2.3-3.2c0.4-0.5,0-1.2,0.2-1.8v-7
				c-0.2-1.2,0.4-2.1,1.4-2.5c1.1-0.2,2.1,0.5,2.1,1.6v10c0,0.4-0.2,0.9-0.5,1.4c-1.4,2.1-2.9,4.3-4.3,6.2c-0.4,0.4-0.5,1.1-0.5,1.6
				v21.6c0,1.1-0.5,1.8-1.6,2c-1.1,0-1.8-0.7-2-2v-10.3C387.9,1155.6,387.9,1155.2,387.9,1154.9"/>
			<path id="Fill-43" d="M348,1143.3c0-3.4,2.9-6.3,6.5-6.3s6.5,2.9,6.5,6.5c0,3.4-2.9,6.5-6.5,6.5
				C350.9,1149.8,348,1146.9,348,1143.3"/>
			<path id="Fill-45" d="M366,1156.5v4.1v7.4c0,1.3-0.8,1.8-2,1.8v-1.3v-9.2c0-0.4,0.2-0.9,0.4-1.1c2.4-3.2,5-6.7,7.2-9.9
				c0,0,0.2-0.2,0.4-0.4v0.7v19.3c0,1.1-0.6,1.8-1.6,2c-0.8,0.2-1.8-0.2-2.2-1.1c-0.2-0.4-0.2-0.7-0.2-1.1v-10.3v-1.1
				C367.4,1156.5,366.8,1156.5,366,1156.5"/>
			<path id="Fill-47" d="M348,1130.2c0.4,0,0.5-0.2,0.9-0.2c1.1-0.2,1.8,0.5,2.1,1.4v0.3c0,1.4-0.2,2.5-1.8,3.2
				c-0.9,0.3-1.6,1.4-2.3,2c-0.5-0.3-1.2-0.7-1.8-1.2c-0.2-0.2-0.4-0.3,0.5-0.5v-7.6c-0.9-1-0.2-1.7,0.9-1.7c0.9,0,1.6,0.7,1.6,1.7
				C348,1128.7,348,1129.6,348,1130.2"/>
			<path id="Fill-49" d="M356.5,1129.7c0.3-1.2,1-1.7,1.9-1.7c0.9,0.2,1.4,0.7,1.6,1.4v7.6c-1.7-1.7-3.7-2.7-5.9-2.7
				c0-1.2-0.2-2.5,0-3.7C354.1,1129.7,355.1,1129.4,356.5,1129.7"/>
			<path id="Fill-51" d="M320.4,1109c0.2,0.2,0.7,0.3,0.9,0.7c0.2,0.3,0,0.9-0.3,1.2c-0.5,0.7-0.7,1.4-0.3,2.1
				c0.5,0.9,1.2,1.7,1.9,2.6c0.5,0.7,1,1.2,1.2,1.9c0.7,1.4,0.3,2.6-0.3,3.8c-0.3,0.7-1.2,0.9-1.7,0.3c-0.7-0.5-0.7-1-0.2-1.6
				c0.5-0.9,0.3-1.7-0.2-2.4c-0.7-0.9-1.4-1.7-2.1-2.6c-1-1.2-1.4-2.6-1-4C318.5,1110.2,319.3,1109.2,320.4,1109"/>
			<path id="Fill-53" d="M387,1111.5c-0.2,0.2-0.3,0.5-0.6,0.7c-1.4,0.5-1.8,1.3-1.6,2.9c0.2,1.1,0.3,2.4,0.3,3.4
				c0.2,1.8-0.8,3.6-2.2,4.3c-0.5,0.2-1,0.2-1.4-0.2c-0.6-0.5-0.5-1.4,0.2-1.8c1-0.5,1.4-1.4,1.3-2.5c0-1.3-0.3-2.4-0.3-3.6
				c-0.2-2.2,1.1-4.3,2.9-4.7C386.4,1109.9,387,1110.4,387,1111.5"/>
			<path id="Fill-55" d="M344.5,1107c1.8,0,3.3,1.4,3.8,3.4c0.2,0.9,0.3,1.8,0.5,2.7c0.3,1.4,0.8,2.5,2.3,2.7c0.7,0,0.8,0.5,0.8,1.2
				c-0.2,0.7-0.7,1.1-1.3,1.1c-1.5,0-3-1.2-3.5-2.8c-0.3-1.1-0.5-2.1-0.7-3c-0.2-0.7-0.5-1.4-0.7-2c-0.3-0.7-0.8-0.9-1.5-0.9
				c-0.8,0-1.3-0.2-1.3-0.9c-0.2-0.7,0.3-1.2,1-1.4H344.5z"/>
			<path id="Fill-57" d="M340,1119.9c-0.2-1.1-0.2-2-0.4-3.1c-0.2-0.7-0.7-1.3-1.5-1.3c-0.7,0-1.3-0.4-1.1-1.3
				c0-0.7,0.7-1.3,1.7-1.1c2,0.2,3.7,2,3.7,4.2v3c0,1.5,0.2,3,2,3.5c0.6,0.2,0.7,0.7,0.6,1.3c-0.2,0.7-0.9,1.1-1.7,0.9
				c-1.7-0.4-2.8-1.7-3.1-3.3C340,1121.7,340,1121,340,1119.9C339.8,1119.9,340,1119.9,340,1119.9"/>
			<path id="Fill-59" d="M369.9,1111.8c0,1.4-0.6,2.5-1.7,3.4c-0.8,0.7-1.7,1.4-2.5,2.1c-0.8,0.7-1.3,1.8-0.8,2.9
				c0.4,0.7,0.2,1.3-0.4,1.6c-0.8,0.4-1.5,0.2-1.9-0.5c-1-1.4-0.6-3.6,0.8-4.8c0.8-0.7,1.7-1.4,2.7-2.3c0.4-0.4,0.8-0.9,1.2-1.4
				c0.4-0.7,0.2-1.3-0.2-1.8c-0.6-0.5-0.6-1.1,0-1.6c0.6-0.5,1.5-0.4,1.9,0.2C369.5,1110.2,369.7,1111.1,369.9,1111.8
				C370,1111.8,370,1111.8,369.9,1111.8"/>
			<path id="Fill-61" d="M345,1168v-9c0.9,0.7,1.8,1.1,1.6,2.1c-0.2,1.3-0.2,2.8,0,4.1C346.8,1166.5,346.4,1167.3,345,1168"/>
			<path id="Fill-63" d="M392,1118.6c0-1,0.7-1.6,1.5-1.6c0.8,0,1.5,0.6,1.5,1.5c0,0.8-0.7,1.5-1.5,1.5
				C392.7,1120.2,392,1119.6,392,1118.6"/>
			<path id="Fill-65" d="M355.5,1118c0.8,0,1.5,0.6,1.5,1.4c0,0.9-0.7,1.6-1.5,1.6s-1.5-0.6-1.5-1.6
				C354,1118.6,354.7,1118,355.5,1118"/>
			<path id="Fill-67" d="M373,1114.4c0-0.8,0.7-1.4,1.5-1.4c0.8,0,1.5,0.6,1.5,1.6c0,0.9-0.7,1.4-1.7,1.4
				C373.5,1115.8,373,1115.2,373,1114.4"/>
			<path id="Fill-69" d="M358.5,1113c-0.8,0-1.5-0.5-1.5-1.4c0-0.9,0.7-1.6,1.5-1.6s1.5,0.6,1.5,1.4
				C360,1112.4,359.3,1113,358.5,1113"/>
			<path id="Fill-71" d="M330.5,1120c0.8,0,1.5,0.6,1.5,1.4c0,0.8-0.7,1.6-1.5,1.6s-1.5-0.6-1.5-1.4
				C329,1120.6,329.7,1120,330.5,1120"/>
			<path id="Fill-73" d="M316,1119.4c0,0.9-0.7,1.6-1.5,1.6s-1.5-0.6-1.5-1.4c0-0.8,0.7-1.6,1.5-1.6S316,1118.5,316,1119.4"/>
			<path id="Fill-75" class="st14" d="M332,1142h-4.9c-0.2,0-0.5-0.4-0.6-0.7c-0.2-0.2-0.3-0.5-0.5-0.9c0.3-0.5,0.6-0.9,1-1.4
				c1,1.4,2.3,1.9,3.9,1.4c0.2,0,0.3,0,0.3,0.2C331.4,1140.9,331.7,1141.3,332,1142"/>
			<path id="Fill-77" class="st14" d="M373,1143c0.3-0.5,0.6-1.1,0.8-1.4c0.2-0.2,0.3-0.2,0.5-0.2c1.6,0.5,2.7,0,3.8-1.4
				c0.2,0.2,0.3,0.3,0.3,0.5c0.2,0.4,0.8,0.7,0.5,1.2c-0.3,0.7-0.6,1.4-1.6,1.2C375.7,1142.8,374.4,1143,373,1143"/>
			<path id="Stroke-79" class="st15" d="M629.5,442c21.8,0,39.5,17.7,39.5,39.5S651.3,521,629.5,521c-21.8,0-39.5-17.7-39.5-39.5
				S607.7,442,629.5,442z"/>
			<path id="Stroke-81" class="st15" d="M350.5,442c21.8,0,39.5,17.7,39.5,39.5S372.3,521,350.5,521S311,503.3,311,481.5
				S328.7,442,350.5,442z"/>
			<path id="Stroke-83" class="st15" d="M350.5,357c21.8,0,39.5,17.7,39.5,39.5c0,21.8-17.7,39.5-39.5,39.5S311,418.3,311,396.5
				C311,374.7,328.7,357,350.5,357z"/>
			<path id="Stroke-85" class="st15" d="M345.5,124c21.8,0,39.5,17.7,39.5,39.5c0,21.8-17.7,39.5-39.5,39.5S306,185.3,306,163.5
				C306,141.7,323.7,124,345.5,124z"/>
			<path id="Stroke-87" class="st15" d="M348.5,527c21.8,0,39.5,17.7,39.5,39.5S370.3,606,348.5,606S309,588.3,309,566.5
				S326.7,527,348.5,527z"/>
			<path id="Stroke-89" class="st15" d="M348.5,817c21.8,0,39.5,17.7,39.5,39.5c0,21.8-17.7,39.5-39.5,39.5S309,878.3,309,856.5
				C309,834.7,326.7,817,348.5,817z"/>
			<text transform="matrix(1 0 0 1 487 178)" class="st16 st17 st18">1</text>
			<text transform="matrix(1 0 0 1 487 495)" class="st16 st17 st18">2</text>
			<text transform="matrix(1 0 0 1 486 1178)" class="st16 st17 st18">4</text>
			<text transform="matrix(1 0 0 1 488 871)" class="st16 st17 st18">3</text>
			<path id="Stroke-165" class="st19" d="M296.6,565h-7.2H286c-7.5,0-10,5.7-10,12.7v1.6v11.1v19c0,7,2.7,12.7,10,12.7h6.8H478"/>
			<path id="Stroke-167" class="st4" d="M481,620h5"/>
			<polygon id="Fill-169" class="st7" points="475.5,627 475,625.4 485.9,621.5 475,617.6 475.5,616 491,621.5 			"/>
			<path id="Stroke-171" class="st20" d="M311,863h-5"/>
			<path id="Stroke-173" class="st21" d="M296.6,855h-7.3l-3.4,0.2c-7.5,0-10,9.7-10,21.7v2.7v19v32.7c0,12,2.7,21.7,10,21.7h6.8
				H613"/>
			<polygon id="Fill-177" class="st7" points="612.5,957 612,955.4 622.9,951.5 612,947.6 612.5,946 628,951.5 			"/>
			<path id="Stroke-181" class="st22" d="M296,488h-7h-3.3c-7.3,0-9.7,6.3-9.7,14.1v1.8v12.3V571"/>
			<path id="Stroke-183" class="st20" d="M276,576v5"/>
			<polygon id="Fill-185" class="st7" points="272,570.5 273.6,570 277.5,580.9 281.4,570 283,570.5 277.5,586 			"/>
			<path id="Stroke-189" class="st23" d="M296,403h-7.3h-3.2c-7.1,0-9.5,6.3-9.5,14.1v1.8v12.3V480"/>
			<path id="Stroke-191" class="st20" d="M276,485v5"/>
			<polygon id="Fill-193" class="st7" points="272,478.5 273.6,478 277.5,488.9 281.4,478 283,478.5 277.5,494 			"/>
			<path id="Stroke-195" class="st24" d="M346,217v5"/>
			<path id="Stroke-197" class="st25" d="M346,222v13.9c0,7.7,6.4,14.1,14.3,14.1H485"/>
			<path id="Stroke-199" class="st26" d="M487,250h5"/>
			<polygon id="Fill-201" class="st7" points="481.7,256 481,254.3 491.9,250.5 481,246.7 481.7,245 497,250.5 			"/>
			<path id="Fill-203" class="st5" d="M346.7,126c0,1.1-0.3,2.8,0.5,3.2c0.2,0,0.3,0,0.5,0c1.2,0,0.5-1.9,0.7-3.2
				c0.9,0,1.4,0.4,2.1,0.6c0,0.9,0,1.9,0.2,2.6c1,0.2,1.6-0.4,1.4-1.5c1.9,1.7,3.5,3.6,3.7,7c0.9,0.4,1.6,1.1,1.1,2.3
				c-6.3,0-12.4,0.1-18.6,0.1c-0.4-0.9-0.4-2.3,1-2.1c0-3.8,1.7-5.5,3.3-7.4c0.5,0.6,0.2,1.9,1.4,1.5c0.7-0.4,0.5-1.7,0.5-2.6
				C345.3,126.4,345.8,126,346.7,126"/>
			<path id="Fill-205" class="st5" d="M355.9,138.2c2.1,12.4-20.1,11.1-16.5-0.1C344.7,138.3,350.9,137.7,355.9,138.2"/>
			<path id="Fill-207" class="st5" d="M346.2,154.7c1.3,0.9,3.1,0.9,4.4,0c-0.2-1.1-0.4-2.2-0.7-3.1
				C346.9,150.9,346.2,152.5,346.2,154.7 M370,156.6c-2.4,0.2-4.4,1.9-6.4,1.5c-2-0.2-2.9-2.4-4.8-2.7c-0.5,0.9,0,2.8-0.2,4.1
				c-2.9,0.2-5.1,1.3-8,1.5c0-1.7-0.6-2.8-0.6-4.6c-0.4-0.4-2.6,0.4-3.3-0.2c0.2,1.8-0.5,3.1-0.5,4.8c-2.9-0.2-5.1-1.3-8-1.4
				c0-1.3,0-2.8,0-4.1c-1.8,0.6-3.1,2-4.7,2.8c-2.2-0.4-4.4-0.7-6.4-1.4c-0.4-0.6,1.1-2,2-2.8c2.5-2.2,8.5-6.9,13.9-6
				c2.9,0.5,7,3.3,10.6-0.1C361.5,148,366.7,152.6,370,156.6"/>
			<path id="Fill-209" class="st5" d="M325,159.3c7.2,1.4,14.1,3.2,21.4,4.6c0.4,2.5-0.7,6.6,0.6,8.4c1.2-0.4,0.7-2.4,0.7-3.8
				c0-1.5,0-3.3,0-4.6c7-1.7,13.9-3.4,21.3-4.9c0,6.4,0.1,12.8,0.1,19.1c-3.7,0.8-7.2,1.5-10.9,2.3c-3.5,0.8-7.2,2.6-10.7,2.6
				c-3.5,0-7.8-1.4-11.3-2.1c-3.5-0.9-7.1-2-10.8-2.5C325.1,172,325,165.6,325,159.3"/>
			<path id="Fill-211" class="st5" d="M322.8,160c0.5,4.3,0,9.4,0.2,14C317.3,172.8,321.2,162.8,322.8,160"/>
			<path id="Fill-213" class="st5" d="M338.3,189c-0.3,0-0.3,0.3-0.2,0.8c0,0.8,0,1.4,0,2.2l8.9,0c0-0.5,0-0.8,0-1.3
				C344.2,190.1,341.2,189.5,338.3,189"/>
			<path id="Fill-215" class="st5" d="M349,182.9c0,0.3,0,0.8,0,1.1l9,0c0-1.1-0.2-2-0.4-3C354.7,181.5,351.7,182,349,182.9"/>
			<path id="Fill-217" class="st5" d="M351.9,468c4,0.2,8.1-2.3,8.1-7.8c0-2.5-1.1-4.7-2.6-6.3c-1.6-1.6-3.9-2.2-6.3-1.8
				c-1.9,0.2-3.7,1.1-4.9,2.3c-1.2,1.3-2.1,3.1-2.1,5.2C343.8,464.9,347.9,467.8,351.9,468"/>
			<path id="Fill-219" class="st5" d="M369.4,465.8c-1.4,0-3-0.7-4.1-1.8c-1.1-1.1-1.8-2.5-1.4-3.9c0.5-1.8,2.9-1.2,4.5,0.2
				C370,461.9,371,464.2,369.4,465.8 M363.7,464.7c-1.1-1.4-1.6-3.2-0.5-4.6c-0.2,1.4,0.2,2.8,1.1,4.1c0.9,1.2,2.1,1.9,3.9,1.9
				C366.6,466.8,364.8,466.1,363.7,464.7 M365.2,458h-1.8c-0.7,0-1.2,0.2-1.2,0.2c-2.1,2.1-5.2,4.9-8.4,7.9c-3,3-6.4,6-9.1,8.5
				c-1.8,1.6-3.6,2.8-4.6,4.4c-1.1,1.4-1.4,3.2-0.5,6c3.4-1.9,6.8-4.4,10.2-6.7c3.4-2.3,6.9-4.8,10.3-7.1c1.4-0.9,3.2-2.3,5-3.4
				c1.8-0.9,3.6-1.2,5.5-0.2c0.9-2.5,0.5-4.8-0.7-6.5C368.7,459.4,366.8,458.2,365.2,458"/>
			<path id="Fill-221" class="st5" d="M339.5,484.9c0.5-1.8,1.6-3.2,2.9-4.3v1.8v1.8c1.5-1.1,3.3-2.7,4.9-4.3
				c1.8-1.6,3.4-3.2,5.1-4.7c0.5-0.5,1.3-1.1,1.8-1.6c0.5-0.5,0.9-1.1,0.7-1.4c-2.2,0.4-4.2,0.2-6,0c-1.8-0.2-3.4-0.2-5.3,0.4
				c-2.9,0.9-5.4,3.2-7.4,6.1c-1.8,3.1-3.1,6.7-3.3,10.3c0,2.9,0.4,5.6,1.1,8.1c0.7,2.5,1.8,4.7,2.9,6.8c4.2,0.7,4.7-0.9,4.4-3.2
				c-0.5-2.5-2-5.8-2.4-8.7C338.6,489,339,486.7,339.5,484.9"/>
			<path id="Fill-223" class="st5" d="M366.4,468.7c0.4,0.2,0.4,0.4,0.2,0.5c-0.2,0.4-0.4,0.7-0.4,1.1c0,1.3,0.4,2.4,1.1,3.5
				c0.7,1.1,1.8,1.8,2.8,2.2c-1.6,0.4-3.2-0.7-3.9-2.4C365.5,471.9,365.1,469.9,366.4,468.7 M369.2,468.3c1.1,0.2,2.3,1.3,2.8,2.7
				c0.5,1.5,0.7,3.3-0.2,4.6c-2.1,0.5-3.9-1.3-4.4-3.3C366.7,470.1,367.1,468.1,369.2,468.3 M361.8,484.5c1.4-0.9,3.7-2,6.2-3.3
				c2.5-1.3,4.6-2.7,5.3-4c1.4-2,0.5-5.1-1.2-7.3c-1.8-2.2-4.3-3.7-6.2-2.6c-2.3,1.5-4.6,2.9-6.8,4.4c-2.1,1.5-4.3,3.1-6.4,4.8
				c-2.1,1.6-4.4,3.1-6.6,4.6c-2.1,1.5-4.3,3.1-6.4,4.9c0.9,1.8,1.8,4.6,1.6,6.8c0,2.2-1.1,3.8-3.9,3.3c-1.4-0.2-2.1-0.9-2.7-2
				c-0.5-1.1-0.9-2.6-1.2-3.8c-1.1,0.4-2,0.9-2.8,1.6c-0.9,0.7-1.8,1.6-2.8,2.6c-0.9,0.5-2.1,1.1-3.2,1.8c-1.1,0.7-2.1,1.5-2.5,2.4
				c-0.4,1.5,0,3.1,0.9,4.4c0.9,1.3,2.1,2,3.4,2c0.5,0,1.1-0.2,1.8-0.5l0.2-0.2v-5.1V494c0,0,0.5-0.5,1.6-0.9
				c0.9-0.4,2.3-0.4,3.7,0.9c1.1,1.1,1.4,2,1.2,2.7c0,0.7-0.4,1.1-0.4,1.1h2.5h1.2c2.8-1.8,5.9-3.5,8.7-5.1
				C352,490.2,356.8,487.3,361.8,484.5"/>
			<path id="Fill-225" class="st5" d="M330.9,494c-1.1,1.8-2.7,2.9-4.2,4.3c-1.4,1.3-2.9,2.6-3.7,4.7c1.3-0.7,2.9-1.6,4.5-2.8
				c1.6-1.1,3.2-2.3,4.5-3.4c-0.3-0.3-0.3-1-0.3-1.6C331.4,494.7,331.2,494.2,330.9,494"/>
			<path id="Fill-227" class="st5" d="M361,486.2C361,486,361,486,361,486.2c0-0.2-0.2-0.2-0.2-0.2c-3.1,2.3-6.3,4.1-9.4,6
				c-3.1,1.9-6.4,3.8-9.4,5.8v1.1h8.7v-1.5c0-0.4-0.2-1.3-0.2-2.1c0-0.8,0.2-1.3,1-1.3c0.5,0.2,0.9,0.9,0.9,1.5
				c0,0.8-0.2,1.5-0.2,2.1v1.3h0.7h8V486.2z"/>
			<path id="Fill-229" class="st5" d="M349.7,359c0,1.1-0.3,2.8,0.5,3.2h0.5c1.2,0,0.5-1.9,0.7-3.2c0.9,0,1.4,0.4,2.1,0.6
				c0,0.9,0,1.9,0.2,2.7c1,0.2,1.6-0.4,1.4-1.5c1.9,1.7,3.5,3.6,3.7,7c0.9,0.4,1.6,1.1,1,2.3h-18.6c-0.3-0.9-0.3-2.3,1-2.1
				c0-3.8,1.7-5.5,3.3-7.4c0.5,0.6,0.2,1.9,1.4,1.5c0.7-0.4,0.5-1.7,0.5-2.7C348.3,359.4,348.9,359,349.7,359"/>
			<path id="Fill-231" class="st5" d="M358.9,371.2c2,12.4-20.1,11-16.5-0.2C347.7,371.2,353.9,370.7,358.9,371.2"/>
			<path id="Fill-233" class="st5" d="M349.2,387.7c1.3,0.9,3.1,0.9,4.4,0c-0.2-1.1-0.4-2.2-0.7-3.1
				C350,383.9,349.2,385.5,349.2,387.7 M373,389.8c-2.4,0.2-4.4,1.8-6.4,1.5c-2-0.2-2.9-2.4-4.8-2.8c-0.5,0.9,0,2.8-0.2,4
				c-2.9,0.2-5.1,1.3-8,1.5c0-1.7-0.5-2.8-0.5-4.6c-0.4-0.4-2.6,0.4-3.3-0.2c0.2,1.8-0.5,3.1-0.5,4.8c-2.9-0.2-5.1-1.3-8-1.5v-4
				c-1.8,0.6-3.1,2-4.8,2.8c-2.2-0.4-4.4-0.7-6.4-1.5c-0.4-0.6,1.1-2,2-2.8c2.6-2.2,8.6-6.8,13.9-5.9c2.9,0.6,6.9,3.3,10.6,0
				C364.6,381.1,369.7,385.7,373,389.8"/>
			<path id="Fill-235" class="st5" d="M330,390c7.2,1.5,14.1,3.3,21.4,4.8c0.4,2.6-0.7,6.6,0.5,8.4c1.2-0.4,0.7-2.4,0.7-3.8v-4.6
				c7.1-1.6,14-3.3,21.4-4.8v19.2c-3.7,0.7-7.2,1.5-11,2.2c-3.5,0.7-7.2,2.6-10.8,2.6c-3.5,0-7.8-1.5-11.3-2.2
				c-3.5-0.9-7.1-2-10.8-2.6C330,402.8,330,396.4,330,390"/>
			<path id="Fill-237" class="st5" d="M327.8,397c0.5,4.3,0,9.4,0.2,14C322.3,409.8,326.2,399.8,327.8,397"/>
			<path id="Fill-239" class="st5" d="M341.3,419c-0.3,0-0.3,0.3-0.2,0.8v2.2h8.9v-1.3C347.2,420.1,344.2,419.5,341.3,419"/>
			<path id="Fill-241" class="st5" d="M352,413.9v1.1h9c0-1.1-0.2-2.1-0.4-3C357.8,412.5,354.7,412.9,352,413.9"/>
			<path id="Fill-243" class="st5" d="M332.1,411.1c1.2-0.4,1.9,0.4,1.9,1.5c-0.1,1.9-3.6,2.1-2.9-0.6
				C331.1,411.8,331.5,411.3,332.1,411.1"/>
			<path id="Fill-245" class="st5" d="M369.1,411.1c1.1-0.3,1.7,0.3,1.8,0.9c0.6,2.5-2.9,2.8-2.9,0.6
				C368,411.7,368.4,411.2,369.1,411.1"/>
			<path id="Fill-247" class="st5" d="M365.8,428.5c0.4-0.5,0-2.2-0.2-3.3c-0.5-2.4-0.9-4.5-1.4-6.7c-0.2-1.2,0-2.6-0.9-3.3
				c-7.5-0.3-17.4-0.3-24.7,0c-0.7,0.9-1.1,3.9-1.4,6.3c-0.2,1.2-0.5,2.1-0.7,3.3c-0.2,1-0.7,2.9-0.4,3.4c0.7,1.4,3.6,0.2,5.6,0.5
				c-0.4-1.5-0.7-3.6-0.4-5.5c1.3-0.7,4.3-0.9,5.4,0.2c0.4,1.7,0,3.9-0.4,5.3h9.3c-0.4-1.4-1.1-3.6-0.4-5.5c1.3-0.7,4.5-0.9,5.4,0.2
				c0.5,2.1-0.2,3.9-0.5,5.1C362.3,428.5,365,429.7,365.8,428.5"/>
			<path id="Fill-249" class="st5" d="M334.1,424c-5.4,0.3-3.8-4.5-4-7.8c0.7-1.3,3.4-1.5,4.3-0.5
				C335.9,417.6,334.3,422.1,334.1,424"/>
			<path id="Fill-251" class="st5" d="M368.5,424c-0.4-2.2-1.1-8.6,0.8-9c1-0.2,1.3,0.5,1.7,1.2C370.7,419.5,371.7,424.3,368.5,424"
				/>
			<path id="Fill-253" class="st14" d="M327.9,394.9c0.9,4-4.7,4-4.9,0.7C323,392.6,327.3,392,327.9,394.9"/>
			<path id="Fill-255" class="st14" d="M327.9,409.8c1.1,4.4-5.1,4-4.9,0.2C323.2,407.8,327.2,406.9,327.9,409.8"/>
			<path id="Fill-257" class="st5" d="M329.1,179.1c1.2-0.4,1.9,0.4,1.9,1.5c-0.1,1.9-3.6,2.1-2.9-0.6
				C328.1,179.8,328.5,179.3,329.1,179.1"/>
			<path id="Fill-259" class="st5" d="M365.1,179.1c1.1-0.3,1.7,0.3,1.8,0.9c0.6,2.5-2.9,2.8-2.9,0.6
				C364,179.7,364.4,179.2,365.1,179.1"/>
			<path id="Fill-261" class="st5" d="M362.8,197.5c0.4-0.5,0-2.2-0.2-3.3c-0.5-2.4-0.9-4.5-1.4-6.7c-0.2-1.2,0-2.6-0.9-3.3
				c-7.5-0.3-17.4-0.3-24.7,0c-0.7,0.9-1.1,3.9-1.4,6.3c-0.2,1.2-0.5,2.1-0.7,3.3c-0.2,1-0.7,2.9-0.4,3.4c0.7,1.4,3.6,0.2,5.6,0.5
				c-0.4-1.5-0.7-3.6-0.4-5.5c1.3-0.7,4.3-0.9,5.4,0.2c0.4,1.7,0,3.9-0.4,5.3h9.3c-0.4-1.4-1.1-3.6-0.4-5.5c1.3-0.7,4.5-0.9,5.4,0.2
				c0.5,2.1-0.2,3.9-0.5,5.1C359.3,197.5,362,198.7,362.8,197.5"/>
			<path id="Fill-263" class="st5" d="M331.1,193c-5.4,0.3-3.8-4.5-4-7.8c0.7-1.3,3.4-1.5,4.3-0.5
				C332.9,186.6,331.3,191.1,331.1,193"/>
			<path id="Fill-265" class="st5" d="M364.5,193c-0.4-2.2-1.1-8.6,0.8-9c1-0.2,1.3,0.5,1.7,1.2C366.7,188.5,367.7,193.3,364.5,193"
				/>
			<path id="Fill-267" class="st14" d="M340.9,195.1c4-0.9,4,4.7,0.7,4.9C338.6,200,338,195.7,340.9,195.1"/>
			<path id="Fill-269" class="st14" d="M353.8,195.1c4.4-1.1,4,5.1,0.2,4.9C351.8,199.8,350.9,195.8,353.8,195.1"/>
			<path id="Fill-271" class="st5" d="M328.1,584.1c1.2-0.4,1.9,0.4,1.9,1.5c-0.1,1.9-3.6,2.1-2.9-0.6
				C327.1,584.7,327.5,584.3,328.1,584.1"/>
			<path id="Fill-273" class="st5" d="M362.1,582.1c1.1-0.3,1.7,0.3,1.8,0.9c0.6,2.5-2.9,2.8-2.9,0.6
				C361,582.7,361.4,582.2,362.1,582.1"/>
			<path id="Fill-275" class="st5" d="M360.8,599.5c0.4-0.5,0-2.2-0.2-3.3c-0.5-2.4-0.9-4.5-1.4-6.7c-0.2-1.2,0-2.6-0.9-3.3
				c-7.5-0.3-17.4-0.3-24.7,0c-0.7,0.9-1.1,3.9-1.4,6.3c-0.2,1.2-0.5,2.1-0.7,3.3c-0.2,1-0.7,2.9-0.4,3.4c0.7,1.4,3.6,0.2,5.6,0.5
				c-0.4-1.5-0.7-3.6-0.4-5.5c1.3-0.7,4.3-0.9,5.4,0.2c0.4,1.7,0,3.9-0.4,5.3h9.3c-0.4-1.4-1.1-3.6-0.4-5.5c1.3-0.7,4.5-0.9,5.4,0.2
				c0.5,2.1-0.2,3.9-0.5,5.1C357.3,599.5,360,600.7,360.8,599.5"/>
			<path id="Fill-277" class="st5" d="M331.1,598c-5.4,0.3-3.8-4.5-4-7.8c0.7-1.3,3.4-1.5,4.3-0.5
				C332.9,591.5,331.3,596.1,331.1,598"/>
			<path id="Fill-279" class="st5" d="M363.5,596c-0.4-2.2-1.1-8.6,0.8-9c1-0.2,1.3,0.5,1.7,1.2C365.7,591.5,366.7,596.3,363.5,596"
				/>
			<path id="Fill-281" class="st14" d="M337.9,597.1c4-0.9,4,4.7,0.7,4.9C335.6,602,335,597.7,337.9,597.1"/>
			<path id="Fill-283" class="st14" d="M351.8,597.1c4.4-1.1,4,5.1,0.2,4.9C349.8,601.6,348.9,597.8,351.8,597.1"/>
			<path id="Fill-285" class="st5" d="M332.1,499.1c1.2-0.4,1.9,0.4,1.9,1.5c-0.1,1.9-3.6,2.1-2.9-0.6
				C331.1,499.8,331.5,499.3,332.1,499.1"/>
			<path id="Fill-287" class="st5" d="M367.1,494.1c1.1-0.3,1.7,0.3,1.8,0.9c0.6,2.5-2.9,2.8-2.9,0.6
				C366,494.7,366.4,494.2,367.1,494.1"/>
			<path id="Fill-289" class="st5" d="M364.8,512.5c0.4-0.5,0-2.2-0.2-3.3c-0.5-2.4-0.9-4.5-1.4-6.7c-0.2-1.2,0-2.6-0.9-3.3
				c-7.5-0.3-17.4-0.3-24.7,0c-0.7,0.9-1.1,3.9-1.4,6.3c-0.2,1.2-0.5,2.1-0.7,3.3c-0.2,1-0.7,2.9-0.4,3.4c0.7,1.4,3.6,0.2,5.6,0.5
				c-0.4-1.5-0.7-3.6-0.4-5.5c1.3-0.7,4.3-0.9,5.4,0.2c0.4,1.7,0,3.9-0.4,5.3h9.3c-0.4-1.4-1.1-3.6-0.4-5.5c1.3-0.7,4.5-0.9,5.4,0.2
				c0.5,2.1-0.2,3.9-0.5,5.1C361.3,512.5,364,513.7,364.8,512.5"/>
			<path id="Fill-291" class="st5" d="M334.1,513c-5.4,0.3-3.8-4.5-4-7.8c0.7-1.3,3.4-1.5,4.3-0.5
				C335.9,506.6,334.3,511.1,334.1,513"/>
			<path id="Fill-293" class="st5" d="M366.5,508c-0.4-2.2-1.1-8.6,0.8-9c1-0.2,1.3,0.5,1.7,1.2C368.7,503.5,369.7,508.3,366.5,508"
				/>
			<path id="Fill-295" class="st14" d="M342.9,510.1c4-0.9,4,4.7,0.7,4.9C340.6,515,340,510.7,342.9,510.1"/>
			<path id="Fill-297" class="st14" d="M356.8,502.1c4.4-1.1,4,5.1,0.2,4.9C354.8,506.8,353.9,502.8,356.8,502.1"/>
			<path id="Fill-299" class="st5" d="M352.3,541.2c-1.6-5-9.9-6.1-14-2.4c-0.9,0.7-1.2,2-2.3,2.4c1.1-2,2.7-3.7,3.7-5.7
				c-2.1,0-4.6,0.2-6.9,0c-0.5,0-1.8,0.4-1.8-0.5c0-1.1,2-0.7,3-0.7c7.3,0,15.3-0.6,22.7,0c0.4,0,1.4-0.4,1.2,0.5
				c0.2,1.1-1.2,0.5-1.8,0.7c-2,0.2-4.8,0-6.7,0c0.7,1.7,2.5,3.7,3.5,5.3c0.4,0.4-0.2,0.2-0.4,0.6c3.4,6.6-0.7,13.8-6.6,14.5
				c-7.8,1.1-13.1-6.4-9.8-14.3c0-0.4,0.2-0.4,0.4-0.5C341.6,541.2,347,541.2,352.3,541.2"/>
			<path id="Fill-301" class="st5" d="M357.8,535h0.5c0,2.9-0.2,6.1,0.7,8h-2C358,541.1,357.5,537.6,357.8,535"/>
			<path id="Fill-303" class="st5" d="M343.6,557.3c2.5,2.5,3.6,6.9,3.8,0.4c6.3-2.3,12.4,2.3,18.3,2.3c4.5,0,10.6-4.8,13.5-1.6
				c3.8,4.4-6.6,6.9-12.2,7.6c-3.2,0.4-7-0.4-9.5,0c-0.5,5.7-0.7,11.9-0.7,18h-21c0.9-3-1.8-4.4-2.3-7.3c-1.1-5.1,0.4-11,0.4-16.3
				C335.7,558.2,339.9,557.8,343.6,557.3"/>
			<path id="Fill-305" class="st5" d="M612.8,499.1c-0.2-0.9-4.5-1.3-4.5,0.4c0.2,0,0.2,0.2,0.2,0.2
				C609.4,500.2,613,500.5,612.8,499.1 M612.8,495.3c-0.2-0.9-4.5-1.3-4.5,0.4c0.2,0,0.2,0.2,0.2,0.2
				C609.4,496.4,613,496.7,612.8,495.3 M612.8,491.5c-0.2-0.9-4.5-1.3-4.5,0.4c0.2,0,0.2,0.2,0.2,0.2
				C609.4,492.5,613,492.9,612.8,491.5 M634.3,499.3h12.2v-12.2h-12.2C634.1,490.9,634.3,495.3,634.3,499.3 M619,499.3h12.2v-12.2
				H619C618.8,490.9,619,495.3,619,499.3 M612.8,487.6c-0.2-0.9-4.5-1.3-4.5,0.4c0.2,0,0.2,0.2,0.2,0.2
				C609.4,488.5,613,489.1,612.8,487.6 M612.8,483.8c-0.2-0.9-4.5-1.3-4.5,0.4c0.2,0,0.2,0.2,0.2,0.2
				C609.4,484.7,613,485.3,612.8,483.8 M612.8,480c-0.2-0.9-4.5-1.3-4.5,0.4c0.2,0,0.2,0.2,0.2,0.2C609.4,480.9,613,481.5,612.8,480
				 M612.8,476.2c-0.2-0.9-4.5-1.3-4.5,0.4c0.2,0,0.2,0.2,0.2,0.2C609.4,477.1,613,477.6,612.8,476.2 M634.3,484h12.2v-12.2h-12.2
				C634.1,475.6,634.3,480,634.3,484 M619,484h12.2v-12.2H619C618.8,475.6,619,480,619,484 M612.8,472.4c-0.2-0.9-4.5-1.3-4.5,0.4
				c0.2,0,0.2,0.2,0.2,0.2C609.4,473.3,613,473.8,612.8,472.4 M605.2,458H651v46h-35.3v-36.7h33.6c0.4-2.4,0-5.1,0.2-7.6h-42.9v7.6
				h7.6V504H605v-45.5C605.2,458.2,605.2,458,605.2,458"/>
			<path id="Fill-307" class="st5" d="M612.2,465.5c1.9-0.2,1.9-3.4-0.6-2.9C609.8,463,610.5,465.5,612.2,465.5 M611.4,461.1
				c4.6-0.7,4.8,6.5,0.2,5.9C608.4,466.6,607.9,461.6,611.4,461.1"/>
			<path id="Fill-309" class="st5" d="M618.2,465.5c1.9-0.2,1.9-3.4-0.6-2.9C615.8,463,616.5,465.5,618.2,465.5 M617.4,461.1
				c4.6-0.7,4.8,6.5,0.2,5.9C614.5,466.6,613.9,461.6,617.4,461.1"/>
			<path id="Fill-321" class="st5" d="M350.6,837.5c0.5,0,1.1,0,1.4,0.2c0.4,0.3,0.4,0.8,0.4,1.5h16c1.8,0,4.4-0.3,4.6,0.7
				c0.2,1.5-4.4,1-5,1h-35.7c-1.4,0-5.2,0.3-5.3-0.7c-0.2-1.4,2.8-1,4.4-1h16c0.4-0.2,0-1,0.4-1.4c0.4-0.3,0.9-0.3,1.6-0.3
				C348.3,835.5,351.3,835.5,350.6,837.5"/>
			<path id="Fill-323" class="st5" d="M328.2,844H371v25h-43v-24.5C328.2,844.2,328.2,844,328.2,844"/>
			<path id="Fill-325" class="st5" d="M356.7,872.7c0.4,1,1.4,1.8,2.3,3c0.7,1,2.1,2.1,1.6,3.3c-1.6,0.2-2.5-1.6-3.4-2.8
				c-0.9-1.2-1.8-2.5-2.8-3.5c-3.2,0.5-6.4-0.7-8.9,0c-1.2,0.3-2.1,2.5-3,3.5c-1.1,1.2-1.8,2.8-3.4,2.8c-0.5-1.3,0.9-2.3,1.6-3.3
				c0.9-1,1.8-2,2.5-3h-12.6c-1.2,0-2.8,0.3-3.6-0.5c0-0.3,0-0.7,0.4-0.8c12.6-0.5,27.2-0.3,40.8-0.3c0.7,0,4.8-0.5,4.8,0.8
				c0,1.3-6,0.8-7.6,0.8H356.7z"/>
			<text transform="matrix(1 0 0 1 497 24)" class="st17 st27">Phases</text>
			<text transform="matrix(1 0 0 1 302.84 91)" class="st16 st17 st2">Workshop 1</text>
			<text transform="matrix(1 0 0 1 304.998 109)" class="st17 st28">(techniciens)</text>
			<text transform="matrix(1 0 0 1 306.84 304)" class="st16 st17 st2">Workshop 2</text>
			<text transform="matrix(1 0 0 1 318.5657 328)" class="st17 st28">(techniciens</text>
			<text transform="matrix(1 0 0 1 388.4646 328)" class="st17 st28"> </text>
			<text transform="matrix(1 0 0 1 388.4657 328)" class="st17 st28">,</text>
			<text transform="matrix(1 0 0 1 391.7942 328)" class="st17 st28"> </text>
			<text transform="matrix(1 0 0 1 291.0471 344)" class="st17 st28">a</text>
			<text transform="matrix(1 0 0 1 297.8391 344)" class="st17 st28"> </text>
			<text transform="matrix(1 0 0 1 297.8391 344)" class="st17 st28">r</text>
			<text transform="matrix(1 0 0 1 302.4282 344)" class="st17 st28"> </text>
			<text transform="matrix(1 0 0 1 302.2123 344)" class="st17 st28">chitectes</text>
			<text transform="matrix(1 0 0 1 354.1353 344)" class="st17 st28"> </text>
			<text transform="matrix(1 0 0 1 354.1363 344)" class="st17 st28">,</text>
			<text transform="matrix(1 0 0 1 357.4648 344)" class="st17 st28"> </text>
			<text transform="matrix(1 0 0 1 357.1049 344)" class="st17 st28">étudiants)</text>
			<text transform="matrix(1 0 0 1 311.608 916)" class="st16 st17 st2">Exposition</text>
			<text transform="matrix(1 0 0 1 394.3907 916)" class="st16 st17 st2"> </text>
			<text transform="matrix(1 0 0 1 311.72 938)" class="st16 st17 st2">interactive</text>
			<text transform="matrix(1 0 0 1 290.852 1217)" class="st16 st17 st2">Geste urbain de </text>
			<text transform="matrix(1 0 0 1 300.732 1239)" class="st16 st17 st2">l’Entrée Nord </text>
			<text transform="matrix(1 0 0 1 324.428 1261)" class="st16 st17 st2">ﬁnalisé</text>
			<text transform="matrix(1 0 0 1 347 266)" class="st7 st1 st29">Suggestions</text>
			<text transform="matrix(1 0 0 1 276 639)" class="st7 st1 st29">Suggestions</text>
			<text transform="matrix(1 0 0 1 276 966)" class="st7 st1 st29">Suggestions</text>
			<polyline id="Stroke-341" class="st6" points="630,549 630,1015 502,1015 			"/>
			<polygon id="Fill-343" class="st7" points="512.5,1009 513,1010.5 502.1,1014.5 513,1018.5 512.5,1020 497,1014.5 			"/>
			<text transform="matrix(1 0 0 1 604.398 537)" class="st16 st17 st28">Web App</text>
			<g id="Group-347" transform="translate(547.000000, 256.000000)">
				<text transform="matrix(1 0 0 1 30.016 12.603)" class="st17 st2">P</text>
				<text transform="matrix(1 0 0 1 39.552 12.603)" class="st17 st2"> </text>
				<text transform="matrix(1 0 0 1 38.864 12.603)" class="st17 st2">ublic + Parties</text>
			</g>
			<text transform="matrix(1 0 0 1 586.6294 286)" class="st17 st2">p</text>
			<text transform="matrix(1 0 0 1 597.1414 286)" class="st17 st2"> </text>
			<text transform="matrix(1 0 0 1 597.1414 286)" class="st17 st2">r</text>
			<text transform="matrix(1 0 0 1 603.3145 286)" class="st17 st2"> </text>
			<text transform="matrix(1 0 0 1 603.0266 286)" class="st17 st2">enantes</text>
			<path id="Stroke-353" class="st30" d="M350,764v57"/>
			<polygon id="Fill-355" points="344,809.5 345.6,809 349.5,819.9 353.4,809 355,809.5 349.5,825 			"/>
			<text transform="matrix(1 0 0 1 525 1029)" class="st7 st1 st29">Suggestions</text>
			<text transform="matrix(1 0 0 1 301.336 673)" class="st17 st2">Public + Parties</text>
			<text transform="matrix(1 0 0 1 312.6294 689)" class="st17 st2">p</text>
			<text transform="matrix(1 0 0 1 323.1414 689)" class="st17 st2"> </text>
			<text transform="matrix(1 0 0 1 323.1414 689)" class="st17 st2">r</text>
			<text transform="matrix(1 0 0 1 329.3145 689)" class="st17 st2"> </text>
			<text transform="matrix(1 0 0 1 329.0266 689)" class="st17 st2">enantes</text>
			<g id="Group" transform="translate(309.000000, 697.000000)">
				<path id="Fill-91" d="M54.7,44.1v8.7v20.3c0,2-1.2,3.2-2.8,3c-1.2-0.2-2.3-1.2-2.5-2.5v-2.8V57.5v-0.9h-1.8v0.2v15.8
					c-0.5,1.8-1.6,3-3.2,3c-1.6,0-3.9-2.8-3.9-2.8V63V45c0-0.2,0-0.4-0.2-0.5c-0.2,0.2-0.2,0.4-0.4,0.7c-1.1,2.5-2.3,4.8-3.6,7.5
					c-0.5,1.2-2,1.8-3,1.4c-1.4-0.5-2.1-2-1.4-3.4c1.1-2.5,2.5-5,3.6-7.6c1.4-3,3-6,4.4-9.4c0.7-1.2,1.6-2,3.4-1.8h8.4
					c1.8-0.4,2.7,0.5,3.4,1.8c2.7,5.5,5.2,11.2,8,16.9c0.7,1.4,0.4,2.7-0.9,3.4c-1.2,0.7-2.8,0.2-3.6-1.2c-0.7-1.6-1.4-3.2-2.3-4.6
					C55.7,46.4,55.4,45.4,54.7,44.1C54.8,44.1,54.7,44.1,54.7,44.1"/>
				<path id="Fill-93" d="M33.5,44.7c-0.4-0.5-0.5-1.1-0.7-0.5h0.5L33.5,44.7c-0.7,1.2-1.1,2.7-1.8,3.9c-0.4,0.7-0.5,1.8-0.5,2.5
					c0,0.9,0.4,1.8,0.9,2.5c0.2,0.4-0.5,1.1-0.5,1.1V72c0,1.1-0.5,2.1-1.6,2.7c-0.9,0.5-2,0.4-2.7-0.5c-0.7-0.7-0.9-1.2-0.9-2.3
					v-9.1v-8h-1.8v2V72c0,0.5,0,0.9-0.2,1.4c-0.4,1.2-1.6,2.1-2.8,2c-1.2-0.2-2.1-1.2-2.3-2.7v-2.1V44.7v-0.5h-0.2
					c-0.2,0.2-0.2,0.4-0.4,0.5c-1.1,2.5-2.1,4.8-3.2,7.1c-0.5,1.2-1.4,1.8-2.5,1.4c-1.2-0.4-2-1.6-1.6-3c0.4-0.9,0.7-1.8,1.2-2.7
					c2-4.6,4.1-9.2,6.2-14c0.5-1.4,1.4-2,2.8-2H30c0,0,2.5-0.5,3,0.9c0.9,2,1.8,3.9,2.7,5.9c0.2,0.5,0.2,0.9,0,1.4
					C34.9,41.3,34.2,42.9,33.5,44.7"/>
				<path id="Fill-95" d="M54,29.9c0.7-1.8,1.2-3.4,1.8-5.2c0.5-1.6,1.6-2.1,3.4-2h6.2c3.2-0.5,4.3,0.5,4.4,5.9
					c1.8,3.7,3.2,6.9,5,10.7c2.1,1.8,2.3,4.4,0.5,5.2c-1.2,0.5-2.5,0.2-3-1.2c-1.1-2.5-2.1-4.8-3.2-7.3c-0.2-0.2-0.2-0.4-0.5-0.5
					v1.8v26.3c0,0.5,0,1.2-0.2,1.8c-0.4,1.4-1.4,2.1-3,2c-1.2-0.2-2.1-1.2-2.1-2.7v-7.3v-2.1c0-0.9,0-1.6,0.5-2.5
					c0.5-1.1,0.5-2.3,0-3.4c-2.5-5.7-4.8-11.4-7.3-17.1C56.1,31,55.2,30.3,54,29.9"/>
				<path id="Fill-97" d="M8.5,36c-1.1,2.1-2,4.3-3.2,6.4c-0.2,0.2-0.2,0.5-0.4,0.7c-0.5,1.2-1.8,1.6-3,1.1
					c-1.1-0.5-1.4-1.8-0.9-2.8c1.1-2.3,2.1-4.8,3.4-7.1c1.2-2.7,2.5-5.3,3.9-8c0.5-1.1,1.2-1.6,2.5-1.6h7.8c0.5,0,0.9,0.2,1.1,0.9
					c0.4,1.1,0.7,2,1.2,3c0.2,0.5,0.4,0.7-0.4,0.9c-1.1,0.4-2,1.2-2.5,2.3c-2.8,5.7-5.3,11.4-8.2,16.9c-1.2,3,0.4,5.9,3.7,6.2V55
					v7.6c0,1.2-1.1,2.1-2.1,2.3c-1.2,0.2-2.5-0.5-3-1.8c-0.2-0.5-0.2-1.1-0.2-1.4V37C8.5,36.7,8.5,36.3,8.5,36"/>
				<path id="Fill-99" d="M31.4,23.9c0,3-2.5,5.5-5.5,5.5c-3,0-5.5-2.5-5.5-5.5c0-3,2.5-5.5,5.5-5.5C28.9,18.2,31.4,20.7,31.4,23.9"
					/>
				<path id="Fill-101" d="M63.2,21c-3,0-5.5-2.5-5.5-5.5c0-3,2.5-5.5,5.5-5.5s5.5,2.5,5.5,5.5C68.7,18.7,66.2,21.2,63.2,21"/>
				<path id="Fill-103" d="M42.6,24.2c0-3,2.5-5.5,5.5-5.5c3,0,5.5,2.5,5.5,5.5c0,3-2.5,5.5-5.5,5.5C45.1,29.7,42.6,27.2,42.6,24.2"
					/>
				<path id="Fill-105" d="M45.8,15v0.9c-0.2,0.7-0.4,1.1-1.1,1.4c-1.1,0.5-2.1,1.2-2.8,2.1c-0.7,1.1-1.6,1.1-2.7,0.9
					c-2.7-0.5-4.4-3-4.3-6c0.2-2.7,2.5-4.8,5.2-5c2.7-0.2,5.2,1.8,5.7,4.4V15z"/>
				<path id="Fill-107" d="M31.7,28.1c0.7-1.8,1.4-3.4,2.1-5.2c0.5-1.2,1.4-2,2.8-2h4.4c-0.9,2.7-0.5,5.2,1.4,7.5
					c-2.1,0.4-3,2-3.7,3.7c-0.5,1.2-1.1,2.3-1.6,3.7c-0.7-1.8-1.6-3.4-2.3-5C34.2,29.7,33.3,28.5,31.7,28.1"/>
				<path id="Fill-109" d="M19,18.2c0,2.8-2.3,5-5,5c-2.8,0-5-2.3-5-5c0-2.8,2.3-5,5-5S19,15.3,19,18.2"/>
				<path id="Fill-111" d="M34.6,10.5c-1.6,4.1-1.4,4.8,0.7,8.7c-0.7,0.4-1.6,0.9-2.3,1.4c-0.9-2.1-2.5-3.9-5-4.6
					c-2.5-0.7-4.8,0-6.9,1.6c0.2-0.4,0.2-0.5,0.2-0.7c0.7-1.6,1.6-3.4,2.3-5c0.7-1.4,1.6-2,3.4-1.4c2.3,0,4.3-0.2,6.6-0.2
					C33.7,10.4,34.2,10.5,34.6,10.5"/>
				<path id="Fill-113" d="M52.9,5c3,0,5.3,2.7,5,5.7c0,0.2-0.2,0.4-0.2,0.5c-0.4,0.7-0.9,1.4-1.2,2.1c-0.5,1.1-1.6,1.4-2.7,1.4
					c-2.7,0.4-5.2-1.2-5.7-3.9c-0.5-2.7,1.1-5.2,3.6-5.9H52.9z"/>
				<path id="Fill-115" d="M29.8,9.8C27.1,9.8,25,7.5,25,5c0-2.7,2.1-4.8,4.8-4.8s4.8,2.1,4.8,4.8S32.5,9.8,29.8,9.8"/>
				<path id="Fill-117" d="M56.4,52.5c1.4,2,3,2.7,5.3,2.1V55V64c0,1.8-1.4,3-3.2,2.7c-1.2-0.2-2.1-1.1-2.1-2.5V53V52.5z"/>
				<path id="Fill-119" d="M35.1,54.6c2-0.4,3.4-0.5,5.3-0.7V55v9.6c0,1.6-1.1,2.5-2.7,2.5c-1.4,0-2.8-0.9-2.7-2.8
					c0.2-2.8,0-5.7,0-8.5V54.6z"/>
				<path id="Fill-121" d="M55.7,15.5c0,2,0.7,3.6,1.8,4.8c-0.9,0.5-1.6,0.9-2.5,1.4c-0.5-1.2-1.4-2.5-2.7-3.4
					c-1.2-0.9-2.7-1.4-4.1-1.4c-0.2-1.2,0-1.4,1.1-1.4C51.6,15.3,53.6,15.5,55.7,15.5"/>
				<path id="Fill-123" d="M17.4,52.1v12.4c-1.4-0.2-2.5-1.1-1.8-2.3v-7.8c-0.7-0.2-0.5-0.4-0.5-0.5C15.8,53.2,16.5,52.7,17.4,52.1"
					/>
			</g>
			<g id="Group_1_" transform="translate(591.000000, 296.000000)">
				<path id="Fill-91_1_" d="M54.7,44.1v8.7v20.3c0,2-1.2,3.2-2.8,3c-1.2-0.2-2.3-1.2-2.5-2.5v-2.8V57.5v-0.9h-1.8v0.2v15.8
					c-0.5,1.8-1.6,3-3.2,3c-1.6,0-3.9-2.8-3.9-2.8V63V45c0-0.2,0-0.4-0.2-0.5c-0.2,0.2-0.2,0.4-0.4,0.7c-1.1,2.5-2.3,4.8-3.6,7.5
					c-0.5,1.2-2,1.8-3,1.4c-1.4-0.5-2.1-2-1.4-3.4c1.1-2.5,2.5-5,3.6-7.6c1.4-3,3-6,4.4-9.4c0.7-1.2,1.6-2,3.4-1.8h8.4
					c1.8-0.4,2.7,0.5,3.4,1.8c2.7,5.5,5.2,11.2,8,16.9c0.7,1.4,0.4,2.7-0.9,3.4c-1.2,0.7-2.8,0.2-3.6-1.2c-0.7-1.6-1.4-3.2-2.3-4.6
					C55.7,46.4,55.4,45.4,54.7,44.1C54.8,44.1,54.7,44.1,54.7,44.1"/>
				<path id="Fill-93_1_" d="M33.5,44.7c-0.4-0.5-0.5-1.1-0.7-0.5h0.5L33.5,44.7c-0.7,1.2-1.1,2.7-1.8,3.9c-0.4,0.7-0.5,1.8-0.5,2.5
					c0,0.9,0.4,1.8,0.9,2.5c0.2,0.4-0.5,1.1-0.5,1.1V72c0,1.1-0.5,2.1-1.6,2.7c-0.9,0.5-2,0.4-2.7-0.5c-0.7-0.7-0.9-1.2-0.9-2.3
					v-9.1v-8h-1.8v2V72c0,0.5,0,0.9-0.2,1.4c-0.4,1.2-1.6,2.1-2.8,2c-1.2-0.2-2.1-1.2-2.3-2.7v-2.1V44.7v-0.5h-0.2
					c-0.2,0.2-0.2,0.4-0.4,0.5c-1.1,2.5-2.1,4.8-3.2,7.1c-0.5,1.2-1.4,1.8-2.5,1.4c-1.2-0.4-2-1.6-1.6-3c0.4-0.9,0.7-1.8,1.2-2.7
					c2-4.6,4.1-9.2,6.2-14c0.5-1.4,1.4-2,2.8-2H30c0,0,2.5-0.5,3,0.9c0.9,2,1.8,3.9,2.7,5.9c0.2,0.5,0.2,0.9,0,1.4
					C34.9,41.3,34.2,42.9,33.5,44.7"/>
				<path id="Fill-95_1_" d="M54,29.9c0.7-1.8,1.2-3.4,1.8-5.2c0.5-1.6,1.6-2.1,3.4-2h6.2c3.2-0.5,4.3,0.5,4.4,5.9
					c1.8,3.7,3.2,6.9,5,10.7c2.1,1.8,2.3,4.4,0.5,5.2c-1.2,0.5-2.5,0.2-3-1.2c-1.1-2.5-2.1-4.8-3.2-7.3c-0.2-0.2-0.2-0.4-0.5-0.5
					v1.8v26.3c0,0.5,0,1.2-0.2,1.8c-0.4,1.4-1.4,2.1-3,2c-1.2-0.2-2.1-1.2-2.1-2.7v-7.3v-2.1c0-0.9,0-1.6,0.5-2.5
					c0.5-1.1,0.5-2.3,0-3.4c-2.5-5.7-4.8-11.4-7.3-17.1C56.1,31,55.2,30.3,54,29.9"/>
				<path id="Fill-97_1_" d="M8.5,36c-1.1,2.1-2,4.3-3.2,6.4c-0.2,0.2-0.2,0.5-0.4,0.7c-0.5,1.2-1.8,1.6-3,1.1
					c-1.1-0.5-1.4-1.8-0.9-2.8c1.1-2.3,2.1-4.8,3.4-7.1c1.2-2.7,2.5-5.3,3.9-8c0.5-1.1,1.2-1.6,2.5-1.6h7.8c0.5,0,0.9,0.2,1.1,0.9
					c0.4,1.1,0.7,2,1.2,3c0.2,0.5,0.4,0.7-0.4,0.9c-1.1,0.4-2,1.2-2.5,2.3c-2.8,5.7-5.3,11.4-8.2,16.9c-1.2,3,0.4,5.9,3.7,6.2V55
					v7.6c0,1.2-1.1,2.1-2.1,2.3c-1.2,0.2-2.5-0.5-3-1.8c-0.2-0.5-0.2-1.1-0.2-1.4V37C8.5,36.7,8.5,36.3,8.5,36"/>
				<path id="Fill-99_1_" d="M31.4,23.9c0,3-2.5,5.5-5.5,5.5c-3,0-5.5-2.5-5.5-5.5c0-3,2.5-5.5,5.5-5.5
					C28.9,18.2,31.4,20.7,31.4,23.9"/>
				<path id="Fill-101_1_" d="M63.2,21c-3,0-5.5-2.5-5.5-5.5c0-3,2.5-5.5,5.5-5.5s5.5,2.5,5.5,5.5C68.7,18.7,66.2,21.2,63.2,21"/>
				<path id="Fill-103_1_" d="M42.6,24.2c0-3,2.5-5.5,5.5-5.5c3,0,5.5,2.5,5.5,5.5c0,3-2.5,5.5-5.5,5.5
					C45.1,29.7,42.6,27.2,42.6,24.2"/>
				<path id="Fill-105_1_" d="M45.8,15v0.9c-0.2,0.7-0.4,1.1-1.1,1.4c-1.1,0.5-2.1,1.2-2.8,2.1c-0.7,1.1-1.6,1.1-2.7,0.9
					c-2.7-0.5-4.4-3-4.3-6c0.2-2.7,2.5-4.8,5.2-5c2.7-0.2,5.2,1.8,5.7,4.4V15z"/>
				<path id="Fill-107_1_" d="M31.7,28.1c0.7-1.8,1.4-3.4,2.1-5.2c0.5-1.2,1.4-2,2.8-2h4.4c-0.9,2.7-0.5,5.2,1.4,7.5
					c-2.1,0.4-3,2-3.7,3.7c-0.5,1.2-1.1,2.3-1.6,3.7c-0.7-1.8-1.6-3.4-2.3-5C34.2,29.7,33.3,28.5,31.7,28.1"/>
				<path id="Fill-109_1_" d="M19,18.2c0,2.8-2.3,5-5,5c-2.8,0-5-2.3-5-5c0-2.8,2.3-5,5-5S19,15.3,19,18.2"/>
				<path id="Fill-111_1_" d="M34.6,10.5c-1.6,4.1-1.4,4.8,0.7,8.7c-0.7,0.4-1.6,0.9-2.3,1.4c-0.9-2.1-2.5-3.9-5-4.6
					c-2.5-0.7-4.8,0-6.9,1.6c0.2-0.4,0.2-0.5,0.2-0.7c0.7-1.6,1.6-3.4,2.3-5c0.7-1.4,1.6-2,3.4-1.4c2.3,0,4.3-0.2,6.6-0.2
					C33.7,10.4,34.2,10.5,34.6,10.5"/>
				<path id="Fill-113_1_" d="M52.9,5c3,0,5.3,2.7,5,5.7c0,0.2-0.2,0.4-0.2,0.5c-0.4,0.7-0.9,1.4-1.2,2.1c-0.5,1.1-1.6,1.4-2.7,1.4
					c-2.7,0.4-5.2-1.2-5.7-3.9c-0.5-2.7,1.1-5.2,3.6-5.9H52.9z"/>
				<path id="Fill-115_1_" d="M29.8,9.8C27.1,9.8,25,7.5,25,5c0-2.7,2.1-4.8,4.8-4.8s4.8,2.1,4.8,4.8S32.5,9.8,29.8,9.8"/>
				<path id="Fill-117_1_" d="M56.4,52.5c1.4,2,3,2.7,5.3,2.1V55V64c0,1.8-1.4,3-3.2,2.7c-1.2-0.2-2.1-1.1-2.1-2.5V53V52.5z"/>
				<path id="Fill-119_1_" d="M35.1,54.6c2-0.4,3.4-0.5,5.3-0.7V55v9.6c0,1.6-1.1,2.5-2.7,2.5c-1.4,0-2.8-0.9-2.7-2.8
					c0.2-2.8,0-5.7,0-8.5V54.6z"/>
				<path id="Fill-121_1_" d="M55.7,15.5c0,2,0.7,3.6,1.8,4.8c-0.9,0.5-1.6,0.9-2.5,1.4c-0.5-1.2-1.4-2.5-2.7-3.4
					c-1.2-0.9-2.7-1.4-4.1-1.4c-0.2-1.2,0-1.4,1.1-1.4C51.6,15.3,53.6,15.5,55.7,15.5"/>
				<path id="Fill-123_1_" d="M17.4,52.1v12.4c-1.4-0.2-2.5-1.1-1.8-2.3v-7.8c-0.7-0.2-0.5-0.4-0.5-0.5
					C15.8,53.2,16.5,52.7,17.4,52.1"/>
			</g>
			<text transform="matrix(1 0 0 1 27 703)" class="st0 st1 st2">Le calendrier de l&apos;exposition </text>
			<text transform="matrix(1 0 0 1 27 725)" class="st0 st1 st2">sera bientôt affiché. Vous </text>
			<text transform="matrix(1 0 0 1 27 747)" class="st0 st1 st2">pourrez y laisser votre avis, qui </text>
			<text transform="matrix(1 0 0 1 27 769)" class="st0 st1 st2">sera immédiatement transmis </text>
			<text transform="matrix(1 0 0 1 27 791)" class="st0 st1 st2">au site web.</text>
		</g>
	</g>
</g>
</svg>
